<svg xmlns="http://www.w3.org/2000/svg" xmlns:xlink="http://www.w3.org/1999/xlink" xmlns:lucid="lucid" width="1481.25" height="1046.67"><g transform="translate(20 20)" lucid:page-tab-id="5x5E8Nz2iSXn"><path d="M0 0h1441.25v1006.67H0z" fill="#fff"/><path d="M1.25 8c0-4.42 3.58-8 8-8h1424c4.42 0 8 3.58 8 8v979c0 4.42-3.58 8-8 8H9.25c-4.42 0-8-3.58-8-8z" stroke="#333" fill="#e5e5e5"/><path d="M1.25 8c0-4.42 3.58-8 8-8h1424c4.42 0 8 3.58 8 8v44c0 4.42-3.58 8-8 8H9.25c-4.42 0-8-3.58-8-8z" stroke="#333" fill="#acacac"/><path d="M193.25 32c0-4.42 3.58-8 8-8h1220c4.42 0 8 3.58 8 8v8c0 4.42-3.58 8-8 8h-1220c-4.42 0-8-3.58-8-8z" stroke="#333" fill="#e5e5e5"/><path d="M25.25 24l-12 12 12 12m-12-12h24M73.25 24l12 12-12 12m-12-12h24M133.25 36c-1.4-6.23-2.8-8.15-4.95-9.7-5.36-3.9-12.86-2.72-16.76 2.65-3.9 5.36-2.7 12.86 2.66 16.76 5.36 3.9 12.86 2.72 16.76-2.65" stroke="#333" stroke-width="6" fill="none"/><path d="M136.37 24v12h-12z" stroke="#333" stroke-width="1.5" fill="#333"/><path d="M157.25 36l12-12 12 12h-2.4v12h-6V36h-7.2v12h-6V36z" stroke="#333" fill="#333"/><use xlink:href="#a" transform="matrix(1,0,0,1,199.24999999995998,24) translate(0 15.555555555555555)"/><path d="M0 68c0-4.42 3.58-8 8-8h1425.25c4.42 0 8 3.58 8 8v919c0 4.42-3.58 8-8 8H8c-4.42 0-8-3.58-8-8z" stroke="#333" stroke-width="3" fill="#e5e5e5"/><path d="M0 881c0-3.3 2.7-6 6-6h1429.25c3.3 0 6 2.7 6 6v108c0 3.3-2.7 6-6 6H6c-3.3 0-6-2.7-6-6zM0 66c0-3.3 2.7-6 6-6h1429.25c3.3 0 6 2.7 6 6v108c0 3.3-2.7 6-6 6H6c-3.3 0-6-2.7-6-6z" stroke="#5e5e5e" stroke-width="3" fill="#e5e5e5"/><path d="M490.62 47.98c0-3.3 2.7-6 6-6h448c3.32 0 6 2.7 6 6v144.04c0 3.3-2.68 6-6 6h-448c-3.3 0-6-2.7-6-6z" stroke="#000" stroke-opacity="0" stroke-width="3" fill-opacity="0"/><use xlink:href="#b" transform="matrix(1,0,0,1,495.62499999998,46.97916666666677) translate(75.69986979166694 94.6640624999999)"/><use xlink:href="#c" transform="matrix(1,0,0,1,495.62499999998,46.97916666666677) translate(235.72591145833331 94.6640624999999)"/><path d="M20.1 911c0-3.3 2.7-6 6-6h228c3.32 0 6 2.7 6 6v48c0 3.3-2.68 6-6 6h-228c-3.3 0-6-2.7-6-6z" stroke="#000" stroke-opacity="0" stroke-width="3" fill="#e5e5e5"/><use xlink:href="#d" transform="matrix(1,0,0,1,25.10557797656398,910.0000000000002) translate(17.722222222222257 33.347222222222214)"/><use xlink:href="#e" transform="matrix(1,0,0,1,25.10557797656398,910.0000000000002) translate(168.3086419753086 33.347222222222214)"/><path d="M281.25 869.33c0-3.3 2.7-6 6-6h468c3.3 0 6 2.7 6 6v131.34c0 3.3-2.7 6-6 6h-468c-3.3 0-6-2.7-6-6z" stroke="#000" stroke-opacity="0" stroke-width="3" fill-opacity="0"/><use xlink:href="#f" transform="matrix(1,0,0,1,286.24999999996,868.3333333333336) translate(0 42.27083333333333)"/><use xlink:href="#g" transform="matrix(1,0,0,1,286.24999999996,868.3333333333336) translate(78.44444444444443 42.27083333333333)"/><use xlink:href="#h" transform="matrix(1,0,0,1,286.24999999996,868.3333333333336) translate(198.22222222222217 42.27083333333333)"/><use xlink:href="#i" transform="matrix(1,0,0,1,286.24999999996,868.3333333333336) translate(289.92592592592587 42.27083333333333)"/><use xlink:href="#j" transform="matrix(1,0,0,1,286.24999999996,868.3333333333336) translate(0 74.27083333333333)"/><use xlink:href="#k" transform="matrix(1,0,0,1,286.24999999996,868.3333333333336) translate(125.85185185185182 74.27083333333333)"/><use xlink:href="#l" transform="matrix(1,0,0,1,286.24999999996,868.3333333333336) translate(202.7407407407407 74.27083333333333)"/><use xlink:href="#m" transform="matrix(1,0,0,1,286.24999999996,868.3333333333336) translate(0 106.27083333333333)"/><use xlink:href="#n" transform="matrix(1,0,0,1,286.24999999996,868.3333333333336) translate(65.18518518518518 106.27083333333333)"/><use xlink:href="#o" transform="matrix(1,0,0,1,286.24999999996,868.3333333333336) translate(140.59259259259258 106.27083333333333)"/><path d="M981.03 946c0-3.3 2.7-6 6-6h448.22c3.3 0 6 2.7 6 6v51.33c0 3.32-2.7 6-6 6H987.03c-3.3 0-6-2.68-6-6z" stroke="#000" stroke-opacity="0" stroke-width="3" fill-opacity="0"/><use xlink:href="#p" transform="matrix(1,0,0,1,986.0296143250289,945.0000000000001) translate(13.956790123456756 31.27777777777778)"/><use xlink:href="#q" transform="matrix(1,0,0,1,986.0296143250289,945.0000000000001) translate(126.2407407407407 31.27777777777778)"/><use xlink:href="#r" transform="matrix(1,0,0,1,986.0296143250289,945.0000000000001) translate(187.90740740740736 31.27777777777778)"/><use xlink:href="#s" transform="matrix(1,0,0,1,986.0296143250289,945.0000000000001) translate(219.9444444444444 31.27777777777778)"/><use xlink:href="#t" transform="matrix(1,0,0,1,986.0296143250289,945.0000000000001) translate(339.5740740740741 31.27777777777778)"/><path d="M276.76 232.4c0-3.3 2.7-6 6-6h875.73c3.3 0 6 2.7 6 6v590.2c0 3.3-2.7 6-6 6H282.75c-3.3 0-6-2.7-6-6z" stroke="#5e5e5e" stroke-width="3" fill="#fff"/><path d="M1430.58 218.02c0 11.05-8.95 20-20 20-11.04 0-20-8.95-20-20 0-11.04 8.96-20 20-20 11.05 0 20 8.96 20 20z" stroke="#5e5e5e" stroke-width="3" fill="#e5e5e5"/><path d="M1404.58 212.02c0-3.3 2.7-6 6-6 3.32 0 6 2.7 6 6 0 1.66-.58 3.07-1.75 4.24-4.25 4.24-4.25 4.24-4.25 7.76m0 4v6" stroke="#5e5e5e" stroke-width="6" fill="none"/><path d="M990.3 926.45c0-3.3 2.7-6 6-6h76.95c3.3 0 6 2.7 6 6v17.1c0 3.3-2.7 6-6 6H996.3c-3.3 0-6-2.7-6-6z" stroke="#000" stroke-opacity="0" stroke-width="3" fill="#e5e5e5"/><use xlink:href="#u" transform="matrix(1,0,0,1,995.3094792389428,925.4496973158532) translate(4.407407407407405 17.77777777777778)"/><path d="M600.62 244.02c0-3.3 2.7-6 6-6h228c3.32 0 6 2.7 6 6v48c0 3.3-2.68 6-6 6h-228c-3.3 0-6-2.7-6-6z" stroke="#000" stroke-opacity="0" stroke-width="3" fill="#fff" fill-opacity="0"/><use xlink:href="#v" transform="matrix(1,0,0,1,605.62499999998,243.0208333333332) translate(53.913580246913604 31.569444444444436)"/><path d="M559.22 374h324M559.24 374h-1.02M883.2 374h1.02M559.5 394h324M559.5 394h-1M883.46 394h1.03M558.7 413.47h324M558.73 413.47h-1.03M882.68 413.47h1.02M558.97 433.47h324M559 433.47h-1.03M882.94 433.47h1.03M558.28 452.32h324M558.3 452.32h-1.02M882.26 452.32h1.02M558.55 472.32h324M558.57 472.32h-1.02M882.52 472.32h1.03M557.76 491.8h324M557.8 491.8h-1.04M881.74 491.8h1.02M558.03 511.8h324M558.06 511.8h-1.03M882 511.8h1.03M559.22 560h324M559.24 560h-1.02M883.2 560h1.02M559.5 580h324M559.5 580h-1M883.46 580h1.03M558.7 599.47h324M558.73 599.47h-1.03M882.68 599.47h1.02M558.97 619.47h324M559 619.47h-1.03M882.94 619.47h1.03M558.28 638.3h324M558.3 638.3h-1.02M882.26 638.3h1.02M558.55 658.3h324M558.57 658.3h-1.02M882.52 658.3h1.03M557.76 677.78h324M557.8 677.78h-1.04M881.74 677.78h1.02M558.03 697.78h324M558.06 697.78h-1.03M882 697.78h1.03" stroke="#5e5e5e" stroke-width="2" fill="none"/><defs><path fill="#333" d="M106-169C34-169 62-67 57 0H25v-261h32l-1 103c12-21 28-36 61-36 89 0 53 116 60 194h-32v-121c2-32-8-49-39-48" id="w"/><path fill="#333" d="M59-47c-2 24 18 29 38 22v24C64 9 27 4 27-40v-127H5v-23h24l9-43h21v43h35v23H59v120" id="x"/><path fill="#333" d="M115-194c55 1 70 41 70 98S169 2 115 4C84 4 66-9 55-30l1 105H24l-1-265h31l2 30c10-21 28-34 59-34zm-8 174c40 0 45-34 45-75s-6-73-45-74c-42 0-51 32-51 76 0 43 10 73 51 73" id="y"/><path fill="#333" d="M135-143c-3-34-86-38-87 0 15 53 115 12 119 90S17 21 10-45l28-5c4 36 97 45 98 0-10-56-113-15-118-90-4-57 82-63 122-42 12 7 21 19 24 35" id="z"/><path fill="#333" d="M33-154v-36h34v36H33zM33 0v-36h34V0H33" id="A"/><path fill="#333" d="M0 4l72-265h28L28 4H0" id="B"/><path fill="#333" d="M100-194c62-1 85 37 85 99 1 63-27 99-86 99S16-35 15-95c0-66 28-99 85-99zM99-20c44 1 53-31 53-75 0-43-8-75-51-75s-53 32-53 75 10 74 51 75" id="C"/><path fill="#333" d="M206 0h-36l-40-164L89 0H53L-1-190h32L70-26l43-164h34l41 164 42-164h31" id="D"/><path fill="#333" d="M24 0v-261h32V0H24" id="E"/><path fill="#333" d="M33 0v-38h34V0H33" id="F"/><path fill="#333" d="M96-169c-40 0-48 33-48 73s9 75 48 75c24 0 41-14 43-38l32 2c-6 37-31 61-74 61-59 0-76-41-82-99-10-93 101-131 147-64 4 7 5 14 7 22l-32 3c-4-21-16-35-41-35" id="G"/><path fill="#333" d="M210-169c-67 3-38 105-44 169h-31v-121c0-29-5-50-35-48C34-165 62-65 56 0H25l-1-190h30c1 10-1 24 2 32 10-44 99-50 107 0 11-21 27-35 58-36 85-2 47 119 55 194h-31v-121c0-29-5-49-35-48" id="H"/><path fill="#333" d="M100-194c63 0 86 42 84 106H49c0 40 14 67 53 68 26 1 43-12 49-29l28 8c-11 28-37 45-77 45C44 4 14-33 15-96c1-61 26-98 85-98zm52 81c6-60-76-77-97-28-3 7-6 17-6 28h103" id="I"/><path fill="#333" d="M141-36C126-15 110 5 73 4 37 3 15-17 15-53c-1-64 63-63 125-63 3-35-9-54-41-54-24 1-41 7-42 31l-33-3c5-37 33-52 76-52 45 0 72 20 72 64v82c-1 20 7 32 28 27v20c-31 9-61-2-59-35zM48-53c0 20 12 33 32 33 41-3 63-29 60-74-43 2-92-5-92 41" id="J"/><path fill="#333" d="M177-190C167-65 218 103 67 71c-23-6-38-20-44-43l32-5c15 47 100 32 89-28v-30C133-14 115 1 83 1 29 1 15-40 15-95c0-56 16-97 71-98 29-1 48 16 59 35 1-10 0-23 2-32h30zM94-22c36 0 50-32 50-73 0-42-14-75-50-75-39 0-46 34-46 75s6 73 46 73" id="K"/><g id="a"><use transform="matrix(0.04938271604938272,0,0,0.04938271604938272,0,0)" xlink:href="#w"/><use transform="matrix(0.04938271604938272,0,0,0.04938271604938272,9.876543209876544,0)" xlink:href="#x"/><use transform="matrix(0.04938271604938272,0,0,0.04938271604938272,14.814814814814817,0)" xlink:href="#x"/><use transform="matrix(0.04938271604938272,0,0,0.04938271604938272,19.75308641975309,0)" xlink:href="#y"/><use transform="matrix(0.04938271604938272,0,0,0.04938271604938272,29.629629629629633,0)" xlink:href="#z"/><use transform="matrix(0.04938271604938272,0,0,0.04938271604938272,38.51851851851852,0)" xlink:href="#A"/><use transform="matrix(0.04938271604938272,0,0,0.04938271604938272,43.45679012345679,0)" xlink:href="#B"/><use transform="matrix(0.04938271604938272,0,0,0.04938271604938272,48.39506172839506,0)" xlink:href="#B"/><use transform="matrix(0.04938271604938272,0,0,0.04938271604938272,53.333333333333336,0)" xlink:href="#w"/><use transform="matrix(0.04938271604938272,0,0,0.04938271604938272,63.20987654320988,0)" xlink:href="#C"/><use transform="matrix(0.04938271604938272,0,0,0.04938271604938272,73.08641975308643,0)" xlink:href="#C"/><use transform="matrix(0.04938271604938272,0,0,0.04938271604938272,82.96296296296298,0)" xlink:href="#x"/><use transform="matrix(0.04938271604938272,0,0,0.04938271604938272,87.90123456790124,0)" xlink:href="#C"/><use transform="matrix(0.04938271604938272,0,0,0.04938271604938272,97.77777777777779,0)" xlink:href="#D"/><use transform="matrix(0.04938271604938272,0,0,0.04938271604938272,110.56790123456791,0)" xlink:href="#E"/><use transform="matrix(0.04938271604938272,0,0,0.04938271604938272,114.46913580246914,0)" xlink:href="#w"/><use transform="matrix(0.04938271604938272,0,0,0.04938271604938272,124.34567901234568,0)" xlink:href="#C"/><use transform="matrix(0.04938271604938272,0,0,0.04938271604938272,134.22222222222223,0)" xlink:href="#C"/><use transform="matrix(0.04938271604938272,0,0,0.04938271604938272,144.0987654320988,0)" xlink:href="#x"/><use transform="matrix(0.04938271604938272,0,0,0.04938271604938272,149.03703703703707,0)" xlink:href="#F"/><use transform="matrix(0.04938271604938272,0,0,0.04938271604938272,153.97530864197535,0)" xlink:href="#G"/><use transform="matrix(0.04938271604938272,0,0,0.04938271604938272,162.86419753086423,0)" xlink:href="#C"/><use transform="matrix(0.04938271604938272,0,0,0.04938271604938272,172.74074074074076,0)" xlink:href="#H"/><use transform="matrix(0.04938271604938272,0,0,0.04938271604938272,187.5061728395062,0)" xlink:href="#B"/><use transform="matrix(0.04938271604938272,0,0,0.04938271604938272,192.44444444444449,0)" xlink:href="#w"/><use transform="matrix(0.04938271604938272,0,0,0.04938271604938272,202.32098765432102,0)" xlink:href="#C"/><use transform="matrix(0.04938271604938272,0,0,0.04938271604938272,212.1975308641976,0)" xlink:href="#H"/><use transform="matrix(0.04938271604938272,0,0,0.04938271604938272,226.96296296296302,0)" xlink:href="#I"/><use transform="matrix(0.04938271604938272,0,0,0.04938271604938272,236.83950617283958,0)" xlink:href="#y"/><use transform="matrix(0.04938271604938272,0,0,0.04938271604938272,246.7160493827161,0)" xlink:href="#J"/><use transform="matrix(0.04938271604938272,0,0,0.04938271604938272,256.59259259259267,0)" xlink:href="#K"/><use transform="matrix(0.04938271604938272,0,0,0.04938271604938272,266.4691358024692,0)" xlink:href="#I"/></g><path fill="#333" d="M556 34C231 34 49-249 49-592c0-191 40-364 117-519 96-192 229-288 401-288 166 0 296 85 389 257 76 141 114 302 114 483 0 350-186 693-514 693zm26-191c187 0 294-288 290-498-5-256-85-517-292-552-260 24-344 306-344 605 0 297 115 445 346 445" id="L"/><path fill="#333" d="M1384-1399c50 0 97 43 97 93 0 85-85 485-254 1202-21 92-58 138-111 138-85 0-129-152-159-261-41-146-109-363-192-655-64 339-132 605-192 802-16 51-74 116-122 116-35 0-63-20-82-60-11-23-28-96-50-220-44-249-136-603-275-1062 67-90 135-134 178-23 110 283 185 606 252 904 81-333 124-549 154-811 9-76 36-163 108-163 70 0 120 70 151 211 48 219 120 480 216 785 34-171 115-553 172-822 12-59 17-97 24-113 17-41 45-61 85-61" id="M"/><path fill="#333" d="M271-154c141 3 362-7 506-8 91 0 136 33 136 99 0 60-38 90-114 90-169 0-530 29-647-12-46-16-67-116-67-288 0-188-19-816-17-1004 0-81 33-122 98-122 66 0 99 54 99 162 0 269 12 805 6 1083" id="N"/><path fill="#333" d="M357-1133c2 80-127 120-168 42-36-68-65-151-76-252 47-37 85-56 112-56s46 15 58 44c-2-11 78 230 74 222" id="O"/><path fill="#333" d="M463-1210c-81-4-187 79-187 162 0 57 51 120 156 186 205 129 497 194 503 500 4 222-181 399-403 396-241-4-420-153-483-346-34-103 123-178 173-82 41 79 71 144 156 186 53 26 103 41 154 41 123 2 206-79 204-202 0-47-23-91-70-129-22-18-67-44-134-79-133-71-230-132-291-184-107-90-161-185-161-285 0-186 188-353 372-353 190 0 353 136 393 293-64 72-115 109-173 27-60-84-96-125-209-131" id="P"/><g id="b"><use transform="matrix(0.03255208333333327,0,0,0.03255208333333327,0,0)" xlink:href="#L"/><use transform="matrix(0.03255208333333327,0,0,0.03255208333333327,33.23567708333327,0)" xlink:href="#M"/><use transform="matrix(0.03255208333333327,0,0,0.03255208333333327,83.07291666666652,0)" xlink:href="#N"/><use transform="matrix(0.03255208333333327,0,0,0.03255208333333327,96.87499999999983,0)" xlink:href="#O"/><use transform="matrix(0.03255208333333327,0,0,0.03255208333333327,112.43489583333313,0)" xlink:href="#P"/></g><path fill="#333" d="M55-1294c-14-53 255-105 315-105 180 0 329 25 446 75 163 70 244 183 244 338S940-702 700-601c50 84 169 271 237 374 55 83 80 139 80 166 0 50-49 95-99 93-102-5-209-244-266-337-31-51-76-127-137-229-67 18-133 27-199 27v394c0 98-33 147-98 147-48 0-88-38-88-87 3-451 6-580 5-1131h5c-57-40-85-77-85-110zm812 302c0-86-64-148-193-186-93-27-223-39-355-34-2 104-3 274-3 511 109-9 219-35 329-79 148-59 222-130 222-212" id="Q"/><path fill="#333" d="M794-1306c0-54 38-93 92-93 49 0 82 27 99 83 17 57 17 201 17 287C1002-322 828 32 480 32 200 32 60-211 60-698c0-115 34-587 36-647 42-31 79-46 112-46 39 0 58 22 58 65 2 121-17 521-17 642 0 348 75 522 225 522 217 0 326-263 326-789 1-67-6-288-6-355" id="R"/><path fill="#333" d="M256-800c144 11 449-26 601-24-2-186-9-360 10-529 79-63 176-79 176 66 0 224-6 970-5 1193 0 85-31 128-94 128-25 0-47-9-65-26s-27-227-27-631c-320 13-399 22-593 14 1 150-2 388-3 513 0 87-32 130-96 130-50 0-90-39-90-89v-1290c52-32 94-48 125-48 41 0 61 22 61 65v528" id="S"/><g id="c"><use transform="matrix(0.03255208333333327,0,0,0.03255208333333327,0,0)" xlink:href="#Q"/><use transform="matrix(0.03255208333333327,0,0,0.03255208333333327,36.165364583333265,0)" xlink:href="#R"/><use transform="matrix(0.03255208333333327,0,0,0.03255208333333327,70.5403645833332,0)" xlink:href="#P"/><use transform="matrix(0.03255208333333327,0,0,0.03255208333333327,102.31119791666647,0)" xlink:href="#S"/></g><path fill="#333" d="M67-125c0 53 21 87 73 88 37 1 54-22 65-47l45 17C233-25 199 4 140 4 58 4 20-42 15-125 8-235 124-281 211-232c18 10 29 29 36 50l-46 12c-8-25-30-41-62-41-52 0-71 34-72 86" id="T"/><path fill="#333" d="M110-194c64 0 96 36 96 99 0 64-35 99-97 99-61 0-95-36-95-99 0-62 34-99 96-99zm-1 164c35 0 45-28 45-65 0-40-10-65-43-65-34 0-45 26-45 65 0 36 10 65 43 65" id="U"/><path fill="#333" d="M135-194c87-1 58 113 63 194h-50c-7-57 23-157-34-157-59 0-34 97-39 157H25l-1-190h47c2 12-1 28 3 38 12-26 28-41 61-42" id="V"/><path fill="#333" d="M115-3C79 11 28 4 28-45v-112H4v-33h27l15-45h31v45h36v33H77v99c-1 23 16 31 38 25v30" id="W"/><path fill="#333" d="M133-34C117-15 103 5 69 4 32 3 11-16 11-54c-1-60 55-63 116-61 1-26-3-47-28-47-18 1-26 9-28 27l-52-2c7-38 36-58 82-57s74 22 75 68l1 82c-1 14 12 18 25 15v27c-30 8-71 5-69-32zm-48 3c29 0 43-24 42-57-32 0-66-3-65 30 0 17 8 27 23 27" id="X"/><path fill="#333" d="M190-63c-7 42-38 67-86 67-59 0-84-38-90-98-12-110 154-137 174-36l-49 2c-2-19-15-32-35-32-30 0-35 28-38 64-6 74 65 87 74 30" id="Y"/><g id="d"><use transform="matrix(0.10493827160493824,0,0,0.10493827160493824,0,0)" xlink:href="#T"/><use transform="matrix(0.10493827160493824,0,0,0.10493827160493824,27.179012345679002,0)" xlink:href="#U"/><use transform="matrix(0.10493827160493824,0,0,0.10493827160493824,50.16049382716048,0)" xlink:href="#V"/><use transform="matrix(0.10493827160493824,0,0,0.10493827160493824,73.14197530864195,0)" xlink:href="#W"/><use transform="matrix(0.10493827160493824,0,0,0.10493827160493824,85.62962962962959,0)" xlink:href="#X"/><use transform="matrix(0.10493827160493824,0,0,0.10493827160493824,106.61728395061724,0)" xlink:href="#Y"/><use transform="matrix(0.10493827160493824,0,0,0.10493827160493824,127.60493827160488,0)" xlink:href="#W"/></g><path fill="#333" d="M85 4C-2 5 27-109 22-190h50c7 57-23 150 33 157 60-5 35-97 40-157h50l1 190h-47c-2-12 1-28-3-38-12 25-28 42-61 42" id="Z"/><path fill="#333" d="M137-138c1-29-70-34-71-4 15 46 118 7 119 86 1 83-164 76-172 9l43-7c4 19 20 25 44 25 33 8 57-30 24-41C81-84 22-81 20-136c-2-80 154-74 161-7" id="aa"/><g id="e"><use transform="matrix(0.10493827160493824,0,0,0.10493827160493824,0,0)" xlink:href="#Z"/><use transform="matrix(0.10493827160493824,0,0,0.10493827160493824,22.981481481481474,0)" xlink:href="#aa"/></g><path fill="#333" d="M160-131c35 5 61 23 61 61C221 17 115-2 30 0v-248c76 3 177-17 177 60 0 33-19 50-47 57zm-97-11c50-1 110 9 110-42 0-47-63-36-110-37v79zm0 115c55-2 124 14 124-45 0-56-70-42-124-44v89" id="ab"/><path fill="#333" d="M114-163C36-179 61-72 57 0H25l-1-190h30c1 12-1 29 2 39 6-27 23-49 58-41v29" id="ac"/><path fill="#333" d="M84 4C-5 8 30-112 23-190h32v120c0 31 7 50 39 49 72-2 45-101 50-169h31l1 190h-30c-1-10 1-25-2-33-11 22-28 36-60 37" id="ad"/><path fill="#333" d="M117-194c89-4 53 116 60 194h-32v-121c0-31-8-49-39-48C34-167 62-67 57 0H25l-1-190h30c1 10-1 24 2 32 11-22 29-35 61-36" id="ae"/><g id="f"><use transform="matrix(0.07407407407407407,0,0,0.07407407407407407,0,0)" xlink:href="#ab"/><use transform="matrix(0.07407407407407407,0,0,0.07407407407407407,17.77777777777778,0)" xlink:href="#ac"/><use transform="matrix(0.07407407407407407,0,0,0.07407407407407407,26.592592592592595,0)" xlink:href="#ad"/><use transform="matrix(0.07407407407407407,0,0,0.07407407407407407,41.407407407407405,0)" xlink:href="#ae"/><use transform="matrix(0.07407407407407407,0,0,0.07407407407407407,56.22222222222221,0)" xlink:href="#C"/></g><path fill="#333" d="M205 0l-28-72H64L36 0H1l101-248h38L239 0h-34zm-38-99l-47-123c-12 45-31 82-46 123h93" id="af"/><path fill="#333" d="M24-231v-30h32v30H24zM-9 49c24 4 33-6 33-30v-209h32V24c2 40-23 58-65 49V49" id="ag"/><path fill="#333" d="M85-194c31 0 48 13 60 33l-1-100h32l1 261h-30c-2-10 0-23-3-31C134-8 116 4 85 4 32 4 16-35 15-94c0-66 23-100 70-100zm9 24c-40 0-46 34-46 75 0 40 6 74 45 74 42 0 51-32 51-76 0-42-9-74-50-73" id="ah"/><g id="g"><use transform="matrix(0.07407407407407407,0,0,0.07407407407407407,0,0)" xlink:href="#af"/><use transform="matrix(0.07407407407407407,0,0,0.07407407407407407,17.77777777777778,0)" xlink:href="#E"/><use transform="matrix(0.07407407407407407,0,0,0.07407407407407407,23.62962962962963,0)" xlink:href="#I"/><use transform="matrix(0.07407407407407407,0,0,0.07407407407407407,38.44444444444444,0)" xlink:href="#ag"/><use transform="matrix(0.07407407407407407,0,0,0.07407407407407407,44.29629629629629,0)" xlink:href="#J"/><use transform="matrix(0.07407407407407407,0,0,0.07407407407407407,59.1111111111111,0)" xlink:href="#ae"/><use transform="matrix(0.07407407407407407,0,0,0.07407407407407407,73.92592592592591,0)" xlink:href="#ah"/><use transform="matrix(0.07407407407407407,0,0,0.07407407407407407,88.74074074074072,0)" xlink:href="#ac"/><use transform="matrix(0.07407407407407407,0,0,0.07407407407407407,97.55555555555553,0)" xlink:href="#C"/></g><path fill="#333" d="M212-179c-10-28-35-45-73-45-59 0-87 40-87 99 0 60 29 101 89 101 43 0 62-24 78-52l27 14C228-24 195 4 139 4 59 4 22-46 18-125c-6-104 99-153 187-111 19 9 31 26 39 46" id="ai"/><g id="h"><use transform="matrix(0.07407407407407407,0,0,0.07407407407407407,0,0)" xlink:href="#ai"/><use transform="matrix(0.07407407407407407,0,0,0.07407407407407407,19.185185185185183,0)" xlink:href="#C"/><use transform="matrix(0.07407407407407407,0,0,0.07407407407407407,34,0)" xlink:href="#ae"/><use transform="matrix(0.07407407407407407,0,0,0.07407407407407407,48.81481481481481,0)" xlink:href="#I"/><use transform="matrix(0.07407407407407407,0,0,0.07407407407407407,63.62962962962962,0)" xlink:href="#ag"/><use transform="matrix(0.07407407407407407,0,0,0.07407407407407407,69.48148148148147,0)" xlink:href="#C"/></g><path fill="#333" d="M185-189c-5-48-123-54-124 2 14 75 158 14 163 119 3 78-121 87-175 55-17-10-28-26-33-46l33-7c5 56 141 63 141-1 0-78-155-14-162-118-5-82 145-84 179-34 5 7 8 16 11 25" id="aj"/><g id="i"><use transform="matrix(0.07407407407407407,0,0,0.07407407407407407,0,0)" xlink:href="#aj"/><use transform="matrix(0.07407407407407407,0,0,0.07407407407407407,17.77777777777778,0)" xlink:href="#C"/><use transform="matrix(0.07407407407407407,0,0,0.07407407407407407,32.592592592592595,0)" xlink:href="#x"/><use transform="matrix(0.07407407407407407,0,0,0.07407407407407407,40,0)" xlink:href="#C"/></g><path fill="#333" d="M115-194c53 0 69 39 70 98 0 66-23 100-70 100C84 3 66-7 56-30L54 0H23l1-261h32v101c10-23 28-34 59-34zm-8 174c40 0 45-34 45-75 0-40-5-75-45-74-42 0-51 32-51 76 0 43 10 73 51 73" id="ak"/><path fill="#333" d="M24-231v-30h32v30H24zM24 0v-190h32V0H24" id="al"/><path fill="#333" d="M141-36C126-15 110 5 73 4 37 3 15-17 15-53c-1-64 63-63 125-63 3-35-9-54-41-54-24 1-41 7-42 31l-33-3c5-37 33-52 76-52 45 0 72 20 72 64v82c-1 20 7 32 28 27v20c-31 9-61-2-59-35zM48-53c0 20 12 33 32 33 41-3 63-29 60-74-43 2-92-5-92 41zm25-158c8-23 27-35 38-54h36v5l-58 49H73" id="am"/><g id="j"><use transform="matrix(0.07407407407407407,0,0,0.07407407407407407,0,0)" xlink:href="#aj"/><use transform="matrix(0.07407407407407407,0,0,0.07407407407407407,17.77777777777778,0)" xlink:href="#I"/><use transform="matrix(0.07407407407407407,0,0,0.07407407407407407,32.592592592592595,0)" xlink:href="#ak"/><use transform="matrix(0.07407407407407407,0,0,0.07407407407407407,47.407407407407405,0)" xlink:href="#J"/><use transform="matrix(0.07407407407407407,0,0,0.07407407407407407,62.22222222222221,0)" xlink:href="#z"/><use transform="matrix(0.07407407407407407,0,0,0.07407407407407407,75.55555555555554,0)" xlink:href="#x"/><use transform="matrix(0.07407407407407407,0,0,0.07407407407407407,82.96296296296295,0)" xlink:href="#al"/><use transform="matrix(0.07407407407407407,0,0,0.07407407407407407,88.8148148148148,0)" xlink:href="#am"/><use transform="matrix(0.07407407407407407,0,0,0.07407407407407407,103.6296296296296,0)" xlink:href="#ae"/></g><path fill="#333" d="M101-234c-31-9-42 10-38 44h38v23H63V0H32v-167H5v-23h27c-7-52 17-82 69-68v24" id="an"/><g id="k"><use transform="matrix(0.07407407407407407,0,0,0.07407407407407407,0,0)" xlink:href="#af"/><use transform="matrix(0.07407407407407407,0,0,0.07407407407407407,17.77777777777778,0)" xlink:href="#E"/><use transform="matrix(0.07407407407407407,0,0,0.07407407407407407,23.62962962962963,0)" xlink:href="#an"/><use transform="matrix(0.07407407407407407,0,0,0.07407407407407407,31.037037037037038,0)" xlink:href="#J"/><use transform="matrix(0.07407407407407407,0,0,0.07407407407407407,45.85185185185185,0)" xlink:href="#ac"/><use transform="matrix(0.07407407407407407,0,0,0.07407407407407407,54.666666666666664,0)" xlink:href="#C"/></g><path fill="#333" d="M30 0v-248h33v221h125V0H30" id="ao"/><path fill="#333" d="M100-194c62-1 85 37 85 99 1 63-27 99-86 99S16-35 15-95c0-66 28-99 85-99zM99-20c44 1 53-31 53-75 0-43-8-75-51-75s-53 32-53 75 10 74 51 75zM76-211c8-23 27-35 38-54h36v5l-58 49H76" id="ap"/><g id="l"><use transform="matrix(0.07407407407407407,0,0,0.07407407407407407,0,0)" xlink:href="#ao"/><use transform="matrix(0.07407407407407407,0,0,0.07407407407407407,14.814814814814813,0)" xlink:href="#I"/><use transform="matrix(0.07407407407407407,0,0,0.07407407407407407,29.629629629629626,0)" xlink:href="#ap"/><use transform="matrix(0.07407407407407407,0,0,0.07407407407407407,44.44444444444444,0)" xlink:href="#ae"/></g><path fill="#333" d="M153-248C145-148 188 4 80 4 36 3 13-21 6-62l32-5c4 25 16 42 43 43 27 0 39-20 39-49v-147H72v-28h81" id="aq"/><g id="m"><use transform="matrix(0.07407407407407407,0,0,0.07407407407407407,0,0)" xlink:href="#aq"/><use transform="matrix(0.07407407407407407,0,0,0.07407407407407407,13.333333333333332,0)" xlink:href="#ad"/><use transform="matrix(0.07407407407407407,0,0,0.07407407407407407,28.148148148148145,0)" xlink:href="#J"/><use transform="matrix(0.07407407407407407,0,0,0.07407407407407407,42.96296296296296,0)" xlink:href="#ae"/></g><path fill="#333" d="M143 4C61 4 22-44 18-125c-5-107 100-154 193-111 17 8 29 25 37 43l-32 9c-13-25-37-40-76-40-61 0-88 39-88 99 0 61 29 100 91 101 35 0 62-11 79-27v-45h-74v-28h105v86C228-13 192 4 143 4" id="ar"/><g id="n"><use transform="matrix(0.07407407407407407,0,0,0.07407407407407407,0,0)" xlink:href="#ar"/><use transform="matrix(0.07407407407407407,0,0,0.07407407407407407,20.74074074074074,0)" xlink:href="#J"/><use transform="matrix(0.07407407407407407,0,0,0.07407407407407407,35.55555555555556,0)" xlink:href="#ac"/><use transform="matrix(0.07407407407407407,0,0,0.07407407407407407,44.370370370370374,0)" xlink:href="#ac"/><use transform="matrix(0.07407407407407407,0,0,0.07407407407407407,53.18518518518519,0)" xlink:href="#C"/></g><path fill="#333" d="M190 0L58-211 59 0H30v-248h39L202-35l-2-213h31V0h-41" id="as"/><path fill="#333" d="M85 4C-4 8 31-112 24-190h32v120c0 31 7 50 39 49 72-2 45-101 50-169h31l1 190h-30c-1-10 1-25-2-33-11 22-28 36-60 37zM73-211c8-23 27-35 38-54h36v5l-58 49H73" id="at"/><path fill="#333" d="M118-194c89-4 53 116 60 194h-32v-121c0-31-8-49-39-48C35-167 63-67 58 0H26l-1-190h30c1 10-1 24 2 32 11-22 29-35 61-36zm47-64c-3 23-9 48-36 47-26-1-65-44-74 0H39c4-23 8-48 36-47s64 44 74 0h16" id="au"/><path fill="#333" d="M9 0v-24l116-142H16v-24h144v24L44-24h123V0H9" id="av"/><g id="o"><use transform="matrix(0.07407407407407407,0,0,0.07407407407407407,0,0)" xlink:href="#as"/><use transform="matrix(0.07407407407407407,0,0,0.07407407407407407,19.185185185185183,0)" xlink:href="#at"/><use transform="matrix(0.07407407407407407,0,0,0.07407407407407407,34,0)" xlink:href="#au"/><use transform="matrix(0.07407407407407407,0,0,0.07407407407407407,48.81481481481481,0)" xlink:href="#I"/><use transform="matrix(0.07407407407407407,0,0,0.07407407407407407,63.62962962962962,0)" xlink:href="#av"/></g><g id="p"><use transform="matrix(0.06172839506172839,0,0,0.06172839506172839,0,0)" xlink:href="#af"/><use transform="matrix(0.06172839506172839,0,0,0.06172839506172839,14.814814814814813,0)" xlink:href="#ah"/><use transform="matrix(0.06172839506172839,0,0,0.06172839506172839,27.160493827160494,0)" xlink:href="#J"/><use transform="matrix(0.06172839506172839,0,0,0.06172839506172839,39.50617283950617,0)" xlink:href="#y"/><use transform="matrix(0.06172839506172839,0,0,0.06172839506172839,51.85185185185185,0)" xlink:href="#x"/><use transform="matrix(0.06172839506172839,0,0,0.06172839506172839,58.02469135802469,0)" xlink:href="#J"/><use transform="matrix(0.06172839506172839,0,0,0.06172839506172839,70.37037037037037,0)" xlink:href="#x"/><use transform="matrix(0.06172839506172839,0,0,0.06172839506172839,76.5432098765432,0)" xlink:href="#al"/><use transform="matrix(0.06172839506172839,0,0,0.06172839506172839,81.41975308641975,0)" xlink:href="#C"/><use transform="matrix(0.06172839506172839,0,0,0.06172839506172839,93.76543209876543,0)" xlink:href="#ae"/></g><g id="q"><use transform="matrix(0.06172839506172839,0,0,0.06172839506172839,0,0)" xlink:href="#H"/><use transform="matrix(0.06172839506172839,0,0,0.06172839506172839,18.456790123456788,0)" xlink:href="#J"/><use transform="matrix(0.06172839506172839,0,0,0.06172839506172839,30.80246913580247,0)" xlink:href="#ah"/><use transform="matrix(0.06172839506172839,0,0,0.06172839506172839,43.148148148148145,0)" xlink:href="#I"/></g><g id="r"><use transform="matrix(0.06172839506172839,0,0,0.06172839506172839,0,0)" xlink:href="#an"/><use transform="matrix(0.06172839506172839,0,0,0.06172839506172839,6.172839506172839,0)" xlink:href="#C"/><use transform="matrix(0.06172839506172839,0,0,0.06172839506172839,18.51851851851852,0)" xlink:href="#ac"/></g><g id="s"><use transform="matrix(0.06172839506172839,0,0,0.06172839506172839,0,0)" xlink:href="#I"/><use transform="matrix(0.06172839506172839,0,0,0.06172839506172839,12.345679012345679,0)" xlink:href="#ah"/><use transform="matrix(0.06172839506172839,0,0,0.06172839506172839,24.691358024691358,0)" xlink:href="#ad"/><use transform="matrix(0.06172839506172839,0,0,0.06172839506172839,37.03703703703704,0)" xlink:href="#G"/><use transform="matrix(0.06172839506172839,0,0,0.06172839506172839,48.14814814814815,0)" xlink:href="#J"/><use transform="matrix(0.06172839506172839,0,0,0.06172839506172839,60.49382716049383,0)" xlink:href="#x"/><use transform="matrix(0.06172839506172839,0,0,0.06172839506172839,66.66666666666667,0)" xlink:href="#al"/><use transform="matrix(0.06172839506172839,0,0,0.06172839506172839,71.54320987654322,0)" xlink:href="#C"/><use transform="matrix(0.06172839506172839,0,0,0.06172839506172839,83.8888888888889,0)" xlink:href="#ae"/><use transform="matrix(0.06172839506172839,0,0,0.06172839506172839,96.23456790123458,0)" xlink:href="#J"/><use transform="matrix(0.06172839506172839,0,0,0.06172839506172839,108.58024691358027,0)" xlink:href="#E"/></g><g id="t"><use transform="matrix(0.06172839506172839,0,0,0.06172839506172839,0,0)" xlink:href="#y"/><use transform="matrix(0.06172839506172839,0,0,0.06172839506172839,12.345679012345679,0)" xlink:href="#ad"/><use transform="matrix(0.06172839506172839,0,0,0.06172839506172839,24.691358024691358,0)" xlink:href="#ac"/><use transform="matrix(0.06172839506172839,0,0,0.06172839506172839,32.03703703703704,0)" xlink:href="#y"/><use transform="matrix(0.06172839506172839,0,0,0.06172839506172839,44.382716049382715,0)" xlink:href="#C"/><use transform="matrix(0.06172839506172839,0,0,0.06172839506172839,56.72839506172839,0)" xlink:href="#z"/><use transform="matrix(0.06172839506172839,0,0,0.06172839506172839,67.8395061728395,0)" xlink:href="#I"/><use transform="matrix(0.06172839506172839,0,0,0.06172839506172839,80.18518518518519,0)" xlink:href="#z"/><use transform="matrix(0.06172839506172839,0,0,0.06172839506172839,91.2962962962963,0)" xlink:href="#F"/></g><g id="u"><use transform="matrix(0.06172839506172839,0,0,0.06172839506172839,0,0)" xlink:href="#ai"/><use transform="matrix(0.06172839506172839,0,0,0.06172839506172839,15.987654320987653,0)" xlink:href="#ac"/><use transform="matrix(0.06172839506172839,0,0,0.06172839506172839,23.333333333333332,0)" xlink:href="#I"/><use transform="matrix(0.06172839506172839,0,0,0.06172839506172839,35.67901234567901,0)" xlink:href="#ah"/><use transform="matrix(0.06172839506172839,0,0,0.06172839506172839,48.02469135802469,0)" xlink:href="#al"/><use transform="matrix(0.06172839506172839,0,0,0.06172839506172839,52.901234567901234,0)" xlink:href="#x"/><use transform="matrix(0.06172839506172839,0,0,0.06172839506172839,59.074074074074076,0)" xlink:href="#z"/><path fill="#333" d="M-1.1 1.54h72.4v1.63H-1.1z"/></g><path fill="#333" d="M135-150c-39-12-60 13-60 57V0H25l-1-190h47c2 13-1 29 3 40 6-28 27-53 61-41v41" id="aw"/><path fill="#333" d="M185-48c-13 30-37 53-82 52C43 2 14-33 14-96s30-98 90-98c62 0 83 45 84 108H66c0 31 8 55 39 56 18 0 30-7 34-22zm-45-69c5-46-57-63-70-21-2 6-4 13-4 21h74" id="ax"/><path fill="#333" d="M88-194c31-1 46 15 58 34l-1-101h50l1 261h-48c-2-10 0-23-3-31C134-8 116 4 84 4 32 4 16-41 15-95c0-56 19-97 73-99zm17 164c33 0 40-30 41-66 1-37-9-64-41-64s-38 30-39 65c0 43 13 65 39 65" id="ay"/><path fill="#333" d="M25-224v-37h50v37H25zM25 0v-190h50V0H25" id="az"/><g id="v"><use transform="matrix(0.0987654320987654,0,0,0.0987654320987654,0,0)" xlink:href="#T"/><use transform="matrix(0.0987654320987654,0,0,0.0987654320987654,25.58024691358024,0)" xlink:href="#aw"/><use transform="matrix(0.0987654320987654,0,0,0.0987654320987654,39.4074074074074,0)" xlink:href="#ax"/><use transform="matrix(0.0987654320987654,0,0,0.0987654320987654,59.16049382716047,0)" xlink:href="#ay"/><use transform="matrix(0.0987654320987654,0,0,0.0987654320987654,80.7901234567901,0)" xlink:href="#az"/><use transform="matrix(0.0987654320987654,0,0,0.0987654320987654,90.66666666666664,0)" xlink:href="#W"/><use transform="matrix(0.0987654320987654,0,0,0.0987654320987654,102.41975308641972,0)" xlink:href="#aa"/></g></defs></g></svg>