<svg xmlns="http://www.w3.org/2000/svg" xmlns:xlink="http://www.w3.org/1999/xlink" xmlns:lucid="lucid" width="2180" height="880"><g transform="translate(0 -39.99999999999999)" lucid:page-tab-id="voqNd1eyacI."><path d="M0 0h3677.73v1322.83H0z" fill="#fff"/><path d="M1288 80c-26.5 0-48 21.5-48 48v144c0 26.5 21.5 48 48 48h344c26.5 0 48-21.5 48-48V128c0-26.5-21.5-48-48-48z" stroke="#5e5e5e" stroke-width="3" fill="#fff"/><path d="M1240 124h440" stroke="#5e5e5e" stroke-width="3" fill="none"/><use xlink:href="#a" transform="matrix(1,0,0,1,1328,80) translate(29.22222222222223 26.444444444444443)"/><use xlink:href="#b" transform="matrix(1,0,0,1,1328,80) translate(80.9506172839506 26.444444444444443)"/><use xlink:href="#c" transform="matrix(1,0,0,1,1328,80) translate(153.5432098765432 26.444444444444443)"/><use xlink:href="#d" transform="matrix(1,0,0,1,1284,140) translate(0 33.11111111111111)"/><use xlink:href="#e" transform="matrix(1,0,0,1,1284,140) translate(0 59.77777777777778)"/><use xlink:href="#f" transform="matrix(1,0,0,1,1284,140) translate(24.691358024691358 59.77777777777778)"/><use xlink:href="#g" transform="matrix(1,0,0,1,1284,140) translate(94.69135802469135 59.77777777777778)"/><use xlink:href="#e" transform="matrix(1,0,0,1,1284,140) translate(0 86.44444444444443)"/><use xlink:href="#h" transform="matrix(1,0,0,1,1284,140) translate(24.691358024691358 86.44444444444443)"/><use xlink:href="#i" transform="matrix(1,0,0,1,1284,140) translate(147.6543209876543 86.44444444444443)"/><use xlink:href="#e" transform="matrix(1,0,0,1,1284,140) translate(0 113.11111111111111)"/><use xlink:href="#j" transform="matrix(1,0,0,1,1284,140) translate(24.691358024691358 113.11111111111111)"/><use xlink:href="#k" transform="matrix(1,0,0,1,1284,140) translate(158.76543209876544 113.11111111111111)"/><use xlink:href="#l" transform="matrix(1,0,0,1,1284,140) translate(0 139.77777777777777)"/><path d="M126.24 210.82h422.72" stroke="#5e5e5e" stroke-width="3" fill="none"/><path d="M126.28 212.32h-.54v-3h.54z" fill="#5e5e5e"/><path d="M564.72 210.82l-14.27 4.64v-9.27z" stroke="#5e5e5e" stroke-width="3" fill="#5e5e5e"/><use xlink:href="#a" transform="matrix(1,0,0,1,244.38102134042953,180.15518021578774) translate(0.0049999999999954525 17.777777777777775)"/><use xlink:href="#b" transform="matrix(1,0,0,1,244.38102134042953,180.15518021578774) translate(51.73339506172837 17.777777777777775)"/><use xlink:href="#c" transform="matrix(1,0,0,1,244.38102134042953,180.15518021578774) translate(124.32598765432095 17.777777777777775)"/><path d="M120 142.12c0-1.17.95-2.12 2.12-2.12 1.17 0 2.12.95 2.12 2.12v755.76c0 1.17-.95 2.12-2.12 2.12-1.17 0-2.12-.95-2.12-2.12z" stroke="#5e5e5e" stroke-width="3"/><path d="M574.32 330H144.86" stroke="#5e5e5e" stroke-width="3" fill="none"/><path d="M575.82 331.5h-1.54v-3h1.54z" fill="#5e5e5e"/><path d="M129.1 330l14.26-4.64v9.28z" stroke="#5e5e5e" stroke-width="3" fill="#5e5e5e"/><use xlink:href="#m" transform="matrix(1,0,0,1,264.5041907356282,299.33333333333456) translate(0.0049999999999954525 17.77777777777778)"/><use xlink:href="#n" transform="matrix(1,0,0,1,264.5041907356282,299.33333333333456) translate(77.59759259259258 17.77777777777778)"/><use xlink:href="#o" transform="matrix(1,0,0,1,264.5041907356282,299.33333333333456) translate(104.63462962962961 17.77777777777778)"/><path d="M570.08 142.12c0-1.17.95-2.12 2.12-2.12 1.17 0 2.12.95 2.12 2.12v755.76c0 1.17-.95 2.12-2.12 2.12-1.17 0-2.12-.95-2.12-2.12z" stroke="#5e5e5e" stroke-width="3"/><path d="M574.32 562.93H146.36" stroke="#5e5e5e" stroke-width="3" fill="none"/><path d="M575.82 564.43h-1.54v-3h1.54z" fill="#5e5e5e"/><path d="M130.6 562.93l14.26-4.63v9.27z" stroke="#5e5e5e" stroke-width="3" fill="#5e5e5e"/><use xlink:href="#p" transform="matrix(1,0,0,1,277.50727708461613,532.2654996353041) translate(0.0049999999999954525 17.77777777777778)"/><use xlink:href="#q" transform="matrix(1,0,0,1,277.50727708461613,532.2654996353041) translate(70.19018518518517 17.77777777777778)"/><path d="M147.16 66c0-3.3 2.7-6 6-6h328c3.3 0 6 2.7 6 6v51.33c0 3.32-2.7 6-6 6h-328c-3.3 0-6-2.68-6-6z" stroke="#000" stroke-opacity="0" stroke-width="3" fill="#fff" fill-opacity="0"/><use xlink:href="#r" transform="matrix(1,0,0,1,152.15879909365572,65) translate(36.481481481481495 31.458333333333332)"/><use xlink:href="#s" transform="matrix(1,0,0,1,152.15879909365572,65) translate(98.55555555555557 31.458333333333332)"/><use xlink:href="#t" transform="matrix(1,0,0,1,152.15879909365572,65) translate(185.66666666666666 31.458333333333332)"/><path d="M848 80c-48.6 0-88 39.4-88 88v644c0 48.6 39.4 88 88 88h264c48.6 0 88-39.4 88-88V168c0-48.6-39.4-88-88-88z" stroke="#5e5e5e" stroke-width="3" fill="#fff"/><path d="M760 124h440" stroke="#5e5e5e" stroke-width="3" fill="none"/><use xlink:href="#m" transform="matrix(1,0,0,1,848,80) translate(46.47530864197532 26.444444444444443)"/><use xlink:href="#n" transform="matrix(1,0,0,1,848,80) translate(124.0679012345679 26.444444444444443)"/><use xlink:href="#o" transform="matrix(1,0,0,1,848,80) translate(151.10493827160494 26.444444444444443)"/><use xlink:href="#d" transform="matrix(1,0,0,1,804,140) translate(0 43.61111111111109)"/><use xlink:href="#e" transform="matrix(1,0,0,1,804,140) translate(0 70.27777777777777)"/><use xlink:href="#f" transform="matrix(1,0,0,1,804,140) translate(24.691358024691358 70.27777777777777)"/><use xlink:href="#u" transform="matrix(1,0,0,1,804,140) translate(94.69135802469135 70.27777777777777)"/><use xlink:href="#e" transform="matrix(1,0,0,1,804,140) translate(0 96.94444444444443)"/><use xlink:href="#v" transform="matrix(1,0,0,1,804,140) translate(24.691358024691358 96.94444444444443)"/><use xlink:href="#w" transform="matrix(1,0,0,1,804,140) translate(157.5308641975309 96.94444444444443)"/><use xlink:href="#e" transform="matrix(1,0,0,1,804,140) translate(0 123.61111111111109)"/><use xlink:href="#x" transform="matrix(1,0,0,1,804,140) translate(24.691358024691358 123.61111111111109)"/><use xlink:href="#y" transform="matrix(1,0,0,1,804,140) translate(124.19753086419752 123.61111111111109)"/><use xlink:href="#z" transform="matrix(1,0,0,1,804,140) translate(0 150.27777777777777)"/><use xlink:href="#A" transform="matrix(1,0,0,1,804,140) translate(49.38271604938272 150.27777777777777)"/><use xlink:href="#B" transform="matrix(1,0,0,1,804,140) translate(0 176.94444444444443)"/><use xlink:href="#h" transform="matrix(1,0,0,1,804,140) translate(49.38271604938272 176.94444444444443)"/><use xlink:href="#i" transform="matrix(1,0,0,1,804,140) translate(172.34567901234567 176.94444444444443)"/><use xlink:href="#B" transform="matrix(1,0,0,1,804,140) translate(0 203.6111111111111)"/><use xlink:href="#C" transform="matrix(1,0,0,1,804,140) translate(49.38271604938272 203.6111111111111)"/><use xlink:href="#D" transform="matrix(1,0,0,1,804,140) translate(156.2962962962963 203.6111111111111)"/><use xlink:href="#B" transform="matrix(1,0,0,1,804,140) translate(0 230.27777777777774)"/><use xlink:href="#E" transform="matrix(1,0,0,1,804,140) translate(49.38271604938272 230.27777777777774)"/><use xlink:href="#F" transform="matrix(1,0,0,1,804,140) translate(69.13580246913581 230.27777777777774)"/><use xlink:href="#z" transform="matrix(1,0,0,1,804,140) translate(0 256.9444444444444)"/><use xlink:href="#h" transform="matrix(1,0,0,1,804,140) translate(49.38271604938272 256.9444444444444)"/><use xlink:href="#i" transform="matrix(1,0,0,1,804,140) translate(172.34567901234567 256.9444444444444)"/><use xlink:href="#B" transform="matrix(1,0,0,1,804,140) translate(0 283.61111111111103)"/><use xlink:href="#C" transform="matrix(1,0,0,1,804,140) translate(49.38271604938272 283.61111111111103)"/><use xlink:href="#G" transform="matrix(1,0,0,1,804,140) translate(156.2962962962963 283.61111111111103)"/><use xlink:href="#z" transform="matrix(1,0,0,1,804,140) translate(0 310.2777777777777)"/><use xlink:href="#E" transform="matrix(1,0,0,1,804,140) translate(49.38271604938272 310.2777777777777)"/><use xlink:href="#F" transform="matrix(1,0,0,1,804,140) translate(69.13580246913581 310.2777777777777)"/><use xlink:href="#z" transform="matrix(1,0,0,1,804,140) translate(0 336.9444444444444)"/><use xlink:href="#h" transform="matrix(1,0,0,1,804,140) translate(49.38271604938272 336.9444444444444)"/><use xlink:href="#i" transform="matrix(1,0,0,1,804,140) translate(172.34567901234567 336.9444444444444)"/><use xlink:href="#B" transform="matrix(1,0,0,1,804,140) translate(0 363.6111111111111)"/><use xlink:href="#C" transform="matrix(1,0,0,1,804,140) translate(49.38271604938272 363.6111111111111)"/><use xlink:href="#G" transform="matrix(1,0,0,1,804,140) translate(156.2962962962963 363.6111111111111)"/><use xlink:href="#z" transform="matrix(1,0,0,1,804,140) translate(0 390.27777777777777)"/><use xlink:href="#H" transform="matrix(1,0,0,1,804,140) translate(49.38271604938272 390.27777777777777)"/><use xlink:href="#I" transform="matrix(1,0,0,1,804,140) translate(0 416.94444444444446)"/><use xlink:href="#J" transform="matrix(1,0,0,1,804,140) translate(24.691358024691358 416.94444444444446)"/><use xlink:href="#I" transform="matrix(1,0,0,1,804,140) translate(0 443.61111111111114)"/><use xlink:href="#K" transform="matrix(1,0,0,1,804,140) translate(24.691358024691358 443.61111111111114)"/><use xlink:href="#L" transform="matrix(1,0,0,1,804,140) translate(118.02469135802468 443.61111111111114)"/><use xlink:href="#e" transform="matrix(1,0,0,1,804,140) translate(0 470.2777777777778)"/><use xlink:href="#M" transform="matrix(1,0,0,1,804,140) translate(24.691358024691358 470.2777777777778)"/><use xlink:href="#A" transform="matrix(1,0,0,1,804,140) translate(129.19753086419755 470.2777777777778)"/><use xlink:href="#B" transform="matrix(1,0,0,1,804,140) translate(0 496.9444444444445)"/><use xlink:href="#N" transform="matrix(1,0,0,1,804,140) translate(49.38271604938272 496.9444444444445)"/><use xlink:href="#O" transform="matrix(1,0,0,1,804,140) translate(148.88888888888889 496.9444444444445)"/><use xlink:href="#B" transform="matrix(1,0,0,1,804,140) translate(0 523.6111111111112)"/><use xlink:href="#P" transform="matrix(1,0,0,1,804,140) translate(49.38271604938272 523.6111111111112)"/><use xlink:href="#O" transform="matrix(1,0,0,1,804,140) translate(203.0246913580247 523.6111111111112)"/><use xlink:href="#B" transform="matrix(1,0,0,1,804,140) translate(0 550.2777777777779)"/><use xlink:href="#Q" transform="matrix(1,0,0,1,804,140) translate(49.38271604938272 550.2777777777779)"/><use xlink:href="#O" transform="matrix(1,0,0,1,804,140) translate(201.79012345679013 550.2777777777779)"/><use xlink:href="#B" transform="matrix(1,0,0,1,804,140) translate(0 576.9444444444446)"/><use xlink:href="#R" transform="matrix(1,0,0,1,804,140) translate(49.38271604938272 576.9444444444446)"/><use xlink:href="#O" transform="matrix(1,0,0,1,804,140) translate(177.22222222222223 576.9444444444446)"/><use xlink:href="#B" transform="matrix(1,0,0,1,804,140) translate(0 603.6111111111113)"/><use xlink:href="#S" transform="matrix(1,0,0,1,804,140) translate(49.38271604938272 603.6111111111113)"/><use xlink:href="#O" transform="matrix(1,0,0,1,804,140) translate(259.8765432098765 603.6111111111113)"/><use xlink:href="#B" transform="matrix(1,0,0,1,804,140) translate(0 630.2777777777778)"/><use xlink:href="#T" transform="matrix(1,0,0,1,804,140) translate(49.38271604938272 630.2777777777778)"/><use xlink:href="#L" transform="matrix(1,0,0,1,804,140) translate(219.07407407407402 630.2777777777778)"/><use xlink:href="#B" transform="matrix(1,0,0,1,804,140) translate(0 656.9444444444446)"/><use xlink:href="#U" transform="matrix(1,0,0,1,804,140) translate(49.38271604938272 656.9444444444446)"/><use xlink:href="#L" transform="matrix(1,0,0,1,804,140) translate(229.0123456790123 656.9444444444446)"/><use xlink:href="#e" transform="matrix(1,0,0,1,804,140) translate(0 683.6111111111111)"/><use xlink:href="#V" transform="matrix(1,0,0,1,804,140) translate(24.691358024691358 683.6111111111111)"/><use xlink:href="#l" transform="matrix(1,0,0,1,804,140) translate(0 710.2777777777778)"/><path d="M1292 360c-28.72 0-52 23.28-52 52v156c0 28.72 23.28 52 52 52h336c28.72 0 52-23.28 52-52V412c0-28.72-23.28-52-52-52z" stroke="#5e5e5e" stroke-width="3" fill="#fff"/><path d="M1240 404h440" stroke="#5e5e5e" stroke-width="3" fill="none"/><g><use xlink:href="#p" transform="matrix(1,0,0,1,1328,360) translate(58.728395061728406 26.444444444444443)"/><use xlink:href="#q" transform="matrix(1,0,0,1,1328,360) translate(128.91358024691357 26.444444444444443)"/></g><g><use xlink:href="#W" transform="matrix(1,0,0,1,1284,420) translate(0 56.44444444444445)"/><use xlink:href="#A" transform="matrix(1,0,0,1,1284,420) translate(103.64197530864197 56.44444444444445)"/><use xlink:href="#e" transform="matrix(1,0,0,1,1284,420) translate(0 83.11111111111111)"/><use xlink:href="#f" transform="matrix(1,0,0,1,1284,420) translate(24.691358024691358 83.11111111111111)"/><use xlink:href="#X" transform="matrix(1,0,0,1,1284,420) translate(94.69135802469135 83.11111111111111)"/><use xlink:href="#e" transform="matrix(1,0,0,1,1284,420) translate(0 109.77777777777777)"/><use xlink:href="#v" transform="matrix(1,0,0,1,1284,420) translate(24.691358024691358 109.77777777777777)"/><use xlink:href="#Y" transform="matrix(1,0,0,1,1284,420) translate(157.5308641975309 109.77777777777777)"/><use xlink:href="#l" transform="matrix(1,0,0,1,1284,420) translate(0 136.44444444444446)"/></g><path d="M1288 660c-26.5 0-48 21.5-48 48v144c0 26.5 21.5 48 48 48h344c26.5 0 48-21.5 48-48V708c0-26.5-21.5-48-48-48z" stroke="#5e5e5e" stroke-width="3" fill="#fff"/><path d="M1240 704h440" stroke="#5e5e5e" stroke-width="3" fill="none"/><g><use xlink:href="#Z" transform="matrix(1,0,0,1,1328,660) translate(62.40123456790124 26.444444444444443)"/><use xlink:href="#aa" transform="matrix(1,0,0,1,1328,660) translate(114.19135802469137 26.444444444444443)"/></g><g><use xlink:href="#W" transform="matrix(1,0,0,1,1284,720) translate(0 46.44444444444445)"/><use xlink:href="#A" transform="matrix(1,0,0,1,1284,720) translate(103.64197530864197 46.44444444444445)"/><use xlink:href="#e" transform="matrix(1,0,0,1,1284,720) translate(0 73.11111111111111)"/><use xlink:href="#f" transform="matrix(1,0,0,1,1284,720) translate(24.691358024691358 73.11111111111111)"/><use xlink:href="#ab" transform="matrix(1,0,0,1,1284,720) translate(94.69135802469135 73.11111111111111)"/><use xlink:href="#ac" transform="matrix(1,0,0,1,1284,720) translate(237.4074074074074 73.11111111111111)"/><use xlink:href="#e" transform="matrix(1,0,0,1,1284,720) translate(0 99.77777777777777)"/><use xlink:href="#ad" transform="matrix(1,0,0,1,1284,720) translate(24.691358024691358 99.77777777777777)"/><use xlink:href="#ae" transform="matrix(1,0,0,1,1284,720) translate(208.08641975308637 99.77777777777777)"/><use xlink:href="#l" transform="matrix(1,0,0,1,1284,720) translate(0 126.44444444444446)"/></g><path d="M574.32 448.18H146.36" stroke="#5e5e5e" stroke-width="3" fill="none"/><path d="M575.82 449.68h-1.54v-3h1.54z" fill="#5e5e5e"/><path d="M130.6 448.18l14.26-4.63v9.27z" stroke="#5e5e5e" stroke-width="3" fill="#5e5e5e"/><g><use xlink:href="#Z" transform="matrix(1,0,0,1,281.1801165907892,417.51714077315967) translate(0.0049999999999954525 17.77777777777778)"/><use xlink:href="#aa" transform="matrix(1,0,0,1,281.1801165907892,417.51714077315967) translate(51.795123456790115 17.77777777777778)"/></g><path d="M79.75 159.75c0 10.9-8.84 19.75-19.75 19.75-10.9 0-19.75-8.84-19.75-19.75C40.25 148.85 49.1 140 60 140c10.9 0 19.75 8.84 19.75 19.75z" stroke="#5e5e5e" stroke-width="3" fill="#fff"/><path d="M60 179.5v49.3c0 3.3 1.44 8.27 3.2 11.07L100 298m-40-63.2L20 298m0-98.75h80" stroke="#5e5e5e" stroke-width="3" fill="none"/><path d="M20 146c0-3.3 2.7-6 6-6h68c3.3 0 6 2.7 6 6v168c0 3.3-2.7 6-6 6H26c-3.3 0-6-2.7-6-6z" fill="none"/><g><use xlink:href="#af" transform="matrix(1,0,0,1,-60,298.0000000000025) translate(94.1358024691358 17.77777777777778)"/></g><path d="M600 158c0-3.3 2.06-7.72 4.6-9.84l5.2-4.32c2.54-2.12 7.3-3.84 10.6-3.84H714c3.3 0 6 2.7 6 6v93.6c0 3.3-1.72 8.06-3.84 10.6l-4.32 5.2c-2.12 2.54-6.53 4.6-9.84 4.6h-96c-3.3 0-6-2.7-6-6z" stroke="#5e5e5e" stroke-width="3" fill="#fff"/><path d="M606 152c-3.3 0-3.94-1.72-1.4-3.84l5.2-4.32c2.54-2.12 7.3-3.84 10.6-3.84H714c3.3 0 4.1 1.9 1.76 4.24l-3.52 3.52C709.9 150.1 705.3 152 702 152z" stroke="#5e5e5e" stroke-width="3" fill="#e6e6e6"/><path d="M708 158c0-3.3 1.9-7.9 4.24-10.24l3.52-3.52c2.34-2.34 4.24-1.55 4.24 1.76v93.6c0 3.3-1.72 8.06-3.84 10.6l-4.32 5.2c-2.12 2.54-3.84 1.9-3.84-1.4z" stroke="#5e5e5e" stroke-width="3" fill="#ccc"/><g><use xlink:href="#ag" transform="matrix(1,0,0,1,608,160.00000000000006) translate(11.197530864197532 17.77777777777778)"/></g><path d="M547.96 662.7H127.24" stroke="#5e5e5e" stroke-width="3" fill="none"/><path d="M563.72 662.7l-14.26 4.65v-9.27z" stroke="#5e5e5e" stroke-width="3" fill="#5e5e5e"/><path d="M127.28 664.2h-1.54v-3h1.54z" fill="#5e5e5e"/><g><use xlink:href="#ah" transform="matrix(1,0,0,1,299.19583605992693,632.0466812545586) translate(0.005000000000002558 17.77777777777778)"/></g><path d="M574.32 757.5H146.36" stroke="#5e5e5e" stroke-width="3" fill="none"/><path d="M575.82 759h-1.54v-3h1.54z" fill="#5e5e5e"/><path d="M130.6 757.5l14.26-4.63v9.27z" stroke="#5e5e5e" stroke-width="3" fill="#5e5e5e"/><g><use xlink:href="#ai" transform="matrix(1,0,0,1,267.75419066486245,726.8388037928531) translate(0.0049999999999954525 17.77777777777778)"/><use xlink:href="#aj" transform="matrix(1,0,0,1,267.75419066486245,726.8388037928531) translate(55.06672839506172 17.77777777777778)"/><use xlink:href="#ak" transform="matrix(1,0,0,1,267.75419066486245,726.8388037928531) translate(99.3877160493827 17.77777777777778)"/></g><path d="M574.32 860.6H146.36" stroke="#5e5e5e" stroke-width="3" fill="none"/><path d="M575.82 862.1h-1.54v-3h1.54z" fill="#5e5e5e"/><path d="M130.6 860.6l14.26-4.62v9.27z" stroke="#5e5e5e" stroke-width="3" fill="#5e5e5e"/><g><use xlink:href="#al" transform="matrix(1,0,0,1,268.3097462204181,829.9460247994176) translate(0.0049999999999954525 17.77777777777778)"/><use xlink:href="#am" transform="matrix(1,0,0,1,268.3097462204181,829.9460247994176) translate(69.01734567901234 17.77777777777778)"/></g><path d="M1768 660c-26.5 0-48 21.5-48 48v144c0 26.5 21.5 48 48 48h344c26.5 0 48-21.5 48-48V708c0-26.5-21.5-48-48-48z" stroke="#5e5e5e" stroke-width="3" fill="#fff"/><path d="M1720 704h440" stroke="#5e5e5e" stroke-width="3" fill="none"/><g><use xlink:href="#an" transform="matrix(1,0,0,1,1808,660) translate(84.03703703703704 26.444444444444443)"/></g><g><use xlink:href="#d" transform="matrix(1,0,0,1,1764,720) translate(0 46.44444444444445)"/><use xlink:href="#e" transform="matrix(1,0,0,1,1764,720) translate(0 73.11111111111111)"/><use xlink:href="#f" transform="matrix(1,0,0,1,1764,720) translate(24.691358024691358 73.11111111111111)"/><use xlink:href="#ao" transform="matrix(1,0,0,1,1764,720) translate(94.69135802469135 73.11111111111111)"/><use xlink:href="#ac" transform="matrix(1,0,0,1,1764,720) translate(202.96296296296296 73.11111111111111)"/><use xlink:href="#e" transform="matrix(1,0,0,1,1764,720) translate(0 99.77777777777777)"/><use xlink:href="#C" transform="matrix(1,0,0,1,1764,720) translate(24.691358024691358 99.77777777777777)"/><use xlink:href="#ap" transform="matrix(1,0,0,1,1764,720) translate(131.60493827160494 99.77777777777777)"/><use xlink:href="#l" transform="matrix(1,0,0,1,1764,720) translate(0 126.44444444444446)"/></g><path d="M1768 80c-26.5 0-48 21.5-48 48v144c0 26.5 21.5 48 48 48h344c26.5 0 48-21.5 48-48V128c0-26.5-21.5-48-48-48z" stroke="#5e5e5e" stroke-width="3" fill="#fff"/><path d="M1720 124h440" stroke="#5e5e5e" stroke-width="3" fill="none"/><g><use xlink:href="#ai" transform="matrix(1,0,0,1,1808,80.00000000000006) translate(48.97530864197532 26.444444444444443)"/><use xlink:href="#aj" transform="matrix(1,0,0,1,1808,80.00000000000006) translate(104.03703703703704 26.444444444444443)"/><use xlink:href="#ak" transform="matrix(1,0,0,1,1808,80.00000000000006) translate(148.35802469135803 26.444444444444443)"/></g><g><use xlink:href="#d" transform="matrix(1,0,0,1,1764,140.00000000000006) translate(0 46.44444444444445)"/><use xlink:href="#e" transform="matrix(1,0,0,1,1764,140.00000000000006) translate(0 73.11111111111111)"/><use xlink:href="#f" transform="matrix(1,0,0,1,1764,140.00000000000006) translate(24.691358024691358 73.11111111111111)"/><use xlink:href="#aq" transform="matrix(1,0,0,1,1764,140.00000000000006) translate(94.69135802469135 73.11111111111111)"/><use xlink:href="#ac" transform="matrix(1,0,0,1,1764,140.00000000000006) translate(257.16049382716045 73.11111111111111)"/><use xlink:href="#e" transform="matrix(1,0,0,1,1764,140.00000000000006) translate(0 99.77777777777777)"/><use xlink:href="#v" transform="matrix(1,0,0,1,1764,140.00000000000006) translate(24.691358024691358 99.77777777777777)"/><use xlink:href="#ar" transform="matrix(1,0,0,1,1764,140.00000000000006) translate(157.5308641975309 99.77777777777777)"/><use xlink:href="#l" transform="matrix(1,0,0,1,1764,140.00000000000006) translate(0 126.44444444444446)"/></g><path d="M1772 360c-28.72 0-52 23.28-52 52v156c0 28.72 23.28 52 52 52h336c28.72 0 52-23.28 52-52V412c0-28.72-23.28-52-52-52z" stroke="#5e5e5e" stroke-width="3" fill="#fff"/><path d="M1720 404h440" stroke="#5e5e5e" stroke-width="3" fill="none"/><g><use xlink:href="#al" transform="matrix(1,0,0,1,1808,360) translate(49.53086419753086 26.444444444444443)"/><use xlink:href="#am" transform="matrix(1,0,0,1,1808,360) translate(118.5432098765432 26.444444444444443)"/></g><g><use xlink:href="#W" transform="matrix(1,0,0,1,1764,420) translate(0 17.77777777777778)"/><use xlink:href="#A" transform="matrix(1,0,0,1,1764,420) translate(103.64197530864197 17.77777777777778)"/><use xlink:href="#e" transform="matrix(1,0,0,1,1764,420) translate(0 44.44444444444444)"/><use xlink:href="#f" transform="matrix(1,0,0,1,1764,420) translate(24.691358024691358 44.44444444444444)"/><use xlink:href="#as" transform="matrix(1,0,0,1,1764,420) translate(94.69135802469135 44.44444444444444)"/><use xlink:href="#e" transform="matrix(1,0,0,1,1764,420) translate(0 71.11111111111111)"/><use xlink:href="#x" transform="matrix(1,0,0,1,1764,420) translate(24.691358024691358 71.11111111111111)"/><use xlink:href="#A" transform="matrix(1,0,0,1,1764,420) translate(124.19753086419752 71.11111111111111)"/><use xlink:href="#B" transform="matrix(1,0,0,1,1764,420) translate(0 97.77777777777777)"/><use xlink:href="#h" transform="matrix(1,0,0,1,1764,420) translate(49.38271604938272 97.77777777777777)"/><use xlink:href="#i" transform="matrix(1,0,0,1,1764,420) translate(172.34567901234567 97.77777777777777)"/><use xlink:href="#B" transform="matrix(1,0,0,1,1764,420) translate(0 124.44444444444446)"/><use xlink:href="#C" transform="matrix(1,0,0,1,1764,420) translate(49.38271604938272 124.44444444444446)"/><use xlink:href="#D" transform="matrix(1,0,0,1,1764,420) translate(156.2962962962963 124.44444444444446)"/><use xlink:href="#at" transform="matrix(1,0,0,1,1764,420) translate(0 151.11111111111111)"/><use xlink:href="#V" transform="matrix(1,0,0,1,1764,420) translate(30.864197530864196 151.11111111111111)"/><use xlink:href="#l" transform="matrix(1,0,0,1,1764,420) translate(0 177.77777777777777)"/></g><defs><path fill="#333" d="M176-78C186 10 51 31 16-35c-5-9-9-19-11-32l52-8c4 21 12 37 35 38 23 0 32-16 32-40v-130H75v-41h101v170" id="au"/><path fill="#333" d="M110-194c64 0 96 36 96 99 0 64-35 99-97 99-61 0-95-36-95-99 0-62 34-99 96-99zm-1 164c35 0 45-28 45-65 0-40-10-65-43-65-34 0-45 26-45 65 0 36 10 65 43 65" id="av"/><path fill="#333" d="M25-224v-37h50v37H25zM25 0v-190h50V0H25" id="aw"/><path fill="#333" d="M135-194c87-1 58 113 63 194h-50c-7-57 23-157-34-157-59 0-34 97-39 157H25l-1-190h47c2 12-1 28 3 38 12-26 28-41 61-42" id="ax"/><g id="a"><use transform="matrix(0.061728395061728385,0,0,0.061728395061728385,0,0)" xlink:href="#au"/><use transform="matrix(0.061728395061728385,0,0,0.061728395061728385,12.345679012345677,0)" xlink:href="#av"/><use transform="matrix(0.061728395061728385,0,0,0.061728395061728385,25.864197530864192,0)" xlink:href="#aw"/><use transform="matrix(0.061728395061728385,0,0,0.061728395061728385,32.03703703703703,0)" xlink:href="#ax"/></g><path fill="#333" d="M24 0v-248h52v208h133V0H24" id="ay"/><path fill="#333" d="M135-194c52 0 70 43 70 98 0 56-19 99-73 100-30 1-46-15-58-35L72 0H24l1-261h50v104c11-23 29-37 60-37zM114-30c31 0 40-27 40-66 0-37-7-63-39-63s-41 28-41 65c0 36 8 64 40 64" id="az"/><path fill="#333" d="M123 10C108 53 80 86 19 72V37c35 8 53-11 59-39L3-190h52l48 148c12-52 28-100 44-148h51" id="aA"/><g id="b"><use transform="matrix(0.061728395061728385,0,0,0.061728395061728385,0,0)" xlink:href="#ay"/><use transform="matrix(0.061728395061728385,0,0,0.061728395061728385,13.518518518518515,0)" xlink:href="#av"/><use transform="matrix(0.061728395061728385,0,0,0.061728395061728385,27.03703703703703,0)" xlink:href="#az"/><use transform="matrix(0.061728395061728385,0,0,0.061728395061728385,40.55555555555554,0)" xlink:href="#az"/><use transform="matrix(0.061728395061728385,0,0,0.061728395061728385,54.07407407407406,0)" xlink:href="#aA"/></g><path fill="#333" d="M24-248c93 1 206-16 204 79-1 75-69 88-152 82V0H24v-248zm52 121c47 0 100 7 100-41 0-47-54-39-100-39v80" id="aB"/><path fill="#333" d="M185-48c-13 30-37 53-82 52C43 2 14-33 14-96s30-98 90-98c62 0 83 45 84 108H66c0 31 8 55 39 56 18 0 30-7 34-22zm-45-69c5-46-57-63-70-21-2 6-4 13-4 21h74" id="aC"/><path fill="#333" d="M115-3C79 11 28 4 28-45v-112H4v-33h27l15-45h31v45h36v33H77v99c-1 23 16 31 38 25v30" id="aD"/><g id="c"><use transform="matrix(0.061728395061728385,0,0,0.061728395061728385,0,0)" xlink:href="#aB"/><use transform="matrix(0.061728395061728385,0,0,0.061728395061728385,14.814814814814813,0)" xlink:href="#aC"/><use transform="matrix(0.061728395061728385,0,0,0.061728395061728385,27.16049382716049,0)" xlink:href="#aD"/><use transform="matrix(0.061728395061728385,0,0,0.061728395061728385,34.50617283950617,0)" xlink:href="#aw"/><use transform="matrix(0.061728395061728385,0,0,0.061728395061728385,40.67901234567901,0)" xlink:href="#aD"/><use transform="matrix(0.061728395061728385,0,0,0.061728395061728385,48.02469135802469,0)" xlink:href="#aw"/><use transform="matrix(0.061728395061728385,0,0,0.061728395061728385,54.19753086419753,0)" xlink:href="#av"/><use transform="matrix(0.061728395061728385,0,0,0.061728395061728385,67.71604938271605,0)" xlink:href="#ax"/></g><path fill="#333" d="M39-94c74 12-11 154 75 146v23c-44 4-70-10-70-52C44-23 55-84 6-82v-22c81 4-7-162 84-157h24v23c-82-15-2 131-75 144" id="aE"/><use transform="matrix(0.06172839506172839,0,0,0.06172839506172839,0,0)" xlink:href="#aE" id="d"/><path fill="#333" d="M109-170H84l-4-78h32zm-65 0H19l-4-78h33" id="aF"/><path fill="#333" d="M59-47c-2 24 18 29 38 22v24C64 9 27 4 27-40v-127H5v-23h24l9-43h21v43h35v23H59v120" id="aG"/><path fill="#333" d="M179-190L93 31C79 59 56 82 12 73V49c39 6 53-20 64-50L1-190h34L92-34l54-156h33" id="aH"/><path fill="#333" d="M115-194c55 1 70 41 70 98S169 2 115 4C84 4 66-9 55-30l1 105H24l-1-265h31l2 30c10-21 28-34 59-34zm-8 174c40 0 45-34 45-75s-6-73-45-74c-42 0-51 32-51 76 0 43 10 73 51 73" id="aI"/><path fill="#333" d="M100-194c63 0 86 42 84 106H49c0 40 14 67 53 68 26 1 43-12 49-29l28 8c-11 28-37 45-77 45C44 4 14-33 15-96c1-61 26-98 85-98zm52 81c6-60-76-77-97-28-3 7-6 17-6 28h103" id="aJ"/><path fill="#333" d="M33-154v-36h34v36H33zM33 0v-36h34V0H33" id="aK"/><g id="f"><use transform="matrix(0.06172839506172839,0,0,0.06172839506172839,0,0)" xlink:href="#aF"/><use transform="matrix(0.06172839506172839,0,0,0.06172839506172839,7.8395061728395055,0)" xlink:href="#aG"/><use transform="matrix(0.06172839506172839,0,0,0.06172839506172839,14.012345679012345,0)" xlink:href="#aH"/><use transform="matrix(0.06172839506172839,0,0,0.06172839506172839,25.123456790123456,0)" xlink:href="#aI"/><use transform="matrix(0.06172839506172839,0,0,0.06172839506172839,37.46913580246913,0)" xlink:href="#aJ"/><use transform="matrix(0.06172839506172839,0,0,0.06172839506172839,49.81481481481481,0)" xlink:href="#aF"/><use transform="matrix(0.06172839506172839,0,0,0.06172839506172839,57.654320987654316,0)" xlink:href="#aK"/></g><path fill="#333" d="M24-231v-30h32v30H24zM-9 49c24 4 33-6 33-30v-209h32V24c2 40-23 58-65 49V49" id="aL"/><path fill="#333" d="M100-194c62-1 85 37 85 99 1 63-27 99-86 99S16-35 15-95c0-66 28-99 85-99zM99-20c44 1 53-31 53-75 0-43-8-75-51-75s-53 32-53 75 10 74 51 75" id="aM"/><path fill="#333" d="M24-231v-30h32v30H24zM24 0v-190h32V0H24" id="aN"/><path fill="#333" d="M117-194c89-4 53 116 60 194h-32v-121c0-31-8-49-39-48C34-167 62-67 57 0H25l-1-190h30c1 10-1 24 2 32 11-22 29-35 61-36" id="aO"/><path fill="#333" d="M30 0v-248h33v221h125V0H30" id="aP"/><path fill="#333" d="M115-194c53 0 69 39 70 98 0 66-23 100-70 100C84 3 66-7 56-30L54 0H23l1-261h32v101c10-23 28-34 59-34zm-8 174c40 0 45-34 45-75 0-40-5-75-45-74-42 0-51 32-51 76 0 43 10 73 51 73" id="aQ"/><path fill="#333" d="M30-248c87 1 191-15 191 75 0 78-77 80-158 76V0H30v-248zm33 125c57 0 124 11 124-50 0-59-68-47-124-48v98" id="aR"/><path fill="#333" d="M68-38c1 34 0 65-14 84H32c9-13 17-26 17-46H33v-38h35" id="aS"/><g id="g"><use transform="matrix(0.06172839506172839,0,0,0.06172839506172839,0,0)" xlink:href="#aF"/><use transform="matrix(0.06172839506172839,0,0,0.06172839506172839,7.8395061728395055,0)" xlink:href="#aL"/><use transform="matrix(0.06172839506172839,0,0,0.06172839506172839,12.716049382716047,0)" xlink:href="#aM"/><use transform="matrix(0.06172839506172839,0,0,0.06172839506172839,25.061728395061728,0)" xlink:href="#aN"/><use transform="matrix(0.06172839506172839,0,0,0.06172839506172839,29.938271604938272,0)" xlink:href="#aO"/><use transform="matrix(0.06172839506172839,0,0,0.06172839506172839,42.28395061728395,0)" xlink:href="#aP"/><use transform="matrix(0.06172839506172839,0,0,0.06172839506172839,54.629629629629626,0)" xlink:href="#aM"/><use transform="matrix(0.06172839506172839,0,0,0.06172839506172839,66.9753086419753,0)" xlink:href="#aQ"/><use transform="matrix(0.06172839506172839,0,0,0.06172839506172839,79.32098765432099,0)" xlink:href="#aQ"/><use transform="matrix(0.06172839506172839,0,0,0.06172839506172839,91.66666666666667,0)" xlink:href="#aH"/><use transform="matrix(0.06172839506172839,0,0,0.06172839506172839,102.77777777777779,0)" xlink:href="#aR"/><use transform="matrix(0.06172839506172839,0,0,0.06172839506172839,117.5925925925926,0)" xlink:href="#aJ"/><use transform="matrix(0.06172839506172839,0,0,0.06172839506172839,129.93827160493828,0)" xlink:href="#aG"/><use transform="matrix(0.06172839506172839,0,0,0.06172839506172839,136.11111111111111,0)" xlink:href="#aN"/><use transform="matrix(0.06172839506172839,0,0,0.06172839506172839,140.98765432098764,0)" xlink:href="#aG"/><use transform="matrix(0.06172839506172839,0,0,0.06172839506172839,147.16049382716048,0)" xlink:href="#aN"/><use transform="matrix(0.06172839506172839,0,0,0.06172839506172839,152.037037037037,0)" xlink:href="#aM"/><use transform="matrix(0.06172839506172839,0,0,0.06172839506172839,164.38271604938268,0)" xlink:href="#aO"/><use transform="matrix(0.06172839506172839,0,0,0.06172839506172839,176.72839506172835,0)" xlink:href="#aF"/><use transform="matrix(0.06172839506172839,0,0,0.06172839506172839,184.56790123456784,0)" xlink:href="#aS"/></g><path fill="#333" d="M96-169c-40 0-48 33-48 73s9 75 48 75c24 0 41-14 43-38l32 2c-6 37-31 61-74 61-59 0-76-41-82-99-10-93 101-131 147-64 4 7 5 14 7 22l-32 3c-4-21-16-35-41-35" id="aT"/><path fill="#333" d="M143 0L79-87 56-68V0H24v-261h32v163l83-92h37l-77 82L181 0h-38" id="aU"/><path fill="#333" d="M141-36C126-15 110 5 73 4 37 3 15-17 15-53c-1-64 63-63 125-63 3-35-9-54-41-54-24 1-41 7-42 31l-33-3c5-37 33-52 76-52 45 0 72 20 72 64v82c-1 20 7 32 28 27v20c-31 9-61-2-59-35zM48-53c0 20 12 33 32 33 41-3 63-29 60-74-43 2-92-5-92 41" id="aV"/><path fill="#333" d="M210-169c-67 3-38 105-44 169h-31v-121c0-29-5-50-35-48C34-165 62-65 56 0H25l-1-190h30c1 10-1 24 2 32 10-44 99-50 107 0 11-21 27-35 58-36 85-2 47 119 55 194h-31v-121c0-29-5-49-35-48" id="aW"/><g id="h"><use transform="matrix(0.06172839506172839,0,0,0.06172839506172839,0,0)" xlink:href="#aF"/><use transform="matrix(0.06172839506172839,0,0,0.06172839506172839,7.8395061728395055,0)" xlink:href="#aO"/><use transform="matrix(0.06172839506172839,0,0,0.06172839506172839,20.185185185185183,0)" xlink:href="#aN"/><use transform="matrix(0.06172839506172839,0,0,0.06172839506172839,25.061728395061728,0)" xlink:href="#aT"/><use transform="matrix(0.06172839506172839,0,0,0.06172839506172839,36.172839506172835,0)" xlink:href="#aU"/><use transform="matrix(0.06172839506172839,0,0,0.06172839506172839,47.28395061728395,0)" xlink:href="#aO"/><use transform="matrix(0.06172839506172839,0,0,0.06172839506172839,59.629629629629626,0)" xlink:href="#aV"/><use transform="matrix(0.06172839506172839,0,0,0.06172839506172839,71.9753086419753,0)" xlink:href="#aW"/><use transform="matrix(0.06172839506172839,0,0,0.06172839506172839,90.43209876543209,0)" xlink:href="#aJ"/><use transform="matrix(0.06172839506172839,0,0,0.06172839506172839,102.77777777777777,0)" xlink:href="#aF"/><use transform="matrix(0.06172839506172839,0,0,0.06172839506172839,110.61728395061728,0)" xlink:href="#aK"/></g><g id="i"><use transform="matrix(0.06172839506172839,0,0,0.06172839506172839,0,0)" xlink:href="#aF"/><use transform="matrix(0.06172839506172839,0,0,0.06172839506172839,7.8395061728395055,0)" xlink:href="#aO"/><use transform="matrix(0.06172839506172839,0,0,0.06172839506172839,20.185185185185183,0)" xlink:href="#aV"/><use transform="matrix(0.06172839506172839,0,0,0.06172839506172839,32.53086419753086,0)" xlink:href="#aW"/><use transform="matrix(0.06172839506172839,0,0,0.06172839506172839,50.987654320987644,0)" xlink:href="#aJ"/><use transform="matrix(0.06172839506172839,0,0,0.06172839506172839,63.333333333333314,0)" xlink:href="#aF"/><use transform="matrix(0.06172839506172839,0,0,0.06172839506172839,71.17283950617282,0)" xlink:href="#aS"/></g><path fill="#333" d="M24 0v-261h32V0H24" id="aX"/><path fill="#333" d="M212-179c-10-28-35-45-73-45-59 0-87 40-87 99 0 60 29 101 89 101 43 0 62-24 78-52l27 14C228-24 195 4 139 4 59 4 22-46 18-125c-6-104 99-153 187-111 19 9 31 26 39 46" id="aY"/><path fill="#333" d="M85-194c31 0 48 13 60 33l-1-100h32l1 261h-30c-2-10 0-23-3-31C134-8 116 4 85 4 32 4 16-35 15-94c0-66 23-100 70-100zm9 24c-40 0-46 34-46 75 0 40 6 74 45 74 42 0 51-32 51-76 0-42-9-74-50-73" id="aZ"/><g id="j"><use transform="matrix(0.06172839506172839,0,0,0.06172839506172839,0,0)" xlink:href="#aF"/><use transform="matrix(0.06172839506172839,0,0,0.06172839506172839,7.8395061728395055,0)" xlink:href="#aX"/><use transform="matrix(0.06172839506172839,0,0,0.06172839506172839,12.716049382716047,0)" xlink:href="#aM"/><use transform="matrix(0.06172839506172839,0,0,0.06172839506172839,25.061728395061728,0)" xlink:href="#aQ"/><use transform="matrix(0.06172839506172839,0,0,0.06172839506172839,37.407407407407405,0)" xlink:href="#aQ"/><use transform="matrix(0.06172839506172839,0,0,0.06172839506172839,49.75308641975308,0)" xlink:href="#aH"/><use transform="matrix(0.06172839506172839,0,0,0.06172839506172839,60.86419753086419,0)" xlink:href="#aY"/><use transform="matrix(0.06172839506172839,0,0,0.06172839506172839,76.85185185185185,0)" xlink:href="#aM"/><use transform="matrix(0.06172839506172839,0,0,0.06172839506172839,89.19753086419753,0)" xlink:href="#aZ"/><use transform="matrix(0.06172839506172839,0,0,0.06172839506172839,101.54320987654322,0)" xlink:href="#aJ"/><use transform="matrix(0.06172839506172839,0,0,0.06172839506172839,113.8888888888889,0)" xlink:href="#aF"/><use transform="matrix(0.06172839506172839,0,0,0.06172839506172839,121.7283950617284,0)" xlink:href="#aK"/></g><g id="k"><use transform="matrix(0.06172839506172839,0,0,0.06172839506172839,0,0)" xlink:href="#aF"/><use transform="matrix(0.06172839506172839,0,0,0.06172839506172839,7.8395061728395055,0)" xlink:href="#aT"/><use transform="matrix(0.06172839506172839,0,0,0.06172839506172839,18.950617283950617,0)" xlink:href="#aM"/><use transform="matrix(0.06172839506172839,0,0,0.06172839506172839,31.296296296296298,0)" xlink:href="#aZ"/><use transform="matrix(0.06172839506172839,0,0,0.06172839506172839,43.641975308641975,0)" xlink:href="#aJ"/><use transform="matrix(0.06172839506172839,0,0,0.06172839506172839,55.98765432098765,0)" xlink:href="#aF"/></g><path fill="#333" d="M76-40C78 24 84 88 6 75V52C86 64 9-79 80-94c-40-6-34-59-34-106 1-29-11-41-40-38v-23c44-4 70 10 70 52 0 47-12 108 38 105v22c-26 1-39 14-38 42" id="ba"/><use transform="matrix(0.06172839506172839,0,0,0.06172839506172839,0,0)" xlink:href="#ba" id="l"/><path fill="#333" d="M88-194c31-1 46 15 58 34l-1-101h50l1 261h-48c-2-10 0-23-3-31C134-8 116 4 84 4 32 4 16-41 15-95c0-56 19-97 73-99zm17 164c33 0 40-30 41-66 1-37-9-64-41-64s-38 30-39 65c0 43 13 65 39 65" id="bb"/><g id="m"><use transform="matrix(0.06172839506172839,0,0,0.06172839506172839,0,0)" xlink:href="#au"/><use transform="matrix(0.06172839506172839,0,0,0.06172839506172839,12.345679012345679,0)" xlink:href="#av"/><use transform="matrix(0.06172839506172839,0,0,0.06172839506172839,25.864197530864196,0)" xlink:href="#aw"/><use transform="matrix(0.06172839506172839,0,0,0.06172839506172839,32.03703703703704,0)" xlink:href="#ax"/><use transform="matrix(0.06172839506172839,0,0,0.06172839506172839,45.55555555555556,0)" xlink:href="#aC"/><use transform="matrix(0.06172839506172839,0,0,0.06172839506172839,57.901234567901234,0)" xlink:href="#bb"/></g><g id="n"><use transform="matrix(0.06172839506172839,0,0,0.06172839506172839,0,0)" xlink:href="#aD"/><use transform="matrix(0.06172839506172839,0,0,0.06172839506172839,7.345679012345679,0)" xlink:href="#av"/></g><g id="o"><use transform="matrix(0.06172839506172839,0,0,0.06172839506172839,0,0)" xlink:href="#ay"/><use transform="matrix(0.06172839506172839,0,0,0.06172839506172839,13.518518518518517,0)" xlink:href="#av"/><use transform="matrix(0.06172839506172839,0,0,0.06172839506172839,27.037037037037035,0)" xlink:href="#az"/><use transform="matrix(0.06172839506172839,0,0,0.06172839506172839,40.55555555555555,0)" xlink:href="#az"/><use transform="matrix(0.06172839506172839,0,0,0.06172839506172839,54.07407407407407,0)" xlink:href="#aA"/></g><path fill="#333" d="M230 0l2-204L168 0h-37L68-204 70 0H24v-248h70l56 185 57-185h69V0h-46" id="bc"/><path fill="#333" d="M133-34C117-15 103 5 69 4 32 3 11-16 11-54c-1-60 55-63 116-61 1-26-3-47-28-47-18 1-26 9-28 27l-52-2c7-38 36-58 82-57s74 22 75 68l1 82c-1 14 12 18 25 15v27c-30 8-71 5-69-32zm-48 3c29 0 43-24 42-57-32 0-66-3-65 30 0 17 8 27 23 27" id="bd"/><path fill="#333" d="M190-63c-7 42-38 67-86 67-59 0-84-38-90-98-12-110 154-137 174-36l-49 2c-2-19-15-32-35-32-30 0-35 28-38 64-6 74 65 87 74 30" id="be"/><path fill="#333" d="M114-157C55-157 80-60 75 0H25v-261h50l-1 109c12-26 28-41 61-42 86-1 58 113 63 194h-50c-7-57 23-157-34-157" id="bf"/><g id="p"><use transform="matrix(0.06172839506172839,0,0,0.06172839506172839,0,0)" xlink:href="#bc"/><use transform="matrix(0.06172839506172839,0,0,0.06172839506172839,18.456790123456788,0)" xlink:href="#bd"/><use transform="matrix(0.06172839506172839,0,0,0.06172839506172839,30.80246913580247,0)" xlink:href="#aD"/><use transform="matrix(0.06172839506172839,0,0,0.06172839506172839,38.148148148148145,0)" xlink:href="#be"/><use transform="matrix(0.06172839506172839,0,0,0.06172839506172839,50.49382716049382,0)" xlink:href="#bf"/></g><path fill="#333" d="M169-182c-1-43-94-46-97-3 18 66 151 10 154 114 3 95-165 93-204 36-6-8-10-19-12-30l50-8c3 46 112 56 116 5-17-69-150-10-154-114-4-87 153-88 188-35 5 8 8 18 10 28" id="bg"/><path fill="#333" d="M135-150c-39-12-60 13-60 57V0H25l-1-190h47c2 13-1 29 3 40 6-28 27-53 61-41v41" id="bh"/><g id="q"><use transform="matrix(0.06172839506172839,0,0,0.06172839506172839,0,0)" xlink:href="#bg"/><use transform="matrix(0.06172839506172839,0,0,0.06172839506172839,14.814814814814813,0)" xlink:href="#aD"/><use transform="matrix(0.06172839506172839,0,0,0.06172839506172839,22.160493827160494,0)" xlink:href="#bd"/><use transform="matrix(0.06172839506172839,0,0,0.06172839506172839,34.50617283950617,0)" xlink:href="#bh"/><use transform="matrix(0.06172839506172839,0,0,0.06172839506172839,43.148148148148145,0)" xlink:href="#aD"/><use transform="matrix(0.06172839506172839,0,0,0.06172839506172839,50.49382716049382,0)" xlink:href="#aC"/><use transform="matrix(0.06172839506172839,0,0,0.06172839506172839,62.8395061728395,0)" xlink:href="#bb"/></g><g id="r"><use transform="matrix(0.07407407407407407,0,0,0.07407407407407407,0,0)" xlink:href="#au"/><use transform="matrix(0.07407407407407407,0,0,0.07407407407407407,14.814814814814813,0)" xlink:href="#av"/><use transform="matrix(0.07407407407407407,0,0,0.07407407407407407,31.037037037037035,0)" xlink:href="#aw"/><use transform="matrix(0.07407407407407407,0,0,0.07407407407407407,38.44444444444444,0)" xlink:href="#ax"/></g><g id="s"><use transform="matrix(0.07407407407407407,0,0,0.07407407407407407,0,0)" xlink:href="#ay"/><use transform="matrix(0.07407407407407407,0,0,0.07407407407407407,16.22222222222222,0)" xlink:href="#av"/><use transform="matrix(0.07407407407407407,0,0,0.07407407407407407,32.44444444444444,0)" xlink:href="#az"/><use transform="matrix(0.07407407407407407,0,0,0.07407407407407407,48.666666666666664,0)" xlink:href="#az"/><use transform="matrix(0.07407407407407407,0,0,0.07407407407407407,64.88888888888889,0)" xlink:href="#aA"/></g><path fill="#333" d="M25 0v-261h50V0H25" id="bi"/><g id="t"><use transform="matrix(0.07407407407407407,0,0,0.07407407407407407,0,0)" xlink:href="#aB"/><use transform="matrix(0.07407407407407407,0,0,0.07407407407407407,17.77777777777778,0)" xlink:href="#bh"/><use transform="matrix(0.07407407407407407,0,0,0.07407407407407407,28.148148148148152,0)" xlink:href="#av"/><use transform="matrix(0.07407407407407407,0,0,0.07407407407407407,44.37037037037037,0)" xlink:href="#aD"/><use transform="matrix(0.07407407407407407,0,0,0.07407407407407407,53.18518518518518,0)" xlink:href="#av"/><use transform="matrix(0.07407407407407407,0,0,0.07407407407407407,69.4074074074074,0)" xlink:href="#be"/><use transform="matrix(0.07407407407407407,0,0,0.07407407407407407,84.22222222222221,0)" xlink:href="#av"/><use transform="matrix(0.07407407407407407,0,0,0.07407407407407407,100.44444444444443,0)" xlink:href="#bi"/></g><path fill="#333" d="M206 0h-36l-40-164L89 0H53L-1-190h32L70-26l43-164h34l41 164 42-164h31" id="bj"/><path fill="#333" d="M114-163C36-179 61-72 57 0H25l-1-190h30c1 12-1 29 2 39 6-27 23-49 58-41v29" id="bk"/><path fill="#333" d="M153-248C145-148 188 4 80 4 36 3 13-21 6-62l32-5c4 25 16 42 43 43 27 0 39-20 39-49v-147H72v-28h81" id="bl"/><g id="u"><use transform="matrix(0.06172839506172839,0,0,0.06172839506172839,0,0)" xlink:href="#aF"/><use transform="matrix(0.06172839506172839,0,0,0.06172839506172839,7.8395061728395055,0)" xlink:href="#aO"/><use transform="matrix(0.06172839506172839,0,0,0.06172839506172839,20.185185185185183,0)" xlink:href="#aJ"/><use transform="matrix(0.06172839506172839,0,0,0.06172839506172839,32.53086419753086,0)" xlink:href="#bj"/><use transform="matrix(0.06172839506172839,0,0,0.06172839506172839,48.51851851851851,0)" xlink:href="#aR"/><use transform="matrix(0.06172839506172839,0,0,0.06172839506172839,63.33333333333333,0)" xlink:href="#aX"/><use transform="matrix(0.06172839506172839,0,0,0.06172839506172839,68.20987654320987,0)" xlink:href="#aV"/><use transform="matrix(0.06172839506172839,0,0,0.06172839506172839,80.55555555555556,0)" xlink:href="#aH"/><use transform="matrix(0.06172839506172839,0,0,0.06172839506172839,91.66666666666667,0)" xlink:href="#aJ"/><use transform="matrix(0.06172839506172839,0,0,0.06172839506172839,104.01234567901236,0)" xlink:href="#bk"/><use transform="matrix(0.06172839506172839,0,0,0.06172839506172839,111.35802469135804,0)" xlink:href="#bl"/><use transform="matrix(0.06172839506172839,0,0,0.06172839506172839,122.46913580246915,0)" xlink:href="#aM"/><use transform="matrix(0.06172839506172839,0,0,0.06172839506172839,134.81481481481484,0)" xlink:href="#aN"/><use transform="matrix(0.06172839506172839,0,0,0.06172839506172839,139.69135802469137,0)" xlink:href="#aO"/><use transform="matrix(0.06172839506172839,0,0,0.06172839506172839,152.03703703703704,0)" xlink:href="#aJ"/><use transform="matrix(0.06172839506172839,0,0,0.06172839506172839,164.3827160493827,0)" xlink:href="#aZ"/><use transform="matrix(0.06172839506172839,0,0,0.06172839506172839,176.72839506172838,0)" xlink:href="#aF"/><use transform="matrix(0.06172839506172839,0,0,0.06172839506172839,184.56790123456787,0)" xlink:href="#aS"/></g><path fill="#333" d="M141 0L90-78 38 0H4l68-98-65-92h35l48 74 47-74h35l-64 92 68 98h-35" id="bm"/><path fill="#333" d="M106-169C34-169 62-67 57 0H25v-261h32l-1 103c12-21 28-36 61-36 89 0 53 116 60 194h-32v-121c2-32-8-49-39-48" id="bn"/><path fill="#333" d="M177-190C167-65 218 103 67 71c-23-6-38-20-44-43l32-5c15 47 100 32 89-28v-30C133-14 115 1 83 1 29 1 15-40 15-95c0-56 16-97 71-98 29-1 48 16 59 35 1-10 0-23 2-32h30zM94-22c36 0 50-32 50-73 0-42-14-75-50-75-39 0-46 34-46 75s6 73 46 73" id="bo"/><g id="v"><use transform="matrix(0.06172839506172839,0,0,0.06172839506172839,0,0)" xlink:href="#aF"/><use transform="matrix(0.06172839506172839,0,0,0.06172839506172839,7.8395061728395055,0)" xlink:href="#bm"/><use transform="matrix(0.06172839506172839,0,0,0.06172839506172839,18.950617283950617,0)" xlink:href="#bn"/><use transform="matrix(0.06172839506172839,0,0,0.06172839506172839,31.296296296296298,0)" xlink:href="#aG"/><use transform="matrix(0.06172839506172839,0,0,0.06172839506172839,37.46913580246914,0)" xlink:href="#aW"/><use transform="matrix(0.06172839506172839,0,0,0.06172839506172839,55.925925925925924,0)" xlink:href="#aX"/><use transform="matrix(0.06172839506172839,0,0,0.06172839506172839,60.80246913580247,0)" xlink:href="#aR"/><use transform="matrix(0.06172839506172839,0,0,0.06172839506172839,75.61728395061728,0)" xlink:href="#aV"/><use transform="matrix(0.06172839506172839,0,0,0.06172839506172839,87.96296296296296,0)" xlink:href="#bo"/><use transform="matrix(0.06172839506172839,0,0,0.06172839506172839,100.30864197530865,0)" xlink:href="#aJ"/><use transform="matrix(0.06172839506172839,0,0,0.06172839506172839,112.65432098765433,0)" xlink:href="#aF"/><use transform="matrix(0.06172839506172839,0,0,0.06172839506172839,120.49382716049384,0)" xlink:href="#aK"/></g><path fill="#333" d="M185-189c-5-48-123-54-124 2 14 75 158 14 163 119 3 78-121 87-175 55-17-10-28-26-33-46l33-7c5 56 141 63 141-1 0-78-155-14-162-118-5-82 145-84 179-34 5 7 8 16 11 25" id="bp"/><g id="w"><use transform="matrix(0.06172839506172839,0,0,0.06172839506172839,0,0)" xlink:href="#aF"/><use transform="matrix(0.06172839506172839,0,0,0.06172839506172839,7.8395061728395055,0)" xlink:href="#aP"/><use transform="matrix(0.06172839506172839,0,0,0.06172839506172839,20.185185185185183,0)" xlink:href="#aM"/><use transform="matrix(0.06172839506172839,0,0,0.06172839506172839,32.53086419753086,0)" xlink:href="#aQ"/><use transform="matrix(0.06172839506172839,0,0,0.06172839506172839,44.87654320987654,0)" xlink:href="#aQ"/><use transform="matrix(0.06172839506172839,0,0,0.06172839506172839,57.222222222222214,0)" xlink:href="#aH"/><use transform="matrix(0.06172839506172839,0,0,0.06172839506172839,68.33333333333333,0)" xlink:href="#bp"/><use transform="matrix(0.06172839506172839,0,0,0.06172839506172839,83.14814814814814,0)" xlink:href="#aT"/><use transform="matrix(0.06172839506172839,0,0,0.06172839506172839,94.25925925925925,0)" xlink:href="#bk"/><use transform="matrix(0.06172839506172839,0,0,0.06172839506172839,101.60493827160494,0)" xlink:href="#aJ"/><use transform="matrix(0.06172839506172839,0,0,0.06172839506172839,113.95061728395062,0)" xlink:href="#aJ"/><use transform="matrix(0.06172839506172839,0,0,0.06172839506172839,126.2962962962963,0)" xlink:href="#aO"/><use transform="matrix(0.06172839506172839,0,0,0.06172839506172839,138.64197530864197,0)" xlink:href="#aF"/><use transform="matrix(0.06172839506172839,0,0,0.06172839506172839,146.48148148148147,0)" xlink:href="#aS"/></g><path fill="#333" d="M135-143c-3-34-86-38-87 0 15 53 115 12 119 90S17 21 10-45l28-5c4 36 97 45 98 0-10-56-113-15-118-90-4-57 82-63 122-42 12 7 21 19 24 35" id="bq"/><g id="x"><use transform="matrix(0.06172839506172839,0,0,0.06172839506172839,0,0)" xlink:href="#aF"/><use transform="matrix(0.06172839506172839,0,0,0.06172839506172839,7.8395061728395055,0)" xlink:href="#aI"/><use transform="matrix(0.06172839506172839,0,0,0.06172839506172839,20.185185185185183,0)" xlink:href="#aX"/><use transform="matrix(0.06172839506172839,0,0,0.06172839506172839,25.061728395061728,0)" xlink:href="#aV"/><use transform="matrix(0.06172839506172839,0,0,0.06172839506172839,37.407407407407405,0)" xlink:href="#aH"/><use transform="matrix(0.06172839506172839,0,0,0.06172839506172839,48.51851851851852,0)" xlink:href="#aJ"/><use transform="matrix(0.06172839506172839,0,0,0.06172839506172839,60.864197530864196,0)" xlink:href="#bk"/><use transform="matrix(0.06172839506172839,0,0,0.06172839506172839,68.20987654320987,0)" xlink:href="#bq"/><use transform="matrix(0.06172839506172839,0,0,0.06172839506172839,79.32098765432099,0)" xlink:href="#aF"/><use transform="matrix(0.06172839506172839,0,0,0.06172839506172839,87.1604938271605,0)" xlink:href="#aK"/></g><path fill="#333" d="M26 75v-336h71v23H56V52h41v23H26" id="br"/><use transform="matrix(0.06172839506172839,0,0,0.06172839506172839,0,0)" xlink:href="#br" id="y"/><use transform="matrix(0.06172839506172839,0,0,0.06172839506172839,0,0)" xlink:href="#aE" id="A"/><path fill="#333" d="M33 0v-248h34V0H33" id="bs"/><g id="C"><use transform="matrix(0.06172839506172839,0,0,0.06172839506172839,0,0)" xlink:href="#aF"/><use transform="matrix(0.06172839506172839,0,0,0.06172839506172839,7.8395061728395055,0)" xlink:href="#aI"/><use transform="matrix(0.06172839506172839,0,0,0.06172839506172839,20.185185185185183,0)" xlink:href="#aX"/><use transform="matrix(0.06172839506172839,0,0,0.06172839506172839,25.061728395061728,0)" xlink:href="#aV"/><use transform="matrix(0.06172839506172839,0,0,0.06172839506172839,37.407407407407405,0)" xlink:href="#aH"/><use transform="matrix(0.06172839506172839,0,0,0.06172839506172839,48.51851851851852,0)" xlink:href="#aJ"/><use transform="matrix(0.06172839506172839,0,0,0.06172839506172839,60.864197530864196,0)" xlink:href="#bk"/><use transform="matrix(0.06172839506172839,0,0,0.06172839506172839,68.20987654320987,0)" xlink:href="#bs"/><use transform="matrix(0.06172839506172839,0,0,0.06172839506172839,74.38271604938271,0)" xlink:href="#aZ"/><use transform="matrix(0.06172839506172839,0,0,0.06172839506172839,86.72839506172839,0)" xlink:href="#aF"/><use transform="matrix(0.06172839506172839,0,0,0.06172839506172839,94.5679012345679,0)" xlink:href="#aK"/></g><path fill="#333" d="M84 4C-5 8 30-112 23-190h32v120c0 31 7 50 39 49 72-2 45-101 50-169h31l1 190h-30c-1-10 1-25-2-33-11 22-28 36-60 37" id="bt"/><g id="D"><use transform="matrix(0.06172839506172839,0,0,0.06172839506172839,0,0)" xlink:href="#aF"/><use transform="matrix(0.06172839506172839,0,0,0.06172839506172839,7.8395061728395055,0)" xlink:href="#aO"/><use transform="matrix(0.06172839506172839,0,0,0.06172839506172839,20.185185185185183,0)" xlink:href="#bt"/><use transform="matrix(0.06172839506172839,0,0,0.06172839506172839,32.53086419753086,0)" xlink:href="#aW"/><use transform="matrix(0.06172839506172839,0,0,0.06172839506172839,50.987654320987644,0)" xlink:href="#aQ"/><use transform="matrix(0.06172839506172839,0,0,0.06172839506172839,63.333333333333314,0)" xlink:href="#aJ"/><use transform="matrix(0.06172839506172839,0,0,0.06172839506172839,75.679012345679,0)" xlink:href="#bk"/></g><g id="E"><use transform="matrix(0.06172839506172839,0,0,0.06172839506172839,0,0)" xlink:href="#ba"/><use transform="matrix(0.06172839506172839,0,0,0.06172839506172839,7.4074074074074066,0)" xlink:href="#aS"/></g><use transform="matrix(0.06172839506172839,0,0,0.06172839506172839,0,0)" xlink:href="#aE" id="F"/><g id="G"><use transform="matrix(0.06172839506172839,0,0,0.06172839506172839,0,0)" xlink:href="#aF"/><use transform="matrix(0.06172839506172839,0,0,0.06172839506172839,7.8395061728395055,0)" xlink:href="#aO"/><use transform="matrix(0.06172839506172839,0,0,0.06172839506172839,20.185185185185183,0)" xlink:href="#bt"/><use transform="matrix(0.06172839506172839,0,0,0.06172839506172839,32.53086419753086,0)" xlink:href="#aW"/><use transform="matrix(0.06172839506172839,0,0,0.06172839506172839,50.987654320987644,0)" xlink:href="#aQ"/><use transform="matrix(0.06172839506172839,0,0,0.06172839506172839,63.333333333333314,0)" xlink:href="#aJ"/><use transform="matrix(0.06172839506172839,0,0,0.06172839506172839,75.679012345679,0)" xlink:href="#bk"/><use transform="matrix(0.06172839506172839,0,0,0.06172839506172839,81.79012345679011,0)" xlink:href="#aS"/></g><use transform="matrix(0.06172839506172839,0,0,0.06172839506172839,0,0)" xlink:href="#ba" id="H"/><path fill="#333" d="M3 75V52h41v-290H3v-23h71V75H3" id="bu"/><g id="J"><use transform="matrix(0.06172839506172839,0,0,0.06172839506172839,0,0)" xlink:href="#bu"/><use transform="matrix(0.06172839506172839,0,0,0.06172839506172839,6.172839506172839,0)" xlink:href="#aS"/></g><path fill="#333" d="M30-248c118-7 216 8 213 122C240-48 200 0 122 0H30v-248zM63-27c89 8 146-16 146-99s-60-101-146-95v194" id="bv"/><g id="K"><use transform="matrix(0.06172839506172839,0,0,0.06172839506172839,0,0)" xlink:href="#aF"/><use transform="matrix(0.06172839506172839,0,0,0.06172839506172839,7.8395061728395055,0)" xlink:href="#aH"/><use transform="matrix(0.06172839506172839,0,0,0.06172839506172839,18.950617283950617,0)" xlink:href="#aM"/><use transform="matrix(0.06172839506172839,0,0,0.06172839506172839,31.296296296296298,0)" xlink:href="#bt"/><use transform="matrix(0.06172839506172839,0,0,0.06172839506172839,43.641975308641975,0)" xlink:href="#bk"/><use transform="matrix(0.06172839506172839,0,0,0.06172839506172839,50.98765432098765,0)" xlink:href="#bs"/><use transform="matrix(0.06172839506172839,0,0,0.06172839506172839,57.160493827160494,0)" xlink:href="#bv"/><use transform="matrix(0.06172839506172839,0,0,0.06172839506172839,73.14814814814815,0)" xlink:href="#aF"/><use transform="matrix(0.06172839506172839,0,0,0.06172839506172839,80.98765432098766,0)" xlink:href="#aK"/></g><g id="L"><use transform="matrix(0.06172839506172839,0,0,0.06172839506172839,0,0)" xlink:href="#aF"/><use transform="matrix(0.06172839506172839,0,0,0.06172839506172839,7.8395061728395055,0)" xlink:href="#aO"/><use transform="matrix(0.06172839506172839,0,0,0.06172839506172839,20.185185185185183,0)" xlink:href="#bt"/><use transform="matrix(0.06172839506172839,0,0,0.06172839506172839,32.53086419753086,0)" xlink:href="#aW"/><use transform="matrix(0.06172839506172839,0,0,0.06172839506172839,50.987654320987644,0)" xlink:href="#aQ"/><use transform="matrix(0.06172839506172839,0,0,0.06172839506172839,63.333333333333314,0)" xlink:href="#aJ"/><use transform="matrix(0.06172839506172839,0,0,0.06172839506172839,75.679012345679,0)" xlink:href="#bk"/><use transform="matrix(0.06172839506172839,0,0,0.06172839506172839,83.02469135802468,0)" xlink:href="#aF"/><use transform="matrix(0.06172839506172839,0,0,0.06172839506172839,90.86419753086419,0)" xlink:href="#aS"/></g><g id="M"><use transform="matrix(0.06172839506172839,0,0,0.06172839506172839,0,0)" xlink:href="#aF"/><use transform="matrix(0.06172839506172839,0,0,0.06172839506172839,7.8395061728395055,0)" xlink:href="#bq"/><use transform="matrix(0.06172839506172839,0,0,0.06172839506172839,18.950617283950617,0)" xlink:href="#aJ"/><use transform="matrix(0.06172839506172839,0,0,0.06172839506172839,31.296296296296298,0)" xlink:href="#aG"/><use transform="matrix(0.06172839506172839,0,0,0.06172839506172839,37.46913580246914,0)" xlink:href="#aG"/><use transform="matrix(0.06172839506172839,0,0,0.06172839506172839,43.64197530864198,0)" xlink:href="#aN"/><use transform="matrix(0.06172839506172839,0,0,0.06172839506172839,48.518518518518526,0)" xlink:href="#aO"/><use transform="matrix(0.06172839506172839,0,0,0.06172839506172839,60.8641975308642,0)" xlink:href="#bo"/><use transform="matrix(0.06172839506172839,0,0,0.06172839506172839,73.20987654320989,0)" xlink:href="#bq"/><use transform="matrix(0.06172839506172839,0,0,0.06172839506172839,84.320987654321,0)" xlink:href="#aF"/><use transform="matrix(0.06172839506172839,0,0,0.06172839506172839,92.16049382716051,0)" xlink:href="#aK"/></g><path fill="#333" d="M101-251c82-7 93 87 43 132L82-64C71-53 59-42 53-27h129V0H18c2-99 128-94 128-182 0-28-16-43-45-43s-46 15-49 41l-32-3c6-41 34-60 81-64" id="bw"/><g id="N"><use transform="matrix(0.06172839506172839,0,0,0.06172839506172839,0,0)" xlink:href="#aF"/><use transform="matrix(0.06172839506172839,0,0,0.06172839506172839,7.8395061728395055,0)" xlink:href="#bm"/><use transform="matrix(0.06172839506172839,0,0,0.06172839506172839,18.950617283950617,0)" xlink:href="#bw"/><use transform="matrix(0.06172839506172839,0,0,0.06172839506172839,31.296296296296298,0)" xlink:href="#aY"/><use transform="matrix(0.06172839506172839,0,0,0.06172839506172839,47.28395061728395,0)" xlink:href="#aV"/><use transform="matrix(0.06172839506172839,0,0,0.06172839506172839,59.629629629629626,0)" xlink:href="#bk"/><use transform="matrix(0.06172839506172839,0,0,0.06172839506172839,66.9753086419753,0)" xlink:href="#aZ"/><use transform="matrix(0.06172839506172839,0,0,0.06172839506172839,79.32098765432099,0)" xlink:href="#aF"/><use transform="matrix(0.06172839506172839,0,0,0.06172839506172839,87.1604938271605,0)" xlink:href="#aK"/></g><g id="O"><use transform="matrix(0.06172839506172839,0,0,0.06172839506172839,0,0)" xlink:href="#aF"/><use transform="matrix(0.06172839506172839,0,0,0.06172839506172839,7.8395061728395055,0)" xlink:href="#aQ"/><use transform="matrix(0.06172839506172839,0,0,0.06172839506172839,20.185185185185183,0)" xlink:href="#aM"/><use transform="matrix(0.06172839506172839,0,0,0.06172839506172839,32.53086419753086,0)" xlink:href="#aM"/><use transform="matrix(0.06172839506172839,0,0,0.06172839506172839,44.87654320987654,0)" xlink:href="#aX"/><use transform="matrix(0.06172839506172839,0,0,0.06172839506172839,49.75308641975308,0)" xlink:href="#aF"/><use transform="matrix(0.06172839506172839,0,0,0.06172839506172839,57.59259259259259,0)" xlink:href="#aS"/></g><g id="P"><use transform="matrix(0.06172839506172839,0,0,0.06172839506172839,0,0)" xlink:href="#aF"/><use transform="matrix(0.06172839506172839,0,0,0.06172839506172839,7.8395061728395055,0)" xlink:href="#bk"/><use transform="matrix(0.06172839506172839,0,0,0.06172839506172839,15.185185185185183,0)" xlink:href="#aV"/><use transform="matrix(0.06172839506172839,0,0,0.06172839506172839,27.53086419753086,0)" xlink:href="#aN"/><use transform="matrix(0.06172839506172839,0,0,0.06172839506172839,32.407407407407405,0)" xlink:href="#aO"/><use transform="matrix(0.06172839506172839,0,0,0.06172839506172839,44.75308641975308,0)" xlink:href="#aQ"/><use transform="matrix(0.06172839506172839,0,0,0.06172839506172839,57.09876543209876,0)" xlink:href="#aM"/><use transform="matrix(0.06172839506172839,0,0,0.06172839506172839,69.44444444444444,0)" xlink:href="#bj"/><use transform="matrix(0.06172839506172839,0,0,0.06172839506172839,85.4320987654321,0)" xlink:href="#aY"/><use transform="matrix(0.06172839506172839,0,0,0.06172839506172839,101.41975308641976,0)" xlink:href="#aV"/><use transform="matrix(0.06172839506172839,0,0,0.06172839506172839,113.76543209876544,0)" xlink:href="#bk"/><use transform="matrix(0.06172839506172839,0,0,0.06172839506172839,121.11111111111113,0)" xlink:href="#aZ"/><use transform="matrix(0.06172839506172839,0,0,0.06172839506172839,133.4567901234568,0)" xlink:href="#aF"/><use transform="matrix(0.06172839506172839,0,0,0.06172839506172839,141.2962962962963,0)" xlink:href="#aK"/></g><g id="Q"><use transform="matrix(0.06172839506172839,0,0,0.06172839506172839,0,0)" xlink:href="#aF"/><use transform="matrix(0.06172839506172839,0,0,0.06172839506172839,7.8395061728395055,0)" xlink:href="#bk"/><use transform="matrix(0.06172839506172839,0,0,0.06172839506172839,15.185185185185183,0)" xlink:href="#aM"/><use transform="matrix(0.06172839506172839,0,0,0.06172839506172839,27.53086419753086,0)" xlink:href="#aX"/><use transform="matrix(0.06172839506172839,0,0,0.06172839506172839,32.407407407407405,0)" xlink:href="#aX"/><use transform="matrix(0.06172839506172839,0,0,0.06172839506172839,37.28395061728395,0)" xlink:href="#aQ"/><use transform="matrix(0.06172839506172839,0,0,0.06172839506172839,49.629629629629626,0)" xlink:href="#aV"/><use transform="matrix(0.06172839506172839,0,0,0.06172839506172839,61.9753086419753,0)" xlink:href="#aT"/><use transform="matrix(0.06172839506172839,0,0,0.06172839506172839,73.08641975308642,0)" xlink:href="#aU"/><use transform="matrix(0.06172839506172839,0,0,0.06172839506172839,84.19753086419753,0)" xlink:href="#aY"/><use transform="matrix(0.06172839506172839,0,0,0.06172839506172839,100.18518518518519,0)" xlink:href="#aV"/><use transform="matrix(0.06172839506172839,0,0,0.06172839506172839,112.53086419753087,0)" xlink:href="#bk"/><use transform="matrix(0.06172839506172839,0,0,0.06172839506172839,119.87654320987656,0)" xlink:href="#aZ"/><use transform="matrix(0.06172839506172839,0,0,0.06172839506172839,132.22222222222223,0)" xlink:href="#aF"/><use transform="matrix(0.06172839506172839,0,0,0.06172839506172839,140.06172839506172,0)" xlink:href="#aK"/></g><g id="R"><use transform="matrix(0.06172839506172839,0,0,0.06172839506172839,0,0)" xlink:href="#aF"/><use transform="matrix(0.06172839506172839,0,0,0.06172839506172839,7.8395061728395055,0)" xlink:href="#bq"/><use transform="matrix(0.06172839506172839,0,0,0.06172839506172839,18.950617283950617,0)" xlink:href="#bj"/><use transform="matrix(0.06172839506172839,0,0,0.06172839506172839,34.93827160493827,0)" xlink:href="#aV"/><use transform="matrix(0.06172839506172839,0,0,0.06172839506172839,47.28395061728395,0)" xlink:href="#aI"/><use transform="matrix(0.06172839506172839,0,0,0.06172839506172839,59.629629629629626,0)" xlink:href="#aY"/><use transform="matrix(0.06172839506172839,0,0,0.06172839506172839,75.61728395061728,0)" xlink:href="#aV"/><use transform="matrix(0.06172839506172839,0,0,0.06172839506172839,87.96296296296296,0)" xlink:href="#bk"/><use transform="matrix(0.06172839506172839,0,0,0.06172839506172839,95.30864197530865,0)" xlink:href="#aZ"/><use transform="matrix(0.06172839506172839,0,0,0.06172839506172839,107.65432098765433,0)" xlink:href="#aF"/><use transform="matrix(0.06172839506172839,0,0,0.06172839506172839,115.49382716049384,0)" xlink:href="#aK"/></g><path fill="#333" d="M205 0l-28-72H64L36 0H1l101-248h38L239 0h-34zm-38-99l-47-123c-12 45-31 82-46 123h93" id="bx"/><g id="S"><use transform="matrix(0.06172839506172839,0,0,0.06172839506172839,0,0)" xlink:href="#aF"/><use transform="matrix(0.06172839506172839,0,0,0.06172839506172839,7.8395061728395055,0)" xlink:href="#aX"/><use transform="matrix(0.06172839506172839,0,0,0.06172839506172839,12.716049382716047,0)" xlink:href="#aV"/><use transform="matrix(0.06172839506172839,0,0,0.06172839506172839,25.061728395061728,0)" xlink:href="#aO"/><use transform="matrix(0.06172839506172839,0,0,0.06172839506172839,37.407407407407405,0)" xlink:href="#aZ"/><use transform="matrix(0.06172839506172839,0,0,0.06172839506172839,49.75308641975308,0)" xlink:href="#bx"/><use transform="matrix(0.06172839506172839,0,0,0.06172839506172839,64.5679012345679,0)" xlink:href="#aO"/><use transform="matrix(0.06172839506172839,0,0,0.06172839506172839,76.91358024691358,0)" xlink:href="#aM"/><use transform="matrix(0.06172839506172839,0,0,0.06172839506172839,89.25925925925927,0)" xlink:href="#aG"/><use transform="matrix(0.06172839506172839,0,0,0.06172839506172839,95.4320987654321,0)" xlink:href="#bn"/><use transform="matrix(0.06172839506172839,0,0,0.06172839506172839,107.77777777777779,0)" xlink:href="#aJ"/><use transform="matrix(0.06172839506172839,0,0,0.06172839506172839,120.12345679012347,0)" xlink:href="#bk"/><use transform="matrix(0.06172839506172839,0,0,0.06172839506172839,127.46913580246915,0)" xlink:href="#aR"/><use transform="matrix(0.06172839506172839,0,0,0.06172839506172839,142.28395061728398,0)" xlink:href="#aX"/><use transform="matrix(0.06172839506172839,0,0,0.06172839506172839,147.1604938271605,0)" xlink:href="#aV"/><use transform="matrix(0.06172839506172839,0,0,0.06172839506172839,159.50617283950618,0)" xlink:href="#aH"/><use transform="matrix(0.06172839506172839,0,0,0.06172839506172839,170.6172839506173,0)" xlink:href="#aJ"/><use transform="matrix(0.06172839506172839,0,0,0.06172839506172839,182.96296296296296,0)" xlink:href="#bk"/><use transform="matrix(0.06172839506172839,0,0,0.06172839506172839,190.30864197530863,0)" xlink:href="#aF"/><use transform="matrix(0.06172839506172839,0,0,0.06172839506172839,198.14814814814812,0)" xlink:href="#aK"/></g><g id="T"><use transform="matrix(0.06172839506172839,0,0,0.06172839506172839,0,0)" xlink:href="#aF"/><use transform="matrix(0.06172839506172839,0,0,0.06172839506172839,7.8395061728395055,0)" xlink:href="#aM"/><use transform="matrix(0.06172839506172839,0,0,0.06172839506172839,20.185185185185183,0)" xlink:href="#bj"/><use transform="matrix(0.06172839506172839,0,0,0.06172839506172839,36.172839506172835,0)" xlink:href="#aX"/><use transform="matrix(0.06172839506172839,0,0,0.06172839506172839,41.04938271604938,0)" xlink:href="#bq"/><use transform="matrix(0.06172839506172839,0,0,0.06172839506172839,52.160493827160494,0)" xlink:href="#aR"/><use transform="matrix(0.06172839506172839,0,0,0.06172839506172839,66.9753086419753,0)" xlink:href="#aJ"/><use transform="matrix(0.06172839506172839,0,0,0.06172839506172839,79.32098765432099,0)" xlink:href="#bk"/><use transform="matrix(0.06172839506172839,0,0,0.06172839506172839,86.66666666666667,0)" xlink:href="#aR"/><use transform="matrix(0.06172839506172839,0,0,0.06172839506172839,101.48148148148148,0)" xlink:href="#aX"/><use transform="matrix(0.06172839506172839,0,0,0.06172839506172839,106.35802469135803,0)" xlink:href="#aV"/><use transform="matrix(0.06172839506172839,0,0,0.06172839506172839,118.70370370370371,0)" xlink:href="#aH"/><use transform="matrix(0.06172839506172839,0,0,0.06172839506172839,129.8148148148148,0)" xlink:href="#aJ"/><use transform="matrix(0.06172839506172839,0,0,0.06172839506172839,142.16049382716048,0)" xlink:href="#bk"/><use transform="matrix(0.06172839506172839,0,0,0.06172839506172839,149.50617283950615,0)" xlink:href="#aF"/><use transform="matrix(0.06172839506172839,0,0,0.06172839506172839,157.34567901234564,0)" xlink:href="#aK"/></g><g id="U"><use transform="matrix(0.06172839506172839,0,0,0.06172839506172839,0,0)" xlink:href="#aF"/><use transform="matrix(0.06172839506172839,0,0,0.06172839506172839,7.8395061728395055,0)" xlink:href="#aT"/><use transform="matrix(0.06172839506172839,0,0,0.06172839506172839,18.950617283950617,0)" xlink:href="#aV"/><use transform="matrix(0.06172839506172839,0,0,0.06172839506172839,31.296296296296298,0)" xlink:href="#bk"/><use transform="matrix(0.06172839506172839,0,0,0.06172839506172839,38.641975308641975,0)" xlink:href="#aZ"/><use transform="matrix(0.06172839506172839,0,0,0.06172839506172839,50.98765432098765,0)" xlink:href="#bq"/><use transform="matrix(0.06172839506172839,0,0,0.06172839506172839,62.09876543209876,0)" xlink:href="#aR"/><use transform="matrix(0.06172839506172839,0,0,0.06172839506172839,76.91358024691357,0)" xlink:href="#aJ"/><use transform="matrix(0.06172839506172839,0,0,0.06172839506172839,89.25925925925925,0)" xlink:href="#bk"/><use transform="matrix(0.06172839506172839,0,0,0.06172839506172839,96.60493827160494,0)" xlink:href="#aR"/><use transform="matrix(0.06172839506172839,0,0,0.06172839506172839,111.41975308641975,0)" xlink:href="#aX"/><use transform="matrix(0.06172839506172839,0,0,0.06172839506172839,116.29629629629629,0)" xlink:href="#aV"/><use transform="matrix(0.06172839506172839,0,0,0.06172839506172839,128.64197530864197,0)" xlink:href="#aH"/><use transform="matrix(0.06172839506172839,0,0,0.06172839506172839,139.7530864197531,0)" xlink:href="#aJ"/><use transform="matrix(0.06172839506172839,0,0,0.06172839506172839,152.09876543209876,0)" xlink:href="#bk"/><use transform="matrix(0.06172839506172839,0,0,0.06172839506172839,159.44444444444443,0)" xlink:href="#aF"/><use transform="matrix(0.06172839506172839,0,0,0.06172839506172839,167.28395061728392,0)" xlink:href="#aK"/></g><use transform="matrix(0.06172839506172839,0,0,0.06172839506172839,0,0)" xlink:href="#ba" id="V"/><g id="W"><use transform="matrix(0.06172839506172839,0,0,0.06172839506172839,0,0)" xlink:href="#aQ"/><use transform="matrix(0.06172839506172839,0,0,0.06172839506172839,12.345679012345679,0)" xlink:href="#bk"/><use transform="matrix(0.06172839506172839,0,0,0.06172839506172839,19.691358024691358,0)" xlink:href="#aM"/><use transform="matrix(0.06172839506172839,0,0,0.06172839506172839,32.03703703703704,0)" xlink:href="#aV"/><use transform="matrix(0.06172839506172839,0,0,0.06172839506172839,44.382716049382715,0)" xlink:href="#aZ"/><use transform="matrix(0.06172839506172839,0,0,0.06172839506172839,56.72839506172839,0)" xlink:href="#aT"/><use transform="matrix(0.06172839506172839,0,0,0.06172839506172839,67.8395061728395,0)" xlink:href="#aV"/><use transform="matrix(0.06172839506172839,0,0,0.06172839506172839,80.18518518518519,0)" xlink:href="#bq"/><use transform="matrix(0.06172839506172839,0,0,0.06172839506172839,91.2962962962963,0)" xlink:href="#aG"/></g><path fill="#333" d="M240 0l2-218c-23 76-54 145-80 218h-23L58-218 59 0H30v-248h44l77 211c21-75 51-140 76-211h43V0h-30" id="by"/><g id="X"><use transform="matrix(0.06172839506172839,0,0,0.06172839506172839,0,0)" xlink:href="#aF"/><use transform="matrix(0.06172839506172839,0,0,0.06172839506172839,7.8395061728395055,0)" xlink:href="#bq"/><use transform="matrix(0.06172839506172839,0,0,0.06172839506172839,18.950617283950617,0)" xlink:href="#aG"/><use transform="matrix(0.06172839506172839,0,0,0.06172839506172839,25.123456790123456,0)" xlink:href="#aV"/><use transform="matrix(0.06172839506172839,0,0,0.06172839506172839,37.46913580246913,0)" xlink:href="#bk"/><use transform="matrix(0.06172839506172839,0,0,0.06172839506172839,44.81481481481481,0)" xlink:href="#aG"/><use transform="matrix(0.06172839506172839,0,0,0.06172839506172839,50.98765432098765,0)" xlink:href="#by"/><use transform="matrix(0.06172839506172839,0,0,0.06172839506172839,69.44444444444444,0)" xlink:href="#aV"/><use transform="matrix(0.06172839506172839,0,0,0.06172839506172839,81.79012345679013,0)" xlink:href="#aG"/><use transform="matrix(0.06172839506172839,0,0,0.06172839506172839,87.96296296296296,0)" xlink:href="#aT"/><use transform="matrix(0.06172839506172839,0,0,0.06172839506172839,99.07407407407408,0)" xlink:href="#bn"/><use transform="matrix(0.06172839506172839,0,0,0.06172839506172839,111.41975308641976,0)" xlink:href="#aF"/><use transform="matrix(0.06172839506172839,0,0,0.06172839506172839,119.25925925925927,0)" xlink:href="#aS"/></g><path fill="#333" d="M143 4C61 4 22-44 18-125c-5-107 100-154 193-111 17 8 29 25 37 43l-32 9c-13-25-37-40-76-40-61 0-88 39-88 99 0 61 29 100 91 101 35 0 62-11 79-27v-45h-74v-28h105v86C228-13 192 4 143 4" id="bz"/><g id="Y"><use transform="matrix(0.06172839506172839,0,0,0.06172839506172839,0,0)" xlink:href="#aF"/><use transform="matrix(0.06172839506172839,0,0,0.06172839506172839,7.8395061728395055,0)" xlink:href="#bz"/><use transform="matrix(0.06172839506172839,0,0,0.06172839506172839,25.123456790123456,0)" xlink:href="#aV"/><use transform="matrix(0.06172839506172839,0,0,0.06172839506172839,37.46913580246913,0)" xlink:href="#aW"/><use transform="matrix(0.06172839506172839,0,0,0.06172839506172839,55.925925925925924,0)" xlink:href="#aJ"/><use transform="matrix(0.06172839506172839,0,0,0.06172839506172839,68.27160493827161,0)" xlink:href="#bp"/><use transform="matrix(0.06172839506172839,0,0,0.06172839506172839,83.08641975308642,0)" xlink:href="#aT"/><use transform="matrix(0.06172839506172839,0,0,0.06172839506172839,94.19753086419753,0)" xlink:href="#bk"/><use transform="matrix(0.06172839506172839,0,0,0.06172839506172839,101.54320987654322,0)" xlink:href="#aJ"/><use transform="matrix(0.06172839506172839,0,0,0.06172839506172839,113.8888888888889,0)" xlink:href="#aJ"/><use transform="matrix(0.06172839506172839,0,0,0.06172839506172839,126.23456790123458,0)" xlink:href="#aO"/><use transform="matrix(0.06172839506172839,0,0,0.06172839506172839,138.58024691358025,0)" xlink:href="#aF"/></g><path fill="#333" d="M175 0L67-191c6 58 2 128 3 191H24v-248h59L193-55c-6-58-2-129-3-193h46V0h-61" id="bA"/><path fill="#333" d="M231 0h-52l-39-155L100 0H48L-1-190h46L77-45c9-52 24-97 36-145h53l37 145 32-145h46" id="bB"/><g id="Z"><use transform="matrix(0.06172839506172839,0,0,0.06172839506172839,0,0)" xlink:href="#bA"/><use transform="matrix(0.06172839506172839,0,0,0.06172839506172839,15.987654320987653,0)" xlink:href="#aC"/><use transform="matrix(0.06172839506172839,0,0,0.06172839506172839,28.333333333333332,0)" xlink:href="#bB"/></g><path fill="#333" d="M195-6C206 82 75 100 31 46c-4-6-6-13-8-21l49-6c3 16 16 24 34 25 40 0 42-37 40-79-11 22-30 35-61 35-53 0-70-43-70-97 0-56 18-96 73-97 30 0 46 14 59 34l2-30h47zm-90-29c32 0 41-27 41-63 0-35-9-62-40-62-32 0-39 29-40 63 0 36 9 62 39 62" id="bC"/><path fill="#333" d="M137-138c1-29-70-34-71-4 15 46 118 7 119 86 1 83-164 76-172 9l43-7c4 19 20 25 44 25 33 8 57-30 24-41C81-84 22-81 20-136c-2-80 154-74 161-7" id="bD"/><g id="aa"><use transform="matrix(0.06172839506172839,0,0,0.06172839506172839,0,0)" xlink:href="#bg"/><use transform="matrix(0.06172839506172839,0,0,0.06172839506172839,14.814814814814813,0)" xlink:href="#aC"/><use transform="matrix(0.06172839506172839,0,0,0.06172839506172839,27.160493827160494,0)" xlink:href="#aD"/><use transform="matrix(0.06172839506172839,0,0,0.06172839506172839,34.50617283950617,0)" xlink:href="#aD"/><use transform="matrix(0.06172839506172839,0,0,0.06172839506172839,41.85185185185185,0)" xlink:href="#aw"/><use transform="matrix(0.06172839506172839,0,0,0.06172839506172839,48.02469135802469,0)" xlink:href="#ax"/><use transform="matrix(0.06172839506172839,0,0,0.06172839506172839,61.54320987654321,0)" xlink:href="#bC"/><use transform="matrix(0.06172839506172839,0,0,0.06172839506172839,75.06172839506172,0)" xlink:href="#bD"/></g><g id="ab"><use transform="matrix(0.06172839506172839,0,0,0.06172839506172839,0,0)" xlink:href="#aF"/><use transform="matrix(0.06172839506172839,0,0,0.06172839506172839,7.8395061728395055,0)" xlink:href="#aO"/><use transform="matrix(0.06172839506172839,0,0,0.06172839506172839,20.185185185185183,0)" xlink:href="#aJ"/><use transform="matrix(0.06172839506172839,0,0,0.06172839506172839,32.53086419753086,0)" xlink:href="#bj"/><use transform="matrix(0.06172839506172839,0,0,0.06172839506172839,48.51851851851851,0)" xlink:href="#bp"/><use transform="matrix(0.06172839506172839,0,0,0.06172839506172839,63.33333333333333,0)" xlink:href="#aJ"/><use transform="matrix(0.06172839506172839,0,0,0.06172839506172839,75.67901234567901,0)" xlink:href="#aG"/><use transform="matrix(0.06172839506172839,0,0,0.06172839506172839,81.85185185185185,0)" xlink:href="#aG"/><use transform="matrix(0.06172839506172839,0,0,0.06172839506172839,88.02469135802468,0)" xlink:href="#aN"/><use transform="matrix(0.06172839506172839,0,0,0.06172839506172839,92.90123456790123,0)" xlink:href="#aO"/><use transform="matrix(0.06172839506172839,0,0,0.06172839506172839,105.24691358024691,0)" xlink:href="#bo"/><use transform="matrix(0.06172839506172839,0,0,0.06172839506172839,117.5925925925926,0)" xlink:href="#bq"/><use transform="matrix(0.06172839506172839,0,0,0.06172839506172839,128.7037037037037,0)" xlink:href="#aF"/></g><use transform="matrix(0.06172839506172839,0,0,0.06172839506172839,0,0)" xlink:href="#aS" id="ac"/><path fill="#333" d="M101-234c-31-9-42 10-38 44h38v23H63V0H32v-167H5v-23h27c-7-52 17-82 69-68v24" id="bE"/><g id="ad"><use transform="matrix(0.06172839506172839,0,0,0.06172839506172839,0,0)" xlink:href="#aF"/><use transform="matrix(0.06172839506172839,0,0,0.06172839506172839,7.8395061728395055,0)" xlink:href="#aJ"/><use transform="matrix(0.06172839506172839,0,0,0.06172839506172839,20.185185185185183,0)" xlink:href="#bq"/><use transform="matrix(0.06172839506172839,0,0,0.06172839506172839,31.296296296296294,0)" xlink:href="#aI"/><use transform="matrix(0.06172839506172839,0,0,0.06172839506172839,43.641975308641975,0)" xlink:href="#aJ"/><use transform="matrix(0.06172839506172839,0,0,0.06172839506172839,55.98765432098765,0)" xlink:href="#aT"/><use transform="matrix(0.06172839506172839,0,0,0.06172839506172839,67.09876543209876,0)" xlink:href="#aN"/><use transform="matrix(0.06172839506172839,0,0,0.06172839506172839,71.9753086419753,0)" xlink:href="#bE"/><use transform="matrix(0.06172839506172839,0,0,0.06172839506172839,78.14814814814814,0)" xlink:href="#aN"/><use transform="matrix(0.06172839506172839,0,0,0.06172839506172839,83.02469135802468,0)" xlink:href="#aT"/><use transform="matrix(0.06172839506172839,0,0,0.06172839506172839,94.1358024691358,0)" xlink:href="#bp"/><use transform="matrix(0.06172839506172839,0,0,0.06172839506172839,108.9506172839506,0)" xlink:href="#aJ"/><use transform="matrix(0.06172839506172839,0,0,0.06172839506172839,121.29629629629629,0)" xlink:href="#aG"/><use transform="matrix(0.06172839506172839,0,0,0.06172839506172839,127.46913580246913,0)" xlink:href="#aG"/><use transform="matrix(0.06172839506172839,0,0,0.06172839506172839,133.64197530864197,0)" xlink:href="#aN"/><use transform="matrix(0.06172839506172839,0,0,0.06172839506172839,138.5185185185185,0)" xlink:href="#aO"/><use transform="matrix(0.06172839506172839,0,0,0.06172839506172839,150.86419753086417,0)" xlink:href="#bo"/><use transform="matrix(0.06172839506172839,0,0,0.06172839506172839,163.20987654320984,0)" xlink:href="#aF"/><use transform="matrix(0.06172839506172839,0,0,0.06172839506172839,171.04938271604934,0)" xlink:href="#aK"/></g><path fill="#333" d="M137 0h-34L2-248h35l83 218 83-218h36" id="bF"/><g id="ae"><use transform="matrix(0.06172839506172839,0,0,0.06172839506172839,0,0)" xlink:href="#aF"/><use transform="matrix(0.06172839506172839,0,0,0.06172839506172839,7.8395061728395055,0)" xlink:href="#aO"/><use transform="matrix(0.06172839506172839,0,0,0.06172839506172839,20.185185185185183,0)" xlink:href="#aJ"/><use transform="matrix(0.06172839506172839,0,0,0.06172839506172839,32.53086419753086,0)" xlink:href="#bj"/><use transform="matrix(0.06172839506172839,0,0,0.06172839506172839,48.51851851851851,0)" xlink:href="#bF"/><use transform="matrix(0.06172839506172839,0,0,0.06172839506172839,61.66666666666666,0)" xlink:href="#aV"/><use transform="matrix(0.06172839506172839,0,0,0.06172839506172839,74.01234567901234,0)" xlink:href="#aX"/><use transform="matrix(0.06172839506172839,0,0,0.06172839506172839,78.88888888888889,0)" xlink:href="#bt"/><use transform="matrix(0.06172839506172839,0,0,0.06172839506172839,91.23456790123457,0)" xlink:href="#aJ"/><use transform="matrix(0.06172839506172839,0,0,0.06172839506172839,103.58024691358025,0)" xlink:href="#aF"/></g><g id="af"><use transform="matrix(0.06172839506172839,0,0,0.06172839506172839,0,0)" xlink:href="#aT"/><use transform="matrix(0.06172839506172839,0,0,0.06172839506172839,11.11111111111111,0)" xlink:href="#aX"/><use transform="matrix(0.06172839506172839,0,0,0.06172839506172839,15.987654320987653,0)" xlink:href="#aN"/><use transform="matrix(0.06172839506172839,0,0,0.06172839506172839,20.864197530864196,0)" xlink:href="#aJ"/><use transform="matrix(0.06172839506172839,0,0,0.06172839506172839,33.20987654320987,0)" xlink:href="#aO"/><use transform="matrix(0.06172839506172839,0,0,0.06172839506172839,45.55555555555555,0)" xlink:href="#aG"/></g><path fill="#333" d="M108 0H70L1-190h34L89-25l56-165h34" id="bG"/><g id="ag"><use transform="matrix(0.06172839506172839,0,0,0.06172839506172839,0,0)" xlink:href="#bq"/><use transform="matrix(0.06172839506172839,0,0,0.06172839506172839,11.11111111111111,0)" xlink:href="#aJ"/><use transform="matrix(0.06172839506172839,0,0,0.06172839506172839,23.45679012345679,0)" xlink:href="#bk"/><use transform="matrix(0.06172839506172839,0,0,0.06172839506172839,30.80246913580247,0)" xlink:href="#bG"/><use transform="matrix(0.06172839506172839,0,0,0.06172839506172839,41.91358024691358,0)" xlink:href="#aJ"/><use transform="matrix(0.06172839506172839,0,0,0.06172839506172839,54.25925925925926,0)" xlink:href="#bk"/></g><path fill="#333" d="M199 0l-22-63H83L61 0H9l90-248h61L250 0h-51zm-33-102l-36-108c-10 38-24 72-36 108h72" id="bH"/><g id="ah"><use transform="matrix(0.06172839506172839,0,0,0.06172839506172839,0,0)" xlink:href="#bH"/><use transform="matrix(0.06172839506172839,0,0,0.06172839506172839,15.987654320987653,0)" xlink:href="#az"/><use transform="matrix(0.06172839506172839,0,0,0.06172839506172839,29.50617283950617,0)" xlink:href="#bd"/><use transform="matrix(0.06172839506172839,0,0,0.06172839506172839,41.85185185185185,0)" xlink:href="#ax"/><use transform="matrix(0.06172839506172839,0,0,0.06172839506172839,55.37037037037037,0)" xlink:href="#bb"/><use transform="matrix(0.06172839506172839,0,0,0.06172839506172839,68.88888888888889,0)" xlink:href="#av"/><use transform="matrix(0.06172839506172839,0,0,0.06172839506172839,82.4074074074074,0)" xlink:href="#ax"/></g><path fill="#333" d="M136-208V0H84v-208H4v-40h212v40h-80" id="bI"/><path fill="#333" d="M147 0L96-86 75-71V0H25v-261h50v150l67-79h53l-66 74L201 0h-54" id="bJ"/><g id="ai"><use transform="matrix(0.06172839506172839,0,0,0.06172839506172839,0,0)" xlink:href="#bI"/><use transform="matrix(0.06172839506172839,0,0,0.06172839506172839,11.851851851851851,0)" xlink:href="#bd"/><use transform="matrix(0.06172839506172839,0,0,0.06172839506172839,24.19753086419753,0)" xlink:href="#bJ"/><use transform="matrix(0.06172839506172839,0,0,0.06172839506172839,36.54320987654321,0)" xlink:href="#aC"/></g><path fill="#333" d="M140-251c80 0 125 45 125 126S219 4 139 4C58 4 15-44 15-125s44-126 125-126zm-1 214c52 0 73-35 73-88 0-50-21-86-72-86-52 0-73 35-73 86s22 88 72 88" id="bK"/><path fill="#333" d="M85 4C-2 5 27-109 22-190h50c7 57-23 150 33 157 60-5 35-97 40-157h50l1 190h-47c-2-12 1-28-3-38-12 25-28 42-61 42" id="bL"/><g id="aj"><use transform="matrix(0.06172839506172839,0,0,0.06172839506172839,0,0)" xlink:href="#bK"/><use transform="matrix(0.06172839506172839,0,0,0.06172839506172839,17.28395061728395,0)" xlink:href="#bL"/><use transform="matrix(0.06172839506172839,0,0,0.06172839506172839,30.80246913580247,0)" xlink:href="#aD"/></g><g id="ak"><use transform="matrix(0.06172839506172839,0,0,0.06172839506172839,0,0)" xlink:href="#aB"/><use transform="matrix(0.06172839506172839,0,0,0.06172839506172839,14.814814814814813,0)" xlink:href="#bi"/><use transform="matrix(0.06172839506172839,0,0,0.06172839506172839,20.98765432098765,0)" xlink:href="#bd"/><use transform="matrix(0.06172839506172839,0,0,0.06172839506172839,33.33333333333333,0)" xlink:href="#aA"/><use transform="matrix(0.06172839506172839,0,0,0.06172839506172839,45.679012345679006,0)" xlink:href="#aC"/><use transform="matrix(0.06172839506172839,0,0,0.06172839506172839,58.02469135802468,0)" xlink:href="#bh"/></g><path fill="#333" d="M67-125c0 54 23 88 75 88 28 0 53-7 68-21v-34h-60v-39h108v91C232-14 192 4 140 4 58 4 20-42 15-125 8-236 126-280 215-234c19 10 29 26 37 47l-47 15c-11-23-29-39-63-39-53 1-75 33-75 86" id="bM"/><g id="al"><use transform="matrix(0.06172839506172839,0,0,0.06172839506172839,0,0)" xlink:href="#bM"/><use transform="matrix(0.06172839506172839,0,0,0.06172839506172839,17.28395061728395,0)" xlink:href="#bL"/><use transform="matrix(0.06172839506172839,0,0,0.06172839506172839,30.80246913580247,0)" xlink:href="#aC"/><use transform="matrix(0.06172839506172839,0,0,0.06172839506172839,43.148148148148145,0)" xlink:href="#bD"/><use transform="matrix(0.06172839506172839,0,0,0.06172839506172839,55.49382716049382,0)" xlink:href="#aD"/></g><g id="am"><use transform="matrix(0.06172839506172839,0,0,0.06172839506172839,0,0)" xlink:href="#bH"/><use transform="matrix(0.06172839506172839,0,0,0.06172839506172839,15.987654320987653,0)" xlink:href="#az"/><use transform="matrix(0.06172839506172839,0,0,0.06172839506172839,29.50617283950617,0)" xlink:href="#bd"/><use transform="matrix(0.06172839506172839,0,0,0.06172839506172839,41.85185185185185,0)" xlink:href="#ax"/><use transform="matrix(0.06172839506172839,0,0,0.06172839506172839,55.37037037037037,0)" xlink:href="#bb"/><use transform="matrix(0.06172839506172839,0,0,0.06172839506172839,68.88888888888889,0)" xlink:href="#av"/><use transform="matrix(0.06172839506172839,0,0,0.06172839506172839,82.4074074074074,0)" xlink:href="#ax"/></g><g id="an"><use transform="matrix(0.06172839506172839,0,0,0.06172839506172839,0,0)" xlink:href="#bH"/><use transform="matrix(0.06172839506172839,0,0,0.06172839506172839,15.987654320987653,0)" xlink:href="#az"/><use transform="matrix(0.06172839506172839,0,0,0.06172839506172839,29.50617283950617,0)" xlink:href="#bd"/><use transform="matrix(0.06172839506172839,0,0,0.06172839506172839,41.85185185185185,0)" xlink:href="#ax"/><use transform="matrix(0.06172839506172839,0,0,0.06172839506172839,55.37037037037037,0)" xlink:href="#bb"/><use transform="matrix(0.06172839506172839,0,0,0.06172839506172839,68.88888888888889,0)" xlink:href="#av"/><use transform="matrix(0.06172839506172839,0,0,0.06172839506172839,82.4074074074074,0)" xlink:href="#ax"/></g><g id="ao"><use transform="matrix(0.06172839506172839,0,0,0.06172839506172839,0,0)" xlink:href="#aF"/><use transform="matrix(0.06172839506172839,0,0,0.06172839506172839,7.8395061728395055,0)" xlink:href="#aV"/><use transform="matrix(0.06172839506172839,0,0,0.06172839506172839,20.185185185185183,0)" xlink:href="#aQ"/><use transform="matrix(0.06172839506172839,0,0,0.06172839506172839,32.53086419753086,0)" xlink:href="#aV"/><use transform="matrix(0.06172839506172839,0,0,0.06172839506172839,44.87654320987654,0)" xlink:href="#aO"/><use transform="matrix(0.06172839506172839,0,0,0.06172839506172839,57.222222222222214,0)" xlink:href="#aZ"/><use transform="matrix(0.06172839506172839,0,0,0.06172839506172839,69.5679012345679,0)" xlink:href="#aM"/><use transform="matrix(0.06172839506172839,0,0,0.06172839506172839,81.91358024691358,0)" xlink:href="#aO"/><use transform="matrix(0.06172839506172839,0,0,0.06172839506172839,94.25925925925927,0)" xlink:href="#aF"/></g><g id="ap"><use transform="matrix(0.06172839506172839,0,0,0.06172839506172839,0,0)" xlink:href="#aF"/><use transform="matrix(0.06172839506172839,0,0,0.06172839506172839,7.8395061728395055,0)" xlink:href="#aO"/><use transform="matrix(0.06172839506172839,0,0,0.06172839506172839,20.185185185185183,0)" xlink:href="#bt"/><use transform="matrix(0.06172839506172839,0,0,0.06172839506172839,32.53086419753086,0)" xlink:href="#aW"/><use transform="matrix(0.06172839506172839,0,0,0.06172839506172839,50.987654320987644,0)" xlink:href="#aQ"/><use transform="matrix(0.06172839506172839,0,0,0.06172839506172839,63.333333333333314,0)" xlink:href="#aJ"/><use transform="matrix(0.06172839506172839,0,0,0.06172839506172839,75.679012345679,0)" xlink:href="#bk"/><use transform="matrix(0.06172839506172839,0,0,0.06172839506172839,83.02469135802468,0)" xlink:href="#aF"/></g><path fill="#333" d="M140-251c81 0 123 46 123 126C263-46 219 4 140 4 59 4 17-45 17-125s42-126 123-126zm0 227c63 0 89-41 89-101s-29-99-89-99c-61 0-89 39-89 99S79-25 140-24" id="bN"/><g id="aq"><use transform="matrix(0.06172839506172839,0,0,0.06172839506172839,0,0)" xlink:href="#aF"/><use transform="matrix(0.06172839506172839,0,0,0.06172839506172839,7.8395061728395055,0)" xlink:href="#aG"/><use transform="matrix(0.06172839506172839,0,0,0.06172839506172839,14.012345679012345,0)" xlink:href="#aV"/><use transform="matrix(0.06172839506172839,0,0,0.06172839506172839,26.358024691358025,0)" xlink:href="#aU"/><use transform="matrix(0.06172839506172839,0,0,0.06172839506172839,37.46913580246914,0)" xlink:href="#aJ"/><use transform="matrix(0.06172839506172839,0,0,0.06172839506172839,49.81481481481482,0)" xlink:href="#bN"/><use transform="matrix(0.06172839506172839,0,0,0.06172839506172839,67.09876543209876,0)" xlink:href="#bt"/><use transform="matrix(0.06172839506172839,0,0,0.06172839506172839,79.44444444444444,0)" xlink:href="#aG"/><use transform="matrix(0.06172839506172839,0,0,0.06172839506172839,85.61728395061728,0)" xlink:href="#aR"/><use transform="matrix(0.06172839506172839,0,0,0.06172839506172839,100.43209876543209,0)" xlink:href="#aX"/><use transform="matrix(0.06172839506172839,0,0,0.06172839506172839,105.30864197530863,0)" xlink:href="#aV"/><use transform="matrix(0.06172839506172839,0,0,0.06172839506172839,117.65432098765432,0)" xlink:href="#aH"/><use transform="matrix(0.06172839506172839,0,0,0.06172839506172839,128.76543209876542,0)" xlink:href="#aJ"/><use transform="matrix(0.06172839506172839,0,0,0.06172839506172839,141.1111111111111,0)" xlink:href="#bk"/><use transform="matrix(0.06172839506172839,0,0,0.06172839506172839,148.45679012345676,0)" xlink:href="#aF"/></g><path fill="#333" d="M197 0v-115H63V0H30v-248h33v105h134v-105h34V0h-34" id="bO"/><g id="ar"><use transform="matrix(0.06172839506172839,0,0,0.06172839506172839,0,0)" xlink:href="#aF"/><use transform="matrix(0.06172839506172839,0,0,0.06172839506172839,7.8395061728395055,0)" xlink:href="#bO"/><use transform="matrix(0.06172839506172839,0,0,0.06172839506172839,23.827160493827158,0)" xlink:href="#aM"/><use transform="matrix(0.06172839506172839,0,0,0.06172839506172839,36.172839506172835,0)" xlink:href="#aW"/><use transform="matrix(0.06172839506172839,0,0,0.06172839506172839,54.62962962962962,0)" xlink:href="#aJ"/><use transform="matrix(0.06172839506172839,0,0,0.06172839506172839,66.9753086419753,0)" xlink:href="#bp"/><use transform="matrix(0.06172839506172839,0,0,0.06172839506172839,81.79012345679011,0)" xlink:href="#aT"/><use transform="matrix(0.06172839506172839,0,0,0.06172839506172839,92.90123456790123,0)" xlink:href="#bk"/><use transform="matrix(0.06172839506172839,0,0,0.06172839506172839,100.24691358024691,0)" xlink:href="#aJ"/><use transform="matrix(0.06172839506172839,0,0,0.06172839506172839,112.5925925925926,0)" xlink:href="#aJ"/><use transform="matrix(0.06172839506172839,0,0,0.06172839506172839,124.93827160493828,0)" xlink:href="#aO"/><use transform="matrix(0.06172839506172839,0,0,0.06172839506172839,137.28395061728395,0)" xlink:href="#aF"/></g><g id="as"><use transform="matrix(0.06172839506172839,0,0,0.06172839506172839,0,0)" xlink:href="#aF"/><use transform="matrix(0.06172839506172839,0,0,0.06172839506172839,7.8395061728395055,0)" xlink:href="#bo"/><use transform="matrix(0.06172839506172839,0,0,0.06172839506172839,20.185185185185183,0)" xlink:href="#bt"/><use transform="matrix(0.06172839506172839,0,0,0.06172839506172839,32.53086419753086,0)" xlink:href="#aJ"/><use transform="matrix(0.06172839506172839,0,0,0.06172839506172839,44.87654320987654,0)" xlink:href="#bq"/><use transform="matrix(0.06172839506172839,0,0,0.06172839506172839,55.987654320987644,0)" xlink:href="#aG"/><use transform="matrix(0.06172839506172839,0,0,0.06172839506172839,62.16049382716049,0)" xlink:href="#bx"/><use transform="matrix(0.06172839506172839,0,0,0.06172839506172839,76.9753086419753,0)" xlink:href="#aQ"/><use transform="matrix(0.06172839506172839,0,0,0.06172839506172839,89.32098765432099,0)" xlink:href="#aV"/><use transform="matrix(0.06172839506172839,0,0,0.06172839506172839,101.66666666666667,0)" xlink:href="#aO"/><use transform="matrix(0.06172839506172839,0,0,0.06172839506172839,114.01234567901236,0)" xlink:href="#aZ"/><use transform="matrix(0.06172839506172839,0,0,0.06172839506172839,126.35802469135804,0)" xlink:href="#aM"/><use transform="matrix(0.06172839506172839,0,0,0.06172839506172839,138.70370370370372,0)" xlink:href="#aO"/><use transform="matrix(0.06172839506172839,0,0,0.06172839506172839,151.0493827160494,0)" xlink:href="#aF"/><use transform="matrix(0.06172839506172839,0,0,0.06172839506172839,158.88888888888889,0)" xlink:href="#aS"/></g></defs></g></svg>