<svg xmlns="http://www.w3.org/2000/svg" xmlns:xlink="http://www.w3.org/1999/xlink" xmlns:lucid="lucid" width="1814.23" height="1190.98"><g transform="translate(-35.433070866141634 -80)" lucid:page-tab-id="gLOVhxZXw25n"><path d="M0 0h1870.87v1322.83H0z" fill="#fff"/><path d="M80 100h124.57v60H80z" fill="none"/><use xlink:href="#a" transform="matrix(1,0,0,1,80,100) translate(7.191358024691382 37.11111111111111)"/><path d="M989.12 748.5c-8.84 0-16 7.16-16 16v48c0 8.84 7.16 16 16 16h128c8.83 0 16-7.16 16-16v-48c0-8.84-7.17-16-16-16z" stroke="#000" stroke-width="3" fill="#fff"/><use xlink:href="#b" transform="matrix(1,0,0,1,981.1170805520226,756.4997814520658) translate(33.75925925925926 23.111111111111114)"/><use xlink:href="#c" transform="matrix(1,0,0,1,981.1170805520226,756.4997814520658) translate(40.580246913580254 49.77777777777778)"/><path d="M1135.62 788.5h197.5" stroke="#000" stroke-width="2" fill="none"/><path d="M1135.64 789.5h-1.02v-2h1.02z"/><path d="M1348.38 788.5l-14.26 4.64v-9.28z" stroke="#000" stroke-width="2"/><use xlink:href="#d" transform="matrix(1,0,0,1,1160.302265737208,741.8331147853991) translate(0.0049999999999954525 14.222222222222223)"/><use xlink:href="#e" transform="matrix(1,0,0,1,1160.302265737208,741.8331147853991) translate(60.25191358024692 14.222222222222223)"/><use xlink:href="#f" transform="matrix(1,0,0,1,1160.302265737208,741.8331147853991) translate(131.11611111111114 14.222222222222223)"/><use xlink:href="#g" transform="matrix(1,0,0,1,1160.302265737208,741.8331147853991) translate(160.6963580246914 14.222222222222223)"/><use xlink:href="#h" transform="matrix(1,0,0,1,1160.302265737208,741.8331147853991) translate(2.400061728395073 35.55555555555556)"/><use xlink:href="#i" transform="matrix(1,0,0,1,1160.302265737208,741.8331147853991) translate(60.57290123456792 35.55555555555556)"/><use xlink:href="#j" transform="matrix(1,0,0,1,1160.302265737208,741.8331147853991) translate(118.84450617283953 35.55555555555556)"/><use xlink:href="#k" transform="matrix(1,0,0,1,1160.302265737208,741.8331147853991) translate(138.5975925925926 35.55555555555556)"/><path d="M1369.12 748.5c-8.84 0-16 7.16-16 16v48c0 8.84 7.16 16 16 16h128c8.83 0 16-7.16 16-16v-48c0-8.84-7.17-16-16-16z" stroke="#000" stroke-width="3" fill="#fff"/><use xlink:href="#l" transform="matrix(1,0,0,1,1361.117080552023,756.4997814520658) translate(7.277777777777786 36.44444444444444)"/><use xlink:href="#c" transform="matrix(1,0,0,1,1361.117080552023,756.4997814520658) translate(73.88271604938272 36.44444444444444)"/><path d="M591.43 750.98c-8.83 0-16 7.17-16 16v48c0 8.84 7.17 16 16 16h148c8.84 0 16-7.16 16-16v-48c0-8.83-7.16-16-16-16z" stroke="#000" stroke-width="3" fill="#fff"/><use xlink:href="#m" transform="matrix(1,0,0,1,583.4330708661416,758.9836882115358) translate(10.91975308641976 23.111111111111114)"/><use xlink:href="#n" transform="matrix(1,0,0,1,583.4330708661416,758.9836882115358) translate(90.17901234567901 23.111111111111114)"/><use xlink:href="#o" transform="matrix(1,0,0,1,583.4330708661416,758.9836882115358) translate(114.87037037037037 23.111111111111114)"/><use xlink:href="#p" transform="matrix(1,0,0,1,583.4330708661416,758.9836882115358) translate(51.75308641975309 49.77777777777778)"/><path d="M757.93 790.98h195.2" stroke="#000" stroke-width="2" fill="none"/><path d="M757.96 791.98h-1.03v-2h1.03z"/><path d="M968.38 790.98l-14.26 4.64v-9.27z" stroke="#000" stroke-width="2"/><use xlink:href="#q" transform="matrix(1,0,0,1,772.3828879251125,744.3170215448691) translate(0.0049999999999954525 14.222222222222223)"/><use xlink:href="#r" transform="matrix(1,0,0,1,772.3828879251125,744.3170215448691) translate(47.36302469135803 14.222222222222223)"/><use xlink:href="#s" transform="matrix(1,0,0,1,772.3828879251125,744.3170215448691) translate(92.69635802469136 14.222222222222223)"/><use xlink:href="#t" transform="matrix(1,0,0,1,772.3828879251125,744.3170215448691) translate(154.6222839506173 14.222222222222223)"/><use xlink:href="#u" transform="matrix(1,0,0,1,772.3828879251125,744.3170215448691) translate(32.424753086419756 35.55555555555556)"/><use xlink:href="#v" transform="matrix(1,0,0,1,772.3828879251125,744.3170215448691) translate(77.75808641975308 35.55555555555556)"/><path d="M1369.12 1030.98c-8.84 0-16 7.17-16 16v48c0 8.84 7.16 16 16 16h128c8.83 0 16-7.16 16-16v-48c0-8.83-7.17-16-16-16z" stroke="#000" stroke-width="3" fill="#fff"/><use xlink:href="#w" transform="matrix(1,0,0,1,1361.117080552023,1038.9836882115358) translate(44.87037037037037 23.111111111111114)"/><use xlink:href="#x" transform="matrix(1,0,0,1,1361.117080552023,1038.9836882115358) translate(20.827160493827158 49.77777777777778)"/><path d="M1350.6 1070.96l-15.85-.33-16.7-1.05-16.46-1.73-16.1-2.38-15.68-2.98-15.15-3.57-14.6-4.07-13.96-4.53-13.3-4.96-12.66-5.32-11.98-5.63-11.3-5.9-10.67-6.16-10.02-6.35-9.38-6.52-8.8-6.67-8.22-6.8-7.7-6.9-7.16-7.03-6.68-7.12-6.23-7.2-5.77-7.3-5.36-7.38-4.97-7.48-4.6-7.58-4.2-7.68-3.88-7.8-3.52-7.9-3.2-8.06-2.84-8.2-2.53-8.37-2.2-8.55-1.86-8.76-1.52-9-1.17-9.26-.5-5.96" stroke="#000" stroke-width="2" fill="none"/><path d="M1351.62 1069.98v2l-1.05-.02.04-2z"/><path d="M1053.25 833.23l5.22 14.07-9.26.38z" stroke="#000" stroke-width="2"/><use xlink:href="#q" transform="matrix(1,0,0,1,1135.1938187831465,981.9154914355861) translate(0.0049999999999954525 14.222222222222223)"/><use xlink:href="#y" transform="matrix(1,0,0,1,1135.1938187831465,981.9154914355861) translate(47.36302469135803 14.222222222222223)"/><use xlink:href="#z" transform="matrix(1,0,0,1,1135.1938187831465,981.9154914355861) translate(94.72104938271606 14.222222222222223)"/><use xlink:href="#A" transform="matrix(1,0,0,1,1135.1938187831465,981.9154914355861) translate(104.5975925925926 14.222222222222223)"/><use xlink:href="#B" transform="matrix(1,0,0,1,1135.1938187831465,981.9154914355861) translate(161.7333950617284 14.222222222222223)"/><path d="M984.55 1170.98c-8.84 0-16 7.17-16 16v48c0 8.84 7.16 16 16 16h128c8.84 0 16-7.16 16-16v-48c0-8.83-7.16-16-16-16z" stroke="#000" stroke-width="3" fill="#fff"/><use xlink:href="#C" transform="matrix(1,0,0,1,976.5501514181642,1178.9836882115358) translate(30.117283950617285 23.111111111111114)"/><use xlink:href="#D" transform="matrix(1,0,0,1,976.5501514181642,1178.9836882115358) translate(41.78395061728395 49.77777777777778)"/><path d="M1432.65 1113.37l-4.23 8.05-4.6 7.9-4.5 7.1-4.48 6.4-4.43 5.8-4.42 5.33-4.43 4.9-4.46 4.54-4.53 4.2-4.6 3.95-4.68 3.7-4.84 3.5-5 3.28-5.17 3.13-5.45 2.97-5.73 2.82-6.1 2.7-6.55 2.57-7.1 2.45-7.8 2.33-8.72 2.2-9.93 2.1-11.62 1.92-14.16 1.74-18.47 1.5-28.06 1.04-90.05-.43" stroke="#000" stroke-width="2" fill="none"/><path d="M1433.52 1113.86l-1.77-.93.24-.45h2.25z"/><path d="M1133.3 1211l14.27-4.57-.04 9.27z" stroke="#000" stroke-width="2"/><use xlink:href="#E" transform="matrix(1,0,0,1,1162.4201391622612,1163.8246048641204) translate(0.0049999999999954525 14.222222222222223)"/><use xlink:href="#F" transform="matrix(1,0,0,1,1162.4201391622612,1163.8246048641204) translate(41.38771604938272 14.222222222222223)"/><use xlink:href="#G" transform="matrix(1,0,0,1,1162.4201391622612,1163.8246048641204) translate(78.91858024691359 14.222222222222223)"/><use xlink:href="#H" transform="matrix(1,0,0,1,1162.4201391622612,1163.8246048641204) translate(99.60993827160496 14.222222222222223)"/><use xlink:href="#I" transform="matrix(1,0,0,1,1162.4201391622612,1163.8246048641204) translate(131.11611111111114 14.222222222222223)"/><use xlink:href="#J" transform="matrix(1,0,0,1,1162.4201391622612,1163.8246048641204) translate(172.49882716049387 14.222222222222223)"/><use xlink:href="#K" transform="matrix(1,0,0,1,1162.4201391622612,1163.8246048641204) translate(43.41240740740743 35.55555555555556)"/><use xlink:href="#L" transform="matrix(1,0,0,1,1162.4201391622612,1163.8246048641204) translate(101.68401234567904 35.55555555555556)"/><path d="M966.04 1210.96l-11.5-.24-12.08-.76-11.7-1.22-11.35-1.68-11.03-2.1-10.77-2.53-10.52-2.94-10.3-3.35-10.08-3.76-9.9-4.17-9.77-4.6-9.6-5-9.47-5.48-9.35-5.94-9.23-6.4-9.13-6.94-9.03-7.47-8.9-8.05-8.83-8.63-8.7-9.28-8.6-9.95-8.43-10.66-8.3-11.4-8.1-12.2-7.87-13.02-7.62-13.87-7.3-14.74-6.97-15.63-6.54-16.53-6.07-17.4-5.5-18.28-4.9-19.07-4.2-19.82-3.47-20.46-2.65-21-1.8-21.4-.58-14.04" stroke="#000" stroke-width="2" fill="none"/><path d="M967.05 1209.98v2l-1.05-.02.04-2z"/><path d="M665.5 835.72l4.98 14.15-9.27.22z" stroke="#000" stroke-width="2"/><use xlink:href="#q" transform="matrix(1,0,0,1,768.6909080408627,1092.3911263845898) translate(0.0049999999999954525 14.222222222222223)"/><use xlink:href="#M" transform="matrix(1,0,0,1,768.6909080408627,1092.3911263845898) translate(47.36302469135803 14.222222222222223)"/><use xlink:href="#N" transform="matrix(1,0,0,1,768.6909080408627,1092.3911263845898) translate(109.38771604938273 14.222222222222223)"/><use xlink:href="#O" transform="matrix(1,0,0,1,768.6909080408627,1092.3911263845898) translate(134.62228395061732 14.222222222222223)"/><use xlink:href="#s" transform="matrix(1,0,0,1,768.6909080408627,1092.3911263845898) translate(192.6963580246914 14.222222222222223)"/><use xlink:href="#P" transform="matrix(1,0,0,1,768.6909080408627,1092.3911263845898) translate(254.62228395061732 14.222222222222223)"/><use xlink:href="#Q" transform="matrix(1,0,0,1,768.6909080408627,1092.3911263845898) translate(61.38771604938273 35.55555555555556)"/><use xlink:href="#R" transform="matrix(1,0,0,1,768.6909080408627,1092.3911263845898) translate(123.41240740740744 35.55555555555556)"/><use xlink:href="#S" transform="matrix(1,0,0,1,768.6909080408627,1092.3911263845898) translate(145.04203703703706 35.55555555555556)"/><path d="M751.96 753.6l1.16-7.9.42-7.53-.23-6.42-.7-5.47-1.03-4.7-1.3-4.02-1.45-3.46-1.58-2.97-1.67-2.55-1.73-2.17-1.77-1.84-1.8-1.56-1.8-1.3-1.8-1.07-1.82-.87-1.8-.67-1.83-.5-1.8-.3-1.83-.15-1.83.02-1.83.18-1.85.36-1.87.55-1.88.74-1.9.95-1.94 1.2-1.94 1.47-1.97 1.8-2 2.16-2 2.6-1.96 3.16-1.93 3.8-1.82 4.6-1.65 5.58-.75 3.77" stroke="#000" stroke-width="2" fill="none"/><path d="M752.96 753.73l-.3 1.98-.84-1.1-.9-.7.06-.46z"/><path d="M697.07 746.26l-3.3-14.63 9.24.86z" stroke="#000" stroke-width="2"/><use xlink:href="#q" transform="matrix(1,0,0,1,701.8359814816528,657.861953855411) translate(0.0049999999999954525 14.222222222222223)"/><use xlink:href="#T" transform="matrix(1,0,0,1,701.8359814816528,657.861953855411) translate(47.36302469135803 14.222222222222223)"/><use xlink:href="#U" transform="matrix(1,0,0,1,701.8359814816528,657.861953855411) translate(76.94327160493827 14.222222222222223)"/><use xlink:href="#V" transform="matrix(1,0,0,1,701.8359814816528,657.861953855411) translate(120.3012962962963 14.222222222222223)"/><use xlink:href="#P" transform="matrix(1,0,0,1,701.8359814816528,657.861953855411) translate(187.1654938271605 14.222222222222223)"/><use xlink:href="#W" transform="matrix(1,0,0,1,701.8359814816528,657.861953855411) translate(47.288950617283945 35.55555555555556)"/><use xlink:href="#X" transform="matrix(1,0,0,1,701.8359814816528,657.861953855411) translate(90.64697530864197 35.55555555555556)"/><path d="M1671.43 890.98c-8.83 0-16 7.17-16 16v48c0 8.84 7.17 16 16 16h128c8.84 0 16-7.16 16-16v-48c0-8.83-7.16-16-16-16z" stroke="#000" stroke-width="3" fill="#fff"/><use xlink:href="#Y" transform="matrix(1,0,0,1,1663.4330708661416,898.9836882115358) translate(26.382716049382715 23.111111111111114)"/><use xlink:href="#Z" transform="matrix(1,0,0,1,1663.4330708661416,898.9836882115358) translate(47.98765432098766 49.77777777777778)"/><path d="M1515.62 788.52l53 .87 26.68 1.63 19.3 2 15.1 2.23 12.3 2.34 10.27 2.4 8.75 2.44 7.55 2.45 6.6 2.44 5.8 2.44 5.17 2.43 4.63 2.43 4.17 2.4 3.77 2.4 3.46 2.4 3.14 2.38 2.9 2.4 2.66 2.4 2.46 2.4 2.28 2.43 2.12 2.46 1.97 2.47 1.83 2.53 1.7 2.57 1.6 2.63 1.48 2.7 1.38 2.76 1.27 2.85 1.17 2.96 1.07 3.07.95 3.2.86 3.34.75 3.5.04.2" stroke="#000" stroke-width="2" fill="none"/><path d="M1515.66 787.52l-.03 2-1-.02v-2z"/><path d="M1735.14 886.26l-5.88-13.8 9.23-.82z" stroke="#000" stroke-width="2"/><use xlink:href="#q" transform="matrix(1,0,0,1,1553.7710690084468,769.525202790816) translate(0.0049999999999954525 14.222222222222223)"/><use xlink:href="#F" transform="matrix(1,0,0,1,1553.7710690084468,769.525202790816) translate(47.36302469135803 14.222222222222223)"/><use xlink:href="#z" transform="matrix(1,0,0,1,1553.7710690084468,769.525202790816) translate(84.8938888888889 14.222222222222223)"/><use xlink:href="#aa" transform="matrix(1,0,0,1,1553.7710690084468,769.525202790816) translate(94.77043209876544 14.222222222222223)"/><use xlink:href="#ab" transform="matrix(1,0,0,1,1553.7710690084468,769.525202790816) translate(176.44944444444445 14.222222222222223)"/><use xlink:href="#ac" transform="matrix(1,0,0,1,1553.7710690084468,769.525202790816) translate(234.62228395061732 14.222222222222223)"/><path d="M1735.4 973.5l-.06 3.55-.27 4.25-.42 3.98-.55 3.75-.67 3.54-.8 3.36-.9 3.2-.98 3.07-1.1 2.94-1.2 2.84-1.28 2.75-1.4 2.66-1.5 2.58-1.6 2.54-1.72 2.48-1.85 2.44-2 2.4-2.13 2.37-2.3 2.36-2.48 2.33-2.7 2.32-2.93 2.3-3.18 2.32-3.5 2.32-3.84 2.32-4.25 2.34-4.7 2.34-5.3 2.35-5.98 2.38-6.8 2.36-7.84 2.36-9.15 2.35-10.85 2.3-13.15 2.2-16.47 2.08-21.82 1.8-33.46 1.34-21.16.17" stroke="#000" stroke-width="2" fill="none"/><path d="M1736.4 973.53l-2-.04.03-1.02h2z"/><path d="M1517.85 1070.96l14.23-4.75.08 9.28z" stroke="#000" stroke-width="2"/><use xlink:href="#q" transform="matrix(1,0,0,1,1512.9167557662408,1006.6363104943304) translate(0.0049999999999954525 14.222222222222223)"/><use xlink:href="#ad" transform="matrix(1,0,0,1,1512.9167557662408,1006.6363104943304) translate(47.36302469135803 14.222222222222223)"/><use xlink:href="#z" transform="matrix(1,0,0,1,1512.9167557662408,1006.6363104943304) translate(92.69635802469136 14.222222222222223)"/><use xlink:href="#ae" transform="matrix(1,0,0,1,1512.9167557662408,1006.6363104943304) translate(102.57290123456791 14.222222222222223)"/><use xlink:href="#af" transform="matrix(1,0,0,1,1512.9167557662408,1006.6363104943304) translate(169.53586419753088 14.222222222222223)"/><path d="M1117.1 746l-.18-6.1-.53-6.37-.8-5.72-1.04-5.15-1.2-4.65-1.33-4.22-1.45-3.8-1.54-3.47-1.62-3.13-1.67-2.84-1.72-2.6-1.76-2.33-1.8-2.12-1.8-1.93-1.82-1.73-1.84-1.56-1.85-1.4-1.85-1.25-1.87-1.1-1.87-.97-1.87-.84-1.88-.73-1.87-.6-1.88-.5-1.87-.38-1.88-.28-1.87-.16-1.88-.06-1.87.05-1.88.15-1.87.25-1.88.37-1.87.47-1.88.58-1.87.7-1.87.84-1.87.95-1.85 1.1-1.86 1.22-1.87 1.37-1.84 1.54-1.84 1.72-1.8 1.9-1.8 2.1-1.76 2.3-1.73 2.56-1.68 2.8-1.63 3.1-1.55 3.42-1.47 3.77-1.35 4.16-1.22 4.6-1.04 5.08-.22 1.47" stroke="#000" stroke-width="2" fill="none"/><path d="M1118.12 747.12l-.9-.12h-1.1l-.03-1 2-.06z"/><path d="M1028.04 743.77l-3.52-14.58 9.25.7z" stroke="#000" stroke-width="2"/><g><use xlink:href="#q" transform="matrix(1,0,0,1,976.3260979303705,633.3539060642643) translate(0.0049999999999954525 14.222222222222223)"/><use xlink:href="#T" transform="matrix(1,0,0,1,976.3260979303705,633.3539060642643) translate(47.36302469135803 14.222222222222223)"/><use xlink:href="#U" transform="matrix(1,0,0,1,976.3260979303705,633.3539060642643) translate(76.94327160493827 14.222222222222223)"/><use xlink:href="#V" transform="matrix(1,0,0,1,976.3260979303705,633.3539060642643) translate(120.3012962962963 14.222222222222223)"/><use xlink:href="#P" transform="matrix(1,0,0,1,976.3260979303705,633.3539060642643) translate(187.1654938271605 14.222222222222223)"/><use xlink:href="#W" transform="matrix(1,0,0,1,976.3260979303705,633.3539060642643) translate(47.288950617283945 35.55555555555556)"/><use xlink:href="#X" transform="matrix(1,0,0,1,976.3260979303705,633.3539060642643) translate(90.64697530864197 35.55555555555556)"/></g><path d="M1001.1 831l-.04 1.88-.18 2.8-.3 2.73-.38 2.67-.5 2.6-.6 2.57-.7 2.52-.8 2.5-.93 2.47-1.03 2.45-1.15 2.44-1.3 2.44-1.4 2.43-1.54 2.43-1.7 2.45-1.87 2.46-2.07 2.48-2.25 2.5-2.48 2.54-2.72 2.56-3 2.58-3.3 2.62-3.65 2.65-4.03 2.67-4.45 2.7-4.92 2.7-5.44 2.7-6.02 2.67-6.64 2.63-7.32 2.55-8 2.42-8.75 2.24-9.44 2-10.1 1.7-10.68 1.35-11.1.93-11.37.47h-11.4l-11.27-.47-10.9-.92-10.42-1.3-9.8-1.66-9.1-1.93-8.4-2.14-7.67-2.32-6.97-2.43-6.34-2.5-5.75-2.55-5.2-2.58-4.7-2.58-4.25-2.58-3.85-2.56-3.5-2.54-3.16-2.5-2.9-2.5-2.62-2.46-2.4-2.44-2.17-2.42-1.98-2.4-1.8-2.4-1.67-2.37-1.5-2.38-1.38-2.38-1.24-2.38-1.13-2.4-1-2.4-.9-2.43-.8-2.46-.1-.36" stroke="#000" stroke-width="2" fill="none"/><path d="M1002.1 831.05l-2-.04.02-1h2z"/><path d="M710.55 835.7l6.6 13.46-9.18 1.3z" stroke="#000" stroke-width="2"/><g><use xlink:href="#q" transform="matrix(1,0,0,1,726.2762848850604,922.5004064446548) translate(0.0049999999999954525 14.222222222222223)"/><use xlink:href="#M" transform="matrix(1,0,0,1,726.2762848850604,922.5004064446548) translate(47.36302469135803 14.222222222222223)"/><use xlink:href="#N" transform="matrix(1,0,0,1,726.2762848850604,922.5004064446548) translate(109.38771604938273 14.222222222222223)"/><use xlink:href="#O" transform="matrix(1,0,0,1,726.2762848850604,922.5004064446548) translate(134.62228395061732 14.222222222222223)"/><use xlink:href="#s" transform="matrix(1,0,0,1,726.2762848850604,922.5004064446548) translate(192.6963580246914 14.222222222222223)"/><use xlink:href="#P" transform="matrix(1,0,0,1,726.2762848850604,922.5004064446548) translate(254.62228395061732 14.222222222222223)"/><use xlink:href="#Q" transform="matrix(1,0,0,1,726.2762848850604,922.5004064446548) translate(61.38771604938273 35.55555555555556)"/><use xlink:href="#R" transform="matrix(1,0,0,1,726.2762848850604,922.5004064446548) translate(123.41240740740744 35.55555555555556)"/><use xlink:href="#S" transform="matrix(1,0,0,1,726.2762848850604,922.5004064446548) translate(145.04203703703706 35.55555555555556)"/></g><path d="M251.43 748.5c-8.83 0-16 7.16-16 16v48c0 8.84 7.17 16 16 16h148c8.84 0 16-7.16 16-16v-48c0-8.84-7.16-16-16-16z" stroke="#000" stroke-width="3" fill="#fff"/><g><use xlink:href="#ag" transform="matrix(1,0,0,1,243.43307086614163,756.4997814520658) translate(14.253086419753075 23.111111111111114)"/><use xlink:href="#ah" transform="matrix(1,0,0,1,243.43307086614163,756.4997814520658) translate(132.5246913580247 23.111111111111114)"/><use xlink:href="#ai" transform="matrix(1,0,0,1,243.43307086614163,756.4997814520658) translate(19.12962962962962 49.77777777777778)"/></g><path d="M325.45 831l.06 2.88.22 3.32.3 2.9.37 2.5.42 2.24.46 2 .5 1.78.53 1.62.56 1.47.56 1.36.6 1.24.58 1.15.62 1.06.63 1 .64.93.66.88.68.83.7.77.72.74.74.7.77.66.8.64.83.6.87.58.9.54.96.53 1 .5 1.07.46 1.14.45 1.2.43 1.3.4 1.4.36 1.54.3 1.67.3 1.84.22 2.03.17 2.28.1h2.6l2.96-.14 3.45-.3 4.1-.5 4.94-.85 6.2-1.3 8.12-2.1 11.62-3.54 21.06-7.4 80.75-30.1 16.67-5.05 12.63-3.24 10.23-2.18 8.6-1.47 3.96-.5" stroke="#000" stroke-width="2" fill="none"/><path d="M326.45 831l-2 .05-.02-1.05h2z"/><path d="M570.7 809.87l-13.9 5.6-.64-9.25z" stroke="#000" stroke-width="2"/><g><use xlink:href="#q" transform="matrix(1,0,0,1,291.1693213937955,872.2944220102262) translate(0.0049999999999954525 14.222222222222223)"/><use xlink:href="#aj" transform="matrix(1,0,0,1,291.1693213937955,872.2944220102262) translate(47.36302469135803 14.222222222222223)"/><use xlink:href="#O" transform="matrix(1,0,0,1,291.1693213937955,872.2944220102262) translate(88.74574074074076 14.222222222222223)"/><use xlink:href="#ak" transform="matrix(1,0,0,1,291.1693213937955,872.2944220102262) translate(146.81981481481483 14.222222222222223)"/><use xlink:href="#P" transform="matrix(1,0,0,1,291.1693213937955,872.2944220102262) translate(206.77043209876547 14.222222222222223)"/><use xlink:href="#al" transform="matrix(1,0,0,1,291.1693213937955,872.2944220102262) translate(58.597592592592605 35.55555555555556)"/><use xlink:href="#am" transform="matrix(1,0,0,1,291.1693213937955,872.2944220102262) translate(99.98030864197533 35.55555555555556)"/></g><path d="M325.45 746l.06-2.9.22-3.3.3-2.88.37-2.5.4-2.22.47-1.97.5-1.77.5-1.6.55-1.44.56-1.32.57-1.22.6-1.12.6-1.04.6-.97.63-.9.64-.86.67-.8.67-.76.7-.7.7-.7.76-.63.77-.6.8-.6.84-.54.87-.53.93-.5.97-.5 1.02-.44 1.1-.44 1.14-.4 1.24-.38 1.34-.34 1.45-.3 1.58-.28 1.73-.22 1.94-.16 2.15-.1 2.42.02 2.77.1 3.2.28 3.77.48 4.54.77 5.62 1.2 7.25 1.87 10 3.04 16.12 5.65 95.7 36.77 15 4.55 11.72 3.02 9.64 2.06 8.2 1.4 3.13.4" stroke="#000" stroke-width="2" fill="none"/><path d="M326.45 746l-.02 1h-2l.02-1.05z"/><path d="M570.7 770.76l-14.55 3.62.65-9.25z" stroke="#000" stroke-width="2"/><g><use xlink:href="#q" transform="matrix(1,0,0,1,188.39339374108266,663.6254080732036) translate(0.0049999999999954525 14.222222222222223)"/><use xlink:href="#an" transform="matrix(1,0,0,1,188.39339374108266,663.6254080732036) translate(47.36302469135803 14.222222222222223)"/><use xlink:href="#O" transform="matrix(1,0,0,1,188.39339374108266,663.6254080732036) translate(107.51117283950619 14.222222222222223)"/><use xlink:href="#s" transform="matrix(1,0,0,1,188.39339374108266,663.6254080732036) translate(165.58524691358025 14.222222222222223)"/><use xlink:href="#t" transform="matrix(1,0,0,1,188.39339374108266,663.6254080732036) translate(227.51117283950617 14.222222222222223)"/><use xlink:href="#ao" transform="matrix(1,0,0,1,188.39339374108266,663.6254080732036) translate(39.85685185185184 35.55555555555556)"/><use xlink:href="#ap" transform="matrix(1,0,0,1,188.39339374108266,663.6254080732036) translate(100.005 35.55555555555556)"/><use xlink:href="#S" transform="matrix(1,0,0,1,188.39339374108266,663.6254080732036) translate(139.4617901234568 35.55555555555556)"/></g><path d="M576.37 756.45l-4.35-3.68-4.87-4.9-4.37-5.27-3.67-5.3-2.83-5-2.06-4.46-1.36-3.87-.86-3.3-.46-2.75-.18-2.34.02-1.98.16-1.7.28-1.5.37-1.3.44-1.15.5-1.04.58-.93.63-.86.7-.8.77-.73.85-.7.96-.64 1.1-.6 1.24-.54 1.46-.5 1.07-.28 1.46-.3 1.78-.2 2.18-.14 2.7.02 3.35.24 4.13.58 4.97 1.03 5.75 1.6 6.3 2.2 6.42 2.73 6.12 3.1 5.5 3.25 4.76 3.25 4 3.15 3.33 2.98 2.72 2.8 2.24 2.63 1.83 2.45.32.52" stroke="#000" stroke-width="2" fill="none"/><path d="M577.74 756.3l-1.22 1.6-.82-.7 1.3-1.53z"/><path d="M637.07 746.4l-8.9-12.05 8.78-2.93z" stroke="#000" stroke-width="2"/><g><use xlink:href="#aq" transform="matrix(1,0,0,1,466.57831893145914,653.4565612895545) translate(14.745740740740715 14.222222222222223)"/><use xlink:href="#ar" transform="matrix(1,0,0,1,466.57831893145914,653.4565612895545) translate(56.17783950617282 14.222222222222223)"/><use xlink:href="#as" transform="matrix(1,0,0,1,466.57831893145914,653.4565612895545) translate(113.4124074074074 14.222222222222223)"/><use xlink:href="#P" transform="matrix(1,0,0,1,466.57831893145914,653.4565612895545) translate(149.85685185185184 14.222222222222223)"/><use xlink:href="#at" transform="matrix(1,0,0,1,466.57831893145914,653.4565612895545) translate(0.0049999999999954525 35.55555555555556)"/><use xlink:href="#au" transform="matrix(1,0,0,1,466.57831893145914,653.4565612895545) translate(72.05438271604939 35.55555555555556)"/></g><path d="M135.43 788.5c0 22.1-17.9 40-40 40s-40-17.9-40-40 17.9-40 40-40 40 17.9 40 40z" stroke="#5e5e5e" stroke-width="3"/><path d="M137.93 788.5h77.5" stroke="#000" stroke-width="2" fill="none"/><path d="M137.96 789.5h-1.1l.07-.98-.03-1.02h1.06z"/><path d="M230.7 788.5l-14.27 4.64v-9.28z" stroke="#000" stroke-width="2"/><path d="M232.94 808.4l-1.32.23-2.8.84-5.66 2.44-9.54 5.43-9.98 7.22-7.04 6.4-4.3 4.93-2.2 3.1-2.28 4.2-1.56 4.16-.95 4.23-.33 4.33.26 4.42.88 4.4 1.42 4.05 1.64 3.22 1.46 2.08.8.9.3.28.44.3.6.4.94.44 1.44.54 2.3.63 3.62.63 5.44.44 7.2-.1 8.28-.88 8.4-1.7 7.88-2.36 6.5-2.62 9.07-4.76 10.46-7.1 10.23-8.78 4.58-4.9" stroke="#000" stroke-width="2" fill="none"/><path d="M233.93 809.32l-.96.06-.12-2 1.08-.06z"/><path d="M287.05 832.74l-3.63 14.56-7.86-4.92z" stroke="#000" stroke-width="2"/><g><use xlink:href="#q" transform="matrix(1,0,0,1,63.784713998469044,880.0521693353312) translate(0.0049999999999954525 14.222222222222223)"/><use xlink:href="#T" transform="matrix(1,0,0,1,63.784713998469044,880.0521693353312) translate(47.36302469135803 14.222222222222223)"/><use xlink:href="#U" transform="matrix(1,0,0,1,63.784713998469044,880.0521693353312) translate(76.94327160493827 14.222222222222223)"/><use xlink:href="#V" transform="matrix(1,0,0,1,63.784713998469044,880.0521693353312) translate(120.3012962962963 14.222222222222223)"/><use xlink:href="#P" transform="matrix(1,0,0,1,63.784713998469044,880.0521693353312) translate(187.1654938271605 14.222222222222223)"/><use xlink:href="#W" transform="matrix(1,0,0,1,63.784713998469044,880.0521693353312) translate(47.288950617283945 35.55555555555556)"/><use xlink:href="#X" transform="matrix(1,0,0,1,63.784713998469044,880.0521693353312) translate(90.64697530864197 35.55555555555556)"/></g><path d="M716 240c-8.84 0-16 7.16-16 16v48c0 8.84 7.16 16 16 16h148c8.84 0 16-7.16 16-16v-48c0-8.84-7.16-16-16-16z" stroke="#000" stroke-width="3" fill="#fff"/><g><use xlink:href="#av" transform="matrix(1,0,0,1,708,248) translate(24.685185185185176 23.111111111111114)"/><use xlink:href="#aw" transform="matrix(1,0,0,1,708,248) translate(4.283950617283949 49.77777777777778)"/><use xlink:href="#ax" transform="matrix(1,0,0,1,708,248) translate(69.65432098765432 49.77777777777778)"/></g><path d="M140 281.24c0 22.1-17.9 40-40 40s-40-17.9-40-40 17.9-40 40-40 40 17.9 40 40z" stroke="#5e5e5e" stroke-width="3"/><path d="M142.5 281.24H220" stroke="#000" stroke-width="2" fill="none"/><path d="M142.53 282.24h-1.1l.07-.98-.03-1.02h1.06z"/><path d="M235.26 281.24L221 285.88v-9.27z" stroke="#000" stroke-width="2"/><path d="M256 241.24c-8.84 0-16 7.17-16 16v48c0 8.84 7.16 16 16 16h148c8.84 0 16-7.16 16-16v-48c0-8.83-7.16-16-16-16z" stroke="#000" stroke-width="3" fill="#fff"/><g><use xlink:href="#m" transform="matrix(1,0,0,1,248,249.24195337973498) translate(29.43827160493828 23.111111111111114)"/><use xlink:href="#ay" transform="matrix(1,0,0,1,248,249.24195337973498) translate(108.69753086419753 23.111111111111114)"/><use xlink:href="#az" transform="matrix(1,0,0,1,248,249.24195337973498) translate(31.41358024691357 49.77777777777778)"/></g><path d="M422.5 259.9H680" stroke="#000" stroke-width="2" fill="none"/><path d="M422.53 260.9h-1.03v-2h1.03z"/><path d="M695.26 259.9L681 264.55v-9.27z" stroke="#000" stroke-width="2"/><g><use xlink:href="#at" transform="matrix(1,0,0,1,456.0246913580247,213.24195337973498) translate(25.017345679012337 14.222222222222223)"/><use xlink:href="#aA" transform="matrix(1,0,0,1,456.0246913580247,213.24195337973498) translate(97.06672839506173 14.222222222222223)"/><use xlink:href="#P" transform="matrix(1,0,0,1,456.0246913580247,213.24195337973498) translate(178.005 14.222222222222223)"/><use xlink:href="#aB" transform="matrix(1,0,0,1,456.0246913580247,213.24195337973498) translate(0.0049999999999954525 35.55555555555556)"/><use xlink:href="#aC" transform="matrix(1,0,0,1,456.0246913580247,213.24195337973498) translate(47.264259259259255 35.55555555555556)"/><use xlink:href="#aD" transform="matrix(1,0,0,1,456.0246913580247,213.24195337973498) translate(75.80746913580246 35.55555555555556)"/><use xlink:href="#aE" transform="matrix(1,0,0,1,456.0246913580247,213.24195337973498) translate(129.09141975308643 35.55555555555556)"/></g><path d="M697.5 302.58H440" stroke="#000" stroke-width="2" fill="none"/><path d="M698.5 303.58h-1.03v-2h1.03z"/><path d="M424.74 302.58l14.26-4.64v9.27z" stroke="#000" stroke-width="2"/><g><use xlink:href="#aF" transform="matrix(1,0,0,1,488.96296296296293,306.57528671306835) translate(0.0049999999999954525 14.222222222222223)"/><use xlink:href="#aG" transform="matrix(1,0,0,1,488.96296296296293,306.57528671306835) translate(4.943271604938268 14.222222222222223)"/><use xlink:href="#aH" transform="matrix(1,0,0,1,488.96296296296293,306.57528671306835) translate(84.84450617283952 14.222222222222223)"/><use xlink:href="#P" transform="matrix(1,0,0,1,488.96296296296293,306.57528671306835) translate(137.14080246913582 14.222222222222223)"/><use xlink:href="#aI" transform="matrix(1,0,0,1,488.96296296296293,306.57528671306835) translate(8.893888888888895 35.55555555555556)"/><use xlink:href="#aJ" transform="matrix(1,0,0,1,488.96296296296293,306.57528671306835) translate(57.1901851851852 35.55555555555556)"/></g><path d="M80 540h124.57v60H80z" fill="none"/><g><use xlink:href="#aK" transform="matrix(1,0,0,1,80,540) translate(13.265432098765459 37.11111111111111)"/></g><path d="M1433.12 831v179.98" stroke="#000" stroke-width="2" fill="none"/><path d="M1434.12 831.03h-2V830h2z"/><path d="M1433.12 1026.25l-4.64-14.27h9.27z" stroke="#000" stroke-width="2"/><g><use xlink:href="#aL" transform="matrix(1,0,0,1,1289.0676978359736,870.6666666666666) translate(0.0049999999999954525 14.222222222222223)"/><use xlink:href="#aM" transform="matrix(1,0,0,1,1289.0676978359736,870.6666666666666) translate(47.36302469135803 14.222222222222223)"/><use xlink:href="#aN" transform="matrix(1,0,0,1,1289.0676978359736,870.6666666666666) translate(85.78277777777778 14.222222222222223)"/><use xlink:href="#P" transform="matrix(1,0,0,1,1289.0676978359736,870.6666666666666) translate(131.11611111111114 14.222222222222223)"/><use xlink:href="#aO" transform="matrix(1,0,0,1,1289.0676978359736,870.6666666666666) translate(0.005000000000009663 35.55555555555556)"/><use xlink:href="#aM" transform="matrix(1,0,0,1,1289.0676978359736,870.6666666666666) translate(57.23956790123459 35.55555555555556)"/><use xlink:href="#aP" transform="matrix(1,0,0,1,1289.0676978359736,870.6666666666666) translate(95.65932098765434 35.55555555555556)"/></g><defs><path d="M169-182c-1-43-94-46-97-3 18 66 151 10 154 114 3 95-165 93-204 36-6-8-10-19-12-30l50-8c3 46 112 56 116 5-17-69-150-10-154-114-4-87 153-88 188-35 5 8 8 18 10 28" id="aQ"/><path d="M185-48c-13 30-37 53-82 52C43 2 14-33 14-96s30-98 90-98c62 0 83 45 84 108H66c0 31 8 55 39 56 18 0 30-7 34-22zm-45-69c5-46-57-63-70-21-2 6-4 13-4 21h74" id="aR"/><path d="M135-150c-39-12-60 13-60 57V0H25l-1-190h47c2 13-1 29 3 40 6-28 27-53 61-41v41" id="aS"/><path d="M128 0H69L1-190h53L99-40l48-150h52" id="aT"/><g id="a"><use transform="matrix(0.0987654320987654,0,0,0.0987654320987654,0,0)" xlink:href="#aQ"/><use transform="matrix(0.0987654320987654,0,0,0.0987654320987654,23.703703703703695,0)" xlink:href="#aR"/><use transform="matrix(0.0987654320987654,0,0,0.0987654320987654,43.45679012345677,0)" xlink:href="#aS"/><use transform="matrix(0.0987654320987654,0,0,0.0987654320987654,57.28395061728393,0)" xlink:href="#aT"/><use transform="matrix(0.0987654320987654,0,0,0.0987654320987654,77.03703703703701,0)" xlink:href="#aR"/><use transform="matrix(0.0987654320987654,0,0,0.0987654320987654,96.79012345679008,0)" xlink:href="#aS"/></g><path d="M33 0v-248h34V0H33" id="aU"/><path d="M117-194c89-4 53 116 60 194h-32v-121c0-31-8-49-39-48C34-167 62-67 57 0H25l-1-190h30c1 10-1 24 2 32 11-22 29-35 61-36" id="aV"/><path d="M141-36C126-15 110 5 73 4 37 3 15-17 15-53c-1-64 63-63 125-63 3-35-9-54-41-54-24 1-41 7-42 31l-33-3c5-37 33-52 76-52 45 0 72 20 72 64v82c-1 20 7 32 28 27v20c-31 9-61-2-59-35zM48-53c0 20 12 33 32 33 41-3 63-29 60-74-43 2-92-5-92 41" id="aW"/><path d="M96-169c-40 0-48 33-48 73s9 75 48 75c24 0 41-14 43-38l32 2c-6 37-31 61-74 61-59 0-76-41-82-99-10-93 101-131 147-64 4 7 5 14 7 22l-32 3c-4-21-16-35-41-35" id="aX"/><path d="M59-47c-2 24 18 29 38 22v24C64 9 27 4 27-40v-127H5v-23h24l9-43h21v43h35v23H59v120" id="aY"/><path d="M24-231v-30h32v30H24zM24 0v-190h32V0H24" id="aZ"/><path d="M108 0H70L1-190h34L89-25l56-165h34" id="ba"/><path d="M100-194c63 0 86 42 84 106H49c0 40 14 67 53 68 26 1 43-12 49-29l28 8c-11 28-37 45-77 45C44 4 14-33 15-96c1-61 26-98 85-98zm52 81c6-60-76-77-97-28-3 7-6 17-6 28h103" id="bb"/><g id="b"><use transform="matrix(0.06172839506172839,0,0,0.06172839506172839,0,0)" xlink:href="#aU"/><use transform="matrix(0.06172839506172839,0,0,0.06172839506172839,6.172839506172839,0)" xlink:href="#aV"/><use transform="matrix(0.06172839506172839,0,0,0.06172839506172839,18.51851851851852,0)" xlink:href="#aW"/><use transform="matrix(0.06172839506172839,0,0,0.06172839506172839,30.864197530864196,0)" xlink:href="#aX"/><use transform="matrix(0.06172839506172839,0,0,0.06172839506172839,41.9753086419753,0)" xlink:href="#aY"/><use transform="matrix(0.06172839506172839,0,0,0.06172839506172839,48.148148148148145,0)" xlink:href="#aZ"/><use transform="matrix(0.06172839506172839,0,0,0.06172839506172839,53.02469135802469,0)" xlink:href="#ba"/><use transform="matrix(0.06172839506172839,0,0,0.06172839506172839,64.1358024691358,0)" xlink:href="#bb"/></g><path d="M30-248c87 1 191-15 191 75 0 78-77 80-158 76V0H30v-248zm33 125c57 0 124 11 124-50 0-59-68-47-124-48v98" id="bc"/><path d="M24 0v-261h32V0H24" id="bd"/><path d="M179-190L93 31C79 59 56 82 12 73V49c39 6 53-20 64-50L1-190h34L92-34l54-156h33" id="be"/><path d="M114-163C36-179 61-72 57 0H25l-1-190h30c1 12-1 29 2 39 6-27 23-49 58-41v29" id="bf"/><g id="c"><use transform="matrix(0.06172839506172839,0,0,0.06172839506172839,0,0)" xlink:href="#bc"/><use transform="matrix(0.06172839506172839,0,0,0.06172839506172839,14.814814814814813,0)" xlink:href="#bd"/><use transform="matrix(0.06172839506172839,0,0,0.06172839506172839,19.691358024691354,0)" xlink:href="#aW"/><use transform="matrix(0.06172839506172839,0,0,0.06172839506172839,32.03703703703703,0)" xlink:href="#be"/><use transform="matrix(0.06172839506172839,0,0,0.06172839506172839,43.14814814814814,0)" xlink:href="#bb"/><use transform="matrix(0.06172839506172839,0,0,0.06172839506172839,55.493827160493815,0)" xlink:href="#bf"/></g><g id="d"><use transform="matrix(0.04938271604938272,0,0,0.04938271604938272,0,0)" xlink:href="#aQ"/><use transform="matrix(0.04938271604938272,0,0,0.04938271604938272,11.851851851851853,0)" xlink:href="#aR"/><use transform="matrix(0.04938271604938272,0,0,0.04938271604938272,21.7283950617284,0)" xlink:href="#aS"/><use transform="matrix(0.04938271604938272,0,0,0.04938271604938272,28.64197530864198,0)" xlink:href="#aT"/><use transform="matrix(0.04938271604938272,0,0,0.04938271604938272,38.518518518518526,0)" xlink:href="#aR"/><use transform="matrix(0.04938271604938272,0,0,0.04938271604938272,48.39506172839507,0)" xlink:href="#aS"/></g><path d="M175 0L67-191c6 58 2 128 3 191H24v-248h59L193-55c-6-58-2-129-3-193h46V0h-61" id="bg"/><path d="M110-194c64 0 96 36 96 99 0 64-35 99-97 99-61 0-95-36-95-99 0-62 34-99 96-99zm-1 164c35 0 45-28 45-65 0-40-10-65-43-65-34 0-45 26-45 65 0 36 10 65 43 65" id="bh"/><path d="M115-3C79 11 28 4 28-45v-112H4v-33h27l15-45h31v45h36v33H77v99c-1 23 16 31 38 25v30" id="bi"/><path d="M25-224v-37h50v37H25zM25 0v-190h50V0H25" id="bj"/><path d="M121-226c-27-7-43 5-38 36h38v33H83V0H34v-157H6v-33h28c-9-59 32-81 87-68v32" id="bk"/><path d="M88-194c31-1 46 15 58 34l-1-101h50l1 261h-48c-2-10 0-23-3-31C134-8 116 4 84 4 32 4 16-41 15-95c0-56 19-97 73-99zm17 164c33 0 40-30 41-66 1-37-9-64-41-64s-38 30-39 65c0 43 13 65 39 65" id="bl"/><g id="e"><use transform="matrix(0.04938271604938272,0,0,0.04938271604938272,0,0)" xlink:href="#bg"/><use transform="matrix(0.04938271604938272,0,0,0.04938271604938272,12.790123456790125,0)" xlink:href="#bh"/><use transform="matrix(0.04938271604938272,0,0,0.04938271604938272,23.60493827160494,0)" xlink:href="#bi"/><use transform="matrix(0.04938271604938272,0,0,0.04938271604938272,29.481481481481485,0)" xlink:href="#bj"/><use transform="matrix(0.04938271604938272,0,0,0.04938271604938272,34.41975308641976,0)" xlink:href="#bk"/><use transform="matrix(0.04938271604938272,0,0,0.04938271604938272,40.296296296296305,0)" xlink:href="#bj"/><use transform="matrix(0.04938271604938272,0,0,0.04938271604938272,45.23456790123458,0)" xlink:href="#aR"/><use transform="matrix(0.04938271604938272,0,0,0.04938271604938272,55.111111111111114,0)" xlink:href="#bl"/></g><path d="M230 0l2-204L168 0h-37L68-204 70 0H24v-248h70l56 185 57-185h69V0h-46" id="bm"/><g id="f"><use transform="matrix(0.04938271604938272,0,0,0.04938271604938272,0,0)" xlink:href="#bm"/><use transform="matrix(0.04938271604938272,0,0,0.04938271604938272,14.765432098765434,0)" xlink:href="#aR"/></g><path d="M4 7l51-268h42L46 7H4" id="bn"/><use transform="matrix(0.04938271604938272,0,0,0.04938271604938272,0,0)" xlink:href="#bn" id="g"/><path d="M199 0l-22-63H83L61 0H9l90-248h61L250 0h-51zm-33-102l-36-108c-10 38-24 72-36 108h72" id="bo"/><path d="M190-63c-7 42-38 67-86 67-59 0-84-38-90-98-12-110 154-137 174-36l-49 2c-2-19-15-32-35-32-30 0-35 28-38 64-6 74 65 87 74 30" id="bp"/><g id="h"><use transform="matrix(0.04938271604938272,0,0,0.04938271604938272,0,0)" xlink:href="#bo"/><use transform="matrix(0.04938271604938272,0,0,0.04938271604938272,12.790123456790125,0)" xlink:href="#bp"/><use transform="matrix(0.04938271604938272,0,0,0.04938271604938272,22.66666666666667,0)" xlink:href="#bi"/><use transform="matrix(0.04938271604938272,0,0,0.04938271604938272,28.54320987654322,0)" xlink:href="#bj"/><use transform="matrix(0.04938271604938272,0,0,0.04938271604938272,33.48148148148149,0)" xlink:href="#aT"/><use transform="matrix(0.04938271604938272,0,0,0.04938271604938272,43.35802469135803,0)" xlink:href="#aR"/></g><path d="M24-248c93 1 206-16 204 79-1 75-69 88-152 82V0H24v-248zm52 121c47 0 100 7 100-41 0-47-54-39-100-39v80" id="bq"/><path d="M25 0v-261h50V0H25" id="br"/><path d="M133-34C117-15 103 5 69 4 32 3 11-16 11-54c-1-60 55-63 116-61 1-26-3-47-28-47-18 1-26 9-28 27l-52-2c7-38 36-58 82-57s74 22 75 68l1 82c-1 14 12 18 25 15v27c-30 8-71 5-69-32zm-48 3c29 0 43-24 42-57-32 0-66-3-65 30 0 17 8 27 23 27" id="bs"/><path d="M123 10C108 53 80 86 19 72V37c35 8 53-11 59-39L3-190h52l48 148c12-52 28-100 44-148h51" id="bt"/><g id="i"><use transform="matrix(0.04938271604938272,0,0,0.04938271604938272,0,0)" xlink:href="#bq"/><use transform="matrix(0.04938271604938272,0,0,0.04938271604938272,11.851851851851853,0)" xlink:href="#br"/><use transform="matrix(0.04938271604938272,0,0,0.04938271604938272,16.790123456790127,0)" xlink:href="#bs"/><use transform="matrix(0.04938271604938272,0,0,0.04938271604938272,26.666666666666668,0)" xlink:href="#bt"/><use transform="matrix(0.04938271604938272,0,0,0.04938271604938272,36.543209876543216,0)" xlink:href="#aR"/><use transform="matrix(0.04938271604938272,0,0,0.04938271604938272,46.41975308641976,0)" xlink:href="#aS"/></g><path d="M24 0v-248h52V0H24" id="bu"/><path d="M137-138c1-29-70-34-71-4 15 46 118 7 119 86 1 83-164 76-172 9l43-7c4 19 20 25 44 25 33 8 57-30 24-41C81-84 22-81 20-136c-2-80 154-74 161-7" id="bv"/><g id="j"><use transform="matrix(0.04938271604938272,0,0,0.04938271604938272,0,0)" xlink:href="#bu"/><use transform="matrix(0.04938271604938272,0,0,0.04938271604938272,4.938271604938272,0)" xlink:href="#bv"/></g><g id="k"><use transform="matrix(0.04938271604938272,0,0,0.04938271604938272,0,0)" xlink:href="#bm"/><use transform="matrix(0.04938271604938272,0,0,0.04938271604938272,14.765432098765434,0)" xlink:href="#aR"/></g><path d="M205 0l-28-72H64L36 0H1l101-248h38L239 0h-34zm-38-99l-47-123c-12 45-31 82-46 123h93" id="bw"/><g id="l"><use transform="matrix(0.06172839506172839,0,0,0.06172839506172839,0,0)" xlink:href="#bw"/><use transform="matrix(0.06172839506172839,0,0,0.06172839506172839,14.814814814814813,0)" xlink:href="#aX"/><use transform="matrix(0.06172839506172839,0,0,0.06172839506172839,25.925925925925924,0)" xlink:href="#aY"/><use transform="matrix(0.06172839506172839,0,0,0.06172839506172839,32.098765432098766,0)" xlink:href="#aZ"/><use transform="matrix(0.06172839506172839,0,0,0.06172839506172839,36.97530864197531,0)" xlink:href="#ba"/><use transform="matrix(0.06172839506172839,0,0,0.06172839506172839,48.08641975308642,0)" xlink:href="#bb"/></g><path d="M266 0h-40l-56-210L115 0H75L2-248h35L96-30l15-64 43-154h32l59 218 59-218h35" id="bx"/><path d="M177-190C167-65 218 103 67 71c-23-6-38-20-44-43l32-5c15 47 100 32 89-28v-30C133-14 115 1 83 1 29 1 15-40 15-95c0-56 16-97 71-98 29-1 48 16 59 35 1-10 0-23 2-32h30zM94-22c36 0 50-32 50-73 0-42-14-75-50-75-39 0-46 34-46 75s6 73 46 73" id="by"/><g id="m"><use transform="matrix(0.06172839506172839,0,0,0.06172839506172839,0,0)" xlink:href="#bx"/><use transform="matrix(0.06172839506172839,0,0,0.06172839506172839,20.123456790123456,0)" xlink:href="#aW"/><use transform="matrix(0.06172839506172839,0,0,0.06172839506172839,32.46913580246913,0)" xlink:href="#aZ"/><use transform="matrix(0.06172839506172839,0,0,0.06172839506172839,37.34567901234568,0)" xlink:href="#aY"/><use transform="matrix(0.06172839506172839,0,0,0.06172839506172839,43.51851851851852,0)" xlink:href="#aZ"/><use transform="matrix(0.06172839506172839,0,0,0.06172839506172839,48.39506172839506,0)" xlink:href="#aV"/><use transform="matrix(0.06172839506172839,0,0,0.06172839506172839,60.74074074074074,0)" xlink:href="#by"/></g><g id="n"><use transform="matrix(0.06172839506172839,0,0,0.06172839506172839,0,0)" xlink:href="#aU"/><use transform="matrix(0.06172839506172839,0,0,0.06172839506172839,6.172839506172839,0)" xlink:href="#aV"/></g><path d="M127-220V0H93v-220H8v-28h204v28h-85" id="bz"/><path d="M106-169C34-169 62-67 57 0H25v-261h32l-1 103c12-21 28-36 61-36 89 0 53 116 60 194h-32v-121c2-32-8-49-39-48" id="bA"/><g id="o"><use transform="matrix(0.06172839506172839,0,0,0.06172839506172839,0,0)" xlink:href="#bz"/><use transform="matrix(0.06172839506172839,0,0,0.06172839506172839,13.518518518518517,0)" xlink:href="#bA"/><use transform="matrix(0.06172839506172839,0,0,0.06172839506172839,25.864197530864196,0)" xlink:href="#bb"/></g><path d="M30 0v-248h33v221h125V0H30" id="bB"/><path d="M100-194c62-1 85 37 85 99 1 63-27 99-86 99S16-35 15-95c0-66 28-99 85-99zM99-20c44 1 53-31 53-75 0-43-8-75-51-75s-53 32-53 75 10 74 51 75" id="bC"/><path d="M115-194c53 0 69 39 70 98 0 66-23 100-70 100C84 3 66-7 56-30L54 0H23l1-261h32v101c10-23 28-34 59-34zm-8 174c40 0 45-34 45-75 0-40-5-75-45-74-42 0-51 32-51 76 0 43 10 73 51 73" id="bD"/><g id="p"><use transform="matrix(0.06172839506172839,0,0,0.06172839506172839,0,0)" xlink:href="#bB"/><use transform="matrix(0.06172839506172839,0,0,0.06172839506172839,12.345679012345679,0)" xlink:href="#bC"/><use transform="matrix(0.06172839506172839,0,0,0.06172839506172839,24.691358024691358,0)" xlink:href="#bD"/><use transform="matrix(0.06172839506172839,0,0,0.06172839506172839,37.03703703703704,0)" xlink:href="#bD"/><use transform="matrix(0.06172839506172839,0,0,0.06172839506172839,49.382716049382715,0)" xlink:href="#be"/></g><path d="M67-125c0 53 21 87 73 88 37 1 54-22 65-47l45 17C233-25 199 4 140 4 58 4 20-42 15-125 8-235 124-281 211-232c18 10 29 29 36 50l-46 12c-8-25-30-41-62-41-52 0-71 34-72 86" id="bE"/><path d="M147 0L96-86 75-71V0H25v-261h50v150l67-79h53l-66 74L201 0h-54" id="bF"/><g id="q"><use transform="matrix(0.04938271604938272,0,0,0.04938271604938272,0,0)" xlink:href="#bE"/><use transform="matrix(0.04938271604938272,0,0,0.04938271604938272,12.790123456790125,0)" xlink:href="#br"/><use transform="matrix(0.04938271604938272,0,0,0.04938271604938272,17.7283950617284,0)" xlink:href="#bj"/><use transform="matrix(0.04938271604938272,0,0,0.04938271604938272,22.66666666666667,0)" xlink:href="#bp"/><use transform="matrix(0.04938271604938272,0,0,0.04938271604938272,32.543209876543216,0)" xlink:href="#bF"/></g><g id="r"><use transform="matrix(0.04938271604938272,0,0,0.04938271604938272,0,0)" xlink:href="#aQ"/><use transform="matrix(0.04938271604938272,0,0,0.04938271604938272,11.851851851851853,0)" xlink:href="#bi"/><use transform="matrix(0.04938271604938272,0,0,0.04938271604938272,17.728395061728396,0)" xlink:href="#bs"/><use transform="matrix(0.04938271604938272,0,0,0.04938271604938272,27.60493827160494,0)" xlink:href="#aS"/><use transform="matrix(0.04938271604938272,0,0,0.04938271604938272,34.51851851851852,0)" xlink:href="#bi"/></g><path d="M182-130c37 4 62 22 62 59C244 23 116-4 24 0v-248c84 5 203-23 205 63 0 31-19 50-47 55zM76-148c40-3 101 13 101-30 0-44-60-28-101-31v61zm0 110c48-3 116 14 116-37 0-48-69-32-116-35v72" id="bG"/><path d="M85 4C-2 5 27-109 22-190h50c7 57-23 150 33 157 60-5 35-97 40-157h50l1 190h-47c-2-12 1-28-3-38-12 25-28 42-61 42" id="bH"/><path d="M135-194c87-1 58 113 63 194h-50c-7-57 23-157-34-157-59 0-34 97-39 157H25l-1-190h47c2 12-1 28 3 38 12-26 28-41 61-42" id="bI"/><g id="s"><use transform="matrix(0.04938271604938272,0,0,0.04938271604938272,0,0)" xlink:href="#bG"/><use transform="matrix(0.04938271604938272,0,0,0.04938271604938272,12.790123456790125,0)" xlink:href="#bH"/><use transform="matrix(0.04938271604938272,0,0,0.04938271604938272,23.60493827160494,0)" xlink:href="#bi"/><use transform="matrix(0.04938271604938272,0,0,0.04938271604938272,29.481481481481485,0)" xlink:href="#bi"/><use transform="matrix(0.04938271604938272,0,0,0.04938271604938272,35.358024691358025,0)" xlink:href="#bh"/><use transform="matrix(0.04938271604938272,0,0,0.04938271604938272,46.17283950617284,0)" xlink:href="#bI"/></g><use transform="matrix(0.04938271604938272,0,0,0.04938271604938272,0,0)" xlink:href="#bn" id="t"/><g id="u"><use transform="matrix(0.04938271604938272,0,0,0.04938271604938272,0,0)" xlink:href="#aQ"/><use transform="matrix(0.04938271604938272,0,0,0.04938271604938272,11.851851851851853,0)" xlink:href="#bi"/><use transform="matrix(0.04938271604938272,0,0,0.04938271604938272,17.728395061728396,0)" xlink:href="#bs"/><use transform="matrix(0.04938271604938272,0,0,0.04938271604938272,27.60493827160494,0)" xlink:href="#aS"/><use transform="matrix(0.04938271604938272,0,0,0.04938271604938272,34.51851851851852,0)" xlink:href="#bi"/></g><path d="M67-125c0 54 23 88 75 88 28 0 53-7 68-21v-34h-60v-39h108v91C232-14 192 4 140 4 58 4 20-42 15-125 8-236 126-280 215-234c19 10 29 26 37 47l-47 15c-11-23-29-39-63-39-53 1-75 33-75 86" id="bJ"/><path d="M220-157c-53 9-28 100-34 157h-49v-107c1-27-5-49-29-50C55-147 81-57 75 0H25l-1-190h47c2 12-1 28 3 38 10-53 101-56 108 0 13-22 24-43 59-42 82 1 51 116 57 194h-49v-107c-1-25-5-48-29-50" id="bK"/><g id="v"><use transform="matrix(0.04938271604938272,0,0,0.04938271604938272,0,0)" xlink:href="#bJ"/><use transform="matrix(0.04938271604938272,0,0,0.04938271604938272,13.827160493827162,0)" xlink:href="#bs"/><use transform="matrix(0.04938271604938272,0,0,0.04938271604938272,23.703703703703706,0)" xlink:href="#bK"/><use transform="matrix(0.04938271604938272,0,0,0.04938271604938272,39.50617283950618,0)" xlink:href="#aR"/></g><path d="M240 0l2-218c-23 76-54 145-80 218h-23L58-218 59 0H30v-248h44l77 211c21-75 51-140 76-211h43V0h-30" id="bL"/><g id="w"><use transform="matrix(0.06172839506172839,0,0,0.06172839506172839,0,0)" xlink:href="#bL"/><use transform="matrix(0.06172839506172839,0,0,0.06172839506172839,18.456790123456788,0)" xlink:href="#bC"/><use transform="matrix(0.06172839506172839,0,0,0.06172839506172839,30.80246913580247,0)" xlink:href="#ba"/><use transform="matrix(0.06172839506172839,0,0,0.06172839506172839,41.91358024691358,0)" xlink:href="#bb"/></g><path d="M210-169c-67 3-38 105-44 169h-31v-121c0-29-5-50-35-48C34-165 62-65 56 0H25l-1-190h30c1 10-1 24 2 32 10-44 99-50 107 0 11-21 27-35 58-36 85-2 47 119 55 194h-31v-121c0-29-5-49-35-48" id="bM"/><path d="M115-194c55 1 70 41 70 98S169 2 115 4C84 4 66-9 55-30l1 105H24l-1-265h31l2 30c10-21 28-34 59-34zm-8 174c40 0 45-34 45-75s-6-73-45-74c-42 0-51 32-51 76 0 43 10 73 51 73" id="bN"/><path d="M85-194c31 0 48 13 60 33l-1-100h32l1 261h-30c-2-10 0-23-3-31C134-8 116 4 85 4 32 4 16-35 15-94c0-66 23-100 70-100zm9 24c-40 0-46 34-46 75 0 40 6 74 45 74 42 0 51-32 51-76 0-42-9-74-50-73" id="bO"/><g id="x"><use transform="matrix(0.06172839506172839,0,0,0.06172839506172839,0,0)" xlink:href="#aX"/><use transform="matrix(0.06172839506172839,0,0,0.06172839506172839,11.11111111111111,0)" xlink:href="#bC"/><use transform="matrix(0.06172839506172839,0,0,0.06172839506172839,23.45679012345679,0)" xlink:href="#bM"/><use transform="matrix(0.06172839506172839,0,0,0.06172839506172839,41.91358024691358,0)" xlink:href="#bN"/><use transform="matrix(0.06172839506172839,0,0,0.06172839506172839,54.25925925925926,0)" xlink:href="#bd"/><use transform="matrix(0.06172839506172839,0,0,0.06172839506172839,59.135802469135804,0)" xlink:href="#bb"/><use transform="matrix(0.06172839506172839,0,0,0.06172839506172839,71.48148148148148,0)" xlink:href="#aY"/><use transform="matrix(0.06172839506172839,0,0,0.06172839506172839,77.65432098765432,0)" xlink:href="#bb"/><use transform="matrix(0.06172839506172839,0,0,0.06172839506172839,90,0)" xlink:href="#bO"/></g><path d="M24-248c120-7 223 5 221 122C244-46 201 0 124 0H24v-248zM76-40c74 7 117-18 117-86 0-67-45-88-117-82v168" id="bP"/><g id="y"><use transform="matrix(0.04938271604938272,0,0,0.04938271604938272,0,0)" xlink:href="#bP"/><use transform="matrix(0.04938271604938272,0,0,0.04938271604938272,12.790123456790125,0)" xlink:href="#aR"/><use transform="matrix(0.04938271604938272,0,0,0.04938271604938272,22.66666666666667,0)" xlink:href="#bp"/><use transform="matrix(0.04938271604938272,0,0,0.04938271604938272,32.543209876543216,0)" xlink:href="#bF"/></g><use transform="matrix(0.04938271604938272,0,0,0.04938271604938272,0,0)" xlink:href="#bn" id="z"/><path d="M76-208v77h127v40H76V0H24v-248h183v40H76" id="bQ"/><path d="M114-157C55-157 80-60 75 0H25v-261h50l-1 109c12-26 28-41 61-42 86-1 58 113 63 194h-50c-7-57 23-157-34-157" id="bR"/><g id="A"><use transform="matrix(0.04938271604938272,0,0,0.04938271604938272,0,0)" xlink:href="#bQ"/><use transform="matrix(0.04938271604938272,0,0,0.04938271604938272,10.814814814814815,0)" xlink:href="#bj"/><use transform="matrix(0.04938271604938272,0,0,0.04938271604938272,15.753086419753087,0)" xlink:href="#bI"/><use transform="matrix(0.04938271604938272,0,0,0.04938271604938272,26.567901234567902,0)" xlink:href="#bj"/><use transform="matrix(0.04938271604938272,0,0,0.04938271604938272,31.506172839506174,0)" xlink:href="#bv"/><use transform="matrix(0.04938271604938272,0,0,0.04938271604938272,41.38271604938272,0)" xlink:href="#bR"/></g><path d="M136-208V0H84v-208H4v-40h212v40h-80" id="bS"/><g id="B"><use transform="matrix(0.04938271604938272,0,0,0.04938271604938272,0,0)" xlink:href="#bS"/><use transform="matrix(0.04938271604938272,0,0,0.04938271604938272,9.481481481481481,0)" xlink:href="#bH"/><use transform="matrix(0.04938271604938272,0,0,0.04938271604938272,20.296296296296298,0)" xlink:href="#aS"/><use transform="matrix(0.04938271604938272,0,0,0.04938271604938272,27.20987654320988,0)" xlink:href="#bI"/></g><path d="M63-220v92h138v28H63V0H30v-248h175v28H63" id="bT"/><path d="M135-143c-3-34-86-38-87 0 15 53 115 12 119 90S17 21 10-45l28-5c4 36 97 45 98 0-10-56-113-15-118-90-4-57 82-63 122-42 12 7 21 19 24 35" id="bU"/><g id="C"><use transform="matrix(0.06172839506172839,0,0,0.06172839506172839,0,0)" xlink:href="#bT"/><use transform="matrix(0.06172839506172839,0,0,0.06172839506172839,13.518518518518517,0)" xlink:href="#aZ"/><use transform="matrix(0.06172839506172839,0,0,0.06172839506172839,18.39506172839506,0)" xlink:href="#aV"/><use transform="matrix(0.06172839506172839,0,0,0.06172839506172839,30.74074074074074,0)" xlink:href="#aZ"/><use transform="matrix(0.06172839506172839,0,0,0.06172839506172839,35.617283950617285,0)" xlink:href="#bU"/><use transform="matrix(0.06172839506172839,0,0,0.06172839506172839,46.72839506172839,0)" xlink:href="#bA"/><use transform="matrix(0.06172839506172839,0,0,0.06172839506172839,59.07407407407407,0)" xlink:href="#bb"/><use transform="matrix(0.06172839506172839,0,0,0.06172839506172839,71.41975308641975,0)" xlink:href="#bO"/></g><path d="M143 4C61 4 22-44 18-125c-5-107 100-154 193-111 17 8 29 25 37 43l-32 9c-13-25-37-40-76-40-61 0-88 39-88 99 0 61 29 100 91 101 35 0 62-11 79-27v-45h-74v-28h105v86C228-13 192 4 143 4" id="bV"/><g id="D"><use transform="matrix(0.06172839506172839,0,0,0.06172839506172839,0,0)" xlink:href="#bV"/><use transform="matrix(0.06172839506172839,0,0,0.06172839506172839,17.28395061728395,0)" xlink:href="#aW"/><use transform="matrix(0.06172839506172839,0,0,0.06172839506172839,29.629629629629626,0)" xlink:href="#bM"/><use transform="matrix(0.06172839506172839,0,0,0.06172839506172839,48.08641975308642,0)" xlink:href="#bb"/></g><path d="M24 0v-248h52v208h133V0H24" id="bW"/><g id="E"><use transform="matrix(0.04938271604938272,0,0,0.04938271604938272,0,0)" xlink:href="#bW"/><use transform="matrix(0.04938271604938272,0,0,0.04938271604938272,10.814814814814815,0)" xlink:href="#bs"/><use transform="matrix(0.04938271604938272,0,0,0.04938271604938272,20.69135802469136,0)" xlink:href="#bv"/><use transform="matrix(0.04938271604938272,0,0,0.04938271604938272,30.567901234567906,0)" xlink:href="#bi"/></g><path d="M140-251c80 0 125 45 125 126S219 4 139 4C58 4 15-44 15-125s44-126 125-126zm-1 214c52 0 73-35 73-88 0-50-21-86-72-86-52 0-73 35-73 86s22 88 72 88" id="bX"/><path d="M231 0h-52l-39-155L100 0H48L-1-190h46L77-45c9-52 24-97 36-145h53l37 145 32-145h46" id="bY"/><g id="F"><use transform="matrix(0.04938271604938272,0,0,0.04938271604938272,0,0)" xlink:href="#bX"/><use transform="matrix(0.04938271604938272,0,0,0.04938271604938272,13.827160493827162,0)" xlink:href="#bY"/><use transform="matrix(0.04938271604938272,0,0,0.04938271604938272,27.654320987654323,0)" xlink:href="#br"/></g><g id="G"><use transform="matrix(0.04938271604938272,0,0,0.04938271604938272,0,0)" xlink:href="#bj"/><use transform="matrix(0.04938271604938272,0,0,0.04938271604938272,4.938271604938272,0)" xlink:href="#bI"/></g><g id="H"><use transform="matrix(0.04938271604938272,0,0,0.04938271604938272,0,0)" xlink:href="#bi"/><use transform="matrix(0.04938271604938272,0,0,0.04938271604938272,5.8765432098765435,0)" xlink:href="#bR"/><use transform="matrix(0.04938271604938272,0,0,0.04938271604938272,16.691358024691358,0)" xlink:href="#aR"/></g><g id="I"><use transform="matrix(0.04938271604938272,0,0,0.04938271604938272,0,0)" xlink:href="#bI"/><use transform="matrix(0.04938271604938272,0,0,0.04938271604938272,10.814814814814815,0)" xlink:href="#aR"/><use transform="matrix(0.04938271604938272,0,0,0.04938271604938272,20.69135802469136,0)" xlink:href="#bv"/><use transform="matrix(0.04938271604938272,0,0,0.04938271604938272,30.567901234567906,0)" xlink:href="#bi"/></g><use transform="matrix(0.04938271604938272,0,0,0.04938271604938272,0,0)" xlink:href="#bn" id="J"/><g id="K"><use transform="matrix(0.04938271604938272,0,0,0.04938271604938272,0,0)" xlink:href="#bq"/><use transform="matrix(0.04938271604938272,0,0,0.04938271604938272,11.851851851851853,0)" xlink:href="#br"/><use transform="matrix(0.04938271604938272,0,0,0.04938271604938272,16.790123456790127,0)" xlink:href="#bs"/><use transform="matrix(0.04938271604938272,0,0,0.04938271604938272,26.666666666666668,0)" xlink:href="#bt"/><use transform="matrix(0.04938271604938272,0,0,0.04938271604938272,36.543209876543216,0)" xlink:href="#aR"/><use transform="matrix(0.04938271604938272,0,0,0.04938271604938272,46.41975308641976,0)" xlink:href="#aS"/></g><path d="M275 0h-61l-44-196L126 0H64L0-248h53L97-49l45-199h58l43 199 44-199h52" id="bZ"/><g id="L"><use transform="matrix(0.04938271604938272,0,0,0.04938271604938272,0,0)" xlink:href="#bZ"/><use transform="matrix(0.04938271604938272,0,0,0.04938271604938272,16.59259259259259,0)" xlink:href="#bj"/><use transform="matrix(0.04938271604938272,0,0,0.04938271604938272,21.530864197530864,0)" xlink:href="#bI"/></g><path d="M240-174c0 40-23 61-54 70L253 0h-59l-57-94H76V0H24v-248c93 4 217-23 216 74zM76-134c48-2 112 12 112-38 0-48-66-32-112-35v73" id="ca"/><g id="M"><use transform="matrix(0.04938271604938272,0,0,0.04938271604938272,0,0)" xlink:href="#ca"/><use transform="matrix(0.04938271604938272,0,0,0.04938271604938272,12.790123456790125,0)" xlink:href="#aR"/><use transform="matrix(0.04938271604938272,0,0,0.04938271604938272,22.66666666666667,0)" xlink:href="#bi"/><use transform="matrix(0.04938271604938272,0,0,0.04938271604938272,28.54320987654322,0)" xlink:href="#bH"/><use transform="matrix(0.04938271604938272,0,0,0.04938271604938272,39.35802469135803,0)" xlink:href="#aS"/><use transform="matrix(0.04938271604938272,0,0,0.04938271604938272,46.271604938271615,0)" xlink:href="#bI"/></g><g id="N"><use transform="matrix(0.04938271604938272,0,0,0.04938271604938272,0,0)" xlink:href="#bS"/><use transform="matrix(0.04938271604938272,0,0,0.04938271604938272,9.481481481481481,0)" xlink:href="#bh"/></g><path d="M135-194c52 0 70 43 70 98 0 56-19 99-73 100-30 1-46-15-58-35L72 0H24l1-261h50v104c11-23 29-37 60-37zM114-30c31 0 40-27 40-66 0-37-7-63-39-63s-41 28-41 65c0 36 8 64 40 64" id="cb"/><g id="O"><use transform="matrix(0.04938271604938272,0,0,0.04938271604938272,0,0)" xlink:href="#bW"/><use transform="matrix(0.04938271604938272,0,0,0.04938271604938272,10.814814814814815,0)" xlink:href="#bh"/><use transform="matrix(0.04938271604938272,0,0,0.04938271604938272,21.62962962962963,0)" xlink:href="#cb"/><use transform="matrix(0.04938271604938272,0,0,0.04938271604938272,32.44444444444444,0)" xlink:href="#cb"/><use transform="matrix(0.04938271604938272,0,0,0.04938271604938272,43.25925925925926,0)" xlink:href="#bt"/></g><use transform="matrix(0.04938271604938272,0,0,0.04938271604938272,0,0)" xlink:href="#bn" id="P"/><g id="Q"><use transform="matrix(0.04938271604938272,0,0,0.04938271604938272,0,0)" xlink:href="#ca"/><use transform="matrix(0.04938271604938272,0,0,0.04938271604938272,12.790123456790125,0)" xlink:href="#aR"/><use transform="matrix(0.04938271604938272,0,0,0.04938271604938272,22.66666666666667,0)" xlink:href="#bi"/><use transform="matrix(0.04938271604938272,0,0,0.04938271604938272,28.54320987654322,0)" xlink:href="#bH"/><use transform="matrix(0.04938271604938272,0,0,0.04938271604938272,39.35802469135803,0)" xlink:href="#aS"/><use transform="matrix(0.04938271604938272,0,0,0.04938271604938272,46.271604938271615,0)" xlink:href="#bI"/></g><g id="R"><use transform="matrix(0.04938271604938272,0,0,0.04938271604938272,0,0)" xlink:href="#bi"/><use transform="matrix(0.04938271604938272,0,0,0.04938271604938272,5.8765432098765435,0)" xlink:href="#bh"/></g><g id="S"><use transform="matrix(0.04938271604938272,0,0,0.04938271604938272,0,0)" xlink:href="#bW"/><use transform="matrix(0.04938271604938272,0,0,0.04938271604938272,10.814814814814815,0)" xlink:href="#bh"/><use transform="matrix(0.04938271604938272,0,0,0.04938271604938272,21.62962962962963,0)" xlink:href="#cb"/><use transform="matrix(0.04938271604938272,0,0,0.04938271604938272,32.44444444444444,0)" xlink:href="#cb"/><use transform="matrix(0.04938271604938272,0,0,0.04938271604938272,43.25925925925926,0)" xlink:href="#bt"/></g><g id="T"><use transform="matrix(0.04938271604938272,0,0,0.04938271604938272,0,0)" xlink:href="#bX"/><use transform="matrix(0.04938271604938272,0,0,0.04938271604938272,13.827160493827162,0)" xlink:href="#bI"/></g><path d="M186 0v-106H76V0H24v-248h52v99h110v-99h50V0h-50" id="cc"/><path d="M135-194c53 0 70 44 70 98 0 56-19 98-73 100-31 1-45-17-59-34 3 33 2 69 2 105H25l-1-265h48c2 10 0 23 3 31 11-24 29-35 60-35zM114-30c33 0 39-31 40-66 0-38-9-64-40-64-56 0-55 130 0 130" id="cd"/><g id="U"><use transform="matrix(0.04938271604938272,0,0,0.04938271604938272,0,0)" xlink:href="#cc"/><use transform="matrix(0.04938271604938272,0,0,0.04938271604938272,12.790123456790125,0)" xlink:href="#aR"/><use transform="matrix(0.04938271604938272,0,0,0.04938271604938272,22.66666666666667,0)" xlink:href="#br"/><use transform="matrix(0.04938271604938272,0,0,0.04938271604938272,27.604938271604947,0)" xlink:href="#cd"/></g><g id="V"><use transform="matrix(0.04938271604938272,0,0,0.04938271604938272,0,0)" xlink:href="#bG"/><use transform="matrix(0.04938271604938272,0,0,0.04938271604938272,12.790123456790125,0)" xlink:href="#bH"/><use transform="matrix(0.04938271604938272,0,0,0.04938271604938272,23.60493827160494,0)" xlink:href="#bi"/><use transform="matrix(0.04938271604938272,0,0,0.04938271604938272,29.481481481481485,0)" xlink:href="#bi"/><use transform="matrix(0.04938271604938272,0,0,0.04938271604938272,35.358024691358025,0)" xlink:href="#bh"/><use transform="matrix(0.04938271604938272,0,0,0.04938271604938272,46.17283950617284,0)" xlink:href="#bI"/></g><g id="W"><use transform="matrix(0.04938271604938272,0,0,0.04938271604938272,0,0)" xlink:href="#cc"/><use transform="matrix(0.04938271604938272,0,0,0.04938271604938272,12.790123456790125,0)" xlink:href="#aR"/><use transform="matrix(0.04938271604938272,0,0,0.04938271604938272,22.66666666666667,0)" xlink:href="#br"/><use transform="matrix(0.04938271604938272,0,0,0.04938271604938272,27.604938271604947,0)" xlink:href="#cd"/></g><path d="M195-6C206 82 75 100 31 46c-4-6-6-13-8-21l49-6c3 16 16 24 34 25 40 0 42-37 40-79-11 22-30 35-61 35-53 0-70-43-70-97 0-56 18-96 73-97 30 0 46 14 59 34l2-30h47zm-90-29c32 0 41-27 41-63 0-35-9-62-40-62-32 0-39 29-40 63 0 36 9 62 39 62" id="ce"/><g id="X"><use transform="matrix(0.04938271604938272,0,0,0.04938271604938272,0,0)" xlink:href="#bP"/><use transform="matrix(0.04938271604938272,0,0,0.04938271604938272,12.790123456790125,0)" xlink:href="#bj"/><use transform="matrix(0.04938271604938272,0,0,0.04938271604938272,17.7283950617284,0)" xlink:href="#bs"/><use transform="matrix(0.04938271604938272,0,0,0.04938271604938272,27.604938271604947,0)" xlink:href="#br"/><use transform="matrix(0.04938271604938272,0,0,0.04938271604938272,32.543209876543216,0)" xlink:href="#bh"/><use transform="matrix(0.04938271604938272,0,0,0.04938271604938272,43.35802469135803,0)" xlink:href="#ce"/></g><path d="M185-189c-5-48-123-54-124 2 14 75 158 14 163 119 3 78-121 87-175 55-17-10-28-26-33-46l33-7c5 56 141 63 141-1 0-78-155-14-162-118-5-82 145-84 179-34 5 7 8 16 11 25" id="cf"/><g id="Y"><use transform="matrix(0.06172839506172839,0,0,0.06172839506172839,0,0)" xlink:href="#cf"/><use transform="matrix(0.06172839506172839,0,0,0.06172839506172839,14.814814814814813,0)" xlink:href="#bb"/><use transform="matrix(0.06172839506172839,0,0,0.06172839506172839,27.160493827160494,0)" xlink:href="#bd"/><use transform="matrix(0.06172839506172839,0,0,0.06172839506172839,32.03703703703704,0)" xlink:href="#bb"/><use transform="matrix(0.06172839506172839,0,0,0.06172839506172839,44.382716049382715,0)" xlink:href="#aX"/><use transform="matrix(0.06172839506172839,0,0,0.06172839506172839,55.49382716049382,0)" xlink:href="#aY"/><use transform="matrix(0.06172839506172839,0,0,0.06172839506172839,61.666666666666664,0)" xlink:href="#aZ"/><use transform="matrix(0.06172839506172839,0,0,0.06172839506172839,66.5432098765432,0)" xlink:href="#aV"/><use transform="matrix(0.06172839506172839,0,0,0.06172839506172839,78.88888888888889,0)" xlink:href="#by"/></g><path d="M212-179c-10-28-35-45-73-45-59 0-87 40-87 99 0 60 29 101 89 101 43 0 62-24 78-52l27 14C228-24 195 4 139 4 59 4 22-46 18-125c-6-104 99-153 187-111 19 9 31 26 39 46" id="cg"/><g id="Z"><use transform="matrix(0.06172839506172839,0,0,0.06172839506172839,0,0)" xlink:href="#cg"/><use transform="matrix(0.06172839506172839,0,0,0.06172839506172839,15.987654320987653,0)" xlink:href="#aW"/><use transform="matrix(0.06172839506172839,0,0,0.06172839506172839,28.333333333333332,0)" xlink:href="#bf"/><use transform="matrix(0.06172839506172839,0,0,0.06172839506172839,35.67901234567901,0)" xlink:href="#bO"/></g><g id="aa"><use transform="matrix(0.04938271604938272,0,0,0.04938271604938272,0,0)" xlink:href="#cc"/><use transform="matrix(0.04938271604938272,0,0,0.04938271604938272,12.790123456790125,0)" xlink:href="#bj"/><use transform="matrix(0.04938271604938272,0,0,0.04938271604938272,17.7283950617284,0)" xlink:href="#ce"/><use transform="matrix(0.04938271604938272,0,0,0.04938271604938272,28.54320987654322,0)" xlink:href="#bR"/><use transform="matrix(0.04938271604938272,0,0,0.04938271604938272,39.35802469135803,0)" xlink:href="#br"/><use transform="matrix(0.04938271604938272,0,0,0.04938271604938272,44.296296296296305,0)" xlink:href="#bj"/><use transform="matrix(0.04938271604938272,0,0,0.04938271604938272,49.23456790123458,0)" xlink:href="#ce"/><use transform="matrix(0.04938271604938272,0,0,0.04938271604938272,60.0493827160494,0)" xlink:href="#bR"/><use transform="matrix(0.04938271604938272,0,0,0.04938271604938272,70.8641975308642,0)" xlink:href="#bi"/></g><g id="ab"><use transform="matrix(0.04938271604938272,0,0,0.04938271604938272,0,0)" xlink:href="#bo"/><use transform="matrix(0.04938271604938272,0,0,0.04938271604938272,12.790123456790125,0)" xlink:href="#bp"/><use transform="matrix(0.04938271604938272,0,0,0.04938271604938272,22.66666666666667,0)" xlink:href="#bi"/><use transform="matrix(0.04938271604938272,0,0,0.04938271604938272,28.54320987654322,0)" xlink:href="#bj"/><use transform="matrix(0.04938271604938272,0,0,0.04938271604938272,33.48148148148149,0)" xlink:href="#aT"/><use transform="matrix(0.04938271604938272,0,0,0.04938271604938272,43.35802469135803,0)" xlink:href="#aR"/></g><g id="ac"><use transform="matrix(0.04938271604938272,0,0,0.04938271604938272,0,0)" xlink:href="#bE"/><use transform="matrix(0.04938271604938272,0,0,0.04938271604938272,12.790123456790125,0)" xlink:href="#bs"/><use transform="matrix(0.04938271604938272,0,0,0.04938271604938272,22.66666666666667,0)" xlink:href="#aS"/><use transform="matrix(0.04938271604938272,0,0,0.04938271604938272,29.580246913580254,0)" xlink:href="#bl"/><use transform="matrix(0.04938271604938272,0,0,0.04938271604938272,40.39506172839507,0)" xlink:href="#bv"/></g><g id="ad"><use transform="matrix(0.04938271604938272,0,0,0.04938271604938272,0,0)" xlink:href="#bE"/><use transform="matrix(0.04938271604938272,0,0,0.04938271604938272,12.790123456790125,0)" xlink:href="#bs"/><use transform="matrix(0.04938271604938272,0,0,0.04938271604938272,22.66666666666667,0)" xlink:href="#aS"/><use transform="matrix(0.04938271604938272,0,0,0.04938271604938272,29.580246913580254,0)" xlink:href="#bl"/></g><g id="ae"><use transform="matrix(0.04938271604938272,0,0,0.04938271604938272,0,0)" xlink:href="#bm"/><use transform="matrix(0.04938271604938272,0,0,0.04938271604938272,14.765432098765434,0)" xlink:href="#bh"/><use transform="matrix(0.04938271604938272,0,0,0.04938271604938272,25.58024691358025,0)" xlink:href="#aT"/><use transform="matrix(0.04938271604938272,0,0,0.04938271604938272,35.45679012345679,0)" xlink:href="#bj"/><use transform="matrix(0.04938271604938272,0,0,0.04938271604938272,40.39506172839506,0)" xlink:href="#bI"/><use transform="matrix(0.04938271604938272,0,0,0.04938271604938272,51.20987654320988,0)" xlink:href="#ce"/></g><g id="af"><use transform="matrix(0.04938271604938272,0,0,0.04938271604938272,0,0)" xlink:href="#bX"/><use transform="matrix(0.04938271604938272,0,0,0.04938271604938272,13.827160493827162,0)" xlink:href="#bY"/><use transform="matrix(0.04938271604938272,0,0,0.04938271604938272,27.654320987654323,0)" xlink:href="#br"/></g><path d="M233-177c-1 41-23 64-60 70L243 0h-38l-65-103H63V0H30v-248c88 3 205-21 203 71zM63-129c60-2 137 13 137-47 0-61-80-42-137-45v92" id="ch"/><g id="ag"><use transform="matrix(0.06172839506172839,0,0,0.06172839506172839,0,0)" xlink:href="#ch"/><use transform="matrix(0.06172839506172839,0,0,0.06172839506172839,15.987654320987653,0)" xlink:href="#bb"/><use transform="matrix(0.06172839506172839,0,0,0.06172839506172839,28.333333333333332,0)" xlink:href="#by"/><use transform="matrix(0.06172839506172839,0,0,0.06172839506172839,40.67901234567901,0)" xlink:href="#aZ"/><use transform="matrix(0.06172839506172839,0,0,0.06172839506172839,45.55555555555556,0)" xlink:href="#bU"/><use transform="matrix(0.06172839506172839,0,0,0.06172839506172839,56.66666666666667,0)" xlink:href="#aY"/><use transform="matrix(0.06172839506172839,0,0,0.06172839506172839,62.83950617283951,0)" xlink:href="#bb"/><use transform="matrix(0.06172839506172839,0,0,0.06172839506172839,75.18518518518519,0)" xlink:href="#bf"/><use transform="matrix(0.06172839506172839,0,0,0.06172839506172839,82.53086419753087,0)" xlink:href="#aZ"/><use transform="matrix(0.06172839506172839,0,0,0.06172839506172839,87.40740740740742,0)" xlink:href="#aV"/><use transform="matrix(0.06172839506172839,0,0,0.06172839506172839,99.7530864197531,0)" xlink:href="#by"/></g><g id="ah"><use transform="matrix(0.06172839506172839,0,0,0.06172839506172839,0,0)" xlink:href="#aZ"/><use transform="matrix(0.06172839506172839,0,0,0.06172839506172839,4.876543209876543,0)" xlink:href="#aV"/></g><path d="M197 0v-115H63V0H30v-248h33v105h134v-105h34V0h-34" id="ci"/><g id="ai"><use transform="matrix(0.06172839506172839,0,0,0.06172839506172839,0,0)" xlink:href="#ci"/><use transform="matrix(0.06172839506172839,0,0,0.06172839506172839,15.987654320987653,0)" xlink:href="#bC"/><use transform="matrix(0.06172839506172839,0,0,0.06172839506172839,28.333333333333332,0)" xlink:href="#bM"/><use transform="matrix(0.06172839506172839,0,0,0.06172839506172839,46.79012345679012,0)" xlink:href="#bb"/><use transform="matrix(0.06172839506172839,0,0,0.06172839506172839,59.1358024691358,0)" xlink:href="#bU"/><use transform="matrix(0.06172839506172839,0,0,0.06172839506172839,70.24691358024691,0)" xlink:href="#aX"/><use transform="matrix(0.06172839506172839,0,0,0.06172839506172839,81.35802469135803,0)" xlink:href="#bf"/><use transform="matrix(0.06172839506172839,0,0,0.06172839506172839,88.70370370370371,0)" xlink:href="#bb"/><use transform="matrix(0.06172839506172839,0,0,0.06172839506172839,101.0493827160494,0)" xlink:href="#bb"/><use transform="matrix(0.06172839506172839,0,0,0.06172839506172839,113.39506172839508,0)" xlink:href="#aV"/></g><path d="M176-78C186 10 51 31 16-35c-5-9-9-19-11-32l52-8c4 21 12 37 35 38 23 0 32-16 32-40v-130H75v-41h101v170" id="cj"/><g id="aj"><use transform="matrix(0.04938271604938272,0,0,0.04938271604938272,0,0)" xlink:href="#cj"/><use transform="matrix(0.04938271604938272,0,0,0.04938271604938272,9.876543209876544,0)" xlink:href="#bh"/><use transform="matrix(0.04938271604938272,0,0,0.04938271604938272,20.69135802469136,0)" xlink:href="#bj"/><use transform="matrix(0.04938271604938272,0,0,0.04938271604938272,25.629629629629633,0)" xlink:href="#bI"/></g><g id="ak"><use transform="matrix(0.04938271604938272,0,0,0.04938271604938272,0,0)" xlink:href="#cb"/><use transform="matrix(0.04938271604938272,0,0,0.04938271604938272,10.814814814814815,0)" xlink:href="#bH"/><use transform="matrix(0.04938271604938272,0,0,0.04938271604938272,21.62962962962963,0)" xlink:href="#bi"/><use transform="matrix(0.04938271604938272,0,0,0.04938271604938272,27.506172839506174,0)" xlink:href="#bi"/><use transform="matrix(0.04938271604938272,0,0,0.04938271604938272,33.382716049382715,0)" xlink:href="#bh"/><use transform="matrix(0.04938271604938272,0,0,0.04938271604938272,44.19753086419753,0)" xlink:href="#bI"/></g><g id="al"><use transform="matrix(0.04938271604938272,0,0,0.04938271604938272,0,0)" xlink:href="#cj"/><use transform="matrix(0.04938271604938272,0,0,0.04938271604938272,9.876543209876544,0)" xlink:href="#bh"/><use transform="matrix(0.04938271604938272,0,0,0.04938271604938272,20.69135802469136,0)" xlink:href="#bj"/><use transform="matrix(0.04938271604938272,0,0,0.04938271604938272,25.629629629629633,0)" xlink:href="#bI"/></g><g id="am"><use transform="matrix(0.04938271604938272,0,0,0.04938271604938272,0,0)" xlink:href="#bW"/><use transform="matrix(0.04938271604938272,0,0,0.04938271604938272,10.814814814814815,0)" xlink:href="#bh"/><use transform="matrix(0.04938271604938272,0,0,0.04938271604938272,21.62962962962963,0)" xlink:href="#cb"/><use transform="matrix(0.04938271604938272,0,0,0.04938271604938272,32.44444444444444,0)" xlink:href="#cb"/><use transform="matrix(0.04938271604938272,0,0,0.04938271604938272,43.25925925925926,0)" xlink:href="#bt"/></g><g id="an"><use transform="matrix(0.04938271604938272,0,0,0.04938271604938272,0,0)" xlink:href="#bE"/><use transform="matrix(0.04938271604938272,0,0,0.04938271604938272,12.790123456790125,0)" xlink:href="#aS"/><use transform="matrix(0.04938271604938272,0,0,0.04938271604938272,19.703703703703706,0)" xlink:href="#aR"/><use transform="matrix(0.04938271604938272,0,0,0.04938271604938272,29.58024691358025,0)" xlink:href="#bs"/><use transform="matrix(0.04938271604938272,0,0,0.04938271604938272,39.4567901234568,0)" xlink:href="#bi"/><use transform="matrix(0.04938271604938272,0,0,0.04938271604938272,45.33333333333334,0)" xlink:href="#aR"/></g><g id="ao"><use transform="matrix(0.04938271604938272,0,0,0.04938271604938272,0,0)" xlink:href="#bE"/><use transform="matrix(0.04938271604938272,0,0,0.04938271604938272,12.790123456790125,0)" xlink:href="#aS"/><use transform="matrix(0.04938271604938272,0,0,0.04938271604938272,19.703703703703706,0)" xlink:href="#aR"/><use transform="matrix(0.04938271604938272,0,0,0.04938271604938272,29.58024691358025,0)" xlink:href="#bs"/><use transform="matrix(0.04938271604938272,0,0,0.04938271604938272,39.4567901234568,0)" xlink:href="#bi"/><use transform="matrix(0.04938271604938272,0,0,0.04938271604938272,45.33333333333334,0)" xlink:href="#aR"/></g><g id="ap"><use transform="matrix(0.04938271604938272,0,0,0.04938271604938272,0,0)" xlink:href="#bI"/><use transform="matrix(0.04938271604938272,0,0,0.04938271604938272,10.814814814814815,0)" xlink:href="#aR"/><use transform="matrix(0.04938271604938272,0,0,0.04938271604938272,20.69135802469136,0)" xlink:href="#bY"/></g><g id="aq"><use transform="matrix(0.04938271604938272,0,0,0.04938271604938272,0,0)" xlink:href="#bg"/><use transform="matrix(0.04938271604938272,0,0,0.04938271604938272,12.790123456790125,0)" xlink:href="#aR"/><use transform="matrix(0.04938271604938272,0,0,0.04938271604938272,22.66666666666667,0)" xlink:href="#bY"/></g><g id="ar"><use transform="matrix(0.04938271604938272,0,0,0.04938271604938272,0,0)" xlink:href="#cd"/><use transform="matrix(0.04938271604938272,0,0,0.04938271604938272,10.814814814814815,0)" xlink:href="#br"/><use transform="matrix(0.04938271604938272,0,0,0.04938271604938272,15.753086419753087,0)" xlink:href="#bs"/><use transform="matrix(0.04938271604938272,0,0,0.04938271604938272,25.629629629629633,0)" xlink:href="#bt"/><use transform="matrix(0.04938271604938272,0,0,0.04938271604938272,35.50617283950618,0)" xlink:href="#aR"/><use transform="matrix(0.04938271604938272,0,0,0.04938271604938272,45.38271604938272,0)" xlink:href="#aS"/></g><path d="M25-224v-37h50v37H25zM75 22c2 45-34 59-81 51V38c22 5 31-5 31-27v-201h50V22" id="ck"/><g id="as"><use transform="matrix(0.04938271604938272,0,0,0.04938271604938272,0,0)" xlink:href="#ck"/><use transform="matrix(0.04938271604938272,0,0,0.04938271604938272,4.938271604938272,0)" xlink:href="#bh"/><use transform="matrix(0.04938271604938272,0,0,0.04938271604938272,15.753086419753087,0)" xlink:href="#bj"/><use transform="matrix(0.04938271604938272,0,0,0.04938271604938272,20.69135802469136,0)" xlink:href="#bI"/></g><g id="at"><use transform="matrix(0.04938271604938272,0,0,0.04938271604938272,0,0)" xlink:href="#ca"/><use transform="matrix(0.04938271604938272,0,0,0.04938271604938272,12.790123456790125,0)" xlink:href="#aR"/><use transform="matrix(0.04938271604938272,0,0,0.04938271604938272,22.66666666666667,0)" xlink:href="#bp"/><use transform="matrix(0.04938271604938272,0,0,0.04938271604938272,32.543209876543216,0)" xlink:href="#aR"/><use transform="matrix(0.04938271604938272,0,0,0.04938271604938272,42.41975308641976,0)" xlink:href="#bj"/><use transform="matrix(0.04938271604938272,0,0,0.04938271604938272,47.35802469135803,0)" xlink:href="#aT"/><use transform="matrix(0.04938271604938272,0,0,0.04938271604938272,57.23456790123457,0)" xlink:href="#aR"/></g><g id="au"><use transform="matrix(0.04938271604938272,0,0,0.04938271604938272,0,0)" xlink:href="#bj"/><use transform="matrix(0.04938271604938272,0,0,0.04938271604938272,4.938271604938272,0)" xlink:href="#bI"/><use transform="matrix(0.04938271604938272,0,0,0.04938271604938272,15.753086419753087,0)" xlink:href="#bk"/><use transform="matrix(0.04938271604938272,0,0,0.04938271604938272,21.62962962962963,0)" xlink:href="#bh"/><use transform="matrix(0.04938271604938272,0,0,0.04938271604938272,32.44444444444444,0)" xlink:href="#aS"/><use transform="matrix(0.04938271604938272,0,0,0.04938271604938272,39.358024691358025,0)" xlink:href="#bK"/><use transform="matrix(0.04938271604938272,0,0,0.04938271604938272,55.1604938271605,0)" xlink:href="#bs"/><use transform="matrix(0.04938271604938272,0,0,0.04938271604938272,65.03703703703704,0)" xlink:href="#bi"/><use transform="matrix(0.04938271604938272,0,0,0.04938271604938272,70.91358024691358,0)" xlink:href="#bj"/><use transform="matrix(0.04938271604938272,0,0,0.04938271604938272,75.85185185185185,0)" xlink:href="#bh"/><use transform="matrix(0.04938271604938272,0,0,0.04938271604938272,86.66666666666666,0)" xlink:href="#bI"/></g><g id="av"><use transform="matrix(0.06172839506172839,0,0,0.06172839506172839,0,0)" xlink:href="#bw"/><use transform="matrix(0.06172839506172839,0,0,0.06172839506172839,14.814814814814813,0)" xlink:href="#bU"/><use transform="matrix(0.06172839506172839,0,0,0.06172839506172839,25.925925925925924,0)" xlink:href="#bU"/><use transform="matrix(0.06172839506172839,0,0,0.06172839506172839,37.03703703703704,0)" xlink:href="#bb"/><use transform="matrix(0.06172839506172839,0,0,0.06172839506172839,49.382716049382715,0)" xlink:href="#bM"/><use transform="matrix(0.06172839506172839,0,0,0.06172839506172839,67.8395061728395,0)" xlink:href="#bD"/><use transform="matrix(0.06172839506172839,0,0,0.06172839506172839,80.18518518518519,0)" xlink:href="#bd"/><use transform="matrix(0.06172839506172839,0,0,0.06172839506172839,85.06172839506173,0)" xlink:href="#aZ"/><use transform="matrix(0.06172839506172839,0,0,0.06172839506172839,89.93827160493828,0)" xlink:href="#aV"/><use transform="matrix(0.06172839506172839,0,0,0.06172839506172839,102.28395061728396,0)" xlink:href="#by"/></g><path d="M153-248C145-148 188 4 80 4 36 3 13-21 6-62l32-5c4 25 16 42 43 43 27 0 39-20 39-49v-147H72v-28h81" id="cl"/><path d="M140-251c81 0 123 46 123 126C263-46 219 4 140 4 59 4 17-45 17-125s42-126 123-126zm0 227c63 0 89-41 89-101s-29-99-89-99c-61 0-89 39-89 99S79-25 140-24" id="cm"/><path d="M190 0L58-211 59 0H30v-248h39L202-35l-2-213h31V0h-41" id="cn"/><g id="aw"><use transform="matrix(0.06172839506172839,0,0,0.06172839506172839,0,0)" xlink:href="#cl"/><use transform="matrix(0.06172839506172839,0,0,0.06172839506172839,11.11111111111111,0)" xlink:href="#cf"/><use transform="matrix(0.06172839506172839,0,0,0.06172839506172839,25.925925925925924,0)" xlink:href="#cm"/><use transform="matrix(0.06172839506172839,0,0,0.06172839506172839,43.20987654320987,0)" xlink:href="#cn"/></g><g id="ax"><use transform="matrix(0.06172839506172839,0,0,0.06172839506172839,0,0)" xlink:href="#bM"/><use transform="matrix(0.06172839506172839,0,0,0.06172839506172839,18.456790123456788,0)" xlink:href="#bb"/><use transform="matrix(0.06172839506172839,0,0,0.06172839506172839,30.80246913580247,0)" xlink:href="#bU"/><use transform="matrix(0.06172839506172839,0,0,0.06172839506172839,41.91358024691358,0)" xlink:href="#bU"/><use transform="matrix(0.06172839506172839,0,0,0.06172839506172839,53.0246913580247,0)" xlink:href="#aW"/><use transform="matrix(0.06172839506172839,0,0,0.06172839506172839,65.37037037037038,0)" xlink:href="#by"/><use transform="matrix(0.06172839506172839,0,0,0.06172839506172839,77.71604938271606,0)" xlink:href="#bb"/></g><path d="M101-234c-31-9-42 10-38 44h38v23H63V0H32v-167H5v-23h27c-7-52 17-82 69-68v24" id="co"/><g id="ay"><use transform="matrix(0.06172839506172839,0,0,0.06172839506172839,0,0)" xlink:href="#co"/><use transform="matrix(0.06172839506172839,0,0,0.06172839506172839,6.172839506172839,0)" xlink:href="#bC"/><use transform="matrix(0.06172839506172839,0,0,0.06172839506172839,18.51851851851852,0)" xlink:href="#bf"/></g><g id="az"><use transform="matrix(0.06172839506172839,0,0,0.06172839506172839,0,0)" xlink:href="#bM"/><use transform="matrix(0.06172839506172839,0,0,0.06172839506172839,18.456790123456788,0)" xlink:href="#bb"/><use transform="matrix(0.06172839506172839,0,0,0.06172839506172839,30.80246913580247,0)" xlink:href="#bU"/><use transform="matrix(0.06172839506172839,0,0,0.06172839506172839,41.91358024691358,0)" xlink:href="#bU"/><use transform="matrix(0.06172839506172839,0,0,0.06172839506172839,53.0246913580247,0)" xlink:href="#aW"/><use transform="matrix(0.06172839506172839,0,0,0.06172839506172839,65.37037037037038,0)" xlink:href="#by"/><use transform="matrix(0.06172839506172839,0,0,0.06172839506172839,77.71604938271606,0)" xlink:href="#bb"/><use transform="matrix(0.06172839506172839,0,0,0.06172839506172839,90.06172839506175,0)" xlink:href="#bU"/></g><g id="aA"><use transform="matrix(0.04938271604938272,0,0,0.04938271604938272,0,0)" xlink:href="#bK"/><use transform="matrix(0.04938271604938272,0,0,0.04938271604938272,15.80246913580247,0)" xlink:href="#aR"/><use transform="matrix(0.04938271604938272,0,0,0.04938271604938272,25.679012345679016,0)" xlink:href="#bv"/><use transform="matrix(0.04938271604938272,0,0,0.04938271604938272,35.55555555555556,0)" xlink:href="#bv"/><use transform="matrix(0.04938271604938272,0,0,0.04938271604938272,45.4320987654321,0)" xlink:href="#bs"/><use transform="matrix(0.04938271604938272,0,0,0.04938271604938272,55.308641975308646,0)" xlink:href="#ce"/><use transform="matrix(0.04938271604938272,0,0,0.04938271604938272,66.12345679012346,0)" xlink:href="#aR"/></g><g id="aB"><use transform="matrix(0.04938271604938272,0,0,0.04938271604938272,0,0)" xlink:href="#bW"/><use transform="matrix(0.04938271604938272,0,0,0.04938271604938272,10.814814814814815,0)" xlink:href="#bh"/><use transform="matrix(0.04938271604938272,0,0,0.04938271604938272,21.62962962962963,0)" xlink:href="#bh"/><use transform="matrix(0.04938271604938272,0,0,0.04938271604938272,32.44444444444444,0)" xlink:href="#bF"/></g><g id="aC"><use transform="matrix(0.04938271604938272,0,0,0.04938271604938272,0,0)" xlink:href="#bk"/><use transform="matrix(0.04938271604938272,0,0,0.04938271604938272,5.8765432098765435,0)" xlink:href="#bh"/><use transform="matrix(0.04938271604938272,0,0,0.04938271604938272,16.691358024691358,0)" xlink:href="#aS"/></g><g id="aD"><use transform="matrix(0.04938271604938272,0,0,0.04938271604938272,0,0)" xlink:href="#cj"/><use transform="matrix(0.04938271604938272,0,0,0.04938271604938272,9.876543209876544,0)" xlink:href="#aQ"/><use transform="matrix(0.04938271604938272,0,0,0.04938271604938272,21.7283950617284,0)" xlink:href="#bX"/><use transform="matrix(0.04938271604938272,0,0,0.04938271604938272,35.55555555555556,0)" xlink:href="#bg"/></g><g id="aE"><use transform="matrix(0.04938271604938272,0,0,0.04938271604938272,0,0)" xlink:href="#aS"/><use transform="matrix(0.04938271604938272,0,0,0.04938271604938272,6.913580246913581,0)" xlink:href="#aR"/><use transform="matrix(0.04938271604938272,0,0,0.04938271604938272,16.790123456790127,0)" xlink:href="#bv"/><use transform="matrix(0.04938271604938272,0,0,0.04938271604938272,26.666666666666668,0)" xlink:href="#cd"/><use transform="matrix(0.04938271604938272,0,0,0.04938271604938272,37.48148148148149,0)" xlink:href="#bh"/><use transform="matrix(0.04938271604938272,0,0,0.04938271604938272,48.296296296296305,0)" xlink:href="#bI"/><use transform="matrix(0.04938271604938272,0,0,0.04938271604938272,59.111111111111114,0)" xlink:href="#bv"/><use transform="matrix(0.04938271604938272,0,0,0.04938271604938272,68.98765432098767,0)" xlink:href="#aR"/></g><g id="aG"><use transform="matrix(0.04938271604938272,0,0,0.04938271604938272,0,0)" xlink:href="#bm"/><use transform="matrix(0.04938271604938272,0,0,0.04938271604938272,14.765432098765434,0)" xlink:href="#aR"/><use transform="matrix(0.04938271604938272,0,0,0.04938271604938272,24.641975308641978,0)" xlink:href="#bv"/><use transform="matrix(0.04938271604938272,0,0,0.04938271604938272,34.51851851851852,0)" xlink:href="#bv"/><use transform="matrix(0.04938271604938272,0,0,0.04938271604938272,44.39506172839506,0)" xlink:href="#bs"/><use transform="matrix(0.04938271604938272,0,0,0.04938271604938272,54.27160493827161,0)" xlink:href="#ce"/><use transform="matrix(0.04938271604938272,0,0,0.04938271604938272,65.08641975308642,0)" xlink:href="#aR"/></g><g id="aH"><use transform="matrix(0.04938271604938272,0,0,0.04938271604938272,0,0)" xlink:href="#aS"/><use transform="matrix(0.04938271604938272,0,0,0.04938271604938272,6.913580246913581,0)" xlink:href="#aR"/><use transform="matrix(0.04938271604938272,0,0,0.04938271604938272,16.790123456790127,0)" xlink:href="#bs"/><use transform="matrix(0.04938271604938272,0,0,0.04938271604938272,26.666666666666668,0)" xlink:href="#bl"/><use transform="matrix(0.04938271604938272,0,0,0.04938271604938272,37.48148148148149,0)" xlink:href="#bt"/></g><g id="aI"><use transform="matrix(0.04938271604938272,0,0,0.04938271604938272,0,0)" xlink:href="#aQ"/><use transform="matrix(0.04938271604938272,0,0,0.04938271604938272,11.851851851851853,0)" xlink:href="#aR"/><use transform="matrix(0.04938271604938272,0,0,0.04938271604938272,21.7283950617284,0)" xlink:href="#bI"/><use transform="matrix(0.04938271604938272,0,0,0.04938271604938272,32.543209876543216,0)" xlink:href="#bl"/></g><g id="aJ"><use transform="matrix(0.04938271604938272,0,0,0.04938271604938272,0,0)" xlink:href="#bK"/><use transform="matrix(0.04938271604938272,0,0,0.04938271604938272,15.80246913580247,0)" xlink:href="#aR"/><use transform="matrix(0.04938271604938272,0,0,0.04938271604938272,25.679012345679016,0)" xlink:href="#bv"/><use transform="matrix(0.04938271604938272,0,0,0.04938271604938272,35.55555555555556,0)" xlink:href="#bv"/><use transform="matrix(0.04938271604938272,0,0,0.04938271604938272,45.4320987654321,0)" xlink:href="#bs"/><use transform="matrix(0.04938271604938272,0,0,0.04938271604938272,55.308641975308646,0)" xlink:href="#ce"/><use transform="matrix(0.04938271604938272,0,0,0.04938271604938272,66.12345679012346,0)" xlink:href="#aR"/></g><g id="aK"><use transform="matrix(0.0987654320987654,0,0,0.0987654320987654,0,0)" xlink:href="#bE"/><use transform="matrix(0.0987654320987654,0,0,0.0987654320987654,25.58024691358024,0)" xlink:href="#br"/><use transform="matrix(0.0987654320987654,0,0,0.0987654320987654,35.45679012345678,0)" xlink:href="#bj"/><use transform="matrix(0.0987654320987654,0,0,0.0987654320987654,45.333333333333314,0)" xlink:href="#aR"/><use transform="matrix(0.0987654320987654,0,0,0.0987654320987654,65.08641975308639,0)" xlink:href="#bI"/><use transform="matrix(0.0987654320987654,0,0,0.0987654320987654,86.71604938271601,0)" xlink:href="#bi"/></g><g id="aL"><use transform="matrix(0.04938271604938272,0,0,0.04938271604938272,0,0)" xlink:href="#cc"/><use transform="matrix(0.04938271604938272,0,0,0.04938271604938272,12.790123456790125,0)" xlink:href="#bs"/><use transform="matrix(0.04938271604938272,0,0,0.04938271604938272,22.66666666666667,0)" xlink:href="#aT"/><use transform="matrix(0.04938271604938272,0,0,0.04938271604938272,32.543209876543216,0)" xlink:href="#aR"/></g><g id="aM"><use transform="matrix(0.04938271604938272,0,0,0.04938271604938272,0,0)" xlink:href="#aQ"/><use transform="matrix(0.04938271604938272,0,0,0.04938271604938272,11.851851851851853,0)" xlink:href="#bH"/><use transform="matrix(0.04938271604938272,0,0,0.04938271604938272,22.666666666666668,0)" xlink:href="#bI"/></g><g id="aN"><use transform="matrix(0.04938271604938272,0,0,0.04938271604938272,0,0)" xlink:href="#bE"/><use transform="matrix(0.04938271604938272,0,0,0.04938271604938272,12.790123456790125,0)" xlink:href="#bs"/><use transform="matrix(0.04938271604938272,0,0,0.04938271604938272,22.66666666666667,0)" xlink:href="#aS"/><use transform="matrix(0.04938271604938272,0,0,0.04938271604938272,29.580246913580254,0)" xlink:href="#bl"/></g><g id="aO"><use transform="matrix(0.04938271604938272,0,0,0.04938271604938272,0,0)" xlink:href="#aQ"/><use transform="matrix(0.04938271604938272,0,0,0.04938271604938272,11.851851851851853,0)" xlink:href="#aR"/><use transform="matrix(0.04938271604938272,0,0,0.04938271604938272,21.7283950617284,0)" xlink:href="#br"/><use transform="matrix(0.04938271604938272,0,0,0.04938271604938272,26.666666666666668,0)" xlink:href="#aR"/><use transform="matrix(0.04938271604938272,0,0,0.04938271604938272,36.543209876543216,0)" xlink:href="#bp"/><use transform="matrix(0.04938271604938272,0,0,0.04938271604938272,46.41975308641976,0)" xlink:href="#bi"/></g><g id="aP"><use transform="matrix(0.04938271604938272,0,0,0.04938271604938272,0,0)" xlink:href="#bE"/><use transform="matrix(0.04938271604938272,0,0,0.04938271604938272,12.790123456790125,0)" xlink:href="#bs"/><use transform="matrix(0.04938271604938272,0,0,0.04938271604938272,22.66666666666667,0)" xlink:href="#aS"/><use transform="matrix(0.04938271604938272,0,0,0.04938271604938272,29.580246913580254,0)" xlink:href="#bl"/></g></defs></g></svg>