<?xml version="1.0" encoding="utf-8"?>
<!-- Generator: Adobe Illustrator 24.1.1, SVG Export Plug-In . SVG Version: 6.00 Build 0)  -->
<svg version="1.1" xmlns="http://www.w3.org/2000/svg" xmlns:xlink="http://www.w3.org/1999/xlink" x="0px" y="0px"
	 viewBox="0 0 244 196" style="enable-background:new 0 0 244 196;" xml:space="preserve">
<style type="text/css">
	.st0{fill:#233D4D;}
	.st1{fill:#15252D;}
	.st2{fill:#619B8A;}
	.st3{fill:#FCCA46;}
	.st4{fill:#41685C;stroke:#FCCA46;stroke-miterlimit:10;}
	.st5{fill:#84B7A6;}
	.st6{fill:#FFFFFF;}
	.st7{fill:#999999;}
	.st8{fill:#66CC00;}
	.st9{fill:#CCFF33;}
	.st10{fill:#CC3300;}
	.st11{fill:#FF9933;}
	.st12{display:none;}
	.st13{display:inline;fill:#7AE254;}
	.st14{display:inline;fill:#4DD4E2;}
	.st15{display:inline;fill:#EFE34B;}
	.st16{display:inline;fill:#EF3535;}
	.st17{display:inline;fill:none;}
	.st18{display:inline;fill:#233D4D;}
	.st19{font-family:'BerlinSansFBDemi-Bold';}
	.st20{font-size:155px;}
	.st21{display:inline;}
	.st22{fill:#233D4D;stroke:#233D4D;stroke-miterlimit:10;}
	.st23{fill:#FF0000;}
	.st24{fill:#FFD22E;}
	.st25{fill:#FFFF00;}
	.st26{fill:#00FF00;}
	.st27{fill:#0000FF;}
	.st28{fill:#C0D6E2;}
	.st29{fill-rule:evenodd;clip-rule:evenodd;fill:#233D4D;stroke:#233D4D;stroke-miterlimit:10;}
</style>
<g id="Carta">
	<g>
		<path class="st0" d="M17.9,191.4c-9.1,0-16.5-7.4-16.5-16.5L1.3,18.9c0-4.4,1.7-8.5,4.8-11.7s7.2-4.8,11.6-4.8l206.1-0.2
			c9.1,0,16.5,7.4,16.5,16.5l0.1,156.1c0,4.4-1.7,8.5-4.8,11.7c-3.1,3.1-7.2,4.8-11.6,4.8L17.9,191.4L17.9,191.4z"/>
		<path class="st1" d="M223.8,1.7l0,1h0c8.8,0,16,7.2,16,16l0.1,156.1c0,4.3-1.7,8.3-4.7,11.3s-7,4.7-11.3,4.7l-206.1,0.2
			c-8.8,0-16-7.2-16-16L1.8,18.9c0-4.3,1.7-8.3,4.7-11.3c3-3,7-4.7,11.3-4.7l206.1-0.2L223.8,1.7 M223.8,1.7
			C223.8,1.7,223.8,1.7,223.8,1.7L17.8,1.9c-9.4,0-17,7.6-17,17L1,174.9c0,9.4,7.6,17,17,17c0,0,0,0,0,0l206.1-0.2
			c9.4,0,17-7.6,17-17l-0.1-156.1C240.8,9.3,233.2,1.7,223.8,1.7L223.8,1.7z"/>
	</g>
	<g>
		<path class="st2" d="M20.6,188.9c-9.1,0-16.5-7.4-16.5-16.5L4,21.4c0-4.4,1.7-8.5,4.8-11.7c3.1-3.1,7.2-4.8,11.6-4.8l199.7-0.2
			c9.1,0,16.5,7.4,16.5,16.5l0.1,151.1c0,4.4-1.7,8.5-4.8,11.7c-3.1,3.1-7.2,4.8-11.6,4.8L20.6,188.9L20.6,188.9z"/>
		<path class="st3" d="M220.2,4.2l0,1h0c8.8,0,16,7.2,16,16l0.1,151.1c0,8.8-7.2,16-16,16l-199.8,0.2c-8.8,0-16-7.2-16-16L4.5,21.4
			c0-8.8,7.2-16,16-16l199.8-0.2L220.2,4.2 M220.2,4.2C220.2,4.2,220.2,4.2,220.2,4.2L20.4,4.4c-9.4,0-17,7.6-17,17l0.1,151.1
			c0,9.4,7.6,17,17,17c0,0,0,0,0,0l199.7-0.2c9.4,0,17-7.6,17-17l-0.1-151.1C237.1,11.8,229.5,4.2,220.2,4.2L220.2,4.2z"/>
	</g>
	<g id="Capa_4">
		<ellipse class="st4" cx="122.4" cy="96.4" rx="100.5" ry="87.6"/>
		<g id="Capa_3">
			<ellipse class="st5" cx="122.4" cy="96.8" rx="97.5" ry="85"/>
		</g>
	</g>
</g>
<g id="Capa_14">
	<g>
		<path class="st0" d="M21.3,194.5c-9.1,0-16.5-7.4-16.5-16.5L4.7,22c0-4.4,1.7-8.5,4.8-11.7c3.1-3.1,7.2-4.8,11.6-4.8l206.1-0.2
			c9.1,0,16.5,7.4,16.5,16.5l0.1,156.1c0,9.1-7.4,16.5-16.5,16.5L21.3,194.5L21.3,194.5z"/>
		<path class="st1" d="M227.2,4.8l0,1h0c8.8,0,16,7.2,16,16l0.1,156.1c0,4.3-1.7,8.3-4.7,11.3s-7,4.7-11.3,4.7L21.3,194
			c-8.8,0-16-7.2-16-16L5.2,22c0-8.8,7.2-16,16-16l206.1-0.2L227.2,4.8 M227.2,4.8C227.2,4.8,227.2,4.8,227.2,4.8L21.1,5
			c-9.4,0-17,7.6-17,17L4.3,178c0,9.4,7.6,17,17,17c0,0,0,0,0,0l206.1-0.2c9.4,0,17-7.6,17-17l-0.1-156.1
			C244.1,12.4,236.6,4.8,227.2,4.8L227.2,4.8z"/>
	</g>
	<g>
		<path class="st2" d="M23.9,192c-9.1,0-16.5-7.4-16.5-16.5L7.3,24.5C7.3,15.4,14.7,8,23.7,8l199.7-0.2c9.1,0,16.5,7.4,16.5,16.5
			l0.1,151.1c0,4.4-1.7,8.5-4.8,11.7c-3.1,3.1-7.2,4.8-11.6,4.8L23.9,192L23.9,192z"/>
		<path class="st3" d="M223.5,7.3l0,1h0c8.8,0,16,7.2,16,16l0.1,151.1c0,8.8-7.2,16-16,16l-199.8,0.2c-8.8,0-16-7.2-16-16L7.8,24.5
			c0-8.8,7.2-16,16-16l199.8-0.2L223.5,7.3 M223.5,7.3C223.5,7.3,223.5,7.3,223.5,7.3L23.7,7.5c-9.4,0-17,7.6-17,17l0.1,151.1
			c0,9.4,7.6,17,17,17c0,0,0,0,0,0l199.7-0.2c9.4,0,17-7.6,17-17l-0.1-151.1C240.5,14.9,232.9,7.3,223.5,7.3L223.5,7.3z"/>
	</g>
	<ellipse class="st4" cx="125.7" cy="99.5" rx="100.5" ry="87.6"/>
	<ellipse class="st5" cx="125.7" cy="99.9" rx="97.5" ry="85"/>
</g>
<g id="Capa_13">
	<g>
		<g id="Capa_1_2_">
			<path class="st6" d="M61.9,56.9c-3.9-0.5-8-1-11.9-0.3c-3.9,0.7-7.8,2.8-9.6,6.3c-1.8,3.5-1,8.5,2.5,10.5
				c-4.7,4.5-8.4,10-10.7,16.1c-1.4,3.6-2.2,7.8-0.7,11.3c1.5,3.6,6.3,5.9,9.5,3.7c-0.8,5.2-0.7,10.6,0.2,15.8
				c0.4,2.2,1,4.6,2.6,6.2c2,2.3,5.3,3,8.4,2.9c5-0.1,9.9-1.9,13.7-5.2c1.9,6.8,4.2,13.5,6.8,20.1c0.5,1.3,1.1,2.6,2.2,3.4
				c1.4,1.1,3.3,1.1,5,0.9c7.6-0.6,14.9-2.9,21.4-6.9c2.6,6.7,6.2,14.2,13.2,15.8c3.9,0.9,8.1-0.5,11.3-3c3.2-2.5,5.4-6,7.3-9.5
				c5.3,8.8,16.6,13.6,26.7,11.3c2.6-0.6,5.1-1.7,6.8-3.7c1.7-2,2.3-5.1,0.9-7.3c5.3,1.2,10.7,2.3,16.1,1.8s10.9-3,13.8-7.6
				c2.9-4.6,2.1-11.6-2.4-14.5c4.6-3.9,11.2-4.2,16.2-7.6c5.1-3.5,7.6-10.2,6.8-16.4c-0.3-2.8-1.4-5.7-3.5-7.6
				c-2.1-1.9-5.4-2.7-7.9-1.3c1.4-4.5,2.6-9,3.5-13.6c0.8-3.9,1.3-8.2-0.5-11.7c-1.7-3.3-5.4-5.3-9.1-5.8c-3.7-0.5-7.5,0.3-11,1.5
				c-3.6-10.3-14.9-15.7-25.2-12.1c-1.7,0.6-3.2,1.4-4.7,2.4c-2.2-3.5-6.3-5.5-10.3-6.2c-4.1-0.7-8.3-0.3-12.4,0.1
				c-5.4,0.5-12,1.8-13.9,7c-8.7-9.4-23.3-9.9-32.7-1.2c-1,0.9-1.9,2-2.8,3.1c-1.5-4.8-7.4-7-12.4-6.1s-9.1,4-13.1,7.1"/>
			<path class="st7" d="M62,56.5c-5.6-0.7-11.5-1.5-16.7,1.2c-4,2.1-6.9,6.1-6.1,10.7c0.4,2.2,1.6,4.2,3.6,5.4l-0.1-0.7
				c-4.6,4.3-8.1,9.6-10.5,15.4c-2,5.1-3.4,12.3,2,15.9c2.2,1.4,4.9,1.9,7.2,0.4l-0.7-0.4c-0.5,3.5-0.7,7.1-0.5,10.6
				c0.2,3.1,0.5,6.6,1.9,9.5c2.6,5.5,9.4,6,14.6,4.8c3.5-0.8,6.7-2.4,9.5-4.7l-0.7-0.2c1.1,3.8,2.2,7.5,3.5,11.2
				c0.6,1.9,1.3,3.7,2,5.6c0.6,1.7,1.2,3.4,2,5c0.6,1.2,1.6,2.2,2.9,2.7c1.3,0.5,2.8,0.4,4.2,0.3c3.5-0.3,7-0.9,10.4-2
				c3.9-1.2,7.6-2.9,11-5l-0.7-0.2c2,5.1,4.4,10.8,9,14.1c5.3,3.7,12.1,2.4,16.8-1.7c2.9-2.5,5-5.7,6.7-9.1l-0.8,0.1
				c3.3,5.4,8.6,9.2,14.6,11c3,0.9,6.1,1.2,9.2,1c3.2-0.3,6.7-1.1,9.2-3.1c2.6-2.1,4-5.9,2.1-9l-0.4,0.7c7.4,1.6,15.3,3.3,22.6,0.3
				c5.6-2.3,10-7.3,9.5-13.6c-0.2-3.1-1.7-6-4.2-7.8l0,0.7c3.1-2.5,7-3.5,10.7-4.9c3.4-1.3,6.6-3,8.9-6c4.1-5.4,5.4-14.2,1.3-19.9
				c-2.2-3-6.3-4.7-9.8-2.8l0.7,0.4c1.1-3.5,2.1-6.9,2.9-10.5c0.7-3.2,1.5-6.5,1.4-9.9c-0.1-3-1.1-5.8-3.3-7.8c-2-1.8-4.5-3-7.1-3.4
				c-3.9-0.6-7.8,0.2-11.5,1.5l0.6,0.2c-3.3-9.2-13-14.9-22.7-13.1c-2.8,0.5-5.5,1.6-7.9,3.2l0.6,0.1c-3.3-4.9-9.3-6.7-15-6.8
				c-3.3,0-6.6,0.2-9.9,0.7c-2.4,0.3-4.9,0.8-7.2,1.8c-2.3,1.1-4.3,2.7-5.3,5.2l0.7-0.1c-3.7-3.9-8.6-6.5-13.9-7.2
				c-5.3-0.8-10.7,0.3-15.3,3.1c-2.6,1.6-5,3.6-6.8,6.1l0.7,0.1c-1.5-4.4-6.3-6.6-10.7-6.6c-5.9,0.1-11,4-15.4,7.4
				c-0.4,0.3,0.1,1.1,0.5,0.7c4.2-3.2,8.8-6.8,14.3-7.2c4.3-0.3,9.1,1.7,10.6,6c0.1,0.2,0.3,0.3,0.6,0.3c0.1,0,0.1-0.1,0.2-0.1
				c6.5-8.5,18.2-11.4,27.8-6.9c2.6,1.2,5,3,7,5.1c0.2,0.2,0.5,0.1,0.6-0.1c0,0,0-0.1,0.1-0.1c1.8-4.5,7-5.8,11.3-6.5
				c2.8-0.4,5.6-0.6,8.4-0.7c3.1-0.1,6.2,0.1,9.1,1.2c2.8,1,5.3,2.7,7,5.2c0.1,0.2,0.4,0.2,0.6,0.1c5.2-3.5,11.9-4.4,17.8-2.2
				c5.3,2.1,9.5,6.3,11.4,11.7c0.1,0.2,0.3,0.3,0.6,0.2c5.7-1.9,12.5-2.8,17.4,1.4c5,4.3,3.3,11.5,2,17.1c-0.8,3.6-1.8,7.1-2.9,10.7
				c-0.1,0.4,0.4,0.6,0.7,0.4c3.3-1.8,7.1,0.3,8.9,3.2c1.8,2.9,2.2,6.7,1.7,10.1c-0.4,3.3-1.8,6.3-3.9,8.8c-2.3,2.7-5.4,4.2-8.7,5.3
				c-3.5,1.3-7.2,2.3-10.2,4.7c-0.2,0.1-0.2,0.4-0.1,0.6c0,0,0,0.1,0.1,0.1c4.6,3.1,5.1,10,2.1,14.4c-3.6,5.3-10.3,7.2-16.4,7.1
				c-4.3-0.1-8.6-1-12.9-1.9c-0.2,0-0.5,0.1-0.5,0.4c0,0.1,0,0.2,0.1,0.3c1.8,2.9,0.1,6.4-2.5,8.2c-2.5,1.7-5.7,2.4-8.7,2.6
				c-5.7,0.3-11.3-1.4-16-4.7c-2.6-1.9-4.8-4.2-6.5-7c-0.1-0.2-0.4-0.2-0.6-0.1c-0.1,0-0.1,0.1-0.1,0.2c-2.8,5.6-7.1,11.3-13.7,12.4
				c-5.8,1-10.4-2.7-13.3-7.4c-1.6-2.6-2.8-5.4-3.9-8.2c-0.1-0.2-0.3-0.3-0.6-0.3c0,0-0.1,0-0.1,0c-5.8,3.5-12.3,5.8-19,6.6
				c-1.5,0.2-3.2,0.4-4.7,0.2c-1.8-0.2-2.9-1.3-3.7-2.8c-1.5-3.1-2.5-6.4-3.7-9.7c-1.3-3.9-2.6-7.8-3.7-11.7
				c-0.1-0.2-0.3-0.3-0.6-0.3c0,0-0.1,0-0.1,0c-4.3,3.6-10.3,5.8-16,5c-2.8-0.4-5.4-1.8-6.7-4.5s-1.6-5.8-1.8-8.7
				c-0.3-3.7-0.2-7.4,0.4-11.1c0-0.2-0.1-0.5-0.4-0.5c-0.1,0-0.2,0-0.3,0.1c-2,1.3-4.6,0.8-6.4-0.6c-2.2-1.6-3.2-4.2-3.2-6.8
				c0-3,1-5.9,2.1-8.6c1.1-2.6,2.4-5,4-7.4c1.7-2.6,3.8-4.9,6-7c0.2-0.2,0.1-0.5-0.1-0.6c0,0-0.1,0-0.1-0.1
				c-2.2-1.3-3.2-3.9-3.2-6.4c0.1-2.7,1.5-5.1,3.5-6.7c5.2-4.2,12.2-3.4,18.4-2.6C62.4,57.4,62.6,56.6,62,56.5z"/>
		</g>
		<g id="Capa_4_2_">
			<path class="st8" d="M52.9,63.8c-4.4,2.1-6.9,7-7.2,11.8c-0.4,4.8,1,9.6,2.8,14.1c1.9,4.9,4.3,9.7,8.3,13.1
				c3.6,3.1,8.3,4.8,13.1,5c4.8,0.2,9.5-1.1,13.7-3.3c1.4-0.7,2.7-1.7,3.8-2.8c1-1.2,1.7-2.5,2.2-4c1.2-3.6,1.2-7.6,0.3-11.3
				c-0.9-3.7-2.5-7.2-4.3-10.6c-1.6-2.9-3.5-5.8-6.1-7.9c-2.1-1.7-4.5-2.9-7-4c-2.3-1-4.6-2-7-2.4c-4.7-0.8-9.6,0.3-13.4,3.2"/>
			<path class="st8" d="M52.8,63.4C49,65.2,46.6,69,45.7,73c-1.2,5,0,10.2,1.7,14.9c1.6,4.5,3.6,9,6.6,12.7c3,3.6,7.1,6.1,11.6,7.1
				c4.8,1.1,9.9,0.6,14.5-1.1c2.3-0.8,4.6-1.9,6.5-3.5c1.9-1.6,3-3.7,3.7-6.1c1.4-4.9,0.6-10.2-1.2-14.9c-0.9-2.4-2.1-4.7-3.3-6.9
				c-1.2-2.1-2.6-4.1-4.2-6c-1.7-1.8-3.7-3.2-5.8-4.3c-2.3-1.2-4.6-2.2-7-3c-2.3-0.8-4.8-1.2-7.2-1c-3.5,0.2-6.8,1.4-9.6,3.5
				c-0.5,0.3,0,1.1,0.5,0.7c3.7-2.7,8.2-3.8,12.7-3.2c2.5,0.4,4.8,1.3,7,2.3c2.2,1,4.4,2,6.3,3.4c1.9,1.4,3.5,3.1,4.8,5.1
				c1.3,2,2.5,4.1,3.6,6.3c2.1,4.4,3.7,9.2,3.4,14.1c-0.2,2.4-0.7,4.7-1.9,6.8c-1.2,2.1-3.1,3.4-5.2,4.5c-4.3,2.3-9.2,3.4-14.1,3
				c-4.4-0.4-8.6-2.1-12-5c-3.4-3-5.7-7.1-7.4-11.2c-1.9-4.6-3.6-9.5-3.4-14.6c0.1-4,1.6-8.1,4.7-10.8c0.7-0.6,1.5-1.2,2.4-1.6
				C53.6,63.9,53.3,63.1,52.8,63.4L52.8,63.4z"/>
			<path class="st6" d="M63.4,75c-1.7,1.7-1.9,4.4-1.9,6.9c0,1.5,0,3,0.6,4.3c0.5,1.1,1.4,2,2.3,2.8c2,1.9,4.1,3.8,6.8,4.5
				c0.7,0.2,1.5,0.2,2.2,0c0.6-0.3,1.1-0.7,1.5-1.3c3.8-4.9,2.9-12.1-2-15.9c-1.5-1.2-3.4-2-5.3-2.2c-1.8-0.3-3.9,0.1-4.9,1.6"/>
			<path class="st8" d="M63.1,74.7c-1.3,1.3-1.8,3.2-1.9,5c-0.1,1-0.1,2-0.1,3c0,1.1,0.1,2.2,0.5,3.3c0.4,1,1.1,1.9,1.9,2.6
				c0.7,0.7,1.5,1.4,2.3,2.1c1.5,1.3,3.2,2.5,5.2,3.1c1.1,0.3,2.2,0.4,3.2-0.3c0.8-0.5,1.4-1.4,1.9-2.2c1-1.7,1.6-3.5,1.7-5.5
				c0.2-3.8-1.4-7.5-4.4-9.9c-1.4-1.1-3.1-1.9-4.9-2.3c-1.7-0.4-3.7-0.4-5.1,0.7c-0.4,0.3-0.7,0.6-0.9,0.9c-0.3,0.5,0.4,1,0.7,0.6
				c0.9-1.4,2.7-1.6,4.2-1.5c1.6,0.2,3.2,0.8,4.6,1.7c2.9,1.9,4.7,5,5,8.4c0.1,1.7-0.2,3.4-0.9,5c-0.3,0.8-0.8,1.6-1.3,2.3
				c-0.6,0.8-1.3,1.4-2.4,1.3c-1.9-0.1-3.7-1.2-5.1-2.4c-0.7-0.6-1.4-1.2-2.1-1.8c-0.8-0.7-1.4-1.4-2.1-2.2c-1.3-1.8-1.1-4.2-1-6.3
				c0.1-1.9,0.4-3.8,1.8-5.2C64.1,74.9,63.5,74.3,63.1,74.7L63.1,74.7z"/>
			<path class="st8" d="M92.7,74.2c1.2,7.2,2.9,14.3,4.6,21.3c0.6,2.3,1.2,4.9,3.1,6.3c1.9,1.4,4.6,1.4,6.8,0.4s3.8-2.8,5.2-4.8
				c1.4-1.9,2.6-4,4.2-5.8c-0.7,5.2,3,9.9,8.2,10.6c0.3,0,0.7,0.1,1,0.1c1.3,0,2.7-0.3,3.5-1.2c0.5-0.6,0.9-1.4,1.1-2.2
				c0.5-1.8,0.7-3.6,0.9-5.4l2.2-20.5c0-0.4,0-0.9-0.3-1.1c-0.2-0.1-0.5-0.2-0.8-0.1c-2.5,0.3-4.9,0.8-7.2,1.5l0.7,2.8
				c0.4,1.7,0.8,3.5,0.5,5.2s-1.7,3.4-3.4,3.5c-1.2,0.1-2.3-0.5-3.3-1.3c-3-2.5-4.4-6.3-5.7-10c-0.1-0.3-0.3-0.7-0.6-0.8
				c-0.2-0.1-0.4-0.1-0.5-0.1l-4.1-0.2c-0.2,0-0.5,0-0.7,0.1c-0.3,0.2-0.3,0.7-0.2,1.1l1,6.3c0.2,1.1,0.3,2.3,0,3.3
				c-0.4,1.1-1.4,2-2.5,1.8c-1-0.2-1.6-1.2-2.1-2.1c-1.7-3.1-3.1-6.4-4.3-9.8c0-0.2-0.2-0.4-0.3-0.5c-0.2-0.1-0.4-0.1-0.6-0.1
				l-6.5,0.7"/>
			<path class="st8" d="M92.3,74.2c1.3,7.4,3,14.8,4.8,22.1c0.7,2.8,1.8,5.8,4.8,6.7c3,1,6-0.2,8.2-2.2c2.9-2.5,4.5-6.1,7-9
				l-0.8-0.4c-0.7,5.4,3.2,10.4,8.6,11.1c0.1,0,0.1,0,0.2,0c1.7,0.2,3.6,0,4.8-1.4c0.5-0.7,0.9-1.5,1.1-2.3c0.3-1,0.5-2,0.6-3.1
				c0.3-2.1,0.5-4.2,0.7-6.4l1.4-13.1c0.1-1.2,0.3-2.3,0.4-3.5c0.1-0.4-0.1-0.9-0.4-1.2c-0.4-0.4-0.9-0.3-1.4-0.2
				c-2.4,0.3-4.8,0.8-7.1,1.5c-0.2,0.1-0.3,0.3-0.3,0.6c0.3,1.2,0.6,2.5,0.9,3.7c0.3,1.2,0.5,2.5,0.3,3.7c-0.2,1.9-1.7,3.9-3.8,3.6
				c-1.1-0.2-2-0.9-2.7-1.6c-0.8-0.7-1.4-1.5-2-2.4c-1.2-1.8-1.9-3.8-2.7-5.9c-0.3-0.9-0.5-2.2-1.7-2.3c-1.3-0.1-2.5-0.1-3.8-0.2
				c-0.5,0-1.2-0.1-1.6,0.3c-0.3,0.4-0.4,0.8-0.3,1.3c0.2,1.3,0.4,2.6,0.6,3.9c0.2,1.3,0.5,2.5,0.6,3.8c0.1,1.1,0,2.3-0.9,3
				c-0.8,0.7-1.7,0.4-2.4-0.4c-0.7-0.9-1.2-2-1.7-3c-1.1-2.3-2.1-4.6-3-7c-0.2-0.5-0.3-1.2-0.7-1.5c-0.4-0.3-1.1-0.2-1.6-0.1
				l-3.9,0.4l-2,0.2C92,73.1,92,74,92.6,73.9l4.1-0.4l2-0.2c0.2,0,0.6-0.2,0.8,0c0.2,0.1,0.3,0.6,0.3,0.8c0.9,2.5,1.9,4.9,3.1,7.2
				c0.5,1.1,1,2.2,1.7,3.1c0.6,0.8,1.4,1.5,2.5,1.3c1-0.2,1.9-0.8,2.3-1.8c0.5-1.1,0.4-2.4,0.2-3.5c-0.2-1.3-0.4-2.7-0.6-4l-0.3-2.1
				c0-0.3-0.3-1.2,0.1-1.3c0.3,0,0.6,0,0.9,0l1,0l2.1,0.1c0.3,0,0.5,0,0.8,0.1c0.2,0.1,0.3,0.4,0.4,0.7c0.2,0.5,0.4,1,0.5,1.5
				c0.8,2.1,1.6,4.1,2.8,5.9c1.2,1.7,2.9,3.6,5,4c2.1,0.4,3.9-1.1,4.6-3c0.9-2.4,0.1-4.9-0.5-7.3l-0.5-1.9l-0.3,0.6
				c1.9-0.6,3.9-1,5.9-1.3c0.5-0.1,0.9-0.2,1.4-0.2c0.2,0,0.3,0,0.4,0.1c0.1,0.2,0.1,0.3,0,0.5c-0.1,1-0.2,2-0.3,2.9l-1.3,12
				c-0.2,2-0.4,4-0.6,6c-0.2,1.8-0.4,3.8-1,5.5c-0.2,0.8-0.7,1.4-1.3,1.9c-0.7,0.4-1.4,0.6-2.2,0.6c-1.6,0.1-3.2-0.3-4.6-1
				c-3.3-1.8-5.2-5.4-4.8-9.1c0-0.2-0.1-0.5-0.4-0.5c-0.2,0-0.3,0-0.4,0.1c-2.1,2.5-3.6,5.4-5.8,7.8c-1.9,2.1-4.7,3.8-7.6,3.3
				c-1.3-0.2-2.5-1-3.3-2.1c-0.8-1.1-1.3-2.5-1.6-3.9c-0.9-3.4-1.6-6.8-2.4-10.2c-0.9-4-1.7-8-2.4-12.1
				C93.1,73.6,92.2,73.7,92.3,74.2L92.3,74.2z"/>
			<path class="st8" d="M140.5,60.5c-0.5,1.8-0.4,3.7-0.3,5.5c0.4,4.4,1,8.9,1.6,13.3l3.2,22.8c2.8,0.2,5.5-0.9,8.2-1.5
				c6.2-1.4,12.7-0.4,18.9-1.7c-0.9-3.1-2.1-6-3.6-8.8c-0.1-0.3-0.3-0.5-0.6-0.7c-0.3-0.1-0.5-0.1-0.8-0.1
				c-4.6,0.3-9.1,0.6-13.7,0.9c-0.3,0-0.6,0-0.8-0.1c-0.3-0.2-0.4-0.6-0.4-0.9c-1.6-9.1-3.5-18.1-5.7-27.1c-0.1-0.4-0.3-0.9-0.6-1.2
				c-0.3-0.2-0.6-0.3-0.9-0.4c-1.5-0.3-3-0.6-4.5-0.7L140.5,60.5"/>
			<path class="st8" d="M140.1,60.5c-0.7,2.5-0.3,5.1-0.1,7.6c0.3,2.8,0.6,5.5,1,8.3c0.8,5.5,1.5,11,2.3,16.5l1.3,9.3
				c0,0.2,0.2,0.4,0.5,0.4c1.8,0.1,3.5-0.3,5.2-0.8c1.7-0.5,3.4-0.9,5.2-1.2c3.5-0.5,7.1-0.4,10.7-0.6c2-0.1,4-0.3,6-0.7
				c0.2,0,0.4-0.2,0.4-0.5c0,0,0-0.1,0-0.1c-0.6-1.9-1.3-3.8-2.1-5.6c-0.4-0.9-0.8-1.8-1.3-2.7c-0.4-0.8-0.8-1.5-1.7-1.6
				c-1,0-3.1,0.4-3.1,0.4l-3.2,0.3c0,0-4.2,0.1-6.2,0.2c-0.5,0-1.1,0.1-1.6,0.1c-0.2,0-0.4,0-0.5,0c-0.2-0.1-0.3-0.3-0.3-0.5
				c-0.2-1-0.4-2.1-0.5-3.1c-0.4-2.1-0.8-4.2-1.2-6.2c-0.8-4.1-1.7-8.2-2.7-12.3c-0.3-1.2-0.5-2.3-0.8-3.4c-0.1-0.6-0.3-1.1-0.4-1.7
				c-0.1-0.5-0.2-1-0.5-1.5c-0.5-0.9-1.7-1-2.6-1.2c-1.1-0.2-2.3-0.4-3.4-0.5c-0.2,0-0.5,0.1-0.5,0.3l-0.1,0.8
				c0,0.6,0.8,0.7,0.9,0.2l0.1-0.8l-0.5,0.3c1,0.1,2,0.2,3,0.4c0.5,0.1,0.9,0.2,1.4,0.3c0.4,0.1,0.8,0.2,1,0.5
				c0.2,0.4,0.3,0.9,0.4,1.3l0.4,1.5c0.2,1,0.5,2,0.7,2.9c0.9,4,1.8,8.1,2.6,12.2c0.4,2,0.8,4.1,1.2,6.1c0.2,1,0.4,2.1,0.6,3.1
				c0.1,0.8,0.2,1.7,1.1,2c0.4,0.1,1.3,0.1,1.3,0.1l1.6-0.1l3-0.2l6.2-0.2l1.7-0.1c0,0,1-0.4,1.3,0c0.3,0.4,0.5,0.9,0.7,1.3
				c0.2,0.5,0.5,1,0.7,1.5c0.9,2,1.7,4.1,2.3,6.3l0.4-0.6c-3.5,0.7-7.1,0.7-10.7,0.8c-1.8,0.1-3.6,0.1-5.4,0.4
				c-1.7,0.2-3.5,0.6-5.2,1.1c-1.9,0.5-3.9,1-5.9,0.9l0.5,0.4l-2.3-16.4c-0.8-5.4-1.6-10.9-2.2-16.4c-0.2-1.5-0.3-3-0.4-4.5
				c-0.1-1.4,0-2.8,0.3-4.2C141.1,60,140.3,59.9,140.1,60.5L140.1,60.5z"/>
			<path class="st8" d="M162.5,61.7c-0.1,1.6,0.5,3.3,1,4.8l1.7,4.6c0,0.2,0.1,0.4,0.3,0.5c0.2,0.1,0.4,0.2,0.6,0.2
				c1.1,0.2,2.2,0.2,3.4,0.1c0.4,0,0.8-0.1,1-0.4c0.2-0.3,0.2-0.8,0.1-1.2c-0.9-3.5-1.9-6.9-3.1-10.3c0-0.1-0.1-0.3-0.2-0.4
				c-0.2-0.1-0.3-0.1-0.5-0.1l-3.8,0.1c-0.3-0.1-0.5,0.1-0.6,0.4c0,0.1,0,0.2,0,0.3l0.1,1.8"/>
			<path class="st8" d="M161.9,61.7c0.2,1.3,0.4,2.5,0.8,3.7c0.4,1.3,0.9,2.5,1.4,3.8l0.7,1.9c0.2,0.5,0.4,1,1,1.2
				c0.6,0.2,1.3,0.2,1.9,0.2c0.7,0,1.3,0,2-0.1c0.5,0,1-0.2,1.3-0.6c0.3-0.4,0.3-1,0.2-1.5c-0.3-1.3-0.6-2.5-1-3.8
				c-0.4-1.3-0.7-2.5-1.2-3.8c-0.2-0.6-0.4-1.3-0.6-1.9c-0.2-0.5-0.3-1.3-0.7-1.6c-0.3-0.1-0.6-0.2-0.8-0.2l-1.1,0l-2.2,0.1
				c-0.6,0-1.3,0.1-1.4,0.9c0,0.3,0.2,1,0.2,1l0.1,1.2c0,0.2,0.2,0.4,0.5,0.4c0.2,0,0.4-0.2,0.4-0.5c0-0.6-0.1-1.7-0.1-1.7
				s-0.2-0.2-0.2-0.2c0-0.1,0-0.1,0.2-0.1c0.3,0,0.7,0,1,0l1.6,0l0.7,0c0.2,0,0.7-0.1,0.8,0.1c0.1,0.2,0.2,0.4,0.2,0.6
				c0.1,0.3,0.2,0.5,0.3,0.8c0.2,0.5,0.4,1.1,0.5,1.6c0.3,1,0.7,2.1,1,3.1s0.6,2.1,0.9,3.2c0.1,0.5,0.3,0.9,0.3,1.4
				c0.1,0.2,0,0.4-0.1,0.6c-0.2,0.1-0.4,0.2-0.6,0.2c-1.1,0.1-2.2,0.1-3.3-0.1c-0.2,0-0.4,0-0.5-0.2c-0.1-0.2-0.2-0.5-0.3-0.8
				l-0.6-1.6c-0.4-1.2-0.9-2.3-1.3-3.5c-0.4-1.2-0.7-2.3-0.6-3.5C163,61.3,161.9,61.7,161.9,61.7L161.9,61.7z"/>
			<path class="st8" d="M202.9,67.4l1.2,4.2c-3.9-0.7-7.8-0.6-11.6,0.5c-0.9,0.2-1.7,0.6-2.5,1.1c-1.9,1.4-2.3,4.2-1.3,6.3
				s3.2,3.4,5.5,3.8c2.3,0.4,4.6,0,6.8-0.7c0.4-0.1,0.9-0.3,1.2-0.1c0.3,0.2,0.5,0.4,0.7,0.7c1.3,1.9,2.1,4.2,2,6.6
				c-0.1,2.3-1.1,4.7-2.9,6.1c-1.5,1.2-3.5,1.6-5.4,2c-4.1,0.8-8.3,1.3-12.5,1.6c-0.3,0.1-0.6,0-0.8-0.2c-0.1-0.2-0.2-0.4-0.2-0.6
				c-0.1-1,0-2,0.1-3c0-0.2,0.1-0.4,0.3-0.6c0.2-0.1,0.4-0.2,0.6-0.1l5.5-0.1c0.9,0,1.8,0,2.6-0.4c1.7-0.7,2.7-2.3,2.6-4.1
				c-0.2-1.8-1.3-3.3-3-3.9c-1.9-0.7-4.2-0.2-5.7-1.6c-0.7-0.6-1-1.6-1.3-2.4c-0.7-1.9-1.4-3.9-1.5-6s0.3-4.2,1.7-5.7
				c1.2-1.3,2.8-1.9,4.4-2.5c4.5-1.6,9.5-2.7,14.1-1.1"/>
			<path class="st8" d="M202.3,68l1.2,4.1l0.5-0.6c-3.5-0.7-7.1-0.6-10.6,0.2c-1.1,0.2-2.2,0.5-3.2,1.1c-1.6,0.9-2.3,2.6-2.4,4.4
				c0,1.8,0.9,3.6,2.3,4.7c1.6,1.3,3.6,1.9,5.6,2c1.2,0,2.4-0.1,3.5-0.4c0.6-0.1,1.2-0.3,1.8-0.5c0.5-0.2,1-0.4,1.4,0.2
				c0.7,0.9,1.2,1.9,1.5,3c0.4,1.1,0.6,2.2,0.6,3.4c0,1.9-0.8,3.8-2.1,5.2c-1.6,1.5-3.8,2-5.9,2.4c-2.5,0.5-5,0.8-7.5,1.1
				c-1.3,0.1-2.5,0.3-3.8,0.4c-0.3,0-0.6,0-0.9,0.1c-0.3,0-0.4,0-0.4-0.3c-0.1-0.6-0.1-1.2,0-1.8c0-0.3,0.1-0.6,0.1-0.9
				c0-0.2,0-0.5,0.2-0.6c0.2-0.1,0.6,0,0.9,0l1,0l3.8-0.1c1.1,0,2.2-0.1,3.2-0.6c0.8-0.5,1.4-1.1,1.8-2c0.8-1.7,0.5-3.8-0.8-5.2
				c-0.6-0.7-1.4-1.2-2.3-1.5c-0.9-0.3-1.8-0.3-2.8-0.4c-0.9-0.1-1.7-0.3-2.4-1c-0.8-0.7-1.1-1.9-1.4-2.9c-0.8-2.2-1.5-4.5-1.2-6.8
				c0.1-1,0.4-2,1-2.8c0.6-0.8,1.3-1.5,2.2-2c1-0.5,1.9-0.9,3-1.2c1.1-0.4,2.1-0.7,3.2-1c2.2-0.6,4.4-0.8,6.7-0.6
				c1.1,0.1,2.1,0.3,3.1,0.7c0.5,0.2,0.9-0.6,0.4-0.8c-4.4-1.6-9.1-0.7-13.4,0.8c-2,0.7-4.1,1.4-5.5,3.1c-1.3,1.6-1.7,3.8-1.6,5.8
				c0.1,1.3,0.4,2.5,0.8,3.7c0.3,1.1,0.7,2.3,1.2,3.4c0.4,0.9,1.1,1.6,2,2.1c0.8,0.4,1.8,0.5,2.7,0.6s1.9,0.2,2.7,0.7
				c0.8,0.5,1.4,1.2,1.8,2.1c0.7,1.8-0.2,4-2,4.7c-1.1,0.4-2.4,0.3-3.6,0.4l-3.9,0.1c-0.5,0-1.1,0-1.4,0.5c-0.3,0.4-0.3,1.1-0.3,1.6
				c-0.1,0.6-0.1,1.2,0,1.8c0,0.5,0.1,1,0.5,1.3c0.4,0.3,1.1,0.2,1.6,0.1c0.6-0.1,1.3-0.1,1.9-0.2c1.3-0.1,2.6-0.3,3.9-0.4
				c2.5-0.3,5-0.7,7.4-1.3c2.1-0.5,4.1-1.4,5.4-3.1c1.2-1.7,1.8-3.7,1.6-5.8c-0.1-1.1-0.3-2.3-0.7-3.3c-0.2-0.5-0.5-1.1-0.7-1.6
				c-0.2-0.5-0.5-1-0.9-1.4c-0.8-0.9-2-0.3-3,0c-1.2,0.3-2.4,0.5-3.6,0.6c-2.1,0.1-4.2-0.5-5.8-2c-1.4-1.2-2-3.1-1.6-4.9
				c0.2-0.8,0.6-1.6,1.2-2.2c0.8-0.7,1.9-1.1,3-1.3c2.4-0.6,4.8-0.9,7.3-0.8c1.2,0.1,2.4,0.2,3.6,0.4c0.2,0,0.5-0.1,0.5-0.3
				c0-0.1,0-0.1,0-0.2l-1.2-4.1C203,67.2,202.2,67.5,202.3,68L202.3,68z"/>
			<path class="st8" d="M65.2,74.7c-1.6,0.6-2.9,1.7-3.9,3.1c-0.2,0.2-0.1,0.5,0,0.6c0.2,0.2,0.5,0.1,0.6,0c0.9-1.3,2.1-2.2,3.5-2.8
				C66,75.3,65.7,74.5,65.2,74.7L65.2,74.7z"/>
			<path class="st8" d="M68.6,75.1c1,0,2,0.2,2.9,0.6l0.3-0.8c-2.3-0.7-5.1-0.6-7.2,0.7c-1.1,0.7-1.4,1.9-1.8,3.1
				c-0.4,1.3-0.9,2.6-1.2,3.9c-0.2,0.7-0.2,1.4-0.2,2.2c0,0.8,0.1,1.5,0,2.2l0.8-0.1c-0.4-0.8-0.4-1.7-0.5-2.6
				c-0.1-0.9-0.1-1.8-0.1-2.7c0-0.8,0.1-1.7,0.2-2.5c0.1-0.6,0.3-1.3,0.9-1.6l-0.6-0.4c0,0.8-0.1,1.7-0.4,2.4l0.8,0.3
				c0.1-0.5,0.2-1,0.5-1.5l-0.8-0.4l-1.2,3.3l0.8,0.3c0.3-2.3,2-4.2,2.5-6.4c0-0.2-0.1-0.5-0.4-0.5c-0.2,0-0.4,0.1-0.5,0.2l-0.3,0.6
				c-0.1,0.2,0,0.5,0.2,0.6c0.5,0.2,1.1,0.1,1.6-0.3c0.3-0.2,0.9-1,1.3-0.7c0.5,0.3,1-0.3,0.6-0.7c-0.5-0.4-1.1-0.3-1.6,0
				c-0.4,0.2-1,1.1-1.5,0.9l0.2,0.6l0.3-0.6l-0.8-0.3c-0.5,2.3-2.2,4.1-2.5,6.4c-0.1,0.5,0.6,0.8,0.8,0.3l1.1-3.2
				c0.2-0.5-0.5-0.9-0.8-0.4c-0.3,0.5-0.4,1.1-0.5,1.7c-0.1,0.5,0.6,0.7,0.8,0.3C63,79,63.1,78,63.1,77c0-0.2-0.2-0.4-0.5-0.4
				c0,0-0.1,0-0.1,0c-1.6,0.7-1.6,2.9-1.7,4.4c-0.1,1.1,0,2.1,0.1,3.2c0.1,1,0.2,2.1,0.6,3c0.1,0.2,0.3,0.3,0.6,0.2
				c0.1-0.1,0.2-0.2,0.3-0.3c0.2-1.2-0.1-2.4,0.1-3.6c0.2-1.2,0.5-2.4,0.9-3.6c0.2-0.6,0.4-1.2,0.6-1.8c0.2-0.5,0.4-1.1,0.8-1.5
				c0.4-0.4,0.9-0.7,1.5-0.8c0.5-0.2,1.1-0.4,1.7-0.4c1.3-0.2,2.6-0.1,3.9,0.3c0.5,0.2,0.7-0.6,0.3-0.8c-1-0.5-2.2-0.8-3.4-0.7
				C68,74.2,68,75.1,68.6,75.1L68.6,75.1z"/>
		</g>
		<g id="Capa_2_2_">
			<path class="st9" d="M51.7,63.2c-4.4,2.1-6.9,7-7.2,11.8s1,9.6,2.8,14.1c1.9,4.9,4.3,9.7,8.3,13.1c3.6,3.1,8.3,4.8,13.1,5
				s9.5-1.1,13.7-3.3c1.4-0.8,2.7-1.6,3.8-2.8c1-1.2,1.7-2.5,2.2-4c1.2-3.6,1.2-7.6,0.3-11.3s-2.5-7.2-4.3-10.6
				c-1.6-2.9-3.5-5.8-6.1-7.9c-2.1-1.7-4.5-2.9-7-4c-2.3-1-4.6-2-7-2.4c-4.7-0.8-9.6,0.3-13.4,3.2"/>
			<path class="st9" d="M51.6,62.7c-3.8,1.9-6.2,5.6-7.1,9.6c-1.2,5,0,10.2,1.7,14.9c1.6,4.5,3.6,9,6.6,12.7c3,3.6,7.1,6.1,11.6,7.1
				c4.8,1.1,9.9,0.6,14.5-1.1c2.3-0.8,4.6-1.9,6.5-3.5c1.9-1.6,3-3.7,3.7-6.1c1.4-4.9,0.6-10.2-1.2-14.9c-0.9-2.4-2.1-4.7-3.3-6.9
				c-1.2-2.1-2.6-4.1-4.2-6c-1.7-1.8-3.7-3.2-5.8-4.3c-2.3-1.2-4.6-2.2-7-3c-2.3-0.8-4.8-1.2-7.2-1c-3.5,0.2-6.8,1.4-9.6,3.5
				c-0.5,0.3,0,1.1,0.5,0.7c3.7-2.7,8.2-3.8,12.7-3.2c2.5,0.4,4.8,1.3,7,2.3c2.2,1,4.4,2,6.3,3.4c1.9,1.4,3.5,3.1,4.8,5.1
				c1.3,2,2.5,4.1,3.6,6.3c2.1,4.4,3.7,9.2,3.4,14.1c-0.2,2.4-0.7,4.7-1.9,6.8c-1.2,2.1-3.1,3.4-5.2,4.5c-4.3,2.3-9.2,3.4-14.1,3
				c-4.4-0.4-8.6-2-12-5c-3.4-3-5.7-7.1-7.4-11.2c-1.9-4.6-3.6-9.5-3.4-14.6c0.1-4,1.6-8.1,4.7-10.8c0.7-0.6,1.5-1.2,2.4-1.6
				C52.4,63.3,52.1,62.5,51.6,62.7z"/>
			<path class="st6" d="M62.2,74.3c-1.7,1.7-1.9,4.4-1.9,6.9c0,1.5,0,3,0.6,4.3c0.5,1.1,1.4,2,2.3,2.8c2,1.9,4.1,3.8,6.8,4.5
				c0.7,0.2,1.5,0.2,2.2,0c0.6-0.3,1.1-0.7,1.5-1.3c3.8-5,2.9-12.1-2-15.9c-1.5-1.2-3.4-2-5.3-2.2c-1.8-0.3-3.9,0.1-4.9,1.6"/>
			<path class="st9" d="M61.8,74c-1.3,1.3-1.8,3.2-1.9,5c-0.1,1-0.1,2-0.1,3c0,1.1,0.1,2.2,0.5,3.3c0.4,1,1.1,1.9,1.9,2.6
				c0.7,0.7,1.5,1.4,2.3,2.1c1.5,1.3,3.2,2.5,5.2,3.1c1.1,0.3,2.2,0.4,3.2-0.3c0.8-0.5,1.4-1.4,1.9-2.2c1-1.7,1.6-3.5,1.7-5.5
				c0.2-3.8-1.4-7.5-4.4-9.8c-1.4-1.1-3.1-1.9-4.9-2.3c-1.7-0.4-3.7-0.4-5.1,0.7c-0.4,0.3-0.7,0.6-0.9,0.9c-0.3,0.5,0.4,1,0.7,0.6
				c0.9-1.4,2.7-1.6,4.2-1.5c1.6,0.2,3.2,0.8,4.6,1.7c2.9,1.9,4.7,5,4.9,8.4c0.1,1.7-0.2,3.5-0.9,5c-0.3,0.8-0.8,1.6-1.3,2.3
				c-0.6,0.8-1.3,1.4-2.4,1.3c-1.9-0.1-3.7-1.2-5.1-2.4c-0.7-0.6-1.4-1.2-2.1-1.8c-0.8-0.7-1.4-1.4-2.1-2.2c-1.3-1.8-1.1-4.2-1-6.3
				c0.1-1.9,0.4-3.8,1.8-5.2C62.9,74.2,62.2,73.7,61.8,74L61.8,74z"/>
			<path class="st9" d="M91.5,73.5c1.2,7.2,2.9,14.3,4.6,21.3c0.6,2.3,1.2,4.9,3.1,6.3c1.9,1.4,4.7,1.4,6.8,0.4
				c2.2-1,3.8-2.8,5.2-4.8s2.6-4,4.2-5.8c-0.6,5.2,3,9.9,8.2,10.6c0.3,0,0.7,0.1,1,0.1c1.3,0,2.7-0.3,3.5-1.2
				c0.5-0.6,0.9-1.4,1.1-2.2c0.5-1.8,0.7-3.6,0.9-5.4l2.2-20.5c0-0.4,0-0.9-0.3-1.1c-0.2-0.1-0.5-0.2-0.8-0.1
				c-2.5,0.3-4.9,0.8-7.2,1.5l0.7,2.8c0.4,1.7,0.8,3.5,0.5,5.2c-0.3,1.7-1.7,3.4-3.4,3.5c-1.2,0.1-2.3-0.5-3.3-1.3
				c-3-2.5-4.4-6.3-5.7-10c-0.1-0.3-0.3-0.6-0.6-0.8c-0.2-0.1-0.4-0.1-0.5-0.1l-4.1-0.2c-0.2,0-0.5,0-0.7,0.1
				c-0.3,0.2-0.3,0.7-0.2,1.1l1,6.3c0.2,1.1,0.3,2.3,0,3.3c-0.4,1.1-1.4,2-2.5,1.8c-1-0.2-1.6-1.2-2.1-2.1c-1.7-3.1-3.1-6.4-4.3-9.8
				c-0.1-0.2-0.2-0.4-0.3-0.5c-0.2-0.1-0.4-0.1-0.6-0.1l-6.5,0.7"/>
			<path class="st9" d="M91.1,73.6c1.3,7.4,3,14.8,4.8,22.1c0.7,2.8,1.8,5.8,4.8,6.7c3,1,6-0.2,8.2-2.2c2.9-2.5,4.5-6.1,7-9
				l-0.8-0.4c-0.7,5.4,3.2,10.4,8.6,11.1c0.1,0,0.1,0,0.2,0c1.7,0.2,3.6,0,4.8-1.4c0.5-0.7,0.9-1.5,1.1-2.3c0.3-1,0.5-2,0.6-3.1
				c0.3-2.1,0.5-4.2,0.7-6.4l1.4-13.1c0.1-1.2,0.3-2.3,0.4-3.5c0.1-0.4-0.1-0.9-0.4-1.2c-0.4-0.4-0.9-0.3-1.4-0.2
				c-2.4,0.3-4.8,0.8-7.1,1.5c-0.2,0.1-0.3,0.3-0.3,0.6c0.3,1.2,0.6,2.5,0.9,3.7c0.3,1.2,0.5,2.5,0.3,3.7c-0.2,1.9-1.7,3.9-3.8,3.6
				c-1.1-0.2-2-0.9-2.7-1.6c-0.8-0.7-1.4-1.5-2-2.4c-1.2-1.8-1.9-3.8-2.7-5.9c-0.3-0.9-0.5-2.2-1.7-2.3c-1.3-0.1-2.5-0.1-3.8-0.2
				c-0.5,0-1.2-0.1-1.6,0.3c-0.3,0.4-0.4,0.8-0.3,1.3c0.2,1.3,0.4,2.6,0.6,3.9c0.2,1.3,0.5,2.5,0.6,3.8c0.1,1.1,0,2.3-0.9,3
				c-0.8,0.7-1.7,0.4-2.4-0.4c-0.7-0.9-1.2-2-1.7-3c-1.1-2.3-2.1-4.6-3-7c-0.2-0.5-0.3-1.2-0.7-1.5s-1.1-0.2-1.6-0.1l-3.9,0.4
				l-2,0.2c-0.6,0.1-0.5,0.9,0.1,0.9l4.1-0.4l2-0.2c0.2,0,0.7-0.2,0.8,0c0.2,0.1,0.3,0.6,0.3,0.8c0.9,2.5,1.9,4.9,3.1,7.2
				c0.5,1.1,1,2.2,1.7,3.1c0.6,0.8,1.4,1.5,2.5,1.3c1-0.2,1.9-0.8,2.3-1.8c0.5-1.1,0.4-2.4,0.2-3.5c-0.2-1.3-0.4-2.7-0.6-4l-0.3-2.1
				c0-0.3-0.3-1.2,0.1-1.3c0.3,0,0.6,0,0.9,0l1,0l2.1,0.1c0.3,0,0.5,0,0.8,0.1c0.2,0.1,0.3,0.4,0.4,0.7c0.2,0.5,0.4,1,0.5,1.5
				c0.8,2.1,1.6,4.1,2.8,5.9c1.2,1.7,2.9,3.6,5,4c2.1,0.4,3.9-1.1,4.6-3c0.9-2.4,0.1-4.9-0.5-7.3l-0.5-1.9l-0.2,0.6
				c1.9-0.6,3.8-1,5.8-1.3c0.5-0.1,0.9-0.2,1.4-0.2c0.2,0,0.3,0,0.4,0.1c0.1,0.2,0.1,0.3,0,0.5c-0.1,1-0.2,2-0.3,2.9l-1.3,12
				c-0.2,2-0.4,4-0.6,6c-0.2,1.8-0.4,3.8-1,5.5c-0.2,0.8-0.7,1.4-1.3,1.9c-0.7,0.4-1.4,0.6-2.2,0.6c-1.6,0.1-3.2-0.3-4.6-1
				c-3.3-1.8-5.2-5.4-4.8-9.1c0-0.2-0.1-0.5-0.4-0.5c-0.2,0-0.3,0-0.4,0.1c-2.1,2.5-3.6,5.4-5.8,7.8c-1.9,2.1-4.7,3.8-7.6,3.3
				c-1.3-0.2-2.5-1-3.3-2.1c-0.8-1.1-1.3-2.5-1.6-3.9c-0.9-3.4-1.6-6.8-2.4-10.2c-0.9-4-1.7-8-2.4-12.1C91.9,73,91,73,91.1,73.6
				L91.1,73.6z"/>
			<path class="st9" d="M139.3,59.9c-0.5,1.8-0.4,3.7-0.3,5.5c0.4,4.4,1,8.9,1.6,13.3l3.2,22.8c2.8,0.2,5.5-0.9,8.2-1.5
				c6.2-1.4,12.7-0.4,18.9-1.7c-0.9-3.1-2.1-6-3.6-8.8c-0.1-0.3-0.3-0.5-0.6-0.7c-0.3-0.1-0.5-0.1-0.8-0.1
				c-4.6,0.3-9.1,0.6-13.7,0.9c-0.3,0-0.6,0-0.8-0.1c-0.3-0.2-0.4-0.6-0.4-0.9c-1.6-9.1-3.5-18.1-5.7-27.1c0-0.8-0.7-1.5-1.5-1.5
				c-1.5-0.3-3-0.6-4.5-0.7l-0.1,0.8"/>
			<path class="st9" d="M138.9,59.8c-0.7,2.5-0.3,5.1-0.1,7.6c0.3,2.8,0.6,5.5,1,8.3c0.8,5.5,1.5,11,2.3,16.5l1.3,9.3
				c0,0.2,0.2,0.4,0.5,0.4c1.8,0.1,3.5-0.3,5.2-0.8c1.7-0.5,3.4-0.9,5.2-1.2c3.5-0.5,7.1-0.4,10.7-0.6c2-0.1,4-0.3,6-0.7
				c0.2,0,0.4-0.2,0.4-0.5c0,0,0-0.1,0-0.1c-0.6-1.9-1.3-3.8-2.1-5.6c-0.4-0.9-0.8-1.8-1.3-2.7c-0.4-0.8-0.8-1.5-1.7-1.6
				c-1,0-3.1,0.3-3.1,0.3l-3.2,0.3c0,0-4.1,0.2-6.2,0.3c-0.5,0-1.1,0.1-1.6,0.1c-0.2,0-0.4,0-0.5,0c-0.2-0.1-0.2-0.3-0.3-0.5
				c-0.2-1-0.4-2.1-0.5-3.1c-0.4-2.1-0.8-4.2-1.2-6.2c-0.8-4.1-1.7-8.2-2.7-12.3c-0.3-1.2-0.5-2.3-0.8-3.4c-0.1-0.6-0.3-1.1-0.4-1.7
				c-0.1-0.5-0.2-1-0.5-1.5c-0.5-0.9-1.7-1-2.6-1.2c-1.1-0.2-2.3-0.4-3.4-0.5c-0.2,0-0.5,0.1-0.5,0.3l-0.1,0.8
				c0,0.6,0.8,0.7,0.9,0.2l0.1-0.8l-0.5,0.3c1,0.1,2,0.2,3,0.4c0.5,0.1,0.9,0.2,1.4,0.3c0.4,0.1,0.8,0.2,1,0.5
				c0.2,0.4,0.3,0.9,0.4,1.3c0.1,0.5,0.3,1,0.4,1.5c0.2,1,0.5,2,0.7,2.9c0.9,4,1.8,8.1,2.6,12.2c0.4,2,0.8,4.1,1.2,6.1
				c0.2,1,0.4,2.1,0.6,3.1c0.1,0.8,0.2,1.7,1.1,2c0.4,0.1,1.3-0.1,1.3-0.1l1.6,0.2l3-0.2l6.2-0.5l1.7-0.1c0,0,1-0.3,1.3,0.1
				c0.3,0.4,0.5,0.9,0.7,1.3c0.2,0.5,0.5,1,0.7,1.5c0.9,2,1.7,4.1,2.3,6.3l0.4-0.6c-3.5,0.7-7.1,0.7-10.7,0.8
				c-1.8,0.1-3.6,0.1-5.4,0.4c-1.7,0.2-3.5,0.6-5.2,1.1c-1.9,0.5-3.9,1-5.9,0.9l0.5,0.4L142,85c-0.8-5.5-1.6-10.9-2.2-16.4
				c-0.2-1.5-0.3-3-0.4-4.5c-0.1-1.4,0-2.8,0.3-4.1C139.9,59.4,139.1,59.3,138.9,59.8z"/>
			<path class="st9" d="M161.3,61.1c-0.1,1.6,0.5,3.3,1,4.8l1.7,4.6c0.1,0.2,0.1,0.4,0.3,0.5c0.2,0.1,0.4,0.2,0.6,0.2
				c1.1,0.2,2.3,0.2,3.4,0.1c0.4,0,0.8-0.1,1-0.4s0.2-0.8,0.1-1.3c-0.9-3.5-1.9-6.9-3.1-10.3c0-0.1-0.1-0.3-0.2-0.4
				c-0.2-0.1-0.3-0.1-0.5-0.1l-3.8,0.1c-0.3,0-0.5,0.1-0.6,0.4c0,0.1,0,0.2,0,0.3l0.2,2"/>
			<path class="st9" d="M161,61.1c-0.1,1.3,0.1,2.5,0.6,3.7c0.4,1.3,0.9,2.5,1.4,3.8l0.7,1.9c0.2,0.5,0.4,1,1,1.2
				c0.6,0.2,1.3,0.2,1.9,0.2c0.7,0,1.3,0,2,0c0.5,0,1-0.2,1.3-0.6c0.3-0.4,0.3-1,0.2-1.5c-0.3-1.3-0.6-2.5-1-3.8s-0.7-2.5-1.2-3.8
				c-0.2-0.6-0.4-1.3-0.6-1.9c-0.2-0.5-0.3-1.3-0.7-1.6c-0.3-0.1-0.6-0.2-0.8-0.2l-1.1,0l-2.2,0.1c-0.6,0-1.3,0.1-1.4,0.9
				c0,0.3,0,0.7,0.1,1l0.1,1.2c0,0.2,0.2,0.4,0.5,0.4c0.2,0,0.4-0.2,0.4-0.5c0-0.6-0.1-1.2-0.1-1.7c0-0.1,0-0.2,0-0.3
				c0-0.1,0-0.1,0.2-0.1c0.3,0,0.7,0,1,0l1.6,0l0.7,0c0.2,0,0.7-0.1,0.8,0.1c0.1,0.2,0.2,0.4,0.2,0.6c0.1,0.3,0.2,0.5,0.3,0.8
				c0.2,0.5,0.4,1.1,0.5,1.6c0.3,1,0.7,2.1,1,3.1c0.3,1,0.6,2.1,0.9,3.2c0.1,0.5,0.3,0.9,0.3,1.4c0.1,0.2,0,0.4-0.1,0.6
				c-0.2,0.1-0.4,0.2-0.6,0.2c-1.1,0.1-2.2,0.1-3.3-0.1c-0.2,0-0.4,0-0.5-0.2c-0.1-0.2-0.2-0.5-0.3-0.8l-0.6-1.6
				c-0.4-1.2-0.9-2.3-1.3-3.5c-0.4-1.2-0.7-2.3-0.6-3.5C161.9,60.7,161.1,60.5,161,61.1L161,61.1z"/>
			<path class="st9" d="M201.7,66.7l1.2,4.2c-3.9-0.7-7.8-0.6-11.6,0.5c-0.9,0.2-1.7,0.6-2.5,1.1c-1.9,1.4-2.3,4.2-1.3,6.3
				c1,2.1,3.2,3.4,5.5,3.8s4.6,0,6.8-0.8c0.4-0.1,0.9-0.3,1.2-0.1c0.3,0.2,0.5,0.4,0.7,0.7c1.3,1.9,2.1,4.2,2,6.6
				c-0.1,2.3-1.1,4.7-2.9,6.1c-1.6,1.2-3.5,1.6-5.4,2c-4.1,0.8-8.3,1.3-12.5,1.6c-0.3,0.1-0.6,0-0.8-0.2c-0.1-0.2-0.2-0.4-0.2-0.6
				c-0.1-1,0-2,0.1-3c0-0.2,0.1-0.4,0.3-0.6c0.2-0.1,0.4-0.2,0.6-0.1l5.5-0.1c0.9,0,1.8,0,2.6-0.4c1.7-0.7,2.7-2.3,2.6-4.1
				c-0.2-1.8-1.3-3.3-3-3.9c-1.9-0.7-4.2-0.2-5.7-1.6c-0.7-0.6-1-1.6-1.3-2.4c-0.7-1.9-1.4-3.9-1.5-6c-0.1-2,0.3-4.2,1.7-5.7
				c1.2-1.3,2.8-1.9,4.4-2.5c4.5-1.6,9.5-2.7,14.1-1.1"/>
			<path class="st9" d="M201.3,67l1.2,4.2l0.5-0.6c-3.6-0.7-7.3-0.6-10.8,0.2c-1.1,0.3-2.3,0.5-3.2,1.1c-1.6,0.9-2.4,2.7-2.4,4.5
				c0,1.9,0.9,3.6,2.3,4.8c1.6,1.3,3.6,2,5.7,2c1.2,0,2.4-0.1,3.6-0.4c0.6-0.1,1.2-0.3,1.8-0.5c0.5-0.2,1-0.4,1.4,0.2
				c0.7,0.9,1.2,1.9,1.5,3c0.4,1.1,0.6,2.3,0.6,3.4c0,2-0.8,3.9-2.2,5.3c-1.6,1.6-3.9,2-6,2.4c-2.5,0.5-5.1,0.9-7.7,1.2
				c-1.3,0.1-2.5,0.3-3.8,0.4c-0.3,0-0.6,0-0.9,0.1c-0.3,0-0.4,0-0.4-0.3c-0.1-0.6-0.1-1.2,0-1.8c0-0.3,0.1-0.6,0.1-0.9
				c0-0.2,0-0.5,0.2-0.6s0.6,0,0.9,0l1,0l3.9-0.1c1.1,0,2.3-0.1,3.3-0.6c0.8-0.5,1.5-1.2,1.9-2c0.8-1.8,0.5-3.9-0.8-5.3
				c-0.6-0.7-1.5-1.2-2.4-1.5c-0.9-0.3-1.9-0.3-2.8-0.5c-0.9-0.1-1.8-0.3-2.4-1c-0.8-0.8-1.1-2-1.4-3c-0.8-2.2-1.5-4.5-1.2-6.9
				c0.1-1,0.4-2,1-2.9c0.6-0.9,1.4-1.6,2.3-2c1-0.5,2-0.9,3-1.2c1.1-0.4,2.2-0.7,3.3-1c2.2-0.6,4.5-0.8,6.8-0.6
				c1.1,0.1,2.2,0.3,3.2,0.7c0.5,0.2,0.9-0.6,0.4-0.8c-4.5-1.6-9.3-0.7-13.6,0.8c-2,0.7-4.2,1.4-5.6,3.1c-1.3,1.6-1.7,3.8-1.6,5.9
				c0.1,1.3,0.4,2.5,0.8,3.7c0.3,1.2,0.7,2.3,1.2,3.4c0.4,0.9,1.1,1.7,2,2.1c0.9,0.4,1.8,0.5,2.8,0.6c0.9,0.1,1.9,0.2,2.8,0.7
				c0.8,0.5,1.5,1.2,1.8,2.1c0.7,1.8-0.2,4-2,4.7c-1.1,0.4-2.4,0.3-3.6,0.4l-4,0.1c-0.5,0-1.1,0-1.5,0.5c-0.3,0.5-0.3,1.1-0.4,1.6
				c-0.1,0.6-0.1,1.2,0,1.8c0,0.5,0.1,1,0.5,1.3c0.4,0.3,1.1,0.2,1.6,0.1c0.6-0.1,1.3-0.1,1.9-0.2c1.3-0.1,2.6-0.3,4-0.5
				c2.5-0.3,5-0.7,7.5-1.3c2.1-0.5,4.2-1.4,5.5-3.2c1.2-1.7,1.8-3.8,1.7-5.9c-0.1-1.2-0.3-2.3-0.8-3.4c-0.2-0.6-0.5-1.1-0.8-1.6
				c-0.2-0.5-0.5-1-0.9-1.4c-0.9-0.9-2.1-0.3-3.1,0c-1.2,0.3-2.4,0.5-3.7,0.6c-2.1,0.1-4.3-0.5-5.9-2c-1.4-1.2-2-3.1-1.7-5
				c0.2-0.8,0.6-1.6,1.2-2.2c0.8-0.8,2-1.1,3-1.3c2.4-0.6,4.9-0.9,7.4-0.8c1.2,0.1,2.5,0.2,3.7,0.4c0.2,0,0.5-0.1,0.5-0.4
				c0-0.1,0-0.1,0-0.2l-1.2-4.2C201.9,66.2,201.1,66.5,201.3,67L201.3,67z"/>
		</g>
		<g id="Capa_5_2_">
			<path class="st8" d="M72.2,75.4c-1.4-0.4-2.7-0.8-4.1-1.2c-1.3-0.4-2.7-0.5-4-0.4c-1.2,0.1-2.2,0.7-2.9,1.7
				c-0.7,1-0.9,2.1-1.1,3.3c-0.1,0.8-0.3,1.5-0.4,2.3c-0.2,0.7-0.5,1.4-0.3,2.1c0,0.2,0.2,0.4,0.5,0.4c0.2,0,0.4-0.2,0.4-0.5
				c-0.1-0.6,0.1-1.1,0.2-1.7c0.2-0.6,0.3-1.2,0.4-1.8c0.2-1.1,0.3-2.2,0.8-3.2c0.5-0.9,1.4-1.6,2.4-1.7c1.2-0.1,2.5,0,3.7,0.3
				c1.4,0.4,2.9,0.8,4.3,1.2C72.5,76.4,72.7,75.6,72.2,75.4L72.2,75.4z"/>
			<path class="st8" d="M62.6,87.1c-0.2-0.6-0.5-1.1-0.7-1.7c-0.2-0.6-0.4-1.2-0.5-1.8c-0.2-1.2-0.2-2.4-0.1-3.7
				c0.1-1,0.2-2.2,0.7-3.1c0.5-1,1.4-1.5,2.4-1.8c1.3-0.5,2.8-0.7,4.2-0.6c0.5,0,0.7-0.8,0.2-0.9c-1.3-0.2-2.6-0.3-3.9-0.4
				c-0.6,0-1.2,0-1.8,0.1c-0.5,0.1-1,0.4-1.4,0.8c-0.4,0.4-0.7,0.8-1,1.3c-0.3,0.5-0.5,1-0.5,1.6c-0.2,1.3-0.4,2.7-0.6,4
				c-0.1,0.6,0.8,0.7,0.9,0.2l0.6-3.6C61,77,61,76.5,61.3,76c0.3-0.4,0.5-0.8,0.9-1.2c0.3-0.4,0.7-0.6,1.2-0.8
				c0.6-0.1,1.2-0.1,1.7-0.1c1.2,0.1,2.4,0.2,3.5,0.4l0.2-0.9c-1.4-0.1-2.7,0.1-4,0.4c-1.1,0.3-2.4,0.7-3.2,1.8
				c-0.7,0.9-0.9,2.1-1,3.2c-0.3,1.4-0.3,2.7-0.2,4.1c0.1,0.7,0.3,1.5,0.5,2.2c0.2,0.8,0.7,1.4,0.9,2.2
				C61.9,87.9,62.7,87.6,62.6,87.1L62.6,87.1z"/>
			<path class="st8" d="M68.1,74.2c0.4,0.2,0.8,0.3,1.2,0.4l1.2,0.4c0.2,0,0.5-0.1,0.5-0.3c0-0.2-0.1-0.5-0.3-0.5l-1.1-0.4l-0.3-0.1
				l0,0l-0.1,0l-0.1,0c-0.2-0.1-0.4-0.1-0.5-0.2c-0.2-0.1-0.5,0-0.6,0.2C67.9,73.9,68,74.1,68.1,74.2L68.1,74.2z"/>
			<path class="st9" d="M88,84.9c-0.9-3.7-2.5-7.2-4.3-10.6c-1.6-2.9-3.5-5.8-6.1-7.9c-2.1-1.7-4.5-2.9-7-4c-2.3-1-4.6-2-7-2.4
				c-4.7-0.8-9.6,0.4-13.4,3.2l1-0.9c-4.4,2.1-6.9,7-7.2,11.8s1,9.6,2.8,14.1c1.9,4.9,4.3,9.7,8.3,13.1c3.6,3.1,8.3,4.8,13.1,5
				c4.8,0.2,9.5-1.1,13.7-3.3c1.4-0.8,2.7-1.6,3.8-2.8c1-1.2,1.7-2.5,2.2-4C88.9,92.6,88.9,88.6,88,84.9z M74.7,88.3
				c-1.3,2.8-3.9,3.7-6.5,3.3c-0.3,0-0.5-0.1-0.7-0.1c-0.8-0.2-1.5-0.5-2.2-0.8c-2.1-1.1-3.4-2.9-4.1-5.1c-0.7-1.9-1.4-4-1-6.1
				c0-0.1,0-0.2,0.1-0.3c0-0.2,0.1-0.5,0.1-0.7c0-0.7,0.2-1.4,0.5-1.9c0.1-0.1,0.2-0.2,0.2-0.3c0.1-0.2,0.2-0.4,0.3-0.6
				c0.1-0.1,0.1-0.2,0.1-0.3c0.5-1.3,1.2-2.6,2.8-2.7c3.7-0.3,7.6,2.1,9.5,5.2S76.2,84.9,74.7,88.3L74.7,88.3z"/>
			<path class="st9" d="M88.4,84.8c-0.8-3.5-2.3-6.8-4-10c-1.6-2.9-3.3-5.8-5.8-8.1c-2.5-2.3-5.6-3.8-8.7-5.1
				c-3.2-1.4-6.5-2.4-10-2.3c-3.6,0.1-7.1,1.4-10,3.5l0.6,0.6l1-0.9c0.3-0.3-0.1-0.9-0.5-0.7c-5.1,2.5-7.6,8.3-7.6,13.8
				c0,3.5,0.8,7,2,10.3c1,3,2.3,6,3.8,8.8c1.5,2.7,3.4,5.2,5.7,7.2c2.3,1.9,5.1,3.3,8,4.1c6.3,1.7,13.1,0.6,18.8-2.5
				c1.4-0.7,2.7-1.6,3.8-2.7c1.1-1.1,1.9-2.5,2.4-4c1.1-3.1,1.3-6.4,0.9-9.6C88.8,86.4,88.6,85.6,88.4,84.8
				c-0.1-0.2-0.4-0.3-0.6-0.2c-0.2,0.1-0.3,0.3-0.3,0.5c0.7,3.1,0.8,6.3,0.1,9.4c-0.3,1.5-0.9,3-1.7,4.3c-0.8,1.3-1.9,2.3-3.2,3.1
				c-2.7,1.7-5.7,2.9-8.8,3.6c-3,0.7-6.1,0.7-9.2,0.2c-2.8-0.5-5.5-1.6-7.9-3.2c-2.4-1.7-4.5-3.8-6-6.3c-1.6-2.5-2.9-5.2-3.9-8
				c-1.2-3.1-2.3-6.3-2.7-9.6c-0.4-2.9-0.2-5.9,0.9-8.7c0.9-2.4,2.3-4.6,4.4-6.1c0.5-0.4,1.1-0.7,1.6-1L50.8,62l-1,0.9
				c-0.4,0.3,0.2,0.9,0.6,0.6c2.5-1.9,5.5-3,8.6-3.3c3.3-0.3,6.5,0.5,9.6,1.7c3.1,1.3,6.2,2.6,8.7,4.7c2.5,2.1,4.3,4.8,5.9,7.6
				c1.9,3.4,3.5,6.9,4.4,10.7C87.7,85.6,88.6,85.3,88.4,84.8z"/>
			<path class="st9" d="M74.3,88.1c-0.6,1.4-1.8,2.5-3.3,2.9c-1.6,0.5-3.3,0.2-4.8-0.5c-1.5-0.6-2.8-1.8-3.7-3.2
				c-0.4-0.7-0.8-1.5-1.1-2.4C61,84,60.7,83,60.5,82c-0.1-0.5-0.1-1-0.1-1.5c0-0.5,0.1-1,0.2-1.5c0.1-0.4,0.1-0.8,0.1-1.3
				c0.1-0.4,0.2-0.8,0.5-1.2c0.8-1.2,1-3.1,2.5-3.5c0.7-0.2,1.7-0.1,2.4,0c0.8,0.1,1.6,0.4,2.4,0.7c1.5,0.7,2.9,1.7,4,3
				C75.1,79.9,75.9,84.4,74.3,88.1c-0.2,0.5,0.6,0.9,0.8,0.4c1.7-3.6,1-8.1-1.2-11.3c-2-3-5.7-5.1-9.3-5c-0.8,0-1.7,0.3-2.3,0.9
				c-0.6,0.6-0.9,1.3-1.2,2.1c-0.3,0.9-1,1.5-1.2,2.5c-0.1,0.5-0.1,1-0.2,1.5c-0.1,0.5-0.2,1.1-0.2,1.6c0,1.1,0.2,2.2,0.6,3.3
				c0.3,1,0.6,2,1.1,2.9c0.7,1.6,1.9,3,3.5,3.9c1.8,1.1,4.1,1.6,6.1,1.2c1.9-0.4,3.5-1.7,4.3-3.5c0.1-0.2-0.1-0.5-0.3-0.5
				C74.6,87.8,74.4,87.9,74.3,88.1z"/>
		</g>
		<g id="Capa_6_2_">
			<path class="st10" d="M112.4,114c-0.7-1.2-1.5-2.3-2.6-3.2c-2-1.6-4.6-2.1-7.1-2.5c-5-0.7-10-1.1-15-1c-0.4,0-0.9,0.1-1.1,0.4
				c-0.1,0.3-0.2,0.6-0.1,0.9c1.8,11,1.7,22.3-0.2,33.3l-0.2,0.1l6.2-0.1c0.3,0,0.6,0,0.9-0.2c0.3-0.2,0.3-0.6,0.4-1
				c0.4-4,0.8-7.9,1.3-11.9c2.6,3.8,5.2,7.6,7.8,11.4c0.2,0.4,0.6,0.8,0.9,1.1c0.5,0.3,1.1,0.4,1.7,0.5c2,0.2,4,0.3,6,0.3
				c-1-5.9-3.1-11.6-5.9-16.9c1.9,0.5,4.1,1,5.9,0.2c2-0.9,3.1-3.1,3.1-5.3C114.4,118,113.5,115.9,112.4,114z M105.8,119.1
				c-0.1,0.2-0.2,0.3-0.3,0.5c-0.5,0.7-1.1,1.2-1.9,1.6c-0.4,0.2-0.8,0.2-1.2,0l-0.7,0.2c-0.3,0.6-1,1-1.7,0.9
				c-0.3,0.2-0.7,0.2-1,0.1c-2.5-0.7-3.2-3.3-1.8-5.3c0.6-0.9,1.7-1.5,2.8-1.6c0.5,0,1.1-0.1,1.6-0.1c0.2-0.2,0.5-0.2,0.8-0.2
				c0.1,0,0.3,0,0.4,0c0.1-0.1,0.2-0.1,0.3-0.1c0.3-0.1,0.6-0.2,0.9-0.2c0.4,0,0.9,0.1,1.2,0.4c0.1,0.1,0.3,0.3,0.4,0.4
				c0.2,0.3,0.4,0.6,0.4,1c0,0.2,0,0.4-0.1,0.6c0,0,0,0.1,0.1,0.1C106,117.9,106,118.6,105.8,119.1L105.8,119.1z"/>
			<path class="st10" d="M112.8,113.8c-1-1.6-2.2-3.1-3.8-4c-1.6-0.9-3.4-1.4-5.2-1.7c-4.2-0.7-8.5-1.1-12.8-1.1c-1.1,0-2.2,0-3.3,0
				c-0.9,0-1.7,0.4-1.6,1.4c0,0.5,0.1,1,0.2,1.4c0.1,0.6,0.2,1.1,0.2,1.7c0.1,1.1,0.3,2.1,0.4,3.2c0.4,4.3,0.6,8.6,0.4,12.9
				c-0.1,4.8-0.6,9.6-1.5,14.3l0.2-0.3l-0.2,0.1c-0.4,0.2-0.1,0.8,0.3,0.8l5-0.1c0.7,0,1.6,0.1,2.2-0.2c0.8-0.4,0.8-1.6,0.9-2.4
				l0.4-3.3c0.3-2.5,0.5-5,0.8-7.5l-0.8,0.2l5.3,7.9c0.9,1.3,1.7,2.6,2.6,3.8c0.4,0.5,0.9,1,1.5,1.2c0.7,0.2,1.4,0.3,2.1,0.3
				c1.7,0.2,3.5,0.2,5.2,0.3c0.2,0,0.4-0.2,0.4-0.5c-0.8-4.7-2.2-9.2-4.2-13.5c-0.6-1.2-1.2-2.4-1.8-3.6l-0.4,0.7
				c1.4,0.4,2.8,0.7,4.2,0.6c1.3-0.1,2.5-0.6,3.4-1.4c1.8-1.7,2.2-4.3,1.7-6.6C114.2,116.6,113.6,115.1,112.8,113.8
				c-0.3-0.5-1,0-0.7,0.5c1.2,2.1,2.3,4.5,1.8,6.9c-0.4,2.1-1.9,3.9-4.1,4.2c-1.5,0.2-2.9-0.2-4.3-0.6c-0.4-0.1-0.6,0.4-0.4,0.7
				c2.2,4,3.9,8.4,5,12.8c0.3,1.3,0.6,2.6,0.8,3.9l0.4-0.5c-1.5,0-3-0.1-4.4-0.2c-0.7,0-1.4-0.1-2.1-0.2c-0.6-0.1-1.1-0.5-1.5-1
				c-1.7-2.4-3.4-4.9-5-7.4c-1-1.4-1.9-2.8-2.9-4.3c-0.1-0.2-0.4-0.2-0.6-0.1c-0.1,0.1-0.1,0.2-0.2,0.3c-0.2,2.1-0.4,4.2-0.7,6.4
				l-0.3,3.2l-0.2,1.6c0,0.4,0,0.9-0.2,1.3c-0.2,0.4-1.5,0.3-1.9,0.3l-3,0l-2.1,0l0.3,0.8c0.3-0.1,0.4-0.4,0.4-0.7
				c0.1-0.6,0.2-1.1,0.3-1.7c0.2-1,0.3-2,0.4-3c0.3-2.1,0.5-4.2,0.6-6.3c0.3-4.2,0.2-8.4,0-12.6c-0.1-2.1-0.3-4.2-0.6-6.3
				c-0.1-1-0.3-2.1-0.5-3.1c-0.1-0.4-0.2-0.8,0.3-0.9c0.5-0.1,1-0.1,1.6,0c4.3,0,8.5,0.3,12.8,0.8c2,0.3,4.1,0.6,6,1.4
				c0.9,0.4,1.8,1,2.5,1.7c0.8,0.8,1.4,1.6,1.9,2.6C112.3,114.7,113,114.2,112.8,113.8z"/>
			<path class="st10" d="M105.4,119.1c-0.3,0.8-1.2,1.5-1.9,1.8c-0.2,0.1-0.4,0.1-0.6,0.1c-0.3-0.1-0.4-0.2-0.6-0.1
				c-0.2,0-0.5,0.1-0.7,0.2c-0.2,0.1-0.3,0.3-0.4,0.5c-0.2,0.3-0.6,0.4-0.9,0.4c-0.2,0-0.4,0-0.5,0.1c-0.3,0.1-0.5,0.1-0.8,0
				c-0.6-0.2-1.2-0.6-1.6-1.2c-0.8-1.1-0.4-2.6,0.4-3.6c0.5-0.6,1.3-1,2-1.1c0.5-0.1,0.9-0.1,1.4-0.1c0.2,0,0.4,0,0.6-0.1
				c0.2-0.1,0.4-0.2,0.7-0.2c0.1,0,0.2,0,0.4,0c0.1,0,0.3-0.1,0.4-0.2c0.2-0.1,0.5-0.1,0.8-0.1c0.4,0,0.8,0.3,1.1,0.6
				c0.2,0.2,0.3,0.5,0.4,0.8c0,0.2-0.1,0.5,0,0.7c0.1,0.2,0.1,0.5,0.2,0.8C105.5,118.5,105.5,118.8,105.4,119.1
				c-0.2,0.5,0.6,0.9,0.8,0.4c0.3-0.6,0.3-1.3,0.1-2c-0.1-0.3,0-0.6-0.1-0.9c-0.1-0.3-0.2-0.6-0.4-0.9c-0.3-0.5-0.8-0.9-1.4-1
				c-0.7-0.1-1.4,0-2,0.4l0.3-0.1c-0.3-0.1-0.7,0-1,0c-0.1,0.1-0.3,0.1-0.4,0.2c-0.2,0-0.4,0-0.6,0c-0.7,0-1.4,0.1-2,0.3
				c-1.1,0.4-2.1,1.3-2.5,2.4c-0.8,1.9,0,4,1.9,4.9c0.1,0,0.2,0.1,0.3,0.1c0.4,0.1,0.7,0.2,1.1,0.1c0.2,0,0.3-0.1,0.4-0.1
				c0.1,0,0.3,0,0.5,0c0.7-0.1,1.2-0.5,1.6-1.1l-0.2,0.2l0.7-0.2l-0.3,0c0.4,0.2,0.8,0.2,1.2,0.1c0.4-0.1,0.8-0.3,1.1-0.6
				c0.6-0.4,1.3-1.1,1.6-1.8C106.4,118.9,105.6,118.5,105.4,119.1z"/>
			<path class="st10" d="M117.1,110.5c0.9,9.1,1.3,18.3,1.3,27.4c0,1.1,0,2.3,0.8,3c0.5,0.4,1.1,0.6,1.7,0.7c4.4,1.1,9,1.2,13.4,0.4
				c1.8-0.3,3.6-0.8,5-2c2.6-2.3,2.7-6.3,2.5-9.8c-0.3-6.3-0.5-12.6-0.8-18.9c0-0.3-0.1-0.6-0.2-0.8c-0.3-0.3-0.7-0.3-1.1-0.2
				l-5.2,0.5c0.9,5.5,0.8,11.2-0.4,16.7c-0.2,1.1-0.8,2.4-1.9,2.6c-1.2,0.2-2.1-1-2.6-2.1c-1-2.5-1.2-5.2-1.3-7.8
				c-0.1-2.4-0.2-4.9-0.2-7.3c0-0.2,0-0.4-0.2-0.6c-0.1-0.1-0.2-0.1-0.4-0.2l-10.2-2.2"/>
			<path class="st10" d="M116.7,110.5c0.6,6.4,1,12.8,1.2,19.3c0,1.6,0.1,3.2,0.1,4.8c0,0.8,0,1.6,0,2.5c0,0.7,0,1.4,0,2
				c0,0.6,0.2,1.2,0.6,1.7c0.4,0.5,0.9,0.9,1.5,1c1.4,0.4,2.8,0.7,4.3,0.9c3,0.4,6.1,0.4,9.1-0.1c2.6-0.4,5.3-1,7-3.2
				c1.4-1.9,1.8-4.3,1.8-6.5c0-1.3,0-2.6-0.1-3.9l-0.2-4.9l-0.4-9.7l-0.1-2.4c0-0.6,0-1.4-0.5-1.9c-0.5-0.4-1.8-0.4-1.8-0.4
				l-2.3,0.5l-2.4,0.2c-0.2,0-0.4,0.2-0.4,0.5c0.8,5,0.8,10.1-0.2,15.1c-0.1,0.7-0.3,1.4-0.5,2.1c-0.2,0.5-0.5,1.1-1,1.4
				c-1.2,0.6-2.1-1-2.5-1.9c-0.6-1.6-0.9-3.2-1-4.9c-0.2-1.7-0.2-3.4-0.2-5.2c0-0.9,0-1.7-0.1-2.6c0-0.4,0-0.9,0-1.3
				c0-0.4,0-0.9-0.1-1.3c-0.1-0.3-0.4-0.6-0.7-0.7c-0.5-0.1-1-0.2-1.4-0.3l-2.9-0.6l-5.9-1.3c-0.5-0.1-0.7,0.7-0.2,0.9l5.4,1.2
				l2.7,0.6l1.3,0.3l0.6,0.1c0.3,0.1,0.3,0.1,0.3,0.4c0.1,3.6,0,7.2,0.4,10.7c0.2,1.6,0.5,3.4,1.3,4.8c0.5,1.1,1.5,2.2,2.9,1.9
				s1.9-1.6,2.1-2.8c0.4-1.7,0.7-3.4,0.8-5.1c0.4-3.9,0.3-7.8-0.4-11.7l-0.4,0.5l4.7-0.4c0,0,1.3-0.4,1.4,0.2
				c0.1,0.7,0.1,1.5,0.1,2.2l0.4,9.2c0.1,2.9,0.3,5.9,0.4,8.8c0.1,2.2,0,4.5-1,6.4c-0.5,1-1.2,1.8-2.1,2.5c-1.1,0.7-2.3,1.1-3.6,1.3
				c-2.8,0.5-5.7,0.7-8.6,0.5c-1.4-0.1-2.9-0.3-4.3-0.6c-0.7-0.1-1.3-0.3-1.9-0.5c-0.5-0.3-0.9-0.7-1-1.3c-0.1-0.6-0.2-1.2-0.1-1.8
				c0-0.7,0-1.5,0-2.2c0-1.5,0-3.1,0-4.6c-0.1-6.1-0.4-12.2-1-18.3c-0.1-0.7-0.1-1.5-0.2-2.2C117.5,109.9,116.6,110,116.7,110.5
				L116.7,110.5z"/>
			<path class="st10" d="M164.4,109.2c-3.4-0.4-6.9-0.5-10.4-0.3c-2.2,0.2-4.4,0.5-6.2,1.6c-0.7,0.3-1.2,0.9-1.6,1.5
				c-0.2,0.6-0.4,1.3-0.4,1.9c-0.1,2.1,0,4.4,1.5,5.8c2.1,1.9,6.1,1.2,7.4,3.7c0.6,1.2,0.4,2.7-0.4,3.9c-0.7,1.1-1.8,2-2.9,2.9
				c-2.3,1.9-4.6,3.8-6.8,5.7c-0.4,0.2-0.5,0.6-0.3,1c0,0.1,0.1,0.2,0.2,0.3l2.3,2.8c0.3,0.4,0.6,0.7,1,0.9c0.8,0.3,1.6-0.2,2.3-0.6
				c2.3-1.4,4.5-2.9,6.5-4.8s3.5-4.2,4.1-6.8c0.4-1.7,0.3-3.4,0.2-5.1c-0.1-1.6-0.4-3.4-1.7-4.4c-0.8-0.6-1.8-0.8-2.7-1.3
				c-0.9-0.5-1.7-1.4-1.5-2.3c0.2-0.9,1.1-1.4,2-1.6c2.1-0.6,4.4-0.3,6.3,0.7c0.6-1.6,1-3.3,1.2-5.1"/>
			<path class="st10" d="M164.5,108.8c-4-0.5-8-0.6-12-0.1c-1.8,0.2-3.7,0.7-5.2,1.7c-0.7,0.4-1.2,1-1.6,1.7
				c-0.3,0.8-0.3,1.6-0.4,2.5c0,1.6,0,3.2,0.8,4.6c0.7,1.2,1.8,1.9,3.1,2.3c1.2,0.4,2.5,0.6,3.6,1.1c1.3,0.6,2,1.7,1.8,3.1
				c-0.3,1.8-1.7,3-3,4.1c-1.5,1.2-3,2.5-4.5,3.7c-0.8,0.7-1.5,1.3-2.3,2c-0.3,0.2-0.6,0.5-0.8,0.9c-0.1,0.4-0.1,0.8,0.2,1.1
				c0.6,0.8,1.3,1.5,1.9,2.3c0.5,0.6,1,1.4,1.8,1.6c0.8,0.2,1.7-0.2,2.5-0.7c0.8-0.5,1.6-1,2.4-1.5c1.5-1,3-2.1,4.3-3.4
				c1.2-1.2,2.3-2.5,3.1-4.1c0.8-1.6,1.3-3.3,1.4-5c0-1,0-1.9,0-2.9c0-0.8-0.2-1.6-0.4-2.4c-0.2-0.7-0.5-1.4-1-2
				c-0.6-0.6-1.3-1-2-1.3c-0.8-0.3-1.6-0.6-2.1-1.2c-0.5-0.6-0.5-1.4,0.2-1.9c0.6-0.5,1.4-0.6,2.2-0.7c1.7-0.2,3.5,0.1,5,0.9
				c0.2,0.1,0.5,0,0.6-0.2c0.6-1.7,1-3.4,1.3-5.2c0.1-0.6-0.8-0.7-0.9-0.2c-0.2,1.7-0.6,3.3-1.2,5l0.6-0.2c-1.5-0.8-3.3-1.2-5-1
				c-1.3,0.1-3.2,0.5-3.8,1.8c-0.7,1.6,0.9,2.9,2.2,3.5c0.7,0.3,1.6,0.5,2.2,1.1c0.5,0.5,0.9,1.2,1,1.9c0.2,0.8,0.3,1.6,0.3,2.3
				c0.1,0.9,0.1,1.8,0,2.8c-0.1,1.7-0.6,3.4-1.5,5c-1.8,3.1-4.6,5.2-7.5,7.1c-0.7,0.5-1.4,1-2.2,1.4c-0.4,0.2-0.8,0.3-1.2,0.3
				c-0.4-0.1-0.7-0.4-0.9-0.8c-0.6-0.8-1.3-1.6-1.9-2.3c-0.1-0.2-0.3-0.4-0.4-0.5c-0.1-0.2-0.2-0.2,0-0.4c0.3-0.3,0.7-0.7,1-0.9
				c1.5-1.3,2.9-2.6,4.5-3.8c1.3-1.1,2.8-2.1,3.9-3.5c1-1.3,1.6-3,1-4.6c-0.5-1.1-1.5-1.9-2.6-2.3s-2.4-0.6-3.5-1
				c-1.3-0.5-2.2-1.3-2.6-2.7c-0.2-0.7-0.3-1.5-0.3-2.3c0-0.8,0-1.5,0.1-2.3c0.3-1.8,2.2-2.6,3.7-3.1c1.8-0.5,3.6-0.7,5.4-0.8
				c2-0.1,4-0.1,6,0.1c0.9,0.1,1.9,0.2,2.8,0.3C164.9,109.7,165.1,108.8,164.5,108.8L164.5,108.8z"/>
			<path class="st10" d="M167.1,109.1c1.6,10.6,2.3,21.4,2.1,32.2l3-0.5c0.6,0,1.1-0.4,1.1-1c0-0.1,0-0.1,0-0.2l0.5-5.2
				c0-0.5,0.1-1,0.5-1.3c0.2-0.1,0.5-0.2,0.7-0.2l4.1-0.4l1.1,7.1l5-1.1c0.3,0,0.7-0.2,0.9-0.5c0.1-0.2,0.2-0.5,0.2-0.8
				c0.1-2.5-0.2-5.1-0.5-7.6l-2.7-22c-1.2-0.1-2.5,0.1-3.6,0.5c-0.3,0.1-0.5,0.2-0.7,0.4c-0.2,0.3-0.2,0.7-0.1,1.1l1.2,7
				c0.1,0.3,0.1,0.7-0.1,1c-0.1,0.1-0.3,0.3-0.5,0.3c-1.6,0.8-3.3,1.2-5.1,1.2l0-8.3c0-0.4,0-0.9-0.4-1.2c-0.2-0.1-0.5-0.2-0.8-0.2
				l-5.3-0.7"/>
			<path class="st10" d="M166.6,109.3c1.3,8.3,2,16.7,2.1,25.1c0,2.4,0,4.7,0,7.1c0,0.2,0.2,0.4,0.5,0.4l2.3-0.4
				c0.6-0.1,1.3-0.1,1.7-0.5c0.4-0.4,0.4-1,0.5-1.6l0.2-2.2l0.2-2.2c0-0.5,0-1.2,0.6-1.3c0.7-0.1,1.4-0.2,2.1-0.2l2.3-0.2l-0.5-0.4
				l1.1,7c0,0.2,0.2,0.4,0.5,0.4c0,0,0.1,0,0.1,0l3.5-0.8c0.6-0.1,1.1-0.2,1.7-0.4c0.4-0.1,0.8-0.4,0.9-0.9c0.1-0.5,0.2-1.1,0.1-1.6
				c0-0.6,0-1.2-0.1-1.8c-0.1-1.2-0.2-2.4-0.3-3.6c-0.6-4.8-1.2-9.6-1.8-14.5l-1-8.1c0-0.2-0.2-0.3-0.3-0.4
				c-1.3-0.1-2.6,0.1-3.8,0.5c-0.5,0.2-0.9,0.5-1.1,1c-0.1,0.6,0.1,1.2,0.2,1.7l0.7,4c0.1,0.7,0.2,1.3,0.3,2c0,0.2,0.1,0.5,0,0.7
				c-0.2,0.2-0.6,0.3-0.8,0.4c-1.4,0.6-2.8,0.8-4.3,0.9l0.5,0.4l0-4.2c0-1.3,0-2.7,0-4c0-0.5-0.2-1.1-0.7-1.4
				c-0.5-0.3-1.2-0.3-1.7-0.3l-4.2-0.5c-0.5-0.1-0.7,0.8-0.2,0.8l3.8,0.5l1,0.1c0.3,0,0.5,0.1,0.8,0.1c0.5,0.2,0.4,1,0.4,1.4l0,7.6
				c0,0.2,0.2,0.4,0.5,0.4c1.3,0,2.5-0.2,3.7-0.6c0.6-0.2,1.2-0.4,1.7-0.7c0.4-0.3,0.7-0.8,0.6-1.3c-0.1-0.6-0.2-1.3-0.3-1.9l-0.3-2
				l-0.3-1.9l-0.2-1c-0.1-0.3-0.1-0.6-0.1-0.8c0-0.3,0.3-0.4,0.6-0.5c0.3-0.1,0.7-0.2,1-0.3c0.7-0.1,1.5-0.2,2.2-0.1l-0.3-0.4
				l1.7,14l0.9,6.9c0.3,2.3,0.6,4.6,0.6,6.9c0,0.3,0,0.6,0,0.8c0,0.3,0,0.6-0.2,0.8c-0.2,0.1-0.4,0.2-0.6,0.2
				c-0.3,0.1-0.6,0.1-1,0.2l-3.9,0.9l0.6,0.4l-1-7c0-0.2-0.2-0.4-0.5-0.4l-2.2,0.2c-0.7,0.1-1.4,0.1-2.1,0.2
				c-1.4,0.2-1.4,1.7-1.5,2.8c-0.1,1.4-0.2,2.9-0.4,4.3c0,0.3-0.1,0.5-0.4,0.6c-0.3,0.1-0.6,0.1-0.9,0.2l-2.3,0.4l0.5,0.4
				c0.2-8.4-0.2-16.8-1.2-25.2c-0.3-2.3-0.6-4.7-0.9-7C167.4,108.6,166.6,108.7,166.6,109.3L166.6,109.3z"/>
		</g>
		<g id="Capa_3_2_">
			<path class="st11" d="M111.2,112.7c-0.7-1.2-1.5-2.3-2.6-3.2c-2-1.6-4.6-2.1-7.1-2.5c-5-0.7-10-1.1-15-1c-0.4,0-0.9,0.1-1.1,0.4
				c-0.1,0.3-0.2,0.6-0.1,0.9c1.8,11,1.7,22.3-0.2,33.3l-0.2,0.1l6.2-0.1c0.3,0,0.7,0,0.9-0.2c0.3-0.2,0.3-0.6,0.4-1
				c0.4-4,0.8-7.9,1.3-11.9l7.8,11.4c0.2,0.4,0.6,0.8,0.9,1.1c0.5,0.3,1.1,0.4,1.7,0.5c2,0.2,4,0.3,6,0.3c-1-5.9-3-11.6-5.9-16.9
				c1.9,0.5,4.1,1,5.9,0.2c2-0.9,3.1-3.1,3.1-5.3S112.3,114.5,111.2,112.7z M103.8,119.9c-0.8,0.6-1.8,0.7-2.8,0.8
				c-1.1,0.1-2.2,0.4-3.2,0.2c-2.3-0.3-2.3-2.8-2.4-4.8c-0.5-0.9,0-2.1,0.9-2.4c0.3-0.1,0.6-0.2,0.9-0.1c1.3,0,2.5,0,3.8,0.2
				c1,0.1,2,0.3,2.8,0.9C105.5,116,105.5,118.7,103.8,119.9L103.8,119.9z"/>
			<path class="st11" d="M111.5,112.4c-1-1.6-2.2-3.1-3.8-4c-1.6-0.9-3.4-1.4-5.2-1.7c-4.2-0.7-8.5-1.1-12.8-1.1c-1.1,0-2.2,0-3.3,0
				c-0.9,0-1.7,0.4-1.6,1.4c0,0.5,0.1,1,0.2,1.4c0.1,0.6,0.2,1.1,0.2,1.7c0.1,1.1,0.3,2.1,0.4,3.2c0.4,4.3,0.6,8.6,0.4,12.9
				c-0.1,4.8-0.6,9.6-1.5,14.3l0.2-0.3l-0.2,0.1c-0.4,0.2-0.1,0.8,0.3,0.8l5-0.1c0.7,0,1.6,0.1,2.2-0.2c0.8-0.4,0.8-1.6,0.9-2.4
				l0.4-3.3c0.3-2.5,0.5-5,0.8-7.5l-0.8,0.2c1.8,2.6,3.6,5.3,5.4,7.9c0.9,1.3,1.7,2.6,2.6,3.8c0.4,0.5,0.9,1,1.5,1.2
				c0.7,0.2,1.4,0.3,2.1,0.3c1.7,0.2,3.5,0.2,5.2,0.3c0.2,0,0.4-0.2,0.4-0.5c-0.8-4.7-2.2-9.2-4.2-13.5c-0.6-1.2-1.2-2.4-1.8-3.6
				l-0.4,0.7c1.4,0.4,2.8,0.7,4.2,0.6c1.3-0.1,2.5-0.6,3.4-1.4c1.8-1.7,2.2-4.3,1.7-6.6C113,115.3,112.4,113.8,111.5,112.4
				c-0.3-0.5-1,0-0.7,0.5c1.2,2.1,2.3,4.5,1.8,6.9c-0.4,2.1-1.9,3.9-4.1,4.2c-1.5,0.2-2.9-0.2-4.3-0.6c-0.4-0.1-0.6,0.4-0.4,0.7
				c2.2,4,3.9,8.4,5,12.8c0.3,1.3,0.6,2.6,0.8,3.9l0.4-0.5c-1.5,0-3-0.1-4.4-0.2c-0.7,0-1.4-0.1-2.1-0.2c-0.6-0.1-1.1-0.5-1.5-1
				c-1.7-2.4-3.4-4.9-5-7.4c-1-1.4-1.9-2.8-2.9-4.3c-0.1-0.2-0.4-0.2-0.6-0.1c-0.1,0.1-0.2,0.2-0.2,0.3l-0.7,6.4l-0.3,3.2l-0.2,1.6
				c0,0.4,0,0.9-0.2,1.3c-0.2,0.5-1.5,0.3-1.9,0.3l-3,0l-2.1,0l0.3,0.8c0.3-0.1,0.4-0.4,0.4-0.7c0.1-0.6,0.2-1.1,0.3-1.7
				c0.2-1,0.3-2,0.4-3c0.3-2.1,0.5-4.2,0.6-6.3c0.3-4.2,0.2-8.4,0-12.6c-0.1-2.1-0.3-4.2-0.6-6.3c-0.1-1-0.3-2.1-0.4-3.1
				c-0.1-0.4-0.2-0.8,0.3-0.9c0.5-0.1,1-0.1,1.6,0c4.3,0,8.5,0.3,12.8,0.8c2,0.3,4.1,0.6,6,1.4c0.9,0.4,1.8,1,2.5,1.7
				c0.8,0.8,1.4,1.6,1.9,2.6C111.1,113.4,111.8,112.9,111.5,112.4z"/>
			<path class="st11" d="M103.5,119.6c-0.9,0.6-2,0.6-3,0.8s-2.2,0.4-3.2,0.1c-1.3-0.4-1.5-2.1-1.5-3.3c0-0.4,0-0.7-0.1-1.1
				c-0.1-0.2-0.1-0.3-0.2-0.5c0-0.2,0-0.4,0.1-0.6c0.4-0.9,1.3-0.9,2.2-0.9c1.1,0,2.3,0.1,3.4,0.2c0.9,0.1,1.9,0.3,2.6,1
				C104.9,116.5,104.8,118.6,103.5,119.6c-0.4,0.3,0.1,1.1,0.5,0.7c1.5-1.2,1.9-3.2,1-4.9c-1.2-2.1-4.1-2.1-6.1-2.2
				c-0.7,0-1.4,0-2.1,0c-1,0-1.9,0.8-2.1,1.8c0,0.2-0.1,0.4,0,0.7c0.1,0.2,0.1,0.5,0.2,0.7c0-0.1,0,0.2,0,0.2c0,0.1,0,0.2,0,0.3
				c0,0.2,0,0.4,0,0.7c0,0.4,0.1,0.9,0.2,1.3c0.1,0.8,0.6,1.5,1.2,2c1.1,0.7,2.4,0.6,3.6,0.4c1.4-0.2,2.9-0.2,4.1-1
				c0.2-0.2,0.2-0.4,0-0.6C103.9,119.5,103.6,119.5,103.5,119.6z"/>
			<path class="st11" d="M115.9,109.1c0.9,9.1,1.3,18.3,1.3,27.4c0,1.1,0,2.3,0.8,3c0.5,0.4,1.1,0.6,1.7,0.7c4.4,1.1,9,1.2,13.4,0.4
				c1.8-0.3,3.6-0.8,5-2c2.6-2.3,2.7-6.3,2.5-9.8l-0.8-18.9c0-0.3-0.1-0.6-0.2-0.8c-0.3-0.3-0.7-0.3-1.1-0.2l-5.2,0.5
				c0.9,5.5,0.8,11.2-0.4,16.7c-0.2,1.1-0.8,2.4-1.9,2.6c-1.2,0.2-2.1-1-2.6-2.1c-1-2.5-1.2-5.2-1.3-7.8c-0.1-2.4-0.2-4.9-0.2-7.3
				c0-0.2,0-0.4-0.2-0.6c-0.1-0.1-0.2-0.1-0.4-0.2l-10.2-2.2"/>
			<path class="st11" d="M115.5,109.3c0.6,6.3,1,12.7,1.2,19.2c0,1.6,0.1,3.2,0.1,4.8c0,0.8,0,1.6,0,2.5c0,0.7,0,1.4,0,2
				c0,0.6,0.2,1.2,0.6,1.7c0.4,0.5,0.9,0.9,1.5,1c1.4,0.4,2.8,0.7,4.3,0.9c3,0.4,6.1,0.4,9.1-0.1c2.6-0.4,5.3-1,7-3.2
				c1.4-1.9,1.8-4.3,1.8-6.5c0-1.3,0-2.6-0.1-3.9l-0.2-4.9l-0.4-9.8l-0.1-2.4c0-0.6,0-1.4-0.5-1.9c-0.5-0.4-1.8-0.5-1.8-0.5
				l-2.3,0.5l-2.6,0.2c-0.2,0-0.4,0.2-0.4,0.5c0.8,4.9,0.8,9.9-0.2,14.8c-0.1,0.7-0.3,1.4-0.5,2.1c-0.2,0.5-0.4,1.1-0.9,1.3
				c-1.2,0.6-2.1-1-2.4-1.8c-0.6-1.5-0.9-3.2-1-4.8c-0.2-1.7-0.2-3.4-0.2-5c0-0.8,0-1.7-0.1-2.5c0-0.4,0-0.8,0-1.3
				c0-0.4,0-0.8-0.1-1.3c-0.1-0.3-0.4-0.6-0.7-0.7c-0.5-0.1-0.9-0.2-1.4-0.3l-2.8-0.6l-5.8-1.2c-0.5-0.1-0.7,0.7-0.2,0.8l5.3,1.1
				l2.7,0.6l1.2,0.3l0.6,0.1c0.3,0.1,0.2,0.1,0.3,0.4c0.1,3.5,0,7,0.4,10.5c0.2,1.6,0.5,3.3,1.2,4.7c0.5,1,1.5,2.2,2.8,1.9
				c1.3-0.3,1.8-1.6,2.1-2.7c0.4-1.6,0.7-3.3,0.8-5c0.4-3.8,0.3-7.6-0.4-11.4l-0.4,0.5l4.6-0.4c0.4,0,1.3-0.3,1.4,0.3
				c0.1,0.7,0.1,1.5,0.1,2.2l0.4,9c0.1,2.9,0.3,5.8,0.4,8.7c0,2.1,0,4.4-1,6.3c-0.5,1-1.2,1.8-2.1,2.4c-1.1,0.6-2.3,1.1-3.5,1.3
				c-2.8,0.5-5.6,0.7-8.4,0.5c-1.4-0.1-2.8-0.3-4.2-0.6c-0.7-0.1-1.3-0.3-1.9-0.5c-0.5-0.3-0.9-0.7-1-1.3c-0.1-0.6-0.2-1.2-0.1-1.8
				c0-0.7,0-1.5,0-2.2c0-1.5,0-3,0-4.5c-0.1-6-0.4-11.9-1-17.9c-0.1-0.7-0.1-1.5-0.2-2.2c0-0.5-0.9-0.5-0.9,0.1L115.5,109.3z"/>
			<path class="st11" d="M163.2,107.8c-3.4-0.4-6.9-0.5-10.4-0.3c-2.2,0.2-4.4,0.5-6.2,1.6c-0.7,0.3-1.2,0.9-1.6,1.5
				c-0.2,0.6-0.4,1.3-0.4,1.9c-0.1,2.1,0,4.4,1.5,5.8c2.1,1.9,6.1,1.2,7.4,3.7c0.6,1.2,0.4,2.7-0.4,3.9s-1.8,2-2.9,2.8
				c-2.3,1.9-4.6,3.8-6.8,5.8c-0.4,0.2-0.5,0.6-0.4,1c0,0.1,0.1,0.2,0.2,0.3l2.3,2.8c0.3,0.4,0.6,0.7,1,0.9c0.8,0.3,1.6-0.2,2.3-0.6
				c2.3-1.4,4.5-2.9,6.5-4.8c1.9-1.9,3.5-4.2,4.1-6.8c0.4-1.7,0.3-3.4,0.2-5.1c-0.1-1.6-0.4-3.4-1.7-4.4c-0.8-0.6-1.8-0.8-2.7-1.3
				c-0.9-0.5-1.7-1.4-1.5-2.3c0.2-0.9,1.1-1.4,2-1.6c2.1-0.6,4.4-0.3,6.3,0.7c0.6-1.6,1-3.3,1.2-5.1"/>
			<path class="st11" d="M163.2,107.4c-4-0.5-8-0.6-12-0.1c-1.8,0.2-3.7,0.7-5.2,1.7c-0.7,0.4-1.2,1-1.6,1.7
				c-0.3,0.8-0.3,1.6-0.4,2.5c0,1.6,0,3.2,0.8,4.6c0.7,1.2,1.8,1.9,3.1,2.3c1.2,0.4,2.5,0.6,3.6,1.1c1.3,0.6,2,1.7,1.8,3.1
				c-0.3,1.8-1.7,3-3,4.1c-1.5,1.2-3,2.5-4.5,3.7c-0.8,0.7-1.5,1.3-2.3,2c-0.3,0.2-0.6,0.5-0.8,0.9c-0.1,0.4-0.1,0.8,0.2,1.1
				c0.6,0.8,1.3,1.5,1.9,2.3c0.5,0.6,1,1.4,1.8,1.6c0.8,0.2,1.7-0.2,2.5-0.7c0.8-0.5,1.6-1,2.4-1.5c1.5-1,3-2.1,4.3-3.4
				c1.2-1.2,2.3-2.5,3.1-4c0.8-1.6,1.3-3.3,1.4-5c0-1,0-1.9,0-2.9c0-0.8-0.2-1.6-0.4-2.4c-0.2-0.7-0.5-1.4-1-2c-0.6-0.6-1.3-1-2-1.3
				c-0.8-0.3-1.6-0.6-2.1-1.2c-0.5-0.6-0.5-1.4,0.2-1.9c0.6-0.4,1.4-0.7,2.2-0.7c0.9-0.1,1.7-0.1,2.6,0.1c0.9,0.2,1.7,0.4,2.4,0.9
				c0.2,0.1,0.5,0,0.6-0.2c0.6-1.7,1-3.4,1.3-5.2c0.1-0.6-0.8-0.7-0.9-0.2c-0.2,1.7-0.6,3.3-1.2,4.9l0.6-0.2c-1.5-0.8-3.3-1.2-5-1
				c-1.3,0.1-3.2,0.5-3.8,1.8c-0.7,1.6,0.9,2.9,2.2,3.5c0.7,0.3,1.6,0.5,2.2,1.1c0.5,0.5,0.9,1.2,1,1.9c0.2,0.8,0.3,1.6,0.3,2.3
				c0.1,0.9,0.1,1.8,0,2.8c-0.1,1.7-0.6,3.4-1.5,5c-1.8,3.1-4.6,5.2-7.5,7.1c-0.7,0.5-1.4,1-2.2,1.4c-0.4,0.2-0.8,0.3-1.2,0.3
				c-0.4-0.1-0.7-0.4-0.9-0.8c-0.6-0.8-1.3-1.6-1.9-2.3c-0.1-0.2-0.3-0.3-0.4-0.5s-0.2-0.2,0-0.4c0.3-0.3,0.7-0.7,1-0.9
				c1.5-1.3,2.9-2.6,4.5-3.8c1.3-1.1,2.8-2.1,3.9-3.5c1-1.3,1.6-3,1-4.6c-0.5-1.1-1.5-1.9-2.6-2.3c-1.1-0.4-2.4-0.6-3.5-1
				c-1.3-0.5-2.2-1.3-2.7-2.7c-0.2-0.7-0.3-1.5-0.3-2.3c0-0.8,0-1.5,0.1-2.3c0.3-1.8,2.2-2.6,3.7-3.1c1.7-0.5,3.6-0.7,5.4-0.8
				c2-0.1,4-0.1,6,0.1c1,0.1,1.9,0.2,2.8,0.3C163.6,108.3,163.8,107.5,163.2,107.4L163.2,107.4z"/>
			<path class="st11" d="M165.8,107.7c1.6,10.6,2.3,21.4,2.1,32.2l3-0.5c0.3,0,0.5-0.1,0.7-0.3c0.2-0.3,0.4-0.6,0.3-1l0.5-5.2
				c0-0.5,0.1-1,0.5-1.3c0.2-0.1,0.5-0.2,0.7-0.2l4.1-0.4l1.1,7.1l5-1.1c0.3,0,0.7-0.2,0.9-0.5c0.1-0.2,0.2-0.5,0.2-0.8
				c0.1-2.5-0.2-5.1-0.5-7.6l-2.7-22c-1.2-0.1-2.5,0.1-3.6,0.5c-0.3,0.1-0.5,0.2-0.7,0.4c-0.2,0.3-0.2,0.7-0.1,1.1l1.2,7
				c0.1,0.3,0.1,0.7-0.1,1c-0.1,0.1-0.3,0.3-0.5,0.3c-1.6,0.8-3.3,1.2-5.1,1.2l0-8.2c0-0.4,0-0.9-0.4-1.2c-0.2-0.1-0.5-0.2-0.8-0.2
				l-5.3-0.7"/>
			<path class="st11" d="M165.6,108.4c1.2,8.2,1.9,16.4,2.1,24.6c0,2.3,0,4.6,0,6.9c0,0.2,0.2,0.4,0.5,0.4l2.2-0.4
				c0.6-0.1,1.3-0.1,1.7-0.5c0.4-0.4,0.4-1,0.5-1.6l0.2-2.2l0.2-2.2c0-0.5,0-1.2,0.6-1.3c0.7-0.1,1.4-0.2,2.1-0.2l2.2-0.2l-0.5-0.4
				l1,7c0,0.2,0.2,0.4,0.5,0.4c0,0,0.1,0,0.1,0l3.6-0.8c0.6-0.1,1.1-0.2,1.7-0.4c0.4-0.1,0.8-0.4,0.9-0.9c0.1-0.5,0.2-1.1,0.1-1.7
				c0-0.6,0-1.2-0.1-1.8c-0.1-1.2-0.2-2.4-0.3-3.6c-0.6-4.8-1.2-9.7-1.8-14.5l-1-8.2c0-0.2-0.2-0.4-0.3-0.4
				c-1.3-0.1-2.6,0.1-3.8,0.5c-0.5,0.2-0.9,0.5-1.1,1c-0.1,0.6,0.1,1.2,0.2,1.7l0.7,4c0.1,0.7,0.2,1.3,0.3,2c0,0.2,0.1,0.5-0.1,0.7
				c-0.2,0.2-0.6,0.3-0.8,0.4c-1.4,0.6-2.8,0.8-4.3,0.9l0.5,0.4l0-4.3c0-1.3,0-2.7,0-4c0-0.5-0.2-1.1-0.7-1.4
				c-0.5-0.3-1.2-0.3-1.7-0.3l-4.2-0.5c-0.5-0.1-0.7,0.8-0.2,0.8l3.8,0.5l1,0.1c0.3,0,0.5,0.1,0.8,0.1c0.5,0.2,0.4,1,0.4,1.4l0,7.7
				c0,0.2,0.2,0.4,0.5,0.4c1.3,0,2.5-0.2,3.7-0.6c0.6-0.2,1.2-0.4,1.7-0.7c0.4-0.3,0.7-0.8,0.6-1.3c-0.1-0.6-0.2-1.3-0.3-1.9l-0.3-2
				l-0.3-1.9l-0.2-1c-0.1-0.3-0.1-0.6-0.1-0.9c0-0.3,0.3-0.4,0.5-0.5c0.2-0.1,0.3-0.1,0.5-0.2c0.9-0.2,1.9-0.3,2.8-0.3l-0.3-0.4
				l1.8,14l0.9,6.9c0.3,2.3,0.6,4.6,0.6,6.9c0,0.3,0,0.6,0,0.8c0,0.3,0,0.6-0.2,0.8c-0.2,0.1-0.4,0.2-0.6,0.2
				c-0.3,0.1-0.6,0.1-1,0.2l-3.9,0.9l0.6,0.4l-1-7c0-0.2-0.2-0.4-0.5-0.4l-2.2,0.2c-0.7,0.1-1.4,0.1-2.1,0.2
				c-1.4,0.2-1.4,1.7-1.5,2.8c-0.1,1.4-0.2,2.8-0.4,4.2c0,0.3-0.1,0.5-0.4,0.6c-0.3,0.1-0.6,0.1-0.9,0.2l-2.2,0.4l0.5,0.4
				c0.2-8.2-0.2-16.5-1.2-24.7c-0.3-2.3-0.6-4.6-0.9-6.9C166.4,107.7,165.5,107.8,165.6,108.4L165.6,108.4z"/>
		</g>
	</g>
</g>
<g id="Capa_9" class="st12">
	<ellipse class="st13" cx="121" cy="98.5" rx="85" ry="97.5"/>
</g>
<g id="Capa_10" class="st12">
	<ellipse class="st14" cx="121" cy="98.5" rx="85" ry="97.5"/>
</g>
<g id="Capa_11" class="st12">
	<ellipse class="st15" cx="121" cy="98.5" rx="85" ry="97.5"/>
</g>
<g id="Capa_12" class="st12">
	<ellipse class="st16" cx="121" cy="98.5" rx="85" ry="97.5"/>
</g>
<g id="Capa_2" class="st12">
	<rect x="32" y="25" class="st17" width="177" height="168.8"/>
	<text transform="matrix(1 0 0 1 42.5459 134.2725)" class="st18 st19 st20">x2</text>
</g>
<g id="Capa_5" class="st12">
	<g class="st21">
		<path class="st22" d="M136.1,34.1c0-2,1.5-3.4,3.4-4.1h12.2c14.8,0.7,26.7,12.7,26.4,27.4v17.3l4.8-4.5c1.3-1.3,3.4-1.3,4.9,0
			c1.3,1.3,1.3,3.4,0,4.9l-10.2,10.2c-0.7,0.7-1.5,1.1-2.4,1.1s-1.7-0.4-2.4-1.1l-10.2-10.2c-1.3-1.3-1.3-3.4,0-4.9
			c1.3-1.3,3.4-1.3,4.9,0l3.6,4.5V57.4c0.8-10.9-8.1-19.9-19-20.4h-12.2C137.5,37.5,136.1,36,136.1,34.1z M52.2,95.1V34.8
			c0-2,1.6-3.4,3.4-3.4h60.3c2,0,3.4,1.6,3.4,3.4v60.3c0,2-1.6,3.4-3.4,3.4H55.6C53.6,98.6,52.2,97.1,52.2,95.1z M111.5,91.5h0.8
			V38.4h-0.8V91.5z M73.4,125.8c0.7,0.7,1.6,1.2,2.4,1.2s1.7-0.4,2.4-1.2c1.3-1.3,1.3-3.5,0-5.1l-10.4-10.6
			c-0.7-0.7-1.6-1.2-2.4-1.2c-0.9,0-1.7,0.4-2.4,1.2l-10.6,10.6c-1.3,1.3-1.3,3.5,0,5.1c1.3,1.3,3.4,1.3,5,0l4.6-4.7v18.1
			c0,15.4,12.3,27.8,27.2,27.8h12.4c2,0,3.4-1.6,3.4-3.5c0-2-1.6-3.5-3.4-3.5H88.8c-10.9,0-19.9-8.9-19.9-19.9v-19L73.4,125.8z
			 M122.1,163.6v-60.3c0-2,1.6-3.4,3.4-3.4h60.3c2,0,3.4,1.6,3.4,3.4v60.3c0,2-1.6,3.4-3.4,3.4h-60.2
			C123.7,167,122.1,165.4,122.1,163.6z M129.1,160h53.1v-53.1h-53.1V160z"/>
	</g>
</g>
<g id="Capa_6" class="st12">
	<g id="Capa_7" class="st21">
		<g>
			<g>
				<path class="st23" d="M48,102.5c-0.4,1-0.8,2.1-1.1,3.2c-0.3,1.1-0.8,2.5-0.2,3.5c0.6,0.8,1.7,1,2.5,0.5c0.5-0.3,1-0.7,1.4-1.1
					c0.9-0.7,1.7-1.4,2.5-2.3c-0.8-0.6-1.6-1.2-2.4-1.8c-1,2.2-2.1,4.4-3.1,6.6c0.9,0.4,1.8,0.8,2.7,1.2c0.4-1.4,0.8-2.7,1.4-3.9
					c0.3-0.7,0.2-1.7-0.5-2.1c-0.7-0.4-1.7-0.2-2.1,0.5c-0.7,1.5-1.3,3-1.7,4.6c-0.2,0.7,0.2,1.5,0.9,1.8c0.6,0.3,1.6,0.1,1.9-0.6
					c1-2.2,2.1-4.4,3.1-6.6c0.3-0.7,0.2-1.5-0.4-1.9c-0.6-0.4-1.5-0.4-2,0.1c-0.5,0.6-1.1,1.1-1.7,1.6c-0.2,0.2-0.6,0.5-0.8,0.7
					c0,0-0.3,0.2-0.4,0.3c-0.1,0.1-0.2,0.1-0.3,0.2c-0.2,0.1-0.2,0.1,0,0c0.3,0,0.5,0,0.8,0c0,0,0.1,0,0.1,0.1
					c0.2,0.2,0.4,0.4,0.5,0.5c0.1,0.1,0.1,0.3,0.1,0.4c0,0.2,0,0.2,0,0c0.1-0.2,0.1-0.5,0.2-0.7c0.1-0.5,0.2-0.9,0.4-1.4
					c0.3-0.9,0.6-1.8,0.9-2.7c0.3-0.7-0.3-1.7-1-1.8C49,101.2,48.3,101.7,48,102.5L48,102.5z"/>
			</g>
		</g>
		<g>
			<g>
				<path class="st23" d="M46.7,109.4c-0.3,0.4-0.5,0.9-0.6,1.4c-0.1,0.3-0.1,0.6-0.1,0.9c0,0.3,0,0.6,0.1,1
					c0.1,0.1,0.1,0.2,0.2,0.4c0.1,0.1,0.2,0.2,0.2,0.3c0.2,0.2,0.5,0.4,0.9,0.4c0.1,0,0.3,0,0.4,0c0.1,0,0.3,0,0.4-0.1
					c0.3-0.1,0.6-0.3,0.7-0.6c0.4-0.9,0.9-1.8,1.3-2.7c0.1-0.2,0.2-0.4,0.2-0.6c0-0.2,0-0.4,0-0.6c-0.1-0.3-0.4-0.7-0.7-0.9
					c-0.3-0.2-0.8-0.3-1.2-0.2c-0.4,0.1-0.7,0.3-0.9,0.7c-0.4,0.9-0.9,1.8-1.3,2.7c0.9,0.1,1.8,0.2,2.7,0.4c0,0,0,0,0,0
					c0,0.1,0,0.3,0.1,0.4c0-0.3,0-0.6,0-0.9c0,0.1,0,0.3-0.1,0.4c0-0.3,0.1-0.6,0.2-0.9c-0.1,0.1-0.1,0.2-0.2,0.4
					c0.1-0.1,0.1-0.3,0.2-0.4c0.2-0.3,0.3-0.8,0.2-1.2c-0.1-0.3-0.4-0.7-0.7-0.9c-0.3-0.2-0.8-0.3-1.2-0.2
					C47.2,108.8,46.9,109.1,46.7,109.4L46.7,109.4z"/>
			</g>
		</g>
		<g>
			<g>
				<path class="st23" d="M48.9,106.3c-0.1,0.4-0.1,0.8-0.1,1.2c0,0.4,0.1,0.7,0.2,1.1c0.2,0.7,0.6,1.3,1.1,1.9
					c0.9,1,2.3,1.7,3.7,1.6c0.4,0,0.8-0.2,1.1-0.4c0.3-0.3,0.5-0.7,0.4-1.1c0-0.8-0.7-1.5-1.5-1.5c-0.2,0-0.3,0-0.5,0
					c0.1,0,0.3,0,0.4,0.1c-0.3,0-0.6-0.1-0.8-0.2c0.1,0.1,0.2,0.1,0.4,0.2c-0.3-0.1-0.5-0.3-0.8-0.5c0.1,0.1,0.2,0.2,0.3,0.2
					c-0.3-0.2-0.5-0.4-0.7-0.7c0.1,0.1,0.2,0.2,0.2,0.3c-0.2-0.2-0.3-0.5-0.5-0.8c0.1,0.1,0.1,0.2,0.2,0.4c-0.1-0.3-0.2-0.6-0.2-0.9
					c0,0.1,0,0.3,0.1,0.4c0-0.3,0-0.5,0-0.8c0,0.1,0,0.3-0.1,0.4c0,0,0,0,0-0.1c0.1-0.4,0.1-0.8-0.2-1.2c-0.2-0.3-0.5-0.6-0.9-0.7
					c-0.4-0.1-0.8-0.1-1.2,0.2C49.3,105.6,49,105.9,48.9,106.3L48.9,106.3z"/>
			</g>
		</g>
		<g>
			<g>
				<path class="st23" d="M53.3,107.9c4.8-5.6,5.2-12.1,7.8-18.7c2.7-6.9,8.8-11.4,14.9-15c6.3-3.8,12.7-8.4,19.4-11.6
					c7-3.3,16.4-4.1,24.1-4.7c7.7-0.6,15.6-0.4,22.8,2.4c7,2.8,13.3,7.5,20.1,10.9c6.8,3.4,10.3,9.2,14.1,15.5
					c4.3,7.2,8.1,14.7,11.3,22.4c2.4,5.9,12.1,3.3,9.6-2.7c-3.5-8.6-7.6-16.9-12.3-24.8c-4-6.6-8.1-13.6-14.9-17.7
					c-3.7-2.2-7.8-3.7-11.5-5.9c-3.6-2.2-7.1-4.5-10.9-6.2c-7.8-3.5-16.3-4.5-24.8-4.1c-8.7,0.4-17.9,1.5-26.3,3.9
					c-8.2,2.3-15.3,8-22.7,12.3c-6.8,3.9-13.6,8.3-18.3,14.8c-2.4,3.3-4,6.9-5.1,10.8c-1.1,3.9-1.6,8.2-4.3,11.4
					C42.1,105.7,49.1,112.8,53.3,107.9L53.3,107.9z"/>
			</g>
		</g>
		<g>
			<g>
				<path class="st24" d="M66.9,100.1c2.2-1.3,4.3-3,6.1-4.7c1.9-1.8,2-5.3,0-7.1c-2-1.9-5.1-2-7.1,0c-0.3,0.3-0.7,0.7-1,1
					c-0.2,0.2-0.4,0.3-0.5,0.5c-0.1,0.1-0.9,0.7-0.3,0.3c0.6-0.4-0.1,0.1-0.2,0.2c-0.2,0.1-0.4,0.3-0.6,0.4
					c-0.4,0.3-0.9,0.6-1.4,0.9c-2.2,1.4-3.3,4.5-1.8,6.8C61.5,100.5,64.5,101.6,66.9,100.1L66.9,100.1z"/>
			</g>
		</g>
		<g>
			<g>
				<path class="st24" d="M67.8,101c0.1-0.2,0.2-0.4,0.3-0.7c0.4-0.6,0.6-1.2,0.6-1.9c0.1-0.7,0.1-1.3-0.1-2
					c-0.2-0.7-0.5-1.2-0.9-1.7c-0.4-0.5-0.8-1-1.4-1.3c-0.4-0.2-0.8-0.3-1.2-0.5c-0.9-0.2-1.8-0.2-2.7,0c-0.4,0.2-0.8,0.3-1.2,0.5
					c-0.8,0.4-1.3,1-1.8,1.8c-0.1,0.2-0.2,0.4-0.3,0.7c-0.4,0.6-0.6,1.2-0.6,1.9c-0.1,0.7-0.1,1.3,0.1,2c0.2,0.7,0.5,1.2,0.9,1.7
					c0.4,0.5,0.8,1,1.4,1.3c0.4,0.2,0.8,0.3,1.2,0.5c0.9,0.2,1.8,0.2,2.7,0c0.4-0.2,0.8-0.3,1.2-0.5C66.8,102.4,67.4,101.8,67.8,101
					L67.8,101z"/>
			</g>
		</g>
		<g>
			<g>
				<path class="st24" d="M64.2,102.3c6.4,0,6.4-10,0-10C57.7,92.3,57.7,102.3,64.2,102.3L64.2,102.3z"/>
			</g>
		</g>
		<g>
			<g>
				<path class="st24" d="M59.1,95c0,0.1-0.1,0.1-0.1,0.2c0.3-0.3,0.5-0.7,0.8-1c-0.2,0.2-0.3,0.4-0.5,0.5c0.3-0.3,0.7-0.5,1-0.8
					c-0.2,0.2-0.5,0.3-0.7,0.4c0.4-0.2,0.8-0.3,1.2-0.5c-0.1,0-0.2,0.1-0.3,0.1c-1.2,0.4-2.3,1.2-3,2.3c-0.4,0.6-0.6,1.2-0.6,1.9
					c-0.1,0.7-0.1,1.3,0.1,2c0.4,1.2,1.1,2.4,2.3,3c1.2,0.6,2.6,0.9,3.9,0.5c0.7-0.2,1.5-0.5,2.2-1c0.4-0.3,1-0.7,1.4-1.1
					c0.4-0.4,0.8-0.9,1.1-1.4c0.4-0.6,0.6-1.2,0.6-1.9c0.1-0.7,0.1-1.3-0.1-2c-0.2-0.7-0.5-1.2-0.9-1.7c-0.4-0.5-0.8-1-1.4-1.3
					c-1.2-0.6-2.6-0.9-3.9-0.5c-0.4,0.2-0.8,0.3-1.2,0.5C60.2,93.6,59.6,94.2,59.1,95L59.1,95z"/>
			</g>
		</g>
		<g>
			<g>
				<path class="st24" d="M68.9,98.4c1.8-4.8,4.2-11.7,9-14.2c4.5-2.4,9.5-3.9,13.9-6.5c5.4-3.2,10.2-6.2,16.5-6.9
					c5.9-0.7,11.9-1.1,17.8-1.4c5.6-0.2,12-0.6,17.4,0.9c4.7,1.3,8.4,6.2,12.5,8.9c10.1,6.6,15.9,18.2,22.7,28.1
					c3.6,5.3,12.3,0.3,8.6-5c-4.4-6.4-8.7-12.8-13.1-19.2c-3.9-5.6-8.2-9.1-13.8-12.9c-5.1-3.5-8.7-8.1-14.9-9.6
					c-6.9-1.6-14.3-1.4-21.3-1c-6.8,0.4-13.8,0.7-20.6,1.9c-6.9,1.3-12.3,5.1-18.3,8.5c-5.4,3-12.5,4.4-16.9,8.9
					c-4.4,4.5-7,11.2-9.2,17C57,101.8,66.7,104.4,68.9,98.4L68.9,98.4z"/>
			</g>
		</g>
		<g>
			<g>
				<path class="st25" d="M79.8,101.9c8.3-12.8,24.1-22.7,39.6-23.4c7.9-0.4,17.3,1.1,24.7,4.1c7.5,3.1,13.6,12,18.4,18.2
					c3.9,5.1,11-2,7.1-7.1c-5.7-7.4-12.4-16.4-21.2-20.2c-9.1-3.9-21-5.9-30.8-5C99,70.3,81.2,81.4,71.1,96.8
					C67.6,102.2,76.3,107.3,79.8,101.9L79.8,101.9z"/>
			</g>
		</g>
		<g>
			<g>
				<path class="st26" d="M86.3,107.9c10.5-8.1,21.1-18.5,34.9-20.1c7.1-0.8,12.7,2.1,19,5.1c6.2,2.9,9,7,12,13
					c2.9,5.8,11.5,0.7,8.6-5c-3.8-7.5-7.9-12.9-15.6-16.6c-7.2-3.4-14.1-7.1-22.3-6.6c-17.7,1-30.3,12.8-43.7,23.1
					C74.2,104.7,81.3,111.8,86.3,107.9L86.3,107.9z"/>
			</g>
		</g>
		<g>
			<g>
				<path class="st27" d="M98.8,111.3c1.2-1.8,2.4-4.4,4.1-5.9c1.7-1.5,4.5-2.2,6.6-2.9c4.3-1.4,8.6-2.3,13.1-2.5
					c4.8-0.2,9.4,0.2,13.4,3.2c3.7,2.8,6.9,6.4,10.1,9.8c4.5,4.7,11.5-2.4,7.1-7.1c-4.2-4.4-8.6-9.4-13.9-12.6
					c-5.4-3.2-12.2-3.7-18.3-3.2c-6.2,0.5-12.3,1.9-18.1,4.3c-6.2,2.5-9,6.4-12.6,11.8C86.6,111.6,95.2,116.6,98.8,111.3L98.8,111.3
					z"/>
			</g>
		</g>
		<g>
			<g>
				<path class="st23" d="M48.7,114c6.4,0,6.4-10,0-10C42.2,104,42.2,114,48.7,114L48.7,114z"/>
			</g>
		</g>
		<g>
			<g>
				<path class="st28" d="M64,116.3c6.4,0,6.4-10,0-10C57.6,106.3,57.6,116.3,64,116.3L64,116.3z"/>
			</g>
		</g>
		<g>
			<g>
				<path class="st28" d="M64.2,105.3c-5.1-0.1-8.2,5.7-9.3,10c-0.7,2.5,0.8,5.5,3.5,6.2c2.6,0.6,5.4-0.8,6.2-3.5
					c0.1-0.5,0.3-1,0.5-1.6c-0.4,1.1,0.2-0.4,0.4-0.6c0.1-0.2,1.1-1.6,0.4-0.7c0.2-0.2,0.3-0.4,0.5-0.6c-0.6,0.5-1.2,0.7-2,0.8
					c2.6,0,5.1-2.3,5-5C69.1,107.6,67,105.3,64.2,105.3L64.2,105.3z"/>
			</g>
		</g>
		<g>
			<g>
				<path class="st28" d="M70.5,112.5c0.1-0.2,0.2-0.5,0.4-0.7c-1,0.8-2,1.5-3,2.3c-2.3-0.8-2.8-0.5-1.2,0.8c0.3,0.3,0.7,0.5,1,0.8
					c0.5,0.4,1,0.7,1.5,1c1,0.6,0.8,0.3-0.4-1.1c0,2.5,1.3,4.9,3.6,6c4,2,12.8,1.5,16.2-1.6c1.7-1.5,1.7-4.1,0.8-6.1
					c0-0.1-0.1-0.1-0.1-0.2c-2.6,2-5.2,4-7.9,6.1c2.7,2.9,4.4,6.2,4.7,10.1c1.2-1.6,2.4-3.2,3.7-4.8c-6.5,1.8-13.8,1-20.4,1
					c-3.5,0-7,0-10.5,0c-1.7,0-3.5,0.1-5.2,0c-1.7-0.1-2.4-0.9-3,0.7c-0.9,2.2,2.6,0.1,3.9,0.3c0.5-0.8,1-0.6,1.3,0.6
					c0.3,0.3,0.7,0.5,1,0.8c2.1,1.4,5.1,1.2,7.5,1.1c4.5-0.2,11.9-0.1,13.4-5.6c2.7-9.7-20.8-14-18.4-2.4c1,5,6.6,6.5,10.9,6.2
					c1.8-0.1,3.4-0.7,5.2-0.2c1.5,0.4,2.4,1.1,4,1.3c2.6,0.3,4.5-0.5,6.3-2.3c4.7-4.5-2.4-11.5-7.1-7.1c1.2-1.1,2.9-0.4-0.2-1.5
					c-1.1-0.4-2.3-0.7-3.5-0.7c-1.4-0.1-6.6-0.1-6,1.6c-0.2,1.3-0.3,2.6-0.5,3.9c0.1-0.2,0.2-0.5,0.4-0.7c-1.4,0.8-2.9,1.7-4.3,2.5
					c0.9-0.1,1.8,0,2.7,0.4c1.6,0.8,2,0.9,1.4,0.2c0-1.7,0-3.4,0-5c-0.2,0.3-0.4,0.5-0.6,0.8c1-0.8,2-1.5,3-2.3
					c-2.1,0.7-4.4,0.8-6.7,0.9c-1.2,0-2.3,0-3.5,0c2.4,1.6,2.8,1.6,1.4,0.1c-2.7-2.6-7.3-2.8-10.8-2.3c-6.6,0.9-14.5,7.1-9.2,14.2
					c4.9,6.4,15.3,4.6,22.2,4.6c9.1,0,19,1.1,27.8-1.3c2-0.5,3.9-2.7,3.7-4.8c-0.6-6.7-3-12.3-7.7-17.2c-4.1-4.3-10.3,1.1-7.9,6.1
					c0,0.1,0.1,0.1,0.1,0.2c0.3-2,0.5-4,0.8-6.1c0.7-0.7-4.6-0.3-4.8-0.5c0.8,1,1.5,2,2.3,3c-0.5-2.2-0.5-3.9-2.2-5.7
					c-1.3-1.4-3.3-2.8-4.8-4c-3.2-2.6-8.1-2.1-10,1.7C59,113.2,67.6,118.3,70.5,112.5L70.5,112.5z"/>
			</g>
		</g>
		<g>
			<g>
				<path class="st28" d="M153.5,115.1c-6,2.5-15.5,9.2-9.8,16.5c5.1,6.5,15.4,5.5,22.6,4.9c8.7-0.8,18.1,1,26.7-0.9
					c6.5-1.4,11.6-8.1,6.7-14.2c-1-1.2-2.2-2.1-3.5-2.8c-0.8-0.4-1.6-0.8-2.3-1.2c-0.6-0.3-0.8-0.9-0.6-1.7c-2.1-3.3-4-4.5-8-4.1
					c-1,0.1-3.9,1.1-4.6,0.7c-1.2-0.6-1.6-3.4-2.2-4.3c-1.9-2.9-5.4-4.2-8.8-4.2c-7.3,0.1-12.8,6.7-11.9,13.8
					c1.2,9.1,10.1,7.4,16.2,4c3-1.7,3.5-7.1,0-8.6c-6.7-2.9-14.9,2.7-20.2,6.7c-4,3.1-2.6,8.7,2.5,9.3c9.8,1.1,19.6-1.2,29.4-0.2
					c6.4,0.6,6.4-9.4,0-10c-9.8-0.9-19.6,1.3-29.4,0.2c0.8,3.1,1.7,6.2,2.5,9.3c3.8-2.9,8.2-5.7,12.9-6.6c-1.3-0.2-2.6-0.3-3.9-0.5
					c0.3,0.1,0.7,0.3,1,0.4c0-2.9,0-5.8,0-8.6c-0.8,0.4-3.1,1.8-4.1,1.6c1,0.8,2,1.5,3,2.3c-0.7-1-0.2-2.3,0.9-2.7
					c1.5-0.6,1.1,0,2,1c1.6,1.9,2.3,4,4.4,5.6c4.1,3.2,8.1,0.4,12.7,0.7c-1.2-0.5-2.4-1-3.5-1.5c0.2,0.2,0.5,0.4,0.7,0.5
					c-0.5-1.2-1-2.4-1.5-3.5c0.2,4.1,1.9,6.9,5.4,9c0.6,0.3,1.2,0.6,1.7,0.9c0.6,0.5,0.8,0.4,0.8-0.5c1.6-1.3-4-0.2-3.2-0.3
					c-2.7,0.2-5.4,0-8-0.1c-5.6-0.3-11,0.2-16.6,0.6c-2.9,0.2-6,0.5-8.8-0.1c-1.2-0.3-2.2-0.7-3.3-1.2c0.6,1.5,1.4,1.8,2.2,0.8
					c0.8-0.6,1.6-1.1,2.5-1.4C162,122.4,159.5,112.7,153.5,115.1L153.5,115.1z"/>
			</g>
		</g>
		<g>
			<g>
				<path class="st28" d="M153.2,125.7c6.4,0,6.4-10,0-10C146.7,115.7,146.7,125.7,153.2,125.7L153.2,125.7z"/>
			</g>
		</g>
	</g>
	<g class="st21">
		<g>
			<path class="st0" d="M121,45.7c-43.6,0-78.9,32.2-81.4,73.7c-4.5,5.3-3.7,13.3,1.9,17.8c2.1,1.9,5.1,2.9,8,2.5h39.9
				c7,0.4,12.8-5.4,12.6-12.3l0,0c0-3.5-1.3-6.7-3.7-9c3.7-12.5,16.9-19.7,29.4-16c7.8,2.4,13.9,8.2,16.1,16c-5.1,5.1-4.8,13,0,17.8
				c2.4,2.4,5.4,3.7,8.8,6.2h39.9c7-2.5,12.8-8.3,12.6-15.3c0-2.9-1.1-5.6-2.9-8C199.9,77.9,164.3,45.7,121,45.7z M121,51
				c37.5,0,68.5,25.8,74.9,60.1l-0.3-0.3l-0.8-0.8l-0.5-0.5c-0.3-0.3-0.8-0.5-1.1-0.5l-0.5-0.3l-1.3-0.5l-0.5-0.4h-0.5
				c-8-30.6-36.7-52.4-69.3-52.4c-33.7,0-63.2,23.4-69.6,55.1h-0.5l0,0c-0.5,0.2-1.6,2.7-1.6,2.7H49c0,0-1.1-2-1.6-1.7l0,0
				c-0.5,0.3-1.1,0.5-1.3,0.8l0,0C51.4,77.3,83,51,121,51z M156.8,108.2c-9.6-19.7-33.5-27.9-53.3-18.4
				c-7.8,3.7-14.2,10.1-18.2,17.8c-1.9,0-3.5,0.3-5.1,1.1c0-0.3-0.3-0.5-0.5-1.1C89.9,85,116.7,74.9,139.4,85
				c8.6,3.7,15.8,10.1,20.6,18.4C158.4,104.7,157.4,106.3,156.8,108.2z M164.6,100.5C155.5,85,138.9,75.7,121,75.7
				c-19,0-36.4,10.4-45,27.1c-1.3-1.1-2.7-1.9-4.3-2.4c9.6-18.1,28.6-29.5,49.2-29.3c20.3-0.3,39.1,10.6,49,28.5
				C168.1,99.7,166.2,99.9,164.6,100.5z M176.6,101.5C167,79.5,145,65.6,121,65.9c-23.3-0.3-44.7,13-54.9,33.8
				c-2.1,0-4.3,0.5-6.2,1.6c14.2-33.5,53-49.2,86.7-35.1c18.2,7.7,32.1,23.1,37.7,42c-0.3,0-0.5,0.3-1.1,0.5
				C182.2,105.5,179.8,102.9,176.6,101.5z M88.4,134.3H50.1c-3.9,0-6.9-3.3-6.9-7.7c0-1.9,0.8-3.8,2.1-5.2c0.5-0.8,1.3-1.4,2.1-1.6
				c0.8-0.3,1.5-1.4,1.5-2.2c0-0.3,0.3-0.5,0.3-0.8c0,0,0-0.3,0.3-0.3l0.3-0.3c0.3-0.3,0.5-0.5,0.5-0.5h-0.6l0.5,2.7h0.5
				c0,0,1.1-2,1.6-1.7c0.3,0.3,0.8,0.5,1.1,0.8c0.8,1.3,2.7,1.6,3.7,0.5c0.8-0.5,1.1-1.3,2-2.1v-2.4c-1.2-4.5,2.6-8.2,7.1-8.4h0.3
				h0.8c2.9,0.4,5.4,2,7,4.4c0.8,1.3,0.9,4,0.9,4v1.7c0,1.6,1.3,2.7,2.6,2.7c1.5,0,2.6-1.4,2.6-2.7c0-3.3,3.3-3.3,4.1-3.3
				c0.3,0,0.8,0,1,0.3c1.8,0.5,3.1,2.2,3.1,4.4v0.5c0,1.1,0.8,2.2,1.8,2.7c0.8,0.3,1.5,0.5,2.1,1.1l0,0c3.1,2.5,3.9,7.1,1.5,10.7
				C92.8,133,90.7,134.3,88.4,134.3L88.4,134.3z M121,96.3c-11.8,0-22.2,6.7-26.8,17.3l0,0c-0.3-0.5-0.5-1.1-1.1-1.6l-0.3-0.3
				c-0.3-0.5-0.8-0.8-1.1-1.3h-0.3l-0.8-0.8c9.1-16.8,30-22.9,46.8-13.8c6.4,3.5,11.5,8.8,14.7,15.4c-1.1,0.3-2.4,0.8-3.2,1.6
				l-0.3,0.3l-0.5,0.5l-0.3,0.3C143.4,103.2,132.7,96.3,121,96.3z M192,134.3h-41c-4.3,0-7.7-3.2-7.7-7.4c0-2.4,1.1-4.5,3.4-5.9
				c0.6-0.3,0.9-0.5,1.4-0.8c0.9-0.3,1.7-1.1,1.7-2.1c0-0.5,0.3-0.8,0.6-1.1l0,0c0.6-0.5,1.1-1.1,2-1.3h0.3c0.3,0,0.9,0,1.1,0h0.3
				c0.6,0.3,0.9,0.5,1.4,1.1c0.3,0.3,0.3,0.5,0.6,0.5c1.1,0.8,3.1,0.5,4-0.5c0.3-0.5,0.6-1.1,0.6-1.6v-2.4c0-2.7,1.4-5.3,4-6.9
				c2.8-1.6,6.2-1.9,9.1-0.5c3.4,1.1,5.7,4.3,5.7,7.4v3.4c0,1.6,1.3,2.6,2.6,2.6s2.6-1.3,2.6-2.6c0-2.6,2.6-3.1,3.6-3.1h0.5
				c2.3,0,4.1,1.8,4.1,4.2l0,0v0.5c0,1,0.8,2.1,1.8,2.6c1,0.3,2.1,1,2.8,1.8c1.3,1.3,2.1,3.1,2.1,4.9
				C198.9,131,195.9,134.3,192,134.3z"/>
		</g>
		<g>
			<g>
				<path class="st0" d="M55.1,115.7c-2.9-0.9-6.1-0.5-8.7,1c-0.7,0.4-1,1.4-0.5,2.1c0.4,0.7,1.3,1,2.1,0.5c0.3-0.2,0.6-0.3,0.9-0.5
					c-0.3,0.1,0.1,0,0.1,0c0.2-0.1,0.3-0.1,0.5-0.2c0.3-0.1,0.6-0.2,0.9-0.2c0.2,0,0.3-0.1,0.5-0.1c0.2,0,0.2,0,0,0
					c0.1,0,0.1,0,0.2,0c0.6-0.1,1.2-0.1,1.8,0c0.1,0,0.6,0.1,0.2,0c0.1,0,0.2,0,0.4,0.1c0.3,0.1,0.7,0.1,1,0.2
					c0.8,0.2,1.7-0.3,1.8-1C56.3,116.7,55.9,115.9,55.1,115.7L55.1,115.7z"/>
			</g>
		</g>
		<g>
			<g>
				<path class="st0" d="M52,110c-1.3,0.3-2.6,0.5-3.9,1c-1.4,0.5-2.7,1.2-3.9,2.1c-0.6,0.5-0.6,1.6,0,2.1c0.7,0.6,1.5,0.5,2.1,0
					c-0.3,0.2,0.1-0.1,0.2-0.1c0.1-0.1,0.3-0.2,0.4-0.3c0.3-0.2,0.5-0.3,0.8-0.5c0.1-0.1,0.3-0.1,0.4-0.2c0.2-0.1,0.1-0.1,0,0
					c0.1,0,0.1-0.1,0.2-0.1c0.3-0.1,0.6-0.2,0.8-0.3c1.2-0.4,2.4-0.6,3.7-0.9c0.8-0.2,1.3-1.1,1-1.8C53.6,110.2,52.8,109.8,52,110
					L52,110z"/>
			</g>
		</g>
	</g>
</g>
<g id="Capa_8" class="st12">
	<g class="st21">
		<g transform="translate(0,-1036.3622)">
			<g transform="translate(0,0.0198085)">
				<g transform="translate(1100.5659,-21.019708)">
					<g transform="translate(-116.0644,4.9999995)">
						<path class="st29" d="M-836.6,1085.7h-4.9c-6.5,1.1-12,1.2-18.5,4.4c-21.7,9.8-33.7,32.6-30.4,55.4c0,0,0,0,0,0h3.7h-12.2
							h-22.3c0,0,0,0,0,0l21.3-22.3c0,0,0,0,0,0l-8.1-8.1c0,0,0,0,0,0l-34.5,35.5c0,0,0,0,0,0l34.5,35.5c0,0,0,0,0,0l8.1-8.1
							c0,0,0,0,0,0l-21.3-22.3c0,0,0,0,0,0h22.3h12.2c8.1,0,14.2,3,17.2,7.1c4.1,4.1,6.1,10.1,6.1,12.2v31.5c0,0,0,0,0,0h10.1
							c0,0,0,0,0,0v-25.2c0,0,0,0,0,0c17.5,7,37.8,1,50.7-15.1c13.8-18.1,13.4-43.3,0.5-62.4c0,0,0,0,0,0
							C-817.4,1088.9-820,1087.9-836.6,1085.7C-836.6,1085.7-836.6,1085.7-836.6,1085.7z M-836.1,1099.2c11.2,1,21.3,6.1,28.4,15.2
							c11.2,15.2,11.2,35.5-1,49.7c-12.2,14.2-31.4,17.2-47.6,10.2c0,0,3.3,0.6,3.3,0.6c0-6.1-3.9-12.9-10-19c-3-3-9.9-8-15-10
							c-4.1-18.3,4.4-35.5,20.6-42.6C-849.3,1099.2-842.2,1098.1-836.1,1099.2z M-843.1,1115.2
							C-843.1,1115.2-843.1,1115.2-843.1,1115.2l0,17.5v13c0,0,0,0,0,0h30.4c0,0,0,0,0,0v-10.1c0,0,0,0,0,0h-20.3c0,0,0,0,0,0v-20.3
							c0,0,0,0,0,0H-843.1z"/>
					</g>
				</g>
			</g>
		</g>
	</g>
</g>
</svg>
