<?xml version="1.0" encoding="utf-8"?>
<!-- Generator: Adobe Illustrator 24.1.1, SVG Export Plug-In . SVG Version: 6.00 Build 0)  -->
<svg version="1.1" xmlns="http://www.w3.org/2000/svg" xmlns:xlink="http://www.w3.org/1999/xlink" x="0px" y="0px"
	 viewBox="0 0 100 117.3" style="enable-background:new 0 0 100 117.3;" xml:space="preserve">
<g id="Capa_2">
</g>
<g id="Capa_1">
	<g>
		<path d="M96.1,20.9L79.7,4.6C77.4,2.3,74.3,1,71,1H34.4C27.6,1,22,6.6,22,13.4v9h-9c-6.8,0-12.4,5.6-12.4,12.4v69.1
			c0,6.8,5.6,12.4,12.4,12.4h52.9c6.8,0,12.4-5.6,12.4-12.4v-9h9c6.8,0,12.4-5.6,12.4-12.4V29.7C99.7,26.3,98.4,23.3,96.1,20.9z
			 M70,103.8c0,2.3-1.8,4.1-4.1,4.1H13c-2.3,0-4.1-1.8-4.1-4.1V34.7c0-2.3,1.8-4.1,4.1-4.1h9v51.8c0,6.8,5.6,12.4,12.4,12.4H70
			V103.8z M91.4,82.5c0,2.2-1.8,4.1-4.1,4.1H34.4c-2.2,0-4.1-1.8-4.1-4.1V13.4c0-2.2,1.8-4.1,4.1-4.1H71c1.1,0,2.1,0.4,2.9,1.2
			l16.2,16.4c0.7,0.7,1.2,1.8,1.2,2.9V82.5z"/>
		<path d="M44.9,38.8h22.4c2.3,0,4.1-1.8,4.1-4.1c0-2.3-1.8-4.1-4.1-4.1H44.9c-2.3,0-4.1,1.8-4.1,4.1C40.7,37,42.6,38.8,44.9,38.8z"
			/>
		<path d="M76.7,48.5H44.9c-2.3,0-4.1,1.8-4.1,4.1s1.8,4.1,4.1,4.1h31.8c2.3,0,4.1-1.8,4.1-4.1S79,48.5,76.7,48.5z"/>
		<path d="M76.7,66.5H44.9c-2.3,0-4.1,1.8-4.1,4.1c0,2.3,1.8,4.1,4.1,4.1h31.8c2.3,0,4.1-1.8,4.1-4.1C80.9,68.3,79,66.5,76.7,66.5z"
			/>
	</g>
</g>
</svg>
