<?xml version="1.0" encoding="utf-8"?>
<!-- Generator: Adobe Illustrator 24.1.1, SVG Export Plug-In . SVG Version: 6.00 Build 0)  -->
<svg version="1.1" id="Capa_1" xmlns:xodm="http://www.corel.com/coreldraw/odm/2003"
	 xmlns="http://www.w3.org/2000/svg" xmlns:xlink="http://www.w3.org/1999/xlink" x="0px" y="0px" viewBox="0 0 650 650"
	 style="enable-background:new 0 0 650 650;" xml:space="preserve">
<g>
	<path d="M477,131c2.3,0.4,3.9,2.6,3.5,4.8s-2.7,3.7-5,3.3l-5.8-1c-32.1-5.6-57.8-10.1-78.9-20.6c-2.1-1.1-2.9-3.5-1.8-5.6
		c1.1-2,3.7-2.8,5.8-1.8c19.9,10,45.1,14.4,76.5,19.8L477,131z M426.3,559.8c-1.5,1.7-4.3,2-6.1,0.5c-1.8-1.5-2-4.1-0.5-5.8l3.3-3.8
		c22.9-25.9,40.9-46.3,63.3-58.3c2.1-1.1,4.7-0.4,5.9,1.6c1.2,2,0.4,4.5-1.7,5.6c-21.1,11.2-38.6,31.1-60.9,56.4L426.3,559.8
		L426.3,559.8z M525.6,489.4c-2.4,0.2-4.5-1.5-4.7-3.7c-0.2-2.3,1.5-4.3,3.9-4.5c10.1-0.9,21.3-0.5,33.8,1.3
		c12.4,1.8,26.2,4.9,41.8,9.5c2.3,0.7,3.6,3,2.9,5.2s-3.1,3.4-5.4,2.7c-15.1-4.5-28.5-7.5-40.5-9.2C545.5,489,535,488.7,525.6,489.4
		L525.6,489.4z M527,456.5c-1.7,1.6-4.4,1.6-6.1,0c-1.7-1.6-1.7-4.2,0-5.9c10.1-9.8,19-18.3,28.4-26.9c9-8.3,18.3-16.7,29.1-26.3
		c-3-9.9-6.3-19.7-10.4-28.7c-0.9,2.1-1.9,4.3-2.8,6.5c-3.3,7.2-6.9,14.2-10.2,19c-1.3,1.9-4,2.4-6,1.1c-2-1.3-2.5-3.8-1.2-5.7
		c3-4.3,6.4-10.9,9.5-17.7c5-11,9.2-22.4,10.3-26.1c6.2-20,10.8-36.4,14-51.6c-2.1,0.6-4.3,1.1-6.6,1.5c-2.3,0.5-4.6-1-5.1-3.2
		c-0.5-2.2,1-4.4,3.3-4.9c3.6-0.7,7-1.6,10.1-2.6c0.6-3.7,1.2-7.5,1.7-11.2c2.6-21.4,2.3-42.8-0.7-72.2c-0.7-7-5-11.5-9.9-13.2
		c-2-0.7-4-0.9-5.9-0.7c-1.8,0.2-3.6,0.9-5.1,2c-3.5,2.7-5.5,8.2-3.8,16.9c7.3,36,7.8,65.6,1.6,94.7c-4.2,20.1-11.6,39.8-22.1,61.3
		c2.3,4,4.4,8.3,6.4,12.9c0.9,2.1-0.1,4.5-2.3,5.4c-2.2,0.9-4.7-0.1-5.6-2.2c-1-2.3-2.1-4.6-3.2-6.8c-3.5,6.6-7.2,13.5-11.2,20.5
		c-5.7,9.9-12.1,20.4-19.6,31.2c7.4,20.1,12.3,33.7,12.7,49.5c0.3,9.3-0.9,19.2-3.8,31.3c-2.9,11.9-7.4,26-13.9,43.9
		c-0.3,0.8-0.5,1.4-0.7,2c-2.2,6.6-5,15.1-15.1,14.2c-2.6-0.2-5.1-1-7.2-2.1c-1.9-1-3.6-2.4-4.8-4c-1.4-1.9-2.1-4-1.9-6.3
		c0.1-1.3,0.5-2.6,1.2-3.8c4.9-8.4,11-22,15.8-32.6c0.9-2.1,1.8-4.1,2.7-5.9c4.3-9.3,9.4-25.2,10.6-44.1c0.6-10.2,0.1-21.3-2.4-32.7
		c-6.3,8.5-13.3,17.2-21.2,25.9c-19.5,21.8-44.3,44-76.8,65.4c1.4,1.2,2.8,2.7,4.2,4.4c3.5,4.7,6.7,11.5,8.7,19.3
		c0.6,2.2-0.9,4.5-3.2,5c-2.3,0.5-4.7-0.8-5.2-3.1c-1.7-6.8-4.4-12.5-7.3-16.4c-2.2-2.9-4.1-4.5-5.3-4.3l-0.1,0
		c-1.2,0.3-2.2,2.6-2.7,6.1c-0.7,4.7-0.4,10.9,1.3,17.7c0.6,2-0.4,4.1-2.4,4.9c-2.2,0.9-4.7-0.1-5.7-2.2c-0.1-0.3-0.2-0.6-0.3-0.9
		c-1.9-7.7-2.3-15.1-1.4-20.8c1-6.5,3.9-11.2,8.4-12.7c34.9-22.2,61.1-45.3,81.4-67.9c9.4-10.5,17.6-20.9,24.8-31.1
		c-1.6-4.4-3.3-9-5-13.6c-5.8-16.3-8.8-27.1-9.2-35.8c-0.4-9.2,2.1-15.8,7-23.3c1.3-1.9,4-2.5,6-1.2c2,1.2,2.6,3.8,1.3,5.7
		c-4,6-6,11.3-5.7,18.5c0.3,7.7,3.2,17.9,8.7,33.5c1,2.7,1.9,5.3,2.8,7.6c5.8-8.7,11-17.2,15.6-25.3c5.1-8.8,9.7-17.3,13.8-25.5
		c-0.7-1.1-1.3-2.2-2-3.2c-1.9-2.5-4.1-4.6-6.3-6.3c-2.2-1.7-4.6-3-6.9-4.1c-0.1,0-0.2-0.1-0.3-0.1c-6.7-3-15.3-3.9-23.7-4.7
		c-10.1-1-20-2.1-27.4-6.6c-9.5-5.8-14.9-15.4-21-26.3c-2.4-4.3-5-8.9-7.9-13.4l0,0c-0.3-0.5-0.6-1.1-0.6-1.8
		c-0.2-2.3,1.5-4.3,3.9-4.5c10.1-1,21.2-0.9,31.9,0.2c10.1,1.1,20,3.1,28.3,6.1c24.1,8.8,25.4,19.4,26.9,32.4
		c0.6,4.8,1.2,9.9,3.3,15.2c2.1,2.6,4.1,5.3,6,8.1c4.6-9.6,8.4-18.9,11.7-28.1c-1.6-3.1-3.3-6.4-5-9.6
		c-11.8-22.8-21.9-42.4-47.5-55.8c-10.6-5.5-22.9-8.7-35.8-10c-15.1-1.6-31-0.8-46.3,1.4c-0.2,0-0.4,0.1-0.7,0.1
		c-3.8,0.4-7.3-2.1-9.9-6.3c-2-3.3-3.7-7.9-4.5-13.1c0-0.2-0.1-0.3-0.1-0.5c-0.8-5.2-0.6-10,0.4-13.8c1.3-5,4-8.3,7.9-8.9
		c1.7-0.2,3.4,0.1,4.9,0.9c6.7,1.6,17.8,3.8,29.2,4.4c8.1,0.5,16.3,0.1,22.7-1.9c4.6-1.5,7.6-3.1,9.1-5.4c1.4-2.2,1.6-5.3,0.8-9.7
		c-0.4-2.2,1.1-4.4,3.4-4.8s4.6,1.1,5,3.3c1.3,6.5,0.7,11.5-2,15.6c-2.6,4-7.1,6.8-13.7,8.9c-7.6,2.4-16.9,2.8-25.9,2.3
		c-7.4-0.4-14.8-1.5-21-2.6c1,2.6,1.8,5.5,2.3,8.6c0.8,5,0.6,9.8-0.2,13.5c13.2-1.4,26.6-1.7,39.5-0.4c13.9,1.5,27.2,4.9,39,11
		c28,14.6,38.7,35.3,51.1,59.4l0.9,1.8c1.4-4.9,2.7-9.8,3.7-14.7c1.2-5.6,2.1-11.2,2.8-16.8c-9.5-16.9-20.1-32.3-30.7-47.6
		c-11.2-16.2-22.4-32.4-32.3-50.5c-1.1-2-0.3-4.5,1.8-5.6c2.1-1.1,4.7-0.3,5.8,1.7c0.3,0.5,0.6,1,0.9,1.6c1.6-2.5,3-4.9,4.2-7.3
		c0.7-1.8,1.1-3.6,1.3-5.3c0.2-1.8,0.1-3.5-0.1-5.1c-0.5-3.7-3.2-6.6-6.2-9.8c-4.4-4.7-9.2-9.8-10.8-19.1
		c-1.7-10.5,6.2-21.7,13.3-31.5c2.8-3.9,5.5-7.6,7.1-10.8c0.3-0.7,0.7-1.2,1.4-1.7c1.9-1.4,4.6-1.1,6.1,0.7
		c14.3,17.7,18.6,31.3,16.9,43.8c-1.6,12.3-8.9,22.9-18.1,35.2c-2.4,6.2-5.7,12.5-10.4,19.1c8.3,13.9,17.3,27,26.3,40
		c8.4,12.1,16.7,24.2,24.6,37.2c0.7-18.4-1.2-37.8-5.6-59.7c-2.5-12.3,1-20.5,6.9-24.9c2.7-2.1,5.9-3.3,9.3-3.7
		c3.3-0.4,6.7,0,9.9,1.1c7.7,2.7,14.5,9.6,15.6,20.2c3.1,29.9,3.4,51.9,0.7,73.9c-0.2,1.7-0.4,3.5-0.7,5.2c1.1-1,2-2.1,2.9-3.1
		c2.8-3.7,4.5-8.9,6.1-14c2.1-6.4,4.1-12.7,8.4-17c5.5-5.6,13-7.8,21.4-10.3c3.3-1,6.7-2,9.9-3.2c0.7-0.3,1.4-0.4,2.2-0.3
		c2.4,0.2,4.1,2.2,3.9,4.5c-0.6,6.6-2.1,13.7-4.3,20.5c-2.1,6.4-4.8,12.5-8,17.5c-9.6,14.9-17.5,14.3-27.1,13.6
		c-3.2-0.2-6.7-0.5-10.4,0.1c-2.2,1.1-4.5,2-6.9,2.9c-1.9,9.8-4.3,20-7.4,31.1c0.3,0.3,0.6,0.7,0.8,1.2c1.6,3.7,2.8,6.7,3.7,9.1
		c1.2,3.1,2,5.1,2.2,5.9l0.4,1.3l21.7-18.1l0,0c1.4-1.2,3.4-1.4,5.1-0.4c2,1.2,2.7,3.7,1.4,5.7c-2.8,4.4-2.9,10.2-1.1,15.7
		c2,5.9,6.1,11.4,11.5,14.7c0.4,0.2,0.8,0.5,1.1,0.9c1.6,1.7,1.4,4.3-0.4,5.8c-3.4,2.8-7.1,6-11.2,9.5c-4.5,3.9-8.2,6.9-10.9,9.3
		c5.4,10.5,11.6,20.7,18.8,30.4c1.3,1,2.4,2.4,3.1,4.2c0.2,0.3,0.3,0.7,0.4,1c0.6,1.7,0.9,3.6,1,5.7c0.2,4.9-1,11-3.4,17.3l0,0.1
		l0,0c0,0.1-0.1,0.1-0.1,0.2c-2.4,6.2-5.7,11.4-9.1,15c-4.3,4.5-9.1,6.5-13.4,4.9c-1.5-0.5-2.7-1.4-3.7-2.6
		c-0.1-0.1-0.1-0.2-0.2-0.3c-0.5-0.6-0.9-1.3-1.2-2c-8.2-13.9-13.3-31.1-18.4-48.5l-0.6-1.9c-9.6,8.5-17.9,16-25.8,23.3
		C546.1,438.2,537.2,446.6,527,456.5L527,456.5z M604.1,375.1c3.6-3.1,6.6-5.6,9-7.7c2.2-1.9,4.6-3.9,7.3-6.2c-5-4.3-8.8-10-10.8-16
		c-1-2.9-1.5-5.9-1.6-8.9l-14.4,12.1C596.6,357.6,600.1,366.5,604.1,375.1L604.1,375.1z M584.4,348.5c0-0.1,0-0.1-0.1-0.2
		c-0.8-2.4-1.6-4.9-2.4-7.4c-0.2-0.7-0.9-2.5-2-5.3l-0.1-0.3c-1.2,4.2-2.6,8.5-4,13c-0.6,1.8-1.8,5.4-3.5,9.9
		c7.8,14.6,12.7,31.4,17.6,47.9c3.2,10.8,6.3,21.6,10.2,31.3c0.5-1.7,1-3.4,1.7-5.1l0-0.1l0,0c0-0.1,0.1-0.1,0.1-0.2
		c2.4-6.2,5.7-11.4,9.1-15c1.6-1.7,3.3-3,5-3.9c-6.7-9.6-12.5-19.5-17.5-29.9C593,372,588.4,360.4,584.4,348.5L584.4,348.5z
		 M626.8,327.7c-1.8-1.4-2.1-4-0.6-5.8s4.2-2,6.1-0.6c3.9,3,7.5,8.2,9.8,14.2c2,5.3,2.9,11.2,2,16.9c-0.4,2.3-2.6,3.8-4.9,3.5
		c-2.4-0.3-4-2.5-3.6-4.7c0.7-4.2-0.1-8.7-1.6-12.8C632.2,333.7,629.5,329.8,626.8,327.7L626.8,327.7z M622.2,421.5
		c-0.4-0.6-0.9-1.1-1.3-1.7c-0.8,0.2-2,1.2-3.6,2.8c-2.7,2.8-5.3,7.1-7.4,12.2c0,0.1-0.1,0.2-0.1,0.3l0,0c-2,5.3-3,10.3-2.8,14.1
		c0,1.4,0.2,2.5,0.4,3.3c0.3,0.5,0.5,0.9,0.8,1.4c0.7,0.1,2.1-0.9,3.9-2.8c2.7-2.8,5.3-7.1,7.4-12.2c0-0.1,0.1-0.2,0.1-0.3l0,0
		c2-5.3,3-10.3,2.8-14.1C622.5,423.3,622.4,422.3,622.2,421.5L622.2,421.5z M405.6,218.2l-0.5-0.1c-0.2,0.4-0.4,1.2-0.7,2.3
		c-0.7,2.8-0.8,6.6-0.2,10.8l0,0c0.7,4.2,1.9,7.9,3.4,10.3c0.9,1.4,1.5,2.3,1.6,2.3c0.1,0,0.4-1,0.8-2.6c0.7-2.8,0.8-6.6,0.2-10.8
		l0,0c-0.7-4.2-1.9-7.9-3.4-10.3C406.3,219.3,405.9,218.6,405.6,218.2L405.6,218.2z M544.5,152.2c1.3-1.9,4-2.4,6-1.1
		c2,1.3,2.5,3.9,1.1,5.8c-6.1,8.6-11,16.4-14.9,23.5c-3.8,7-6.7,13.3-8.7,19.2c-0.8,2.2-3.2,3.3-5.5,2.6c-2.3-0.7-3.5-3.1-2.7-5.3
		c2.2-6.2,5.2-12.9,9.3-20.4C533.1,169.2,538.1,161.1,544.5,152.2L544.5,152.2z M507.7,473.5c0-1.1-0.1-2.1-0.2-3.2
		c-1.7,18.3-6.7,33.7-11,43c-0.8,1.8-1.7,3.8-2.7,5.9c-4.9,10.8-11.2,24.6-16.2,33.4c-0.1,0.2-0.2,0.3-0.2,0.5
		c0,0.2,0.1,0.5,0.3,0.9c0.4,0.6,1.1,1.1,1.9,1.5c1.1,0.6,2.4,1,3.7,1.1c3.3,0.3,4.9-4.7,6.2-8.5c0.3-0.9,0.6-1.7,0.7-2.2
		c6.4-17.7,10.9-31.5,13.7-43.1C506.8,491.3,508,482.1,507.7,473.5L507.7,473.5z M516.1,333.7c-0.1-0.7-0.2-1.3-0.2-2
		c-1.2-10.2-2.2-18.6-21.4-25.6c-7.6-2.8-16.7-4.6-26.2-5.6c-7.8-0.8-15.8-1-23.3-0.7c1.6,2.7,3.1,5.4,4.6,8
		c5.5,9.8,10.4,18.6,18,23.2c5.7,3.5,14.5,4.4,23.6,5.3c6.2,0.6,12.6,1.3,18.5,2.8c-0.3-0.3-0.6-0.6-1-0.8
		c-11.1-9.6-23.6-15.8-36.7-20.4c-2.2-0.8-3.4-3.1-2.6-5.3c0.8-2.2,3.3-3.3,5.5-2.5c14,4.8,27.5,11.6,39.5,22
		C515,332.7,515.6,333.2,516.1,333.7L516.1,333.7z M611.2,280.2c5.7,0.3,10.7-0.5,16.7-9.8c2.8-4.4,5.2-9.8,7.1-15.6
		c1.3-4,2.3-8.2,3.1-12.3c-1.3,0.4-2.7,0.8-4,1.2c-7.3,2.2-13.8,4.1-17.7,8.1c-2.9,2.9-4.6,8.3-6.4,13.8c-0.7,2.2-1.4,4.5-2.3,6.7
		c6.1-5.1,10.9-11.1,14.8-17.5c1.2-2,3.9-2.6,5.9-1.4c2,1.2,2.7,3.7,1.5,5.7C625.2,266.7,619.2,274,611.2,280.2L611.2,280.2z
		 M520.7,149.7c2.6-4.8,4.3-9.4,5-14.2c1.2-9.2-1.8-19.5-11.4-32.7c-1.4,2-2.9,4.2-4.4,6.3c-6.2,8.6-13.1,18.3-11.9,25.6
		c1.1,6.9,5.1,11.1,8.7,14.9c1.8,1.9,3.5,3.7,4.9,5.7c1.1-8.4,0.4-16.5-1.4-24.3c-0.5-2.2,1-4.4,3.3-4.9c2.3-0.5,4.6,0.9,5.1,3.2
		C520.1,135.8,521,142.7,520.7,149.7L520.7,149.7z M529.7,501.4c0,2.5-0.1,4.8-0.2,6.8c-0.2,7.7-0.3,11.7,1,14
		c1.5,2.5,5.6,4.5,14.1,8.8c1,0.5,2.1,1,3.2,1.6c0-2.3,0.1-4.2,0.1-6c0.2-8.1,0.3-12.2-1-14.5c-1.4-2.4-5.3-4.5-13.2-8.7
		C532.5,502.8,531.2,502.1,529.7,501.4L529.7,501.4z M520.9,508c0.1-3.7,0.2-8.1,0.2-13.4c0-0.8,0.1-1.6,0.6-2.3
		c1.2-2,3.8-2.7,5.9-1.5c4,2.2,7.4,4,10.3,5.5c9.3,4.9,13.9,7.4,16.6,11.9c2.6,4.4,2.4,9.2,2.2,18.8c-0.1,3.7-0.2,8.1-0.2,12.6h0
		c0,0.7-0.2,1.3-0.5,2c-1.1,2-3.8,2.7-5.8,1.7c-3.3-1.7-6.6-3.4-9.4-4.8c-10-5.1-14.9-7.5-17.6-12.1
		C520.5,522,520.7,517.2,520.9,508L520.9,508z M573.2,506.6c0,1.5-0.1,3-0.1,4.2c-0.2,6.1-0.3,9.3,0.7,11c1.1,1.8,4.3,3.4,11.1,6.8
		l1.4,0.7c0-1.3,0.1-2.5,0.1-3.6c0.2-6.4,0.3-9.7-0.7-11.4c-1-1.8-4.1-3.4-10.4-6.7L573.2,506.6L573.2,506.6z M564.5,510.6
		c0.1-3,0.2-6.6,0.2-10.8c0-0.8,0.1-1.6,0.6-2.3c1.2-2,3.8-2.7,5.9-1.5c3.2,1.8,6,3.2,8.3,4.5c7.7,4.1,11.5,6.1,13.7,9.9
		c2.2,3.7,2.1,7.7,1.9,15.7c-0.1,3-0.2,6.6-0.2,10.2l0,0c0,0.7-0.2,1.3-0.5,2c-1.1,2-3.8,2.7-5.8,1.7c-2.6-1.3-5.3-2.7-7.6-3.9
		c-8.3-4.2-12.3-6.2-14.6-10.1C564.1,522.2,564.2,518.2,564.5,510.6z M538.6,472.8c1.1-4.3,1.8-7.7,2.4-10.6
		c1.6-7.5,2.4-11.4,5.4-14.5c3.2-3.3,7.5-4.4,16.6-6.7c2.2-0.5,4.7-1.2,8.3-2.1c2.3-0.6,4.7,0.7,5.3,2.9c0.2,0.7,0.2,1.4,0,2.1
		c-1,4.2-1.7,7.3-2.2,9.9c-1.7,7.8-2.5,11.7-5.5,14.9c-3.1,3.2-7.3,4.4-15.7,6.7c-2.4,0.6-5.2,1.4-9.2,2.6c-2.3,0.7-4.7-0.6-5.4-2.8
		C538.4,474.4,538.4,473.6,538.6,472.8L538.6,472.8z M549.4,463.9c-0.3,1.3-0.6,2.7-0.9,4.2l2.3-0.6c6.9-1.9,10.3-2.8,11.7-4.3
		c1.4-1.5,2.1-4.6,3.4-10.9c0.2-1.1,0.5-2.3,0.8-3.5l-1.6,0.4c-7.4,1.8-10.9,2.7-12.4,4.3C551.4,454.8,550.7,457.9,549.4,463.9
		L549.4,463.9z M63.1,300.9c-0.8-2.2,0.4-4.5,2.6-5.3c2.2-0.8,4.7,0.4,5.5,2.5c1.2,3.2,2,5.4,2.8,7.5c11.9,32,21.3,57.1,20.9,81.7
		c0,2.3-2,4.1-4.4,4.1c-2.4,0-4.3-1.9-4.3-4.2c0.4-23.1-8.8-47.6-20.4-78.8C64.9,305.6,63.8,302.8,63.1,300.9L63.1,300.9z M78,421.5
		c1-2.1,3.6-3,5.7-2c2.2,1,3.1,3.4,2.1,5.5c-4.3,8.8-10.2,17.9-18.1,27.4c-7.8,9.4-17.5,19.3-29.5,30c-1.8,1.5-4.5,1.4-6.1-0.2
		c-1.6-1.7-1.5-4.3,0.2-5.8c11.6-10.4,21.1-20,28.6-29C68.4,438.2,74,429.7,78,421.5L78,421.5z M107,439.1c-0.6-2.2,0.7-4.5,3-5.1
		c2.3-0.6,4.7,0.7,5.3,2.9c3.9,13.5,7.1,25.1,10.1,37.1c3,11.5,5.9,23.4,9.1,37.4c10.5,2.4,20.9,4.6,31.1,5.7
		c-1.5-1.8-3-3.7-4.4-5.6c-4.9-6.3-9.4-12.8-12-18c-1-2.1-0.1-4.5,2-5.5c2.1-1,4.7-0.1,5.8,1.9c2.4,4.6,6.6,10.7,11.2,16.7
		c7.4,9.6,15.6,18.8,18.4,21.6c15,15.2,27.4,27.2,39.6,37.4c0.6-2,1.2-4.1,1.9-6.2c0.7-2.2,3.2-3.4,5.5-2.6c2.3,0.7,3.5,3.1,2.8,5.2
		c-1.1,3.3-2,6.6-2.7,9.7c3.1,2.4,6.1,4.7,9.3,7c18,12.9,37.5,23.3,65.5,35.5c6.6,2.9,12.9,1.6,16.9-1.7c1.6-1.3,2.8-2.9,3.6-4.6
		c0.7-1.6,1-3.4,0.7-5.2c-0.7-4.3-4.6-8.7-13.3-11.6c-36.1-11.9-63.1-26.3-86.3-46c-16-13.6-30.1-29.6-44.2-49
		c-4.7-0.1-9.7-0.5-14.8-1.1c-2.4-0.3-4-2.4-3.7-4.6c0.3-2.3,2.5-3.9,4.8-3.6c2.6,0.3,5.2,0.6,7.7,0.7c-4.3-6.2-8.5-12.7-12.9-19.6
		c-6.1-9.7-12.4-20.2-18.3-31.8c-21.9-3.9-36.6-6.7-51-14.2c-8.5-4.4-16.8-10.3-26.3-18.8c-9.4-8.4-19.8-19.2-32.7-33.5
		c-0.5-0.5-0.9-1-1.5-1.6c-4.9-5.1-11.1-11.7-5.3-19.7c1.5-2,3.4-3.7,5.5-4.9c1.9-1.1,4-1.8,6-2c2.4-0.2,4.7,0.3,6.6,1.6
		c1.1,0.7,2.1,1.7,2.8,2.9C57.6,354,66.8,366,74,375.3c1.1,1.4,2.1,2.7,4,5.2c6.3,8.2,18.1,20.4,34.5,30.9
		c8.9,5.6,19.2,10.7,30.7,14.4c-4.5-9.5-8.9-19.6-12.8-30.5c-9.9-27.1-17.5-58.8-20.6-96.5c-1.8,0.6-3.8,1-6.1,1.2
		c-6,0.6-13.8-0.2-21.8-2.5c-2.3-0.6-3.6-3-2.9-5.1c0.7-2.2,3.1-3.4,5.4-2.8c7,2,13.5,2.7,18.5,2.2c3.7-0.4,6.2-1.2,6.6-2.3
		c0.4-1.2-1.3-3.1-4.2-5.4c-3.9-3-9.8-5.8-16.7-7.8c-2.3-0.6-3.6-3-2.9-5.1c0.7-2.2,3.1-3.4,5.4-2.8c8,2.3,15,5.7,19.7,9.3
		c5.4,4.1,8.2,8.9,7.3,13.4c2.5,40,10.4,73.4,20.6,101.6c4.8,13.1,10.1,25.1,15.6,36.2c3.7,0.7,7.9,1.4,14.7,2.7
		c17.7,3.3,29,6.3,36.9,10.3c8.5,4.3,13.2,9.6,17.5,17.5c1.1,2,0.3,4.5-1.9,5.6s-4.7,0.3-5.8-1.8c-3.4-6.3-7.2-10.6-13.8-14
		c-7.2-3.6-17.8-6.4-34.6-9.5c-2.2-0.4-5.1-0.9-8.3-1.5c5,9.2,10,17.7,15,25.7c5.5,8.6,10.8,16.7,16.1,24.2c1.3,0,2.6,0,3.9-0.1
		c3.2-0.4,6.1-1.1,8.8-2.1c2.7-1,5.2-2.4,7.4-3.9c6-4.1,11.1-10.8,16.1-17.3c6-7.9,11.8-15.6,19.6-19.4c10-5,21.4-4.7,34.2-4.3
		c5.1,0.2,10.5,0.3,16,0.1l0,0c0.6,0,1.3,0.1,1.9,0.4c2.2,0.9,3.1,3.4,2.1,5.5c-4.2,8.8-9.8,18.1-16.2,26.4
		c-6,7.9-12.8,15.1-19.7,20.5c-20,15.7-30.2,11.4-42.7,6.2c-4.6-1.9-9.5-4-15.4-4.8c-3.4,0.4-6.8,0.8-10.4,0.9
		c6.4,8.6,12.9,16.5,19.5,23.7c3.3,0.2,7.2,0.4,11.1,0.6c26.5,1.6,49.3,3,74.1-11.6c10.3-6.1,19.3-14.7,27-24.7
		c9-11.8,16.3-25.5,21.9-39.4l0,0c1.5-3.5,5.5-5.3,10.8-5.4c4.1,0,9.2,0.9,14.3,2.9c5.2,2,9.6,4.6,12.5,7.3
		c3.7,3.4,5.4,7.3,4.1,10.7c-0.1,0.2-0.1,0.4-0.2,0.6c-0.6,1.4-1.7,2.5-3.1,3.3c-4.8,4.7-12.4,12.9-18.7,22.1
		c-4.5,6.5-8.2,13.5-9.6,19.8c-1,4.6-1,7.9,0.3,10.2c1.3,2.3,4,4,8.3,5.5c2.2,0.8,3.4,3.1,2.6,5.3s-3.3,3.3-5.5,2.5
		c-6.5-2.2-10.7-5.2-13.1-9.4c-2.3-4.2-2.6-9.3-1.1-15.8c1.6-7.5,5.9-15.4,10.9-22.7c4.1-6,8.8-11.6,12.9-16.1
		c-2.8-0.5-5.9-1.3-8.9-2.4l0,0c-0.1,0-0.2-0.1-0.3-0.1c-4.8-1.9-8.9-4.3-11.8-6.8c-5.3,11.7-11.8,23-19.4,33
		c-8.3,10.8-18.1,20.2-29.4,26.9c-27.1,16-51.2,14.5-79.1,12.8l-2.1-0.1c3.7,3.7,7.5,7.1,11.4,10.5c4.4,3.8,9,7.3,13.8,10.7
		c20,0.6,39.2-0.6,58.3-1.7c20.3-1.2,40.5-2.4,61.8-1.6c2.4,0.1,4.2,2,4.1,4.3c-0.1,2.3-2.1,4.1-4.5,4c-0.6,0-1.2,0-1.9-0.1
		c1.4,2.5,2.9,4.9,4.4,7c1.3,1.5,2.7,2.8,4.1,3.8c1.5,1,3.1,1.9,4.6,2.5c3.8,1.5,9.2,0.5,14.7-0.5c7.7-1.4,15.5-2.8,22.6,1
		c8.6,4.6,14.9,15.9,20.5,26.1c2.3,4.2,4.5,8.2,6.6,11.2c0.4,0.5,0.7,1.2,0.8,1.9c0.3,2.3-1.3,4.4-3.7,4.7
		c-23.9,3.1-38.6,0.5-49.2-6.8c-10.5-7.2-16.4-18.4-23.3-32.9c-1.6-1.9-3.2-3.8-4.7-6c-0.1-0.1-0.1-0.2-0.2-0.3
		c-2.5-3.6-4.9-7.5-7.1-11.9c-16.7-0.1-33,0.9-49.3,1.8c-15.1,0.9-30.3,1.8-45.9,1.9c16.2,9.8,34.7,17.9,56.6,25.2
		c12.3,4.1,18,11.1,19.1,18.2c0.5,3.3,0,6.6-1.3,9.6c-1.3,2.9-3.3,5.6-6,7.7c-6.3,5.1-15.9,7.2-26,2.8
		c-28.6-12.4-48.6-23.1-67.1-36.4c-1.5-1-2.9-2.1-4.3-3.2c0.3,1.4,0.8,2.7,1.4,3.9c1.9,4.1,5.8,8.1,9.6,12.1
		c4.8,4.9,9.4,9.7,11.2,15.5c2.3,7.3,0.5,14.7-1.4,22.9c-0.8,3.2-1.5,6.5-2.1,10.1c-0.1,0.6-0.3,1.2-0.7,1.8c-1.4,1.9-4.1,2.3-6,1
		c-5.6-3.8-11.3-8.6-16.3-13.8c-4.8-4.9-8.9-10.2-11.8-15.4c-8.6-15.4-4.1-21.7,1.3-29.3c1.8-2.5,3.8-5.3,5.1-8.7
		c0.1-2.3,0.4-4.7,0.8-7.2c-7.9-6.4-15.8-13.6-24.4-21.7c-0.5,0.1-0.9,0.1-1.4,0c-3.8-0.5-7.2-1-10-1.4c-3.4-0.5-5.6-0.9-6.4-1.1
		l-1.3-0.3l5.5,27l0,0c0.4,1.7-0.5,3.5-2.2,4.4c-2.1,1.1-4.7,0.3-5.8-1.7c-2.6-4.5-7.7-7.5-13.6-8.7c-6.3-1.3-13.4-0.6-19.1,2.4l0,0
		c-0.4,0.2-0.8,0.3-1.2,0.4c-2.3,0.4-4.6-1-5.1-3.3c-1.1-5.5-2.1-10.2-2.9-14.1c-1.1-5-2-9.5-3-13.7c-12.2-0.8-24.5-0.7-36.9,0.4
		c-1.6,0.6-3.3,0.7-5.2,0.5c-0.4,0-0.8-0.1-1.2-0.2c-1.8-0.4-3.7-1.1-5.6-2.1c-4.5-2.3-9.5-6.3-13.9-11.5
		c-4.5-5.2-7.6-10.6-9.1-15.3c-1.9-5.8-1.3-10.8,2.2-13.6c1.1-0.9,2.4-1.5,3.9-1.7c0.3-0.1,0.6-0.1,0.9-0.1c0.6-0.1,1.3-0.1,2,0
		c16.7,0.1,34.8,4.5,53.2,9l2,0.5c-2.9-12.1-5.5-22.7-8.1-33.1C114,464,110.8,452.4,107,439.1L107,439.1z M142,543.9
		c0.9,4,1.7,7.7,2.4,11.3c0.7,3.3,1.3,6.3,1.9,9.1c6.4-2,13.4-2.3,19.8-1c3.1,0.6,6.1,1.7,8.8,3.1l-3.7-18
		C161.5,546.4,151.7,544.9,142,543.9L142,543.9z M175.7,540.8c0.2,0,0.3,0.1,0.5,0.1c2.6,0.5,5.1,1.1,7.7,1.7c0.8,0.2,2.7,0.5,5.7,1
		l0.4,0.1c-3.1-3.1-6.4-6.4-9.8-9.8c-1.4-1.4-4-4.2-7.1-7.9c-17-0.8-34.7-5.1-52-9.3c-11.4-2.8-22.6-5.5-33.4-7.2
		c1.3,1.2,2.5,2.6,3.8,4l0.1,0.1l0,0l0.1,0.1c4.4,5.1,7.5,10.5,9,15.1c0.7,2.2,1.1,4.2,1.1,6.1c12-0.8,23.9-0.6,35.7,0.4
		C150.2,536.2,162.9,538.1,175.7,540.8L175.7,540.8z M172.5,586.7c2.3-0.7,4.7,0.5,5.4,2.7c0.7,2.2-0.6,4.5-2.8,5.2
		c-4.5,1.3-10.5,1.6-16.5,0.5c-5.3-0.9-10.7-2.9-15.1-6.1c-1.9-1.4-2.3-4-0.9-5.8c1.4-1.8,4.1-2.2,6-0.8c3.3,2.4,7.4,3.8,11.5,4.6
		C164.7,587.9,169.2,587.7,172.5,586.7L172.5,586.7z M91,535.7c0.7-0.1,1.5-0.2,2.2-0.2c0.2-0.7-0.1-2.3-0.8-4.3
		c-1.2-3.6-3.7-8-7.4-12.3c-0.1-0.1-0.2-0.2-0.3-0.3l0,0c-3.7-4.3-7.7-7.5-11.3-9.4c-1.2-0.6-2.3-1.1-3.1-1.3c-0.6,0-1.1,0-1.7,0
		c-0.5,0.5-0.2,2.2,0.6,4.7c1.2,3.7,3.8,8.2,7.5,12.5l0,0c3.7,4.3,7.8,7.6,11.4,9.5C89.2,535.1,90.2,535.5,91,535.7L91,535.7z
		 M357.7,447.6c0,0.1,0.7,0.8,2,2c2.1,2,5.4,3.9,9.4,5.5c0.1,0,0.2,0.1,0.3,0.1l0,0l0,0c4.1,1.6,8,2.3,11,2.3c1,0,1.8,0,2.3-0.1
		l0.4-0.4c-0.3-0.3-0.9-0.9-1.8-1.7c-2.2-2-5.6-4-9.7-5.6c-4.1-1.6-8-2.3-11-2.3C358.9,447.4,357.8,447.5,357.7,447.6L357.7,447.6z
		 M373,605.8c1,2.1,0.1,4.5-2,5.5c-2.1,1-4.7,0.1-5.7-2c-4.1-8.2-8.1-15.2-12-21.4c-3.8-6.1-7.6-11.3-11.4-15.7
		c-1.5-1.8-1.2-4.4,0.7-5.8c1.9-1.4,4.6-1.1,6.1,0.7c3.9,4.7,7.9,10.2,12,16.6C364.6,590,368.7,597.3,373,605.8L373,605.8z
		 M101.4,414.6c1,0.5,2,1,2.9,1.4c-15.7-10.5-27-22.4-33.3-30.6c-0.6-0.8-2.2-2.9-4-5.1c-7.3-9.5-16.6-21.5-22-30.2
		c-0.1-0.2-0.2-0.3-0.4-0.4c-0.2-0.1-0.5-0.2-0.9-0.1c-0.7,0.1-1.5,0.4-2.4,0.8c-1.1,0.6-2.1,1.5-2.9,2.6c-1.9,2.6,1.8,6.4,4.6,9.4
		c0.6,0.6,1.1,1.2,1.6,1.7c12.8,14.2,23,24.8,32,32.9C85.7,404.9,93.5,410.5,101.4,414.6z M223.3,491.4c0.7,0.3,1.3,0.5,1.9,0.8
		c9.8,4.1,17.9,7.5,33.8-5c6.3-5,12.6-11.6,18.2-19c4.6-6.1,8.8-12.6,12.3-19c-3.3,0-6.5-0.1-9.6-0.2c-11.6-0.4-21.9-0.7-30,3.4
		c-6,3-11.2,9.9-16.6,17c-3.7,4.9-7.5,9.8-11.8,14c0.4-0.1,0.8-0.2,1.2-0.4c14.2-4.5,26.1-11.7,36.8-20.3c1.8-1.5,4.5-1.2,6.1,0.5
		c1.5,1.8,1.3,4.4-0.5,5.8c-11.4,9.2-24.2,17-39.6,21.8C224.7,491,224,491.2,223.3,491.4L223.3,491.4z M224.1,597.3
		c-3.1,4.6-4.9,9.1,0.5,18.8c2.6,4.6,6.3,9.3,10.5,13.7c3,3.1,6.2,6,9.6,8.7c0.3-1.3,0.6-2.6,0.9-3.9c1.7-7.1,3.2-13.5,1.6-18.7
		c-1.2-3.9-5.2-8-9.2-12.2c-1.6-1.7-3.3-3.4-4.9-5.2c1.6,7.6,4.6,14.6,8.4,21.1c1.2,2,0.4,4.5-1.7,5.6c-2.1,1.1-4.7,0.4-5.9-1.6
		C229.2,615.6,225.7,607,224.1,597.3z M387,587.2c3.1,4.7,6.6,8.5,10.7,11.4c7.9,5.4,18.9,7.6,36.4,6.1c-1.2-2-2.4-4.2-3.6-6.4
		c-5.1-9.1-10.7-19.4-17-22.7c-4.4-2.3-10.6-1.2-16.8-0.1c-3.4,0.6-6.8,1.2-10.2,1.4c7,5.2,14.7,8.6,22.7,11c2.3,0.7,3.5,3,2.8,5.2
		c-0.7,2.2-3.1,3.4-5.4,2.7C399.9,593.7,393.3,591,387,587.2L387,587.2z M65.2,418.9c-2.2-1.3-4.3-2.5-6.1-3.6
		c-6.9-4.1-10.4-6.2-13.2-6.2c-3,0-6.9,2.3-15,7.3c-1,0.6-2,1.2-3.1,1.9c1.9,1.1,3.7,2.2,5.3,3.1c7.2,4.2,10.8,6.4,13.6,6.4
		c2.9,0,6.7-2.2,14.4-6.6C62.5,420.5,63.8,419.7,65.2,418.9L65.2,418.9z M63.6,408.3c3.2,1.9,7,4.1,12,6.9c0.7,0.4,1.4,0.9,1.8,1.6
		c1.2,2,0.5,4.5-1.6,5.7c-4.4,2.4-7.5,4.2-10.2,5.8c-9.1,5.3-13.6,7.9-19,7.8c-5.2,0-9.5-2.6-18.1-7.6c-2.9-1.7-6.5-3.8-11.2-6.5
		c-0.6-0.3-1.2-0.8-1.6-1.4c-1.2-2-0.6-4.5,1.4-5.7c3.9-2.3,6.6-4,9-5.4c9.6-5.8,14.2-8.6,19.7-8.6C51.2,401,55.4,403.5,63.6,408.3
		L63.6,408.3z M38.8,452.4c-1.4-0.8-2.6-1.5-3.8-2.2c-5.4-3.2-8.3-4.9-10.3-4.9c-2.2,0-5.3,1.9-11.7,5.8l-1.4,0.8
		c1.1,0.7,2.2,1.3,3.2,1.9c5.7,3.3,8.6,5,10.6,5.1c2.1,0,5.1-1.7,11.3-5.3L38.8,452.4L38.8,452.4z M39.5,443.2
		c2.6,1.5,5.6,3.3,9.7,5.6c0.7,0.4,1.4,0.9,1.8,1.6c1.2,2,0.5,4.5-1.6,5.7c-3.6,2-6.1,3.4-8.2,4.7c-7.5,4.4-11.2,6.5-15.8,6.5
		c-4.4,0-8-2.1-15.1-6.3c-2.4-1.4-5.2-3-9.1-5.2c-0.6-0.3-1.2-0.8-1.6-1.4c-1.2-2-0.6-4.5,1.4-5.7c3.2-1.9,5.4-3.2,7.3-4.4
		c7.9-4.8,11.7-7.1,16.4-7.1C29.2,437.1,32.7,439.2,39.5,443.2L39.5,443.2z M86.5,440.6c3.2,2.9,6.1,5.3,8.4,7.3
		c6,5.1,9.1,7.7,10.4,11.7c1.4,4.3,0.2,8.5-2.3,17.1c-0.7,2.4-1.5,5.3-2.3,8c-0.6,2.2-2.9,3.5-5.3,3c-0.7-0.2-1.3-0.5-1.9-1l0,0
		c-2.8-2.5-5.6-4.9-7.9-6.8c-6.2-5.3-9.3-7.9-10.7-12c-1.4-4.2-0.3-8.2,1.8-16.4c0.7-2.5,1.4-5.5,2.3-8.9c0.5-2.2,2.9-3.6,5.2-3.1
		C85.2,439.6,85.9,440,86.5,440.6L86.5,440.6z M89.1,454c-1-0.9-2.1-1.8-3.3-2.8l-0.6,2.2c-1.7,6.7-2.6,9.9-2,11.9
		c0.6,1.9,3.2,4,8.2,8.3c0.8,0.7,1.8,1.5,2.8,2.4l0.4-1.5c2-7.1,3-10.5,2.4-12.4C96.4,460.2,93.9,458.1,89.1,454L89.1,454z
		 M363.2,83.5c1.4,1.9,0.9,4.4-1.1,5.8c-1.9,1.3-4.6,0.9-6-1c-5.8-8-11-17.4-15.7-28.7c-4.6-11.2-8.7-24.3-12.3-39.5
		c-0.5-2.2,0.9-4.4,3.2-5c2.3-0.5,4.6,0.9,5.2,3.1c3.5,14.9,7.5,27.5,11.9,38.3C352.8,67.2,357.7,76.1,363.2,83.5L363.2,83.5z
		 M332.7,98.8c2.3,0.6,3.7,2.8,3.1,5c-0.6,2.2-2.9,3.5-5.3,3c-14.3-3.6-26.5-6.8-38.5-10.1c-11.7-3.2-23.8-6.8-38.3-11.1
		c-7.4,7.5-14.6,15.1-20.7,23c2.4-0.3,4.8-0.6,7.3-0.9c8.2-0.9,16.4-1.4,22.3-1c2.4,0.2,4.2,2.1,4,4.4c-0.2,2.3-2.2,4-4.6,3.8
		c-5.4-0.4-13,0.1-20.7,1c-12.3,1.3-24.7,3.6-28.7,4.5c-21.2,4.9-38.3,9.2-53.6,14.2c1.6,1.5,3.1,3.1,4.7,4.7
		c1.6,1.7,1.4,4.3-0.3,5.8c-1.8,1.5-4.5,1.4-6.1-0.3c-2.4-2.6-4.9-5-7.4-7.1c-3.7,1.3-7.3,2.7-10.9,4.2
		c-20.6,8.5-39.8,19.5-64.8,36.7c-5.9,4.1-7.8,9.9-6.9,14.8c0.4,2,1.2,3.8,2.3,5.3c1.1,1.4,2.6,2.5,4.3,3.2
		c4.2,1.6,10.1,0.5,17.1-5.3c28.8-24,55.3-39.2,84.6-48.7c20.2-6.5,41.8-10.3,66.4-12.2c2.5-3.9,5.3-7.8,8.4-11.8
		c1.4-1.8,4.2-2.2,6.1-0.8c1.9,1.4,2.3,4,0.8,5.8c-1.6,2-3.1,4-4.5,6c7.7-0.4,15.7-0.7,24.1-0.9c11.8-0.2,24.5-0.1,37.9,0.7
		c14.4-16.2,24.3-27.1,38.3-35.3c8.3-4.9,17.8-8.8,30.1-12.4c12.1-3.5,27.1-6.8,46.6-10.4c0.2,0,1.1-0.2,2.1-0.4
		c7.1-1.5,16.1-3.4,20.4,5.5c1.1,2.2,1.7,4.7,1.7,7c0,2.1-0.4,4.2-1.2,6c-1,2.1-2.6,3.7-4.8,4.7c-1.2,0.5-2.6,0.9-4.1,0.9
		c-10.1,0.2-25.4,1.8-37.4,3.1c-3.1,0.3-6,0.7-6.6,0.7c-10.6,1.1-27.5,4.8-45.1,13.3c-9.5,4.6-19.3,10.6-28.3,18.3
		c10.8,1,22.1,2.5,34,4.6c29.4,5.4,61.9,14.9,97.4,31.2c0.4-1.8,1-3.7,1.9-5.7c2.5-5.3,7.1-11.3,13.1-16.9c1.7-1.6,4.5-1.5,6.1,0.2
		c1.6,1.7,1.6,4.3-0.2,5.8c-5.2,4.8-9.1,9.9-11.2,14.3c-1.5,3.2-2,5.6-1.2,6.5c0,0,0.1,0.1,0.1,0.1c0.9,0.8,3.5,0.4,6.8-0.9
		c4.7-1.7,10.2-5.2,15.4-10c1.7-1.6,4.5-1.5,6.1,0.2c1.6,1.7,1.6,4.3-0.2,5.8c-6.1,5.5-12.6,9.6-18.2,11.7
		c-6.4,2.4-12.1,2.4-15.7-0.6c-37.5-17.9-71.4-28.1-102-33.7c-14.2-2.6-27.7-4.2-40.4-5.1c-3,3.4-6.3,7.1-9.8,10.9
		c-11.8,13-20.1,20.9-27.7,25.5c-8.1,4.9-15.3,6.2-24.5,5.8c-2.4-0.1-4.2-2-4.1-4.3c0.1-2.3,2.1-4,4.5-3.9
		c7.4,0.3,13.2-0.7,19.5-4.5c6.8-4.1,14.6-11.6,25.8-24c1.9-2.1,3.8-4.2,5.5-6.1c-10.8-0.5-21-0.5-30.7-0.3
		c-10.5,0.2-20.5,0.6-29.9,1.3c-0.7,1.2-1.3,2.3-2,3.5c-1.2,2.8-2,5.6-2.4,8.2c-0.4,2.8-0.4,5.5-0.2,8c0.7,7,4.2,14.7,7.6,22.1
		c4.1,8.9,8.1,17.6,7.7,26c-0.5,10.8-6.5,20.1-13.3,30.6c-2.7,4.1-5.5,8.4-8.1,13.2c-0.3,0.6-0.8,1.1-1.4,1.5c-1.9,1.3-4.6,0.9-6-1
		c-5.9-7.9-11.4-17.1-15.8-26.7c-4.1-9-7.2-18.2-8.7-26.6c-4.2-24.4,4.8-30.8,15.7-38.6c4-2.8,8.3-5.9,12-10.4c1.3-3,2.7-6,4.3-9.1
		c-11,1-21.3,2.5-31.2,4.4c-1.9,2.8-4,5.9-6.1,8.9c-14.7,21.2-27.3,39.4-26.6,67.4c0.3,11.7,3.6,23.4,8.8,34.8
		c6.1,13.3,14.9,26.2,24.6,37.9c0.1,0.1,0.1,0.2,0.2,0.3c2.3,3,1.8,7.1-0.7,11.4c-2,3.4-5.4,7.2-9.7,10.5c-4.3,3.3-8.9,5.6-12.8,6.7
		c-5,1.4-9.3,0.9-11.8-1.9c-0.1-0.1-0.2-0.3-0.4-0.4c-0.9-1.2-1.4-2.7-1.5-4.2c-1.9-6.3-5.5-16.8-10.6-26.5c-3.6-7-8-13.6-13.1-17.9
		c-3.6-3.1-6.6-4.7-9.4-4.8c-2.7-0.1-5.6,1.3-9.1,4.2c-1.8,1.5-4.5,1.3-6.1-0.5c-1.5-1.7-1.3-4.3,0.5-5.8c5.2-4.3,10-6.3,15-6.2
		c4.9,0.2,9.7,2.5,14.8,7c6,5.1,11,12.6,15,20.4c3.3,6.4,6.1,13.1,8.1,18.8c1.8-2.1,4.1-4.2,6.6-6.2c4.1-3.2,8.5-5.4,12.3-6.6
		c-7.8-10.2-14.8-21.2-20.1-32.7c-5.6-12.3-9.2-25.1-9.5-37.9c-0.8-30.6,12.5-49.8,28-72.2l1.2-1.7c-5.1,1.3-10.2,2.7-15.1,4.3
		c-5.6,1.8-11.2,3.9-16.6,6.1c-10.5,16.4-19.1,32.8-27.6,49.3c-9.1,17.5-18.1,34.9-29.4,52.1c-1.3,1.9-3.9,2.5-6,1.3
		c-2-1.2-2.6-3.8-1.3-5.7c0.3-0.5,0.7-1,1-1.5c-3-0.1-5.8,0-8.5,0.2c-2.1,0.3-3.9,0.8-5.6,1.5c-1.7,0.7-3.2,1.6-4.6,2.6
		c-6.1,4.4-9.3,9.2-12.3,13.7c-7.5,11.2-14,21-51.6,23.6c-0.7,0.1-1.4,0-2.1-0.3c-2.2-0.9-3.3-3.3-2.4-5.4
		c20.3-47.6,31.7-46.8,69.7-43.1c2.5-0.4,5-0.7,7.6-0.9c0.2,0,0.4,0,0.5,0c4.5-0.3,9.2-0.3,14.2,0c8.5-13.9,15.7-27.9,23-41.8
		c6.8-13,13.5-26.1,21.3-39.1c-16.9,8.6-33.5,19.9-51.1,34.5c-9.8,8.2-19,9.4-25.9,6.7c-3.2-1.2-6-3.3-8-5.9c-2-2.5-3.4-5.6-4-8.8
		c-1.4-7.8,1.4-16.8,10.4-23c25.4-17.5,45.1-28.8,66.4-37.5c1.7-0.7,3.4-1.4,5-2c-1.4-0.4-2.9-0.7-4.3-0.8
		c-4.7-0.5-10.3,0.7-15.7,1.9c-6.9,1.5-13.5,3-19.6,1.6c-7.8-1.8-13.5-6.9-20-12.7c-2.5-2.2-5.1-4.6-7.9-6.7c-0.5-0.4-1-0.9-1.3-1.6
		c-1-2.1,0-4.5,2.1-5.5c6.3-2.8,13.5-5.1,20.7-6.7c6.8-1.5,13.7-2.3,19.8-2.1c18.2,0.5,21.6,7.4,25.8,15.7c1.4,2.8,2.9,5.8,5.3,8.5
		c2.1,1.3,4.1,2.7,6.1,4.3c9.8-3.4,20.2-6.4,31.8-9.4c0.2-0.4,0.4-0.8,0.7-1.2c2.8-3.4,4.9-5.9,6.3-7.6c2-2.4,3.5-4.1,4.2-4.8l1-1
		l-26.9-8.9c-1.9-0.5-3.3-2.1-3.2-4.1c0.1-2.3,2-4.1,4.4-4c5.4,0.1,10.7-2.7,14.7-7c4.3-4.6,7.2-10.7,7.4-16.8c0-0.5,0.1-1,0.2-1.5
		c0.8-2.2,3.2-3.3,5.5-2.6c4.7,1.5,9.4,3,14.2,4.6l0,0c4.5,1.4,9.1,2.9,13.8,4.4c6.8-9.7,12.9-20,18.1-30.8c0.3-1.7,1.1-3.3,2.3-4.8
		c0.1-0.2,0.3-0.4,0.5-0.6c1.2-1.4,2.9-2.6,4.8-3.8c4.2-2.5,10.2-4.6,17-5.8c0.2,0,0.4-0.1,0.6-0.1c6.8-1.1,13.2-0.9,18,0.1
		c6.2,1.3,10.4,4.3,11.2,8.6c0.3,1.4,0.1,2.9-0.4,4.3c-0.1,0.2-0.1,0.3-0.2,0.5c-0.3,0.7-0.7,1.3-1.2,2
		c-8.4,13.8-21.4,26.6-34.6,39.6l-1.4,1.4c12.2,3.6,23,6.8,34,9.8C307,92.2,319.1,95.4,332.7,98.8L332.7,98.8z M220.7,75.4
		c-3.7-1.2-7.5-2.4-11.4-3.6l0,0l0,0c-3-1-6.1-1.9-9.2-3c-1.3,6.3-4.6,12.3-9,17c-2.1,2.3-4.6,4.2-7.2,5.8l18.1,6
		C208.6,90.4,214.9,83.1,220.7,75.4z M210.6,112.3c1.9-0.4,5.8-1.2,10.7-2c9.3-13.8,22-26.3,34.4-38.5c8.2-8.1,16.3-16.1,23.1-24.1
		c-1.7,0.4-3.6,0.8-5.5,1.1l-0.2,0l0,0l-0.1,0c-6.8,1.1-13.2,1-18.1-0.1c-2.3-0.5-4.4-1.2-6.1-2.2c-5.3,10.3-11.4,20.1-18.2,29.5
		c-8.9,12.2-18.9,23.8-30,34.9c-0.4,0.4-1.7,1.9-3.7,4.3l-0.2,0.3C201.3,114.4,205.9,113.3,210.6,112.3L210.6,112.3z M166.5,81.1
		c-0.1,2.3-2.2,4-4.6,3.9c-2.4-0.1-4.2-2.1-4.1-4.4c0.3-4.9,3.2-11.1,7.7-16.4c3.9-4.6,9.2-8.7,15.2-10.8c2.2-0.8,4.7,0.3,5.5,2.5
		c0.8,2.1-0.3,4.5-2.6,5.3c-4.5,1.6-8.5,4.7-11.5,8.2C168.8,73.5,166.7,77.9,166.5,81.1L166.5,81.1z M253.5,37.2
		c-0.3,0.6-0.6,1.3-0.9,1.9c0.6,0.5,2.1,1.1,4.3,1.6c3.9,0.8,9.1,0.9,14.8,0c0.1,0,0.2,0,0.4-0.1l0,0c5.7-0.9,10.7-2.7,14.1-4.7
		c1.2-0.7,2.2-1.4,2.8-1.9c0.3-0.5,0.6-0.9,0.8-1.4c-0.2-0.6-1.9-1.3-4.5-1.9c-3.9-0.8-9.2-0.9-15,0l0,0c-5.8,0.9-10.8,2.7-14.2,4.7
		C255,36.1,254.1,36.6,253.5,37.2L253.5,37.2z M199.7,302.9L199.7,302.9c-0.2-0.1-1.2,0.2-2.8,0.6c-2.9,0.8-6.4,2.6-9.9,5.3
		c-3.5,2.7-6.1,5.5-7.6,8c-0.5,0.8-0.9,1.5-1.1,1.9l0.2,0.5c0.5-0.1,1.3-0.3,2.4-0.6c2.9-0.8,6.4-2.6,9.9-5.3c3.5-2.7,6.1-5.5,7.6-8
		C199.3,304,199.8,303.1,199.7,302.9L199.7,302.9z M49.3,236.5c-2.4-0.2-4.2-2.2-4-4.4c0.2-2.3,2.3-4,4.6-3.8
		c9,0.7,17.1,0.9,24.3,0.8c7.2-0.1,13.6-0.6,19.3-1.3c2.4-0.3,4.5,1.3,4.9,3.5c0.3,2.3-1.3,4.4-3.7,4.7c-6.1,0.8-12.8,1.3-20.3,1.4
		C66.9,237.4,58.6,237.1,49.3,236.5L49.3,236.5z M357.7,106.4c-0.9,0.6-1.9,1.1-2.8,1.7c17.3-7.8,33.7-11.2,44.3-12.3
		c3.5-0.4,5-0.5,6.6-0.7c12.3-1.3,27.9-3.1,38.2-3.2c0.2,0,0.4,0,0.5-0.1c0.2-0.1,0.4-0.3,0.6-0.7c0.3-0.6,0.5-1.5,0.4-2.4
		c0-1.2-0.3-2.5-0.9-3.7c-1.4-2.8-6.6-1.7-10.8-0.9c-0.6,0.1-1.1,0.2-2.4,0.5c-19.1,3.5-33.8,6.7-45.7,10.2
		C374.2,98.2,365.3,101.9,357.7,106.4L357.7,106.4z M227.3,169.3c-0.6,0.4-1.1,0.8-1.7,1.2c-8.6,6.1-15.7,11.1-12.3,30.6
		c1.3,7.8,4.2,16.3,8,24.6c3.1,6.8,6.9,13.6,11.1,19.7c1.7-2.7,3.3-5.3,5-7.8c6.1-9.5,11.5-17.9,11.9-26.6c0.3-6.5-3.3-14.3-7-22.3
		c-2.5-5.5-5.1-11.1-6.7-16.8c-0.1,0.4-0.2,0.8-0.3,1.2c-3.1,14-2.5,27.5,0,40.7c0.4,2.3-1.1,4.4-3.5,4.8c-2.3,0.4-4.6-1.1-5-3.3
		c-2.6-14.1-3.2-28.6,0.1-43.9C227,170.6,227.2,170,227.3,169.3L227.3,169.3z M131.5,117c-2.6-4.9-5.8-8.7-17.2-9
		c-5.4-0.2-11.5,0.6-17.6,1.9c-4.3,0.9-8.6,2.2-12.7,3.6c1.1,0.9,2.1,1.8,3.1,2.7c5.6,5,10.5,9.4,16.1,10.7
		c4.1,0.9,9.8-0.3,15.6-1.6c2.4-0.5,4.7-1,7.1-1.4c-7.7-2.5-15.4-3.5-23.2-3.6c-2.4,0-4.3-1.9-4.3-4.2c0-2.3,2-4.1,4.4-4.1
		C112.3,112.1,121.9,113.4,131.5,117L131.5,117z M59.6,257.1c-16.5,0.3-25.4,6.7-37.5,33c27.1-2.9,32.2-10.5,38.1-19.2
		c1.6-2.4,3.3-4.9,5.3-7.4c-6.9,3.2-12.9,7.3-18.3,12.1c-1.8,1.5-4.5,1.4-6.1-0.3c-1.6-1.7-1.5-4.3,0.3-5.9
		C46.9,264.7,52.9,260.5,59.6,257.1L59.6,257.1z M371.8,74.1c2.3-1.2,4.4-2.3,6.3-3.3c7.1-3.7,10.8-5.6,12.2-7.8
		c1.5-2.5,1.3-6.9,0.9-16.1c0-1.1-0.1-2.3-0.1-3.5c-2,1.1-3.8,2-5.5,2.9c-7.4,3.9-11.2,5.8-12.6,8.1c-1.5,2.4-1.4,6.7-1.2,15.3
		C371.8,71,371.8,72.5,371.8,74.1L371.8,74.1z M382.2,78.1c-3.4,1.8-7.6,3.9-12.4,6.6l0,0c-0.6,0.3-1.4,0.6-2.1,0.6
		c-2.4,0-4.3-1.8-4.3-4.1c0-4.2-0.1-8-0.1-11.3c-0.2-10.2-0.3-15.3,2.4-19.7c2.7-4.3,7.1-6.6,15.9-11.2c3.3-1.7,7.2-3.8,11.5-6.1
		l0,0c0.6-0.3,1.3-0.5,2-0.5c2.4-0.1,4.4,1.7,4.4,4c0.1,4.1,0.2,7.4,0.4,10.2c0.5,10.9,0.7,16.1-2.1,20.7
		C395.1,71.5,390.7,73.7,382.2,78.1z M354.8,35.4c1.4-0.7,2.7-1.4,3.9-2c5.6-2.9,8.5-4.4,9.5-6.1c1.1-1.8,1-5.3,0.6-12.6l-0.1-1.6
		c-1.2,0.6-2.3,1.2-3.3,1.7c-5.9,3.1-8.9,4.6-9.9,6.3c-1.1,1.8-1,5.1-0.9,12C354.8,33.8,354.8,34.6,354.8,35.4L354.8,35.4z
		 M362.8,40.7c-2.8,1.4-6.2,3.2-10.1,5.4l0,0c-0.6,0.3-1.4,0.6-2.1,0.6c-2.4,0-4.3-1.8-4.3-4.1c0-3.3-0.1-6.5-0.1-9.2
		c-0.2-8.4-0.2-12.6,2.1-16.4c2.3-3.7,5.9-5.6,13.2-9.4c2.7-1.4,5.9-3.1,9.3-5l0,0c0.6-0.3,1.3-0.5,2-0.5c2.4-0.1,4.4,1.7,4.4,4
		c0.1,3.4,0.2,6,0.3,8.3c0.4,9,0.6,13.3-1.8,17.2C373.5,35.1,369.8,37,362.8,40.7z M341.9,80.9c-4.3,1.3-7.9,2.4-10.9,3.4
		c-7.6,2.4-11.5,3.7-15.8,2.8c-4.6-1-7.8-4.1-14.3-10.5c-1.7-1.6-3.6-3.5-6.1-5.9c-1.7-1.6-1.7-4.2,0-5.9c0.5-0.5,1.1-0.8,1.8-1l0,0
		c3.8-1.1,7.2-2.2,10.1-3.2c7.8-2.5,11.8-3.8,16.2-2.9c4.4,0.9,7.6,3.8,13.9,9.7c2,1.9,4.4,4.1,6.9,6.3c1.7,1.6,1.8,4.2,0.2,5.8
		C343.2,80.3,342.6,80.7,341.9,80.9L341.9,80.9L341.9,80.9z M328.2,76.4c1.3-0.4,2.7-0.9,4.2-1.3c-0.6-0.6-1.2-1.1-1.7-1.6
		c-5.1-4.8-7.7-7.1-9.7-7.6c-2-0.4-5.2,0.6-11.6,2.6c-1.1,0.3-2.3,0.7-3.6,1.1l1.1,1.1c5.4,5.2,7.9,7.7,10.1,8.2
		C319,79.4,322.1,78.4,328.2,76.4L328.2,76.4z"/>
</g>
<text transform="matrix(1 0 0 1 -2951.8 3626.905)" style="font-family:'Arial-BoldMT'; font-size:0.5461px;">Created by Olena Panasovska</text>
<text transform="matrix(1 0 0 1 -2951.8 3627.4509)" style="font-family:'Arial-BoldMT'; font-size:0.5461px;">from the Noun Project</text>
</svg>
