<svg xmlns="http://www.w3.org/2000/svg" viewBox="0 0 802.58 149.07"><defs><style>.cls-1{fill:#c30;}.cls-2{fill:#f93;}.cls-3{fill:#6c0;}.cls-4{fill:#fff;}.cls-5{fill:#cf3;}</style></defs><g id="Capa_6" data-name="Capa 6"><path class="cls-1" d="M575.58,71.18a37,37,0,0,0-7.73-10.11c-6-5.21-14.12-7.12-22-8.53A284.89,284.89,0,0,0,499.17,48c-1.28,0-2.77.09-3.49,1.15a4,4,0,0,0-.3,2.76,312.46,312.46,0,0,1-3.89,103.92l-.68.35,19.5.35a3.4,3.4,0,0,0,4.2-3.73l5.1-36.92,23.15,36.39a11.69,11.69,0,0,0,2.84,3.4,11.24,11.24,0,0,0,5.16,1.6q9.27,1.24,18.61,1.64a171.41,171.41,0,0,0-17-53.32c6,1.74,12.61,3.47,18.43,1.12,6.29-2.53,10-9.48,10.33-16.26S578.89,77.1,575.58,71.18ZM554.42,86.92a4.8,4.8,0,0,1-.93,1.51,16.2,16.2,0,0,1-6,4.68,4.25,4.25,0,0,1-3.74-.2l-2.34.54A5.25,5.25,0,0,1,535.85,96a4.36,4.36,0,0,1-3.21.32c-7.62-2.38-9.78-10.48-5-16.74a12,12,0,0,1,8.81-4.69c1.57-.1,3.3-.14,5-.08a4.17,4.17,0,0,1,2.37-.67,10.79,10.79,0,0,1,1.22.13,3.9,3.9,0,0,1,.93-.4,8.2,8.2,0,0,1,2.74-.5,5.4,5.4,0,0,1,3.74,1.34A5.23,5.23,0,0,1,553.58,76a5.55,5.55,0,0,1,1.29,3.08,4.48,4.48,0,0,1-.23,1.86c.05.13.12.26.16.39A7.09,7.09,0,0,1,554.42,86.92Z" transform="translate(-3.18 -14.5)"/><path class="cls-1" d="M576.87,70.42c-2.9-5.16-6.46-9.89-11.54-13.06-4.9-3-10.58-4.61-16.19-5.73a270.12,270.12,0,0,0-39.69-4.76c-3.42-.17-6.85-.32-10.28-.33-2.53,0-5.14.84-5.37,3.77a23,23,0,0,0,.44,4.52c.22,1.76.42,3.52.6,5.29.35,3.36.65,6.74.89,10.11a314.09,314.09,0,0,1,.26,40.12A308.61,308.61,0,0,1,490,155.47l.69-.9-.67.36a1.51,1.51,0,0,0,.75,2.79l15.72.28c2.1,0,5.26.53,7.13-.54,2.55-1.46,2.43-5.14,2.78-7.67.47-3.45.95-6.89,1.42-10.34q1.6-11.56,3.19-23.13l-2.74.36,15.84,24.89c2.62,4.11,5.16,8.3,7.87,12.35a9.81,9.81,0,0,0,4.26,3.86,24.22,24.22,0,0,0,6.43,1.28q8.29,1,16.66,1.39a1.52,1.52,0,0,0,1.45-1.9,174.05,174.05,0,0,0-17.11-53.68l-1.7,2.2c8,2.32,17.18,4.24,24-1.86,5.83-5.17,7.46-13.41,6.17-20.82a45.16,45.16,0,0,0-5.36-14c-.94-1.69-3.53-.18-2.59,1.51,3.6,6.49,6.64,14.2,5,21.72-1.44,6.52-6.16,12.11-13.12,12.68-4.53.37-9-.91-13.32-2.15a1.51,1.51,0,0,0-1.69,2.2,172.09,172.09,0,0,1,16.81,53l1.44-1.9q-6.87-.3-13.73-1a56.82,56.82,0,0,1-6.77-.94,6.91,6.91,0,0,1-4.48-3.4c-5.07-7.79-10-15.68-15-23.52l-8.52-13.39c-.61-1-2.55-1-2.74.36q-1.35,9.84-2.72,19.69l-1.35,9.84-.68,4.93a17.5,17.5,0,0,1-.71,4.19c-.49,1.16-1.9.91-3,.89l-3-.05-9.48-.17-6.44-.12.76,2.8a2.64,2.64,0,0,0,1.56-2.2q.54-2.61,1-5.22.9-4.75,1.63-9.54,1.52-9.75,2.42-19.6a313.54,313.54,0,0,0,1.13-39.13Q499,71.91,498,62c-.31-3.21-.68-6.41-1.09-9.61-.15-1.22-.55-2.6,1-2.84a27,27,0,0,1,4.67,0,281.79,281.79,0,0,1,39.53,3.79c6.36,1.06,13,2.14,18.83,5C567,61.32,571,66.16,574.28,71.93A1.5,1.5,0,0,0,576.87,70.42Z" transform="translate(-3.18 -14.5)"/><path class="cls-1" d="M553.13,86.16c-1,2.44-3.62,4.27-5.92,5.4a2.91,2.91,0,0,1-1.89.35,6.42,6.42,0,0,0-2-.44A10,10,0,0,0,541,92c-.77.3-.92.92-1.46,1.47a3.9,3.9,0,0,1-2.81,1.07,5,5,0,0,0-1.6.12,3.45,3.45,0,0,1-2.39.06,9.07,9.07,0,0,1-4.78-3.61c-2.34-3.65-1.28-8.34,1.56-11.4a10.54,10.54,0,0,1,6.62-3.33,37.19,37.19,0,0,1,4.48-.13,3.94,3.94,0,0,0,1.89-.29,4,4,0,0,1,2.25-.28,5.35,5.35,0,0,0,2.1-.54,7.27,7.27,0,0,1,2.18-.31c1.75,0,2.83,1.14,3.72,2.53a4.12,4.12,0,0,1,.66,1.92c0,.72-.31,1.35-.19,2.07a11.27,11.27,0,0,1,.51,2.52,6,6,0,0,1-.57,2.29c-.81,1.75,1.78,3.27,2.59,1.52a8.58,8.58,0,0,0,.66-6.3c-.27-.75.06-1.73-.06-2.68a7,7,0,0,0-1-2.86,7.84,7.84,0,0,0-4.9-3.86,9.15,9.15,0,0,0-6,1l1.15-.15a8.13,8.13,0,0,0-2.65-.1,13.87,13.87,0,0,1-2.52.56,28.75,28.75,0,0,0-5.79.35,13.54,13.54,0,0,0-8.39,5.47c-3.36,4.62-3.48,11.13.59,15.37a12.34,12.34,0,0,0,4,2.72,6.78,6.78,0,0,0,5.85.1l-1.16.15a6.9,6.9,0,0,0,7.21-3.21l-.9.69,2.34-.53-1.16-.15c2.78,1.26,5.07.54,7.53-1.06,2-1.32,4.27-3.18,5.25-5.47a1.55,1.55,0,0,0-.54-2.05A1.5,1.5,0,0,0,553.13,86.16Z" transform="translate(-3.18 -14.5)"/><path class="cls-1" d="M590.65,60.68A789.51,789.51,0,0,1,592,146.47c-.13,3.32-.13,7.06,2.23,9.4a11.33,11.33,0,0,0,5.14,2.48A102.91,102.91,0,0,0,641.27,161c5.61-.81,11.38-2.19,15.75-5.79,8.44-6.95,9-19.46,8.86-30.39l-.75-59.21a4,4,0,0,0-.65-2.62c-.79-1-2.22-1-3.46-.88l-16.19.93a136.66,136.66,0,0,1-3,52c-.89,3.47-2.59,7.53-6.15,8-3.75.51-6.52-3.41-7.81-7-2.85-7.79-3.18-16.24-3.28-24.53q-.15-11.43.2-22.86a2.49,2.49,0,0,0-.46-1.88,2.4,2.4,0,0,0-1.16-.51l-31.66-7.88" transform="translate(-3.18 -14.5)"/><path class="cls-1" d="M589.15,60.68q2.1,30.2,1.89,60.49,0,7.58-.25,15.13-.1,3.85-.24,7.69a54.33,54.33,0,0,0-.07,6.25c.34,4.08,2.15,7.23,6.06,8.78A63.41,63.41,0,0,0,610,162.2a104.42,104.42,0,0,0,28.52.7c8.11-.94,16.91-2.65,22.34-9.34,4.69-5.77,6.05-13.36,6.44-20.6.23-4.1.12-8.22.07-12.33l-.19-15.18-.38-30.35-.09-7.46c0-2,.26-4.57-1.5-6-1.5-1.24-3.56-1-5.36-.89l-7.61.43-7.36.43a1.53,1.53,0,0,0-1.45,1.9,135.1,135.1,0,0,1-2.17,48c-.71,3.09-1.45,8.68-5,10-4.13,1.54-6.58-4.55-7.49-7.44a60.91,60.91,0,0,1-2.43-15.23c-.27-5.36-.26-10.74-.24-16.11q0-4.09.1-8.19c0-1.41.06-2.82.1-4.23a8.84,8.84,0,0,0-.22-3.4,3.3,3.3,0,0,0-2.46-1.93c-1.43-.4-2.88-.72-4.32-1.07l-9.11-2.27L592,57c-1.88-.46-2.68,2.43-.8,2.9l16.79,4.17,8.64,2.15,3.83,1,2.16.53c.73.19.77.1.76.84,0,11.28-.75,22.61.25,33.87a49.86,49.86,0,0,0,3.35,15.26c1.57,3.64,4.77,7.56,9.19,6.84,4.06-.66,6-4.88,7-8.43a116.9,116.9,0,0,0,3.16-16.06,138.84,138.84,0,0,0,0-37.38l-1.44,1.9,14.23-.82c1.37-.08,4.29-.84,4.54,1.09a60.84,60.84,0,0,1,.11,7l.36,28.61c.11,9.16.37,18.32.32,27.48,0,6.81-.41,14.17-3.66,20.31a18.6,18.6,0,0,1-7,7.45,32.52,32.52,0,0,1-11.42,3.65,99.63,99.63,0,0,1-26.83.58,100.47,100.47,0,0,1-13.25-2.38,23,23,0,0,1-5.75-1.86,5.8,5.8,0,0,1-2.82-4.21,22.19,22.19,0,0,1-.19-5.28q.13-3.58.24-7.19c.15-4.79.24-9.59.3-14.39q.33-28.4-1.39-56.78-.21-3.6-.47-7.18c-.13-1.92-3.13-1.93-3,0Z" transform="translate(-3.18 -14.5)"/><path class="cls-1" d="M738.43,61A156.15,156.15,0,0,0,706,59.23c-6.76.34-13.7,1.17-19.65,4.41a11.92,11.92,0,0,0-5.11,4.67,14.84,14.84,0,0,0-1.29,5.91c-.5,6.49-.48,13.86,4.19,18.39C690.47,98.79,703,97,707,104.94c1.91,3.77.88,8.49-1.46,12s-5.81,6.09-9.19,8.64q-11.07,8.36-21.68,17.31a3.11,3.11,0,0,0-1.39,2.09,3,3,0,0,0,.84,1.83l6.81,8.93a8.12,8.12,0,0,0,3,2.81c2.36,1,5-.35,7.2-1.66,7.18-4.31,14.42-8.64,20.64-14.25S723.2,130,725.31,121.89c1.32-5.12,1.37-10.48,1.17-15.76-.2-5.08-.91-10.7-4.77-14-2.38-2-5.55-2.79-8.29-4.3s-5.23-4.42-4.47-7.45c.68-2.74,3.67-4.19,6.41-4.85A27.12,27.12,0,0,1,735,78.43a85.87,85.87,0,0,0,4.31-15.68" transform="translate(-3.18 -14.5)"/><path class="cls-1" d="M738.83,59.58A149.29,149.29,0,0,0,701.54,58c-5.58.53-11.21,1.65-16.16,4.4a13.31,13.31,0,0,0-5.48,5.11c-1.25,2.38-1.4,5.14-1.57,7.78-.31,4.78-.24,9.82,1.81,14.25,1.88,4,5.43,6.45,9.47,8,6.58,2.5,18.42,3.57,16.72,13.47-.94,5.53-5.52,9.28-9.74,12.49-4.9,3.71-9.77,7.47-14.55,11.34q-3.7,3-7.34,6a9.5,9.5,0,0,0-2.57,2.64,3.59,3.59,0,0,0,.42,3.71c1.78,2.67,3.93,5.15,5.88,7.7,1.51,2,3,4.42,5.5,5.2,2.71.83,5.48-.5,7.77-1.85q3.84-2.25,7.61-4.63a97,97,0,0,0,14-10.37,50.44,50.44,0,0,0,9.8-12.08,38.13,38.13,0,0,0,4.79-15.75,72.88,72.88,0,0,0,.12-8.87,39.79,39.79,0,0,0-.85-7.62,15.83,15.83,0,0,0-2.87-6.31,15.27,15.27,0,0,0-6.19-4.33c-2.34-1-4.9-1.92-6.57-4-1.47-1.8-1.64-4.08.26-5.63s4.45-2,6.72-2.25a25.67,25.67,0,0,1,8.25.37,26.41,26.41,0,0,1,7.54,2.87,1.53,1.53,0,0,0,2.2-.9,87.94,87.94,0,0,0,4.3-15.68c.34-1.89-2.55-2.7-2.89-.8A88.55,88.55,0,0,1,733.59,78l2.2-.89a28.91,28.91,0,0,0-15.39-3.8c-4.24.17-10.07,1.08-12.33,5.21-2.56,4.68,1.69,9.22,5.69,11.14,2.3,1.1,4.9,1.84,6.89,3.5A11.31,11.31,0,0,1,724.07,99a32.48,32.48,0,0,1,.91,7.09,77.84,77.84,0,0,1-.06,8.64A35.12,35.12,0,0,1,720.29,130c-5.54,9.55-14.65,16.17-23.86,21.88-2.37,1.47-4.74,3-7.19,4.32a6.85,6.85,0,0,1-3.91,1.13,4.63,4.63,0,0,1-2.89-2.09c-1.91-2.38-3.72-4.86-5.57-7.28-.51-.68-2.39-2.44-2-3.27a5.27,5.27,0,0,1,1.37-1.25l2.05-1.72q7-5.85,14.28-11.46c4.31-3.33,9.21-6.39,12.72-10.62,3.16-3.8,5.28-9.14,3.57-14.05-1.32-3.78-4.46-6.11-8-7.57s-7.44-2.15-11-3.61a12.63,12.63,0,0,1-7.91-8.73,26,26,0,0,1-.73-6.81,39.75,39.75,0,0,1,.55-7.55c1.09-5.43,7.1-7.71,11.9-9,5.58-1.48,11.43-1.72,17.17-1.82a155.93,155.93,0,0,1,18.21.74c3,.3,6,.69,9,1.17,1.89.3,2.71-2.59.8-2.9Z" transform="translate(-3.18 -14.5)"/><path class="cls-1" d="M746.83,61.14a592.38,592.38,0,0,1,3.54,100.7l9.38-1.19a4.26,4.26,0,0,0,2.33-.76,4.36,4.36,0,0,0,1.16-3l2-16.17c.18-1.47.49-3.13,1.75-3.88a4.88,4.88,0,0,1,2.23-.49l12.95-.75,2.66,22.4,15.65-3a4.49,4.49,0,0,0,2.89-1.33,4.38,4.38,0,0,0,.66-2.37c.59-7.9-.15-15.83-.9-23.72l-6.5-68.93a29.07,29.07,0,0,0-11.39,1.1A4.2,4.2,0,0,0,783.14,61a4.51,4.51,0,0,0-.45,3.46l3.06,21.83a4,4,0,0,1-.41,3.13,3.71,3.71,0,0,1-1.51,1,38.26,38.26,0,0,1-16.06,3.22l.71-25.78c0-1.34,0-2.87-1-3.74a4.57,4.57,0,0,0-2.33-.82l-16.58-2.54" transform="translate(-3.18 -14.5)"/><path class="cls-1" d="M745.33,61.14a592.84,592.84,0,0,1,4.23,78.46q-.13,11.13-.69,22.24a1.5,1.5,0,0,0,1.5,1.5l6.91-.87c1.78-.23,4.05-.18,5.56-1.28s1.74-3,2-4.75q.45-3.56.88-7.11l.85-6.86c.17-1.33.07-4.07,1.76-4.48a18.76,18.76,0,0,1,3.18-.23l3.49-.2,7.22-.42-1.5-1.5,2.66,22.4a1.54,1.54,0,0,0,1.9,1.45L797,157.25c2.8-.54,7-.56,8.2-3.74a16,16,0,0,0,.51-4.63c.09-2.06.09-4.12,0-6.18-.1-3.88-.41-7.75-.76-11.62-1.39-15.37-2.89-30.73-4.34-46.1L798.14,58.7a1.55,1.55,0,0,0-1.5-1.5,29.91,29.91,0,0,0-12,1.21,4.68,4.68,0,0,0-3.44,3.1c-.48,1.75.06,3.75.31,5.5l1.8,12.85c.31,2.18.64,4.35.92,6.53.08.62.29,1.55-.13,2.08s-1.86,1-2.62,1.26a37.75,37.75,0,0,1-13.75,2.38l1.5,1.5.38-13.88.18-6.44c.06-2.15.26-4.34.15-6.49a5,5,0,0,0-1.91-4.11c-1.54-1-3.7-1-5.47-1.31l-13.66-2.09c-1.89-.29-2.71,2.6-.8,2.89l12.19,1.87A29.4,29.4,0,0,1,766,65c1.43.54,1,2.63,1,3.85l-.68,24.79a1.52,1.52,0,0,0,1.5,1.5,40.53,40.53,0,0,0,11.94-1.62,26.18,26.18,0,0,0,5.54-2.12,4.27,4.27,0,0,0,2.1-4.2c-.11-2-.52-4-.8-5.92l-.92-6.55-.92-6.55-.4-2.91a8.16,8.16,0,0,1-.21-2.78c.21-.93,1.19-1.11,2-1.35a30.3,30.3,0,0,1,3.37-.75,28.77,28.77,0,0,1,7.18-.16l-1.5-1.5,4.21,44.63,2.11,22.32a186,186,0,0,1,1.27,21.75c0,1.15-.07,2.3-.15,3.45-.05.67,0,1.57-.5,2.08a4.05,4.05,0,0,1-2,.68l-2.94.56-12.7,2.43,1.89,1.44-2.66-22.4a1.52,1.52,0,0,0-1.5-1.5c-4.56.26-9.18.32-13.72.81s-4.6,4.9-5.05,8.5c-.56,4.54-1,9.13-1.7,13.64-.13.85-.25,1.59-1.12,1.89a15,15,0,0,1-3.06.46l-7.16.9,1.5,1.5a593.58,593.58,0,0,0-1.29-78.56q-.92-11.1-2.25-22.14c-.23-1.89-3.24-1.92-3,0Z" transform="translate(-3.18 -14.5)"/><g id="Capa_3" data-name="Capa 3"><path class="cls-2" d="M571.87,66.85a37,37,0,0,0-7.72-10.11c-6-5.21-14.13-7.12-21.95-8.53a284,284,0,0,0-46.73-4.49c-1.28,0-2.78.08-3.49,1.14a4,4,0,0,0-.3,2.76,312.46,312.46,0,0,1-3.89,103.92l-.68.35,19.49.35a3.4,3.4,0,0,0,4.21-3.73q2.55-18.47,5.09-36.92L539.06,148a11.53,11.53,0,0,0,2.83,3.4,11.25,11.25,0,0,0,5.17,1.6q9.26,1.25,18.61,1.64a171.76,171.76,0,0,0-17-53.32c6,1.74,12.6,3.47,18.42,1.12,6.3-2.53,10-9.48,10.34-16.26S575.19,72.77,571.87,66.85Zm-23.56,22c-2.67,1.85-5.79,2-8.94,2.22-3.32.19-6.82.94-10.14.41-7.18-1.15-7-9-7-15.18-1.52-2.72.17-6.51,3.16-7.46a6.11,6.11,0,0,1,3-.26,74.67,74.67,0,0,1,11.85.87c3.08.45,6.28,1.1,8.75,3.11C554,76.65,553.67,85.18,548.31,88.89Z" transform="translate(-3.18 -14.5)"/><path class="cls-2" d="M573.17,66.09c-2.91-5.15-6.46-9.89-11.55-13.06-4.89-3.05-10.57-4.61-16.18-5.73a271.61,271.61,0,0,0-39.7-4.76c-3.42-.17-6.85-.32-10.27-.32-2.54,0-5.14.83-5.37,3.76a23,23,0,0,0,.44,4.52c.21,1.76.41,3.52.59,5.29.36,3.37.65,6.74.89,10.12a312.1,312.1,0,0,1,.27,40.11,310,310,0,0,1-6,45.12l.69-.9-.68.36a1.51,1.51,0,0,0,.76,2.79l15.71.29c2.11,0,5.27.52,7.13-.54,2.56-1.47,2.43-5.14,2.78-7.68.48-3.45.95-6.89,1.43-10.34q1.59-11.57,3.19-23.13l-2.74.36q7.92,12.44,15.83,24.89c2.62,4.11,5.16,8.3,7.88,12.35a9.7,9.7,0,0,0,4.26,3.86,24.14,24.14,0,0,0,6.43,1.28q8.29,1,16.66,1.39a1.52,1.52,0,0,0,1.44-1.9A173.79,173.79,0,0,0,550,100.54l-1.69,2.21c8,2.31,17.18,4.23,24.05-1.86,5.82-5.18,7.46-13.42,6.17-20.83a45.16,45.16,0,0,0-5.36-14c-.94-1.69-3.53-.18-2.59,1.51,3.6,6.49,6.63,14.2,5,21.72-1.44,6.53-6.17,12.11-13.12,12.68-4.54.37-9-.9-13.33-2.15a1.52,1.52,0,0,0-1.69,2.21,171.41,171.41,0,0,1,16.81,53l1.45-1.9q-6.88-.3-13.73-1a57.27,57.27,0,0,1-6.78-.94,6.94,6.94,0,0,1-4.48-3.4c-5.07-7.79-10-15.68-15-23.52l-8.51-13.39c-.62-1-2.55-1-2.74.36q-1.37,9.84-2.72,19.69c-.45,3.28-.91,6.56-1.36,9.85l-.68,4.92a17.41,17.41,0,0,1-.7,4.19c-.49,1.17-1.91.91-3,.89l-3,0-9.49-.17-6.43-.12.76,2.8a2.66,2.66,0,0,0,1.56-2.2q.52-2.61,1-5.22c.59-3.17,1.14-6.35,1.63-9.54q1.51-9.75,2.42-19.6a313.54,313.54,0,0,0,1.13-39.13q-.33-9.91-1.3-19.79c-.31-3.21-.69-6.41-1.09-9.61-.16-1.22-.56-2.6,1-2.84a26.86,26.86,0,0,1,4.66,0,281.51,281.51,0,0,1,39.53,3.79c6.37,1.07,13,2.14,18.84,5,6.06,2.93,10.07,7.77,13.32,13.54C571.52,69.29,574.12,67.78,573.17,66.09Z" transform="translate(-3.18 -14.5)"/><path class="cls-2" d="M547.55,87.6c-2.89,1.9-6.22,1.81-9.54,2.12-3.13.28-6.57,1-9.64.06-4.23-1.31-4.51-6.64-4.6-10.31,0-1,.08-2.11,0-3.13-.07-.61-.43-1.08-.53-1.68a3.72,3.72,0,0,1,.2-1.87c1.1-3.07,4.19-2.71,6.86-2.66a71.73,71.73,0,0,1,10.35.93c2.94.47,6.1,1.2,8.21,3.45a9.08,9.08,0,0,1-1.27,13.09c-1.55,1.11-.06,3.71,1.52,2.59A11.84,11.84,0,0,0,545.21,69a50.46,50.46,0,0,0-11.86-1.77,57.29,57.29,0,0,0-6.28-.2,7.4,7.4,0,0,0-4.53,1.79,7.28,7.28,0,0,0-2.21,3.76,7.06,7.06,0,0,0-.13,2.1,6.41,6.41,0,0,0,.21,1.16c.05.17.12.32.18.48s.22.63.17.38c.16.83,0,2.65,0,3.81a31.61,31.61,0,0,0,.45,4.13,10.57,10.57,0,0,0,3.7,6.69c3.17,2.39,7.51,1.94,11.21,1.55,4.38-.45,9.08-.19,12.91-2.71C550.67,89.13,549.17,86.53,547.55,87.6Z" transform="translate(-3.18 -14.5)"/><path class="cls-2" d="M587,56.35a789.51,789.51,0,0,1,1.3,85.79c-.13,3.32-.12,7.07,2.24,9.41a11.45,11.45,0,0,0,5.13,2.48,103.13,103.13,0,0,0,42,2.68c5.6-.81,11.37-2.19,15.75-5.79,8.44-6.95,9-19.45,8.85-30.39l-.74-59.21a4.12,4.12,0,0,0-.65-2.62c-.8-1-2.23-1-3.46-.88l-16.2.93a136.26,136.26,0,0,1-3,52c-.88,3.47-2.59,7.54-6.14,8-3.75.51-6.52-3.41-7.82-7-2.84-7.79-3.17-16.24-3.28-24.53q-.13-11.43.21-22.86A1.83,1.83,0,0,0,619.51,62l-31.67-7.88" transform="translate(-3.18 -14.5)"/><path class="cls-2" d="M585.45,56.35q2.09,30.2,1.89,60.49-.06,7.57-.25,15.13-.11,3.85-.24,7.69a52.16,52.16,0,0,0-.07,6.25c.34,4.08,2.15,7.23,6.05,8.79a64.75,64.75,0,0,0,13.42,3.18,104.79,104.79,0,0,0,28.52.69c8.11-.94,16.9-2.65,22.33-9.34,4.7-5.77,6-13.35,6.45-20.59.22-4.11.12-8.23.07-12.34l-.19-15.17L663,70.78,663,63.31c0-2.05.26-4.57-1.49-6-1.5-1.25-3.56-1-5.37-.9l-7.61.44-7.36.42a1.54,1.54,0,0,0-1.45,1.9,134.41,134.41,0,0,1-2.17,48c-.71,3.09-1.44,8.68-5,10-4.12,1.54-6.57-4.55-7.48-7.44a60.85,60.85,0,0,1-2.44-15.23c-.27-5.36-.26-10.74-.24-16.11q0-4.1.1-8.19c0-1.41.06-2.82.1-4.23a8.84,8.84,0,0,0-.21-3.4,3.34,3.34,0,0,0-2.46-1.93c-1.43-.4-2.88-.72-4.32-1.07l-9.12-2.27-18.23-4.53c-1.87-.47-2.67,2.42-.79,2.89l16.79,4.17,8.63,2.15,3.84,1,2.16.53c.73.19.76.1.76.85,0,11.28-.75,22.6.25,33.87.46,5.15,1.28,10.47,3.35,15.25,1.57,3.64,4.77,7.56,9.19,6.84,4.06-.66,6-4.88,7-8.43a118.42,118.42,0,0,0,3.16-16.06,139.66,139.66,0,0,0,0-37.38l-1.45,1.9,14.24-.82c1.37-.08,4.28-.84,4.54,1.09a58.68,58.68,0,0,1,.1,7l.36,28.61c.12,9.16.37,18.32.33,27.48,0,6.81-.41,14.17-3.66,20.32a18.77,18.77,0,0,1-7,7.44A32.58,32.58,0,0,1,638.61,155a101.33,101.33,0,0,1-40.09-1.8,23.15,23.15,0,0,1-5.75-1.86,5.86,5.86,0,0,1-2.82-4.2,22.83,22.83,0,0,1-.19-5.29c.09-2.39.18-4.79.25-7.19q.21-7.18.3-14.38.32-28.41-1.39-56.79-.23-3.6-.47-7.18c-.13-1.92-3.13-1.93-3,0Z" transform="translate(-3.18 -14.5)"/><path class="cls-2" d="M734.73,56.7a156.18,156.18,0,0,0-32.47-1.8c-6.77.34-13.71,1.17-19.66,4.41A12,12,0,0,0,677.49,64a15.19,15.19,0,0,0-1.29,5.91c-.49,6.49-.48,13.86,4.19,18.39,6.37,6.19,18.88,4.41,22.89,12.33,1.9,3.77.88,8.49-1.46,12s-5.82,6.09-9.19,8.64q-11.07,8.35-21.69,17.31a2.33,2.33,0,0,0-.55,3.92l6.81,8.93a8.23,8.23,0,0,0,3,2.81c2.35,1,5-.35,7.19-1.66,7.19-4.3,14.43-8.64,20.65-14.25s11.43-12.64,13.53-20.75c1.33-5.12,1.38-10.48,1.17-15.76-.2-5.08-.9-10.7-4.77-14-2.37-2-5.55-2.8-8.28-4.31s-5.23-4.42-4.48-7.45c.69-2.74,3.67-4.19,6.42-4.85a27.18,27.18,0,0,1,19.67,2.91,85.37,85.37,0,0,0,4.3-15.69" transform="translate(-3.18 -14.5)"/><path class="cls-2" d="M735.13,55.25a149.35,149.35,0,0,0-37.3-1.54c-5.58.53-11.21,1.65-16.15,4.4a13.31,13.31,0,0,0-5.48,5.11c-1.25,2.39-1.4,5.14-1.57,7.78-.31,4.78-.25,9.83,1.81,14.25,1.88,4,5.42,6.45,9.47,8,6.57,2.5,18.41,3.57,16.72,13.47-1,5.53-5.52,9.28-9.74,12.49-4.91,3.71-9.77,7.47-14.56,11.34q-3.69,3-7.33,6a9.36,9.36,0,0,0-2.57,2.64,3.55,3.55,0,0,0,.42,3.71c1.77,2.67,3.93,5.15,5.87,7.7,1.51,2,3,4.43,5.5,5.2,2.71.84,5.48-.5,7.77-1.85q3.84-2.25,7.61-4.63a96.38,96.38,0,0,0,14-10.37,50.69,50.69,0,0,0,9.8-12.08,38.12,38.12,0,0,0,4.78-15.74,73.07,73.07,0,0,0,.13-8.88,40.7,40.7,0,0,0-.85-7.62,16.1,16.1,0,0,0-2.87-6.31A15.33,15.33,0,0,0,714.38,84c-2.35-1-4.9-1.92-6.57-4-1.48-1.8-1.64-4.08.26-5.63s4.45-2,6.72-2.25a26,26,0,0,1,8.25.37,26.35,26.35,0,0,1,7.53,2.87,1.52,1.52,0,0,0,2.2-.9,88,88,0,0,0,4.31-15.68c.33-1.89-2.56-2.7-2.89-.8a88.07,88.07,0,0,1-4.31,15.69l2.21-.9A28.91,28.91,0,0,0,716.69,69c-4.23.17-10.06,1.07-12.32,5.2-2.56,4.68,1.68,9.22,5.68,11.14,2.3,1.1,4.91,1.84,6.89,3.51a11.17,11.17,0,0,1,3.42,5.84,31.88,31.88,0,0,1,.91,7.09,77.82,77.82,0,0,1,0,8.64,35.12,35.12,0,0,1-4.63,15.27c-5.54,9.55-14.65,16.17-23.86,21.88-2.37,1.47-4.74,3-7.2,4.32a6.93,6.93,0,0,1-3.9,1.14,4.66,4.66,0,0,1-2.9-2.1c-1.91-2.38-3.71-4.86-5.56-7.28-.52-.68-2.39-2.44-2-3.27.23-.48,1-.93,1.36-1.25l2.06-1.72q7-5.85,14.28-11.46c4.31-3.33,9.2-6.39,12.72-10.62,3.16-3.8,5.28-9.14,3.56-14-1.32-3.78-4.45-6.1-8-7.57s-7.43-2.15-11-3.61a12.65,12.65,0,0,1-7.91-8.73,26.88,26.88,0,0,1-.73-6.81A39.75,39.75,0,0,1,678,67c1.1-5.43,7.11-7.71,11.9-9,5.58-1.48,11.44-1.72,17.18-1.82a155.93,155.93,0,0,1,18.21.74q4.51.45,9,1.17c1.89.3,2.7-2.59.8-2.9Z" transform="translate(-3.18 -14.5)"/><path class="cls-2" d="M743.12,56.81a591.39,591.39,0,0,1,3.54,100.7l9.39-1.18a4.41,4.41,0,0,0,2.33-.77,4.46,4.46,0,0,0,1.16-3l2-16.17c.18-1.46.49-3.13,1.76-3.88a4.82,4.82,0,0,1,2.23-.49l13-.75,2.66,22.41,15.64-3a4.47,4.47,0,0,0,2.89-1.33,4.39,4.39,0,0,0,.67-2.37c.59-7.9-.16-15.83-.9-23.72l-6.5-68.93a29,29,0,0,0-11.39,1.1,4.1,4.1,0,0,0-2.11,1.18c-.75.93-.62,2.26-.46,3.45l3.07,21.83a4.08,4.08,0,0,1-.41,3.14,4,4,0,0,1-1.52,1,38.33,38.33,0,0,1-16,3.22l.71-25.79c0-1.34,0-2.87-1-3.74a4.64,4.64,0,0,0-2.33-.82L744.83,56.4" transform="translate(-3.18 -14.5)"/><path class="cls-2" d="M741.62,56.81a592.94,592.94,0,0,1,4.24,78.46q-.14,11.13-.7,22.24a1.5,1.5,0,0,0,1.5,1.5l6.92-.87c1.78-.23,4-.18,5.56-1.28s1.74-3,2-4.75q.43-3.56.88-7.1l.85-6.87c.16-1.33.07-4.07,1.76-4.48a18.76,18.76,0,0,1,3.18-.23l3.49-.2,7.22-.42-1.5-1.5,2.66,22.41a1.53,1.53,0,0,0,1.9,1.44l11.73-2.24c2.79-.54,7.05-.56,8.19-3.74a15.69,15.69,0,0,0,.52-4.63q.12-3.09,0-6.18c-.1-3.88-.4-7.75-.75-11.62-1.39-15.37-2.89-30.73-4.34-46.09l-2.48-26.29a1.56,1.56,0,0,0-1.5-1.5,29.88,29.88,0,0,0-12,1.21,4.7,4.7,0,0,0-3.45,3.1c-.47,1.75.07,3.75.31,5.5l1.81,12.85c.31,2.18.64,4.36.92,6.54.08.62.29,1.54-.14,2.07s-1.86,1-2.62,1.26a37.88,37.88,0,0,1-13.74,2.39l1.5,1.5L766,75.4l.18-6.44c.06-2.15.25-4.34.14-6.48a4.94,4.94,0,0,0-1.91-4.12c-1.53-1-3.7-1-5.47-1.31L745.23,55c-1.89-.29-2.7,2.6-.79,2.89l12.19,1.87a28.43,28.43,0,0,1,5.62.93c1.44.54,1,2.62,1,3.85l-.68,24.79a1.52,1.52,0,0,0,1.5,1.5A40.43,40.43,0,0,0,776,89.16,25.77,25.77,0,0,0,781.54,87a4.27,4.27,0,0,0,2.11-4.19c-.12-2-.53-4-.8-5.93l-.92-6.55L781,63.82l-.41-2.91a8.15,8.15,0,0,1-.2-2.78c.21-.93,1.18-1.11,2-1.34a27.36,27.36,0,0,1,3.37-.75,28.75,28.75,0,0,1,7.18-.17l-1.5-1.5L795.65,99l2.1,22.32A188.33,188.33,0,0,1,799,143.07c0,1.15-.08,2.3-.16,3.45,0,.67,0,1.57-.5,2.08a4,4,0,0,1-2,.68l-2.93.56-12.71,2.43,1.9,1.45L780,131.31a1.54,1.54,0,0,0-1.5-1.5c-4.56.26-9.19.32-13.72.81s-4.61,4.91-5,8.5c-.57,4.54-1,9.13-1.7,13.65-.13.84-.25,1.58-1.13,1.89a15.58,15.58,0,0,1-3.06.45l-7.16.9,1.5,1.5A591.88,591.88,0,0,0,746.88,79q-.92-11.08-2.26-22.14c-.23-1.89-3.23-1.92-3,0Z" transform="translate(-3.18 -14.5)"/></g></g><g id="Capa_4" data-name="Capa 4"><path class="cls-3" d="M132,97.71c-1.55-10.66-5.32-20.89-9.79-30.69-3.93-8.61-8.52-17.12-15.3-23.72C101.41,38,94.75,34.1,88.05,30.47c-6.15-3.34-12.45-6.54-19.22-8.31a49.6,49.6,0,0,0-38.46,5.95l2.94-2.34c-12.74,5-20.91,18.15-23.1,31.65s.7,27.29,4.64,40.38c4.24,14.09,10,28.22,20.31,38.68a60.86,60.86,0,0,0,35.69,17.06,75,75,0,0,0,39.32-6.3,38.41,38.41,0,0,0,11.22-7,32.52,32.52,0,0,0,7.13-10.76C132.78,119.55,133.52,108.38,132,97.71Zm-45.42,5.92c-4.09,6-12.25,5-18.28,3-3.87-1.29-8-3.07-10.79-6.15C55,97.75,54,94.12,52.85,90.66c-2.53-7.49-3.13-16.31-.39-24a13.41,13.41,0,0,1,16.42-8.82,17.28,17.28,0,0,1,10.69,2.73A26.05,26.05,0,0,1,91.38,78.27C93,86.53,91.35,96.55,86.54,103.63Z" transform="translate(-3.18 -14.5)"/><path class="cls-3" d="M133.41,97.31c-1.5-10-4.9-19.67-9-28.94-3.8-8.6-8.15-17.14-14.54-24.13S94.82,32.33,86.39,27.88C77.78,23.32,68.81,19.64,59,19.17a51.23,51.23,0,0,0-29.34,7.65l1.81,2.36,2.94-2.35a1.51,1.51,0,0,0-1.46-2.51c-15.09,6-23.37,21.75-24.73,37.29-.86,9.85.74,19.78,3.18,29.3a155.07,155.07,0,0,0,8.81,25.71,71.15,71.15,0,0,0,14.51,21.5,60.72,60.72,0,0,0,21.54,13.43C73.63,158,93,156.21,109.89,149a43.39,43.39,0,0,0,11.61-6.85,32,32,0,0,0,7.72-10.59,57.22,57.22,0,0,0,4.9-27.35c-.13-2.3-.38-4.6-.71-6.89-.27-1.9-3.16-1.09-2.89.8a59.8,59.8,0,0,1-1.8,26.53,38.65,38.65,0,0,1-5.6,11.35,28.75,28.75,0,0,1-9.83,8.09c-15.39,8.19-34.36,10.84-51.22,6.19a59,59,0,0,1-21.33-10.76,61.63,61.63,0,0,1-15.3-19A123.46,123.46,0,0,1,16.3,97.4c-2.7-9-4.93-18.19-5.29-27.6-.59-15.06,4.46-31.71,17.88-40.13a30,30,0,0,1,4.82-2.46L32.25,24.7l-2.94,2.35c-1.33,1.07.39,3.25,1.82,2.36a48.17,48.17,0,0,1,24.92-7.29C65.45,22,74.14,25,82.45,29.2s16.71,8.68,23.36,15.16S116.74,58.81,120.52,67c4.57,9.92,8.38,20.28,10,31.12C130.8,100,133.69,99.21,133.41,97.31Z" transform="translate(-3.18 -14.5)"/><path class="cls-3" d="M85.24,102.88c-2.35,3.35-6.4,4.08-10.25,3.75a31.72,31.72,0,0,1-12.13-3.86,14.55,14.55,0,0,1-5.34-4.63,28.07,28.07,0,0,1-2.85-6.72,43.38,43.38,0,0,1-2.49-15.09c.16-4.54,1-9.86,4.14-13.38A11.87,11.87,0,0,1,66.8,59a15.19,15.19,0,0,0,2.86.33,13.11,13.11,0,0,1,3.79.35,19.54,19.54,0,0,1,6.63,3.06A23.85,23.85,0,0,1,88.23,73c4,9.42,2.67,21.43-3,29.9-1.07,1.61,1.53,3.11,2.59,1.51A35.91,35.91,0,0,0,91.77,73.9a27.56,27.56,0,0,0-8.09-12.15,25,25,0,0,0-6.83-4.14,18.55,18.55,0,0,0-4-1.1c-1.31-.2-2.6,0-3.9-.15s-2.31-.43-3.5-.45a15.5,15.5,0,0,0-3.53.36A14.37,14.37,0,0,0,56,59.13c-4.13,3.29-5.81,8.47-6.5,13.53A40.68,40.68,0,0,0,51,89.85c1.58,5.22,3.26,10.45,7.78,13.86a32.91,32.91,0,0,0,15.7,5.87c5.16.56,10.25-.8,13.34-5.19C89,102.81,86.35,101.31,85.24,102.88Z" transform="translate(-3.18 -14.5)"/><path class="cls-4" d="M95.52,79.3A32.63,32.63,0,0,0,72.2,57.69a19.25,19.25,0,0,0-8-.23,14.13,14.13,0,0,1,4.71.43,17.28,17.28,0,0,1,10.69,2.73A26.05,26.05,0,0,1,91.38,78.27c1.59,8.26,0,18.28-4.84,25.36-4.09,6-12.25,5-18.28,3-.57-.2-1.15-.4-1.73-.62a31.74,31.74,0,0,0,11.37,7.17,10.23,10.23,0,0,0,6.27.4,10.91,10.91,0,0,0,4.49-3.28A32.6,32.6,0,0,0,95.52,79.3Z" transform="translate(-3.18 -14.5)"/><path class="cls-3" d="M97,78.9A34.34,34.34,0,0,0,84.91,62.05C79,57.6,71.19,54.61,63.78,56c-1.66.31-1.29,3,.39,3a15.1,15.1,0,0,1,2.33,0c.8.08,1.58.39,2.38.42a23.63,23.63,0,0,1,4.36.24A19.69,19.69,0,0,1,81,63.4a24.73,24.73,0,0,1,8.35,12.72,33.39,33.39,0,0,1,.31,16.26,31.64,31.64,0,0,1-2.81,7.84c-1.15,2.19-2.46,4.22-4.71,5.38-4.65,2.4-10.61.69-15.2-1a1.51,1.51,0,0,0-1.46,2.5c5.71,5.21,15.62,12.08,22.83,5.72,5.81-5.12,9.1-13.13,9.93-20.69A33.31,33.31,0,0,0,97,78.9c-.56-1.84-3.46-1.05-2.89.8a31.31,31.31,0,0,1-.69,20,29.63,29.63,0,0,1-5,8.71,12.4,12.4,0,0,1-4,3.52c-1.85.87-4,.5-5.82-.1A30,30,0,0,1,67.59,105l-1.46,2.51c4.86,1.78,10.6,3.18,15.69,1.45,5.62-1.91,8.36-7.74,10-13.06,3.48-11.35,1.71-25-7.3-33.4a24,24,0,0,0-8.86-5.31,17.09,17.09,0,0,0-5.21-.87c-2.1,0-4.15-.48-6.27-.35l.4,2.94c6.57-1.24,13.68,1.8,18.82,5.74A31,31,0,0,1,94.08,79.7C94.66,81.53,97.56,80.75,97,78.9Z" transform="translate(-3.18 -14.5)"/><path class="cls-3" d="M142.89,64c1.78,20.47,4.91,40.79,8,61.09,1,6.71,2.36,14,7.44,18.5s12.77,4.94,19.09,2.57,11.44-7.14,15.83-12.25,8.27-10.7,13.08-15.44a26.69,26.69,0,0,0,23.59,32c3.6.35,7.53-.15,10.23-2.56a14.62,14.62,0,0,0,3.62-5.89,86.08,86.08,0,0,0,3.75-15L258.32,70c.2-1.09.33-2.43-.54-3.13a3.09,3.09,0,0,0-2.1-.43A121.4,121.4,0,0,0,235,69l1.31,8.16c.78,4.92,1.56,10,.21,14.83S231,101.19,226,101.19c-3.39,0-6.48-2-8.93-4.33-7.95-7.59-11-18.85-13.73-29.49A3.84,3.84,0,0,0,202,64.86a3.92,3.92,0,0,0-1.48-.4L189,63a3,3,0,0,0-1.95.18c-1,.57-1,1.92-.92,3l1.3,18c.23,3.17.44,6.49-.82,9.41s-4.46,5.28-7.53,4.45c-2.81-.77-4.36-3.71-5.52-6.38a201.35,201.35,0,0,1-9.92-28.42,2,2,0,0,0-2.52-1.89L142.54,62" transform="translate(-3.18 -14.5)"/><path class="cls-3" d="M141.39,64c1.86,21.21,4.92,42.37,8.38,63.36,1.32,8,3.93,16.69,12.07,20.16s17.13.79,23.87-4.27c8.67-6.53,14.09-16.14,21.71-23.72l-2.51-1.46a28.5,28.5,0,0,0,9.55,27.49,28.8,28.8,0,0,0,13,6.09c4.69.85,10.05.67,13.79-2.66a16.3,16.3,0,0,0,4-6.55,61.35,61.35,0,0,0,2.47-8.54C249,128,250,122,251.16,116l7-36.86c.61-3.26,1.49-6.57,1.81-9.87a4,4,0,0,0-1.08-3.51,4.89,4.89,0,0,0-3.65-.85,123.6,123.6,0,0,0-20.63,2.62,1.54,1.54,0,0,0-1,1.85c.58,3.64,1.21,7.29,1.73,10.94a28,28,0,0,1-.1,10.8c-1.32,5.22-6.17,10.07-11.87,8.05-2.93-1-5.31-3.36-7.29-5.67a36.77,36.77,0,0,1-4.86-7.58c-2.7-5.45-4.32-11.36-5.86-17.22A15.08,15.08,0,0,0,204.11,65,4.38,4.38,0,0,0,200.47,63q-5.5-.7-11-1.37c-1.46-.18-2.9-.21-3.95,1s-1,2.74-.85,4.15c.25,3.65.53,7.3.79,11,.25,3.48.68,7,.64,10.5,0,3-.72,6.27-3.48,7.91-2.59,1.54-4.9.07-6.32-2.24A56.12,56.12,0,0,1,172.38,85q-2.2-5.58-4.08-11.29c-1.22-3.74-2.09-7.63-3.37-11.35a3.45,3.45,0,0,0-3.45-2.47c-2.06-.08-4.16.11-6.23.17l-12.71.37c-1.92,0-1.93,3,0,3l11.74-.34,5.37-.16c.56,0,1.88-.31,2.33.09s.57,2,.71,2.47a198.47,198.47,0,0,0,7.06,21c1.22,3.06,2.34,6.41,4.15,9.19,1.47,2.26,3.71,4.15,6.55,4.1a8.62,8.62,0,0,0,6.88-4.25c1.76-2.8,1.89-6.32,1.72-9.53-.2-3.66-.52-7.33-.78-11l-.42-5.84-.18-2.43c0-.48-.31-1.86.14-2.23s1.92.12,2.38.18l2.63.32,5.73.72c.71.09,2,0,2.65.43a2.87,2.87,0,0,1,.72,1.62c.42,1.54.81,3.1,1.23,4.64,1.65,6,3.57,12,6.68,17.47,2.92,5.07,7.35,10.69,13.22,12.38,6.67,1.91,12.61-3.14,14.66-9.2,1.27-3.75,1.14-7.85.67-11.72-.52-4.27-1.29-8.51-2-12.75l-1,1.85a119.9,119.9,0,0,1,16.43-2.33c1.29-.09,2.59-.18,3.89-.21.32,0,1-.12,1.22.18s0,1.12,0,1.48c-.44,2.78-1,5.54-1.56,8.3l-6.21,33Q247.56,119,246,127.15c-1,5.15-1.93,10.43-4,15.28a10.47,10.47,0,0,1-4.18,5.34,12.36,12.36,0,0,1-6.36,1.34,24.66,24.66,0,0,1-12.4-3.87,25.42,25.42,0,0,1-11.31-26.36,1.51,1.51,0,0,0-2.51-1.45c-6.45,6.42-11.25,14.32-17.93,20.55-5.88,5.49-13.86,9.7-22.1,7.57a14.28,14.28,0,0,1-8.86-6.7c-2-3.38-2.87-7.3-3.55-11.13-1.71-9.73-3-19.56-4.42-29.34-1.62-11.42-3-22.87-4-34.36-.16-1.91-3.17-1.92-3,0Z" transform="translate(-3.18 -14.5)"/><path class="cls-3" d="M280.47,36.44c-1.85,4.87-2,10.19-2,15.4,0,12.58.75,25.14,1.5,37.69l3.84,64.91c7.78,1.05,15.56-1.32,23.33-2.42,17.71-2.49,35.8,1.64,53.56-.47a129.12,129.12,0,0,0-8.18-25.69,4.27,4.27,0,0,0-1.5-2.09,4.36,4.36,0,0,0-2.19-.41q-19.36-.23-38.74-.53a2.83,2.83,0,0,1-3.35-3.3q-3.56-38.94-10-77.56a6.13,6.13,0,0,0-1.36-3.47A5.84,5.84,0,0,0,293,37.29a98.79,98.79,0,0,0-12.46-3l-.36,2.25" transform="translate(-3.18 -14.5)"/><path class="cls-3" d="M279,36c-2.56,7-2.11,14.71-2,22,.15,7.86.53,15.71,1,23.56.88,15.53,1.83,31.05,2.75,46.58l1.56,26.26a1.55,1.55,0,0,0,1.5,1.5c5,.63,10-.05,14.92-.93a128,128,0,0,1,15.07-2.14c10-.58,20,.41,29.94.71a115.71,115.71,0,0,0,17-.53,1.53,1.53,0,0,0,1.44-1.9,128.79,128.79,0,0,0-4.52-16.37c-.91-2.63-1.92-5.23-3-7.79-.93-2.22-1.75-4.65-4.45-5a67.52,67.52,0,0,0-8.54-.18l-9.19-.11-17.88-.26-4.22-.07c-1.29,0-1.87-.08-2.07-1.46-.41-2.88-.54-5.82-.83-8.72q-.88-8.87-1.91-17.71Q303.49,75.65,300.82,58c-.5-3.34-1-6.69-1.55-10-.26-1.62-.52-3.25-.79-4.88a15.52,15.52,0,0,0-1-4c-1.21-2.69-4.3-3.24-6.87-4-3.21-.9-6.46-1.63-9.73-2.22a1.53,1.53,0,0,0-1.85,1l-.35,2.25c-.3,1.89,2.59,2.7,2.89.8l.36-2.25-1.85,1c2.81.51,5.59,1.11,8.35,1.85,1.3.34,2.6.71,3.88,1.11s2.2.73,2.62,2a54.29,54.29,0,0,1,1.4,8c.47,2.94.92,5.87,1.37,8.81q2.63,17.41,4.68,34.92,1,8.61,1.87,17.23c.3,2.95.58,5.91.86,8.87.19,2.11.34,4.53,2.63,5.42a9.43,9.43,0,0,0,3.31.37l4.47.07,8.94.14,17.38.23,5,.06c1.2,0,3.12-.39,3.87.76a23,23,0,0,1,1.8,4.09q.87,2.16,1.66,4.35A130.93,130.93,0,0,1,359.26,152l1.45-1.9c-10,1.16-20.11.4-30.16-.07-4.94-.24-9.89-.39-14.83-.2a104.08,104.08,0,0,0-14.92,1.81c-5.61,1-11.26,2.07-17,1.35l1.5,1.5-2.76-46.58c-.91-15.35-2-30.71-2.43-46.09-.12-4.23-.21-8.47-.13-12.69a37.1,37.1,0,0,1,1.92-12.24c.66-1.82-2.24-2.6-2.9-.8Z" transform="translate(-3.18 -14.5)"/><path class="cls-3" d="M342,44.77c-.75,4.6.53,9.27,1.79,13.76l3.78,13.4a3.28,3.28,0,0,0,.67,1.45,3.22,3.22,0,0,0,1.55.72,36,36,0,0,0,9.48,1.09,4,4,0,0,0,3-1c.81-.91.67-2.29.47-3.5q-2.48-15-6.4-29.76a2.07,2.07,0,0,0-.52-1.08,2.11,2.11,0,0,0-1.39-.4l-10.84-.56a1.87,1.87,0,0,0-1.26.22,1.94,1.94,0,0,0-.51,1.6V46.1" transform="translate(-3.18 -14.5)"/><path class="cls-3" d="M340.59,44.37c-1.1,7.51,2,15.09,4,22.22.5,1.75,1,3.51,1.49,5.26s1.2,3,3.06,3.61a31,31,0,0,0,10.59,1.22A5,5,0,0,0,363.62,75a5.55,5.55,0,0,0,.67-4.29c-.55-3.78-1.3-7.55-2.06-11.3s-1.59-7.57-2.5-11.33q-.62-2.59-1.28-5.16c-.37-1.43-.53-3.38-1.83-4.32A4.71,4.71,0,0,0,354,38l-3.45-.18c-2.14-.11-4.27-.23-6.41-.33-1.71-.08-3.23.31-3.66,2.19a14.21,14.21,0,0,0-.1,3.06v3.4a1.5,1.5,0,0,0,3,0V41.72a3.69,3.69,0,0,1,0-1.15c.16-.38-.47,0,.26-.14a10.21,10.21,0,0,1,2.46.12l4.44.23,2.46.13c.43,0,1.59-.15,1.86.16s.4,1.48.51,1.93c.19.7.37,1.41.55,2.11.39,1.56.78,3.13,1.15,4.69q1.05,4.47,2,9t1.68,8.79a39.12,39.12,0,0,1,.7,4.29c.09,1.44-.58,1.79-1.94,1.84a32.65,32.65,0,0,1-8.8-.92c-.69-.17-1.2-.18-1.52-.84a12.24,12.24,0,0,1-.59-2.07l-1.28-4.55c-.93-3.29-1.9-6.58-2.76-9.89a25.86,25.86,0,0,1-1.05-10.26c.27-1.88-2.62-2.7-2.9-.79Z" transform="translate(-3.18 -14.5)"/><path class="cls-3" d="M454.2,69.82l2.51,12a73.21,73.21,0,0,0-32.78-1.37,20.85,20.85,0,0,0-7.28,2.46c-5.55,3.46-7.39,11.3-5,17.38s8.33,10.32,14.67,11.95,13.06,1,19.43-.57a5.16,5.16,0,0,1,3.51,0,4.67,4.67,0,0,1,1.82,2.12c3.11,5.78,4.89,12.41,4.19,18.93s-4.11,12.88-9.64,16.41c-4.62,3-10.26,3.75-15.71,4.33a311.41,311.41,0,0,1-35.48,1.75,2.85,2.85,0,0,1-2.2-.66,2.73,2.73,0,0,1-.46-1.87,35.18,35.18,0,0,1,1.1-8.36,2.64,2.64,0,0,1,.93-1.68,2.73,2.73,0,0,1,1.65-.24l15.42.9a22.06,22.06,0,0,0,7.48-.41,11.88,11.88,0,0,0,8.21-11.06A13.1,13.1,0,0,0,419,120.1c-5.11-2.34-11.79-1.61-15.59-5.75-1.8-1.95-2.54-4.63-3.23-7.2-1.49-5.6-3-11.28-2.93-17.08s1.88-11.82,6.13-15.75c3.54-3.28,8.33-4.78,13-6,13.09-3.47,27.48-5.44,39.81.15" transform="translate(-3.18 -14.5)"/><path class="cls-3" d="M452.76,70.22l2.51,12,1.84-1.85a75.73,75.73,0,0,0-20.21-2.65,73.3,73.3,0,0,0-10.15.76,32.92,32.92,0,0,0-9.34,2.33c-4.81,2.21-7.62,7-8.18,12.14a17.78,17.78,0,0,0,5.2,14.2,25.67,25.67,0,0,0,15.12,7.22,39.45,39.45,0,0,0,10.24-.07c1.53-.2,3-.46,4.56-.77,1.27-.27,3.63-1.34,4.71-.19a13.28,13.28,0,0,1,1.95,3.59,34.66,34.66,0,0,1,1.85,5.11,29,29,0,0,1,1,9.76,21.58,21.58,0,0,1-7.16,14.67c-4.67,4-11.12,4.86-17,5.49q-10.68,1.13-21.41,1.52-5.43.2-10.86.21c-1,0-2,0-3,0-.51,0-1,.08-1.15-.43a6.46,6.46,0,0,1,0-2c0-1,.13-1.92.27-2.87s.31-1.86.51-2.77c.1-.43.15-1.45.53-1.73s1.54,0,1.83,0l3,.18,10.95.64c3.28.19,6.65.38,9.74-.94a13.22,13.22,0,0,0,5.89-5.13,13.55,13.55,0,0,0-.68-15.16,14.77,14.77,0,0,0-6.3-5,44.21,44.21,0,0,0-7.62-2c-2.4-.53-5-1.19-6.75-3-2.13-2.13-2.71-5.38-3.45-8.19-1.7-6.42-3.38-13.25-2.06-19.9a20.18,20.18,0,0,1,3.21-7.78,17.06,17.06,0,0,1,6.86-5.41A49,49,0,0,1,418,69.42c3.07-.79,6.16-1.47,9.29-2a57.81,57.81,0,0,1,19-.39,38,38,0,0,1,9.12,2.7c1.75.78,3.27-1.8,1.51-2.59-12.31-5.49-26.11-4-38.83-.84-5.9,1.47-12.29,3.17-16.59,7.76-4,4.28-5.69,10.25-5.75,16A47.76,47.76,0,0,0,397.07,101a82.12,82.12,0,0,0,2.57,9.65,12.18,12.18,0,0,0,5.12,6.72,23.42,23.42,0,0,0,7.3,2.37c2.68.55,5.46,1,7.79,2.56a11.83,11.83,0,0,1,4.87,6.65,10.32,10.32,0,0,1-7.18,12.6c-3.38.84-7.17.21-10.61,0-3.81-.23-7.62-.54-11.44-.67a3.51,3.51,0,0,0-3.39,1.43,12.52,12.52,0,0,0-1.27,4.57,39.3,39.3,0,0,0-.5,4.84c-.05,1.46-.07,3.06,1.12,4.1s2.65.87,4,.88c2,0,4,0,5.92,0,3.62-.06,7.24-.17,10.86-.35,7.23-.35,14.51-.86,21.69-1.87,6.13-.86,12.21-2.75,16.53-7.42a25.14,25.14,0,0,0,6.45-15.67,33.53,33.53,0,0,0-4.86-19,5,5,0,0,0-3.1-2.44c-1.63-.37-3.36.25-4.94.6a46.3,46.3,0,0,1-10.29,1.14c-6.06-.08-12.19-1.88-16.65-6.14a14.73,14.73,0,0,1-4.49-14.36A12,12,0,0,1,416.36,85c2.46-2,5.81-2.69,8.88-3.23a71.63,71.63,0,0,1,31.08,1.53,1.51,1.51,0,0,0,1.84-1.84l-2.51-12c-.39-1.89-3.29-1.09-2.89.79Z" transform="translate(-3.18 -14.5)"/><path class="cls-3" d="M54.55,92.12a.43.43,0,0,1,0-.11l0,.4c-.08-.66-.12-1.32-.26-2a6.81,6.81,0,0,0-.43-1.22,3,3,0,0,0-.24-.38,4.58,4.58,0,0,0-.34-.43,5.19,5.19,0,0,0-.45-.37,1.52,1.52,0,0,0-1.16-.15,1.54,1.54,0,0,0-.89.69,1.52,1.52,0,0,0-.16,1.16l.16.36a1.5,1.5,0,0,0,.53.53l0,0-.3-.23.23.23-.24-.3a2,2,0,0,1,.28.49l-.15-.36a5.05,5.05,0,0,1,.34,1.39l-.05-.4c.06.48.08,1,.17,1.46a1.5,1.5,0,0,0,.69.89A1.52,1.52,0,0,0,53.5,94a1.47,1.47,0,0,0,.89-.69,1.7,1.7,0,0,0,.16-1.15Z" transform="translate(-3.18 -14.5)"/><path class="cls-3" d="M79.16,61.72c.55.17,1.08.36,1.61.58l-.36-.15a18,18,0,0,1,2.27,1.17l1.16-2.75a23.54,23.54,0,0,0-2.44-.86,1.5,1.5,0,0,0-1.84,1,1.53,1.53,0,0,0,1,1.85c.82.25,1.64.54,2.43.87a1.5,1.5,0,0,0,1.16-2.74A19,19,0,0,0,80,58.83a1.5,1.5,0,0,0-1.84,1,1.53,1.53,0,0,0,1,1.85Z" transform="translate(-3.18 -14.5)"/><g id="Capa_2" data-name="Capa 2"><path class="cls-5" d="M128.75,95.61c-1.56-10.66-5.32-20.89-9.8-30.7C115,56.3,110.43,47.8,103.65,41.2,98.2,35.88,91.53,32,84.84,28.36c-6.15-3.33-12.46-6.53-19.23-8.3a49.57,49.57,0,0,0-38.45,6l2.93-2.35C17.36,28.63,9.18,41.82,7,55.31s.71,27.3,4.64,40.39c4.24,14.09,10,28.22,20.31,38.68,9.45,9.55,22.36,15.42,35.7,17.06a75.1,75.1,0,0,0,39.32-6.3,38.49,38.49,0,0,0,11.21-7,32.55,32.55,0,0,0,7.14-10.76C129.56,117.45,130.31,106.27,128.75,95.61Zm-42.21,8c-4.09,6-12.25,5-18.28,3-3.87-1.29-8-3.07-10.79-6.15C55,97.75,54,94.12,52.85,90.66c-2.53-7.49-3.13-16.31-.39-24a13.41,13.41,0,0,1,16.42-8.82,17.28,17.28,0,0,1,10.69,2.73A26.05,26.05,0,0,1,91.38,78.27C93,86.53,91.35,96.55,86.54,103.63Z" transform="translate(-3.18 -14.5)"/><path class="cls-5" d="M130.19,95.21c-1.5-10.06-4.9-19.67-9-28.95-3.8-8.59-8.16-17.13-14.55-24.12s-15-11.91-23.47-16.37c-8.62-4.55-17.59-8.24-27.43-8.7A51.18,51.18,0,0,0,26.4,24.72l1.82,2.35,2.93-2.35a1.51,1.51,0,0,0-1.46-2.5C14.6,28.2,6.33,44,5,59.51c-.86,9.85.73,19.78,3.18,29.3A154.43,154.43,0,0,0,17,114.52,71.23,71.23,0,0,0,31.46,136,60.4,60.4,0,0,0,53,149.44c17.4,6.4,36.8,4.67,53.67-2.55a43.49,43.49,0,0,0,11.6-6.85,31.9,31.9,0,0,0,7.72-10.6,57.16,57.16,0,0,0,4.9-27.34c-.12-2.31-.38-4.6-.71-6.89-.27-1.9-3.16-1.09-2.89.8a59.67,59.67,0,0,1-1.8,26.53,38.53,38.53,0,0,1-5.6,11.35,28.72,28.72,0,0,1-9.83,8.08c-15.38,8.2-34.36,10.84-51.22,6.2A58.71,58.71,0,0,1,37.53,137.4a61.51,61.51,0,0,1-15.31-19A124.42,124.42,0,0,1,13.08,95.3c-2.7-9-4.92-18.2-5.29-27.6C7.2,52.63,12.25,36,25.68,27.57a29.45,29.45,0,0,1,4.81-2.46L29,22.6,26.1,25c-1.34,1.07.39,3.25,1.81,2.36A48.2,48.2,0,0,1,52.83,20c9.41-.11,18.1,2.86,26.4,7.08s16.71,8.68,23.36,15.16,10.94,14.45,14.71,22.63c4.58,9.92,8.38,20.27,10,31.12C127.59,97.91,130.48,97.1,130.19,95.21Z" transform="translate(-3.18 -14.5)"/><path class="cls-5" d="M85.24,102.88c-2.35,3.35-6.4,4.08-10.25,3.75a31.72,31.72,0,0,1-12.13-3.86,14.55,14.55,0,0,1-5.34-4.63,28.07,28.07,0,0,1-2.85-6.72,43.38,43.38,0,0,1-2.49-15.09c.16-4.54,1-9.86,4.14-13.38A11.87,11.87,0,0,1,66.8,59a15.19,15.19,0,0,0,2.86.33,13.11,13.11,0,0,1,3.79.35,19.54,19.54,0,0,1,6.63,3.06A23.85,23.85,0,0,1,88.23,73c4,9.42,2.67,21.43-3,29.9-1.07,1.61,1.53,3.11,2.59,1.51A35.91,35.91,0,0,0,91.77,73.9a27.56,27.56,0,0,0-8.09-12.15,25,25,0,0,0-6.83-4.14,18.55,18.55,0,0,0-4-1.1c-1.31-.2-2.6,0-3.9-.15s-2.31-.43-3.5-.45a15.5,15.5,0,0,0-3.53.36A14.37,14.37,0,0,0,56,59.13c-4.13,3.29-5.81,8.47-6.5,13.53A40.68,40.68,0,0,0,51,89.85c1.58,5.22,3.26,10.45,7.78,13.86a32.91,32.91,0,0,0,15.7,5.87c5.16.56,10.25-.8,13.34-5.19C89,102.81,86.35,101.31,85.24,102.88Z" transform="translate(-3.18 -14.5)"/><path class="cls-4" d="M92.31,77.2A32.59,32.59,0,0,0,69,55.59c-5-1.16-11-.73-14.18,3.35L57,57.4c-5.29,4.39-6.32,12-6.95,18.83-.38,4.16-.74,8.48.73,12.38a19.55,19.55,0,0,0,3.12,5.25c-.37-1.06-.71-2.14-1.06-3.2-2.53-7.49-3.13-16.31-.39-24a13.41,13.41,0,0,1,16.42-8.82,17.28,17.28,0,0,1,10.69,2.73A26.05,26.05,0,0,1,91.38,78.27c1.59,8.26,0,18.28-4.84,25.36-4.09,6-12.25,5-18.28,3-1.07-.36-2.16-.76-3.23-1.21a29.67,29.67,0,0,0,9.65,5.66,10.16,10.16,0,0,0,6.27.39,10.73,10.73,0,0,0,4.49-3.27A32.61,32.61,0,0,0,92.31,77.2Z" transform="translate(-3.18 -14.5)"/><path class="cls-5" d="M93.75,76.8A34,34,0,0,0,82.29,60.41c-5.23-4.09-12.05-7.14-18.81-6.86-3.66.15-7.38,1.38-9.73,4.33-1,1.21.29,3.42,1.82,2.35l2.2-1.54L56,56.34c-5,4.28-6.42,11-7.13,17.29a49.8,49.8,0,0,0-.44,11.11,19.81,19.81,0,0,0,4.47,10.18c.93,1.19,3-.1,2.51-1.46-3-8.61-5.06-18.64-1.06-27.34A11.85,11.85,0,0,1,66.94,59a13.83,13.83,0,0,0,2.72.31,13.07,13.07,0,0,1,3.18.21C81,61.16,87.1,68.36,89.33,76.12a33.5,33.5,0,0,1-2.59,24.28,12.12,12.12,0,0,1-3.8,4.73,10.76,10.76,0,0,1-5.3,1.56c-4.21.2-8.37-1.1-12.22-2.67-1.37-.57-2.57,1.57-1.45,2.5a31.47,31.47,0,0,0,10.53,6.11,11.63,11.63,0,0,0,6.63.39A11.18,11.18,0,0,0,86,109.89a33.79,33.79,0,0,0,9.11-20.43A33.06,33.06,0,0,0,93.75,76.8c-.56-1.84-3.46-1.06-2.89.8a31.18,31.18,0,0,1-.43,19.29,30.71,30.71,0,0,1-4.57,8.54c-2.23,2.9-4.83,5.5-8.78,4.77s-7.84-3.18-11-5.8l-1.46,2.51c7,2.87,17.24,5.19,22.67-1.8a30.64,30.64,0,0,0,5.4-12.72,38.21,38.21,0,0,0,.2-14.14c-1.58-8.82-7.24-17-15.65-20.47a17.68,17.68,0,0,0-7.2-1.47c-2.11,0-4.15-.55-6.29-.33a14.72,14.72,0,0,0-10.1,5.5c-3.33,4.22-4.37,10-4.49,15.29-.14,6.07,1.34,11.79,3.3,17.49L55,92.8a16.46,16.46,0,0,1-3.71-9.39,59.31,59.31,0,0,1,.56-9.78c.63-5.49,1.84-11.42,6.25-15.17,1.29-1.1-.41-3.34-1.81-2.36l-2.21,1.54L55.87,60c4.93-6.17,14.93-3.11,20.66.13A31.26,31.26,0,0,1,90.86,77.6C91.44,79.43,94.34,78.65,93.75,76.8Z" transform="translate(-3.18 -14.5)"/><path class="cls-5" d="M139.68,61.92c1.78,20.46,4.9,40.78,8,61.09,1,6.71,2.36,14,7.45,18.5s12.77,4.94,19.08,2.57,11.44-7.14,15.84-12.26,8.27-10.7,13.07-15.44a26.69,26.69,0,0,0,23.6,32c3.6.35,7.52-.16,10.22-2.56a14.69,14.69,0,0,0,3.62-5.89,87.25,87.25,0,0,0,3.76-15L255.1,67.86c.21-1.1.33-2.43-.53-3.13a3.17,3.17,0,0,0-2.11-.44,121.3,121.3,0,0,0-20.71,2.6l1.3,8.16c.79,4.92,1.56,10,.21,14.83s-5.46,9.21-10.45,9.2c-3.39,0-6.47-2-8.93-4.32-7.95-7.59-11-18.85-13.72-29.49a3.84,3.84,0,0,0-1.42-2.51,3.67,3.67,0,0,0-1.49-.4l-11.47-1.44a3,3,0,0,0-1.94.19c-1,.57-1,1.92-.92,3l1.3,18c.23,3.17.43,6.49-.82,9.41s-4.46,5.28-7.53,4.44c-2.82-.76-4.37-3.7-5.53-6.37a201,201,0,0,1-9.92-28.43,2,2,0,0,0-2.52-1.88l-18.57.53" transform="translate(-3.18 -14.5)"/><path class="cls-5" d="M138.18,61.92c1.85,21.21,4.91,42.36,8.37,63.36,1.32,8,3.93,16.69,12.07,20.15s17.13.8,23.87-4.27c8.68-6.52,14.09-16.13,21.71-23.72L201.69,116a28.28,28.28,0,0,0,22.54,33.58c4.69.84,10.05.67,13.79-2.66a16.16,16.16,0,0,0,4-6.56,59.88,59.88,0,0,0,2.47-8.53c1.32-5.93,2.32-11.94,3.45-17.91l6.94-36.86c.62-3.26,1.49-6.57,1.82-9.87a4.05,4.05,0,0,0-1.08-3.51,4.92,4.92,0,0,0-3.66-.86,124.41,124.41,0,0,0-20.62,2.63,1.54,1.54,0,0,0-1,1.85c.58,3.64,1.21,7.28,1.73,10.94a28.23,28.23,0,0,1-.09,10.8c-1.33,5.22-6.18,10.07-11.88,8-2.93-1-5.31-3.36-7.28-5.68a37.16,37.16,0,0,1-4.87-7.57c-2.69-5.45-4.32-11.37-5.86-17.22a14.53,14.53,0,0,0-1.16-3.67,4.36,4.36,0,0,0-3.64-2.08c-3.66-.48-7.33-.93-11-1.38-1.46-.17-2.9-.21-4,1s-.94,2.75-.85,4.16c.26,3.65.53,7.3.79,11,.25,3.48.69,7,.65,10.5,0,3-.73,6.26-3.48,7.91-2.59,1.54-4.91.07-6.33-2.24a56.48,56.48,0,0,1-3.91-8.82c-1.47-3.72-2.84-7.49-4.08-11.29S163,64,161.72,60.29a3.47,3.47,0,0,0-3.46-2.48c-2.06-.07-4.16.12-6.22.18l-12.71.36c-1.93.06-1.94,3.06,0,3L151.06,61l5.38-.16c.56,0,1.87-.31,2.33.09s.56,2,.7,2.47a200.84,200.84,0,0,0,7.07,21c1.22,3.06,2.34,6.41,4.14,9.19,1.48,2.26,3.71,4.15,6.55,4.1a8.65,8.65,0,0,0,6.88-4.25c1.77-2.8,1.89-6.33,1.72-9.53-.19-3.67-.52-7.33-.78-11l-.42-5.84-.18-2.43c0-.48-.31-1.86.14-2.23s1.92.12,2.38.17l2.63.33,5.74.72c.71.09,2,0,2.64.43s.59,1.09.73,1.62c.42,1.54.8,3.09,1.23,4.64,1.64,6,3.56,12,6.68,17.46,2.92,5.08,7.35,10.7,13.22,12.38C226.5,102.06,232.45,97,234.5,91c1.26-3.75,1.14-7.85.66-11.73-.52-4.26-1.29-8.5-2-12.74l-1,1.84A121.22,121.22,0,0,1,248.58,66c1.29-.09,2.58-.18,3.88-.22.33,0,1-.12,1.22.18s0,1.13,0,1.49c-.44,2.78-1,5.54-1.57,8.3l-6.21,33q-1.53,8.16-3.08,16.33c-1,5.14-1.92,10.42-4,15.27a10.51,10.51,0,0,1-4.19,5.35A12.35,12.35,0,0,1,228.3,147a24.89,24.89,0,0,1-12.41-3.87,25.41,25.41,0,0,1-11.3-26.36,1.51,1.51,0,0,0-2.51-1.46c-6.46,6.43-11.26,14.33-17.93,20.56-5.89,5.49-13.86,9.69-22.1,7.57a14.28,14.28,0,0,1-8.86-6.7,33,33,0,0,1-3.55-11.13c-1.71-9.74-3-19.56-4.43-29.34-1.61-11.42-3-22.87-4-34.36-.17-1.91-3.17-1.93-3,0Z" transform="translate(-3.18 -14.5)"/><path class="cls-5" d="M277.25,34.34c-1.84,4.86-2,10.19-2,15.4,0,12.57.75,25.14,1.49,37.69l3.84,64.91c7.78,1,15.56-1.32,23.34-2.42,17.7-2.49,35.8,1.64,53.55-.48a129.54,129.54,0,0,0-8.18-25.69,4.29,4.29,0,0,0-1.49-2.08,4.19,4.19,0,0,0-2.19-.41q-19.38-.23-38.74-.54a2.82,2.82,0,0,1-3.36-3.29Q300,78.49,293.58,39.87a6.14,6.14,0,0,0-1.37-3.47,6,6,0,0,0-2.44-1.22,100.07,100.07,0,0,0-12.46-3L277,34.41" transform="translate(-3.18 -14.5)"/><path class="cls-5" d="M275.81,33.94c-2.56,7-2.12,14.71-2,22,.14,7.86.52,15.71,1,23.56.88,15.53,1.83,31.05,2.75,46.58l1.55,26.26a1.55,1.55,0,0,0,1.5,1.5c5,.63,10-.06,14.93-.94a129.63,129.63,0,0,1,15.06-2.13c10-.58,20,.4,29.94.71a114.34,114.34,0,0,0,17-.54,1.53,1.53,0,0,0,1.45-1.89,132.83,132.83,0,0,0-4.52-16.38c-.92-2.62-1.92-5.22-3-7.78-.93-2.22-1.76-4.65-4.46-5a67.4,67.4,0,0,0-8.53-.18c-3.07,0-6.13-.07-9.19-.12q-8.94-.12-17.88-.26l-4.23-.06c-1.28,0-1.87-.08-2.07-1.46-.41-2.88-.54-5.83-.83-8.72q-.87-8.86-1.9-17.72-2.07-17.77-4.72-35.48c-.5-3.34-1-6.69-1.55-10-.26-1.63-.53-3.26-.8-4.88a15.92,15.92,0,0,0-.94-4c-1.22-2.69-4.31-3.24-6.88-4q-4.81-1.35-9.73-2.22a1.51,1.51,0,0,0-1.84,1.05L275.51,34c-.3,1.89,2.59,2.7,2.89.79l.36-2.25-1.85,1.05q4.21.75,8.36,1.84c1.3.35,2.59.72,3.88,1.12s2.2.73,2.61,2a54.29,54.29,0,0,1,1.4,8c.47,2.93.93,5.87,1.37,8.8q2.64,17.43,4.68,34.93,1,8.61,1.87,17.22.45,4.44.86,8.87c.19,2.11.35,4.54,2.63,5.43a9.72,9.72,0,0,0,3.31.37l4.47.07,8.94.13q8.68.14,17.38.23l5,.06c1.2,0,3.12-.38,3.88.77a23.68,23.68,0,0,1,1.79,4.09q.87,2.16,1.67,4.35a131.82,131.82,0,0,1,5.07,17.9l1.44-1.9c-10,1.17-20.11.4-30.15-.07-4.94-.23-9.89-.39-14.84-.19a103.77,103.77,0,0,0-14.91,1.81c-5.62,1-11.26,2.07-17,1.35l1.5,1.5-2.76-46.58c-.9-15.35-2-30.72-2.43-46.1-.11-4.22-.2-8.46-.12-12.69a36.83,36.83,0,0,1,1.91-12.24c.67-1.81-2.23-2.59-2.89-.79Z" transform="translate(-3.18 -14.5)"/><path class="cls-5" d="M338.82,42.66c-.74,4.61.53,9.28,1.8,13.77l3.77,13.4a3.21,3.21,0,0,0,.68,1.44,3.07,3.07,0,0,0,1.54.73,36.09,36.09,0,0,0,9.48,1.09,4,4,0,0,0,3-1c.8-.91.66-2.29.46-3.5q-2.47-15-6.4-29.77a2.14,2.14,0,0,0-.52-1.08,2.21,2.21,0,0,0-1.39-.4l-10.84-.56a1.43,1.43,0,0,0-1.76,1.83V44" transform="translate(-3.18 -14.5)"/><path class="cls-5" d="M337.38,42.26c-1.11,7.52,1.94,15.1,3.95,22.23.49,1.75,1,3.51,1.48,5.26s1.2,3,3.07,3.61a31,31,0,0,0,10.58,1.22,5,5,0,0,0,3.94-1.69,5.59,5.59,0,0,0,.68-4.29c-.56-3.79-1.31-7.56-2.06-11.3s-1.6-7.57-2.5-11.34c-.42-1.72-.84-3.44-1.29-5.16-.36-1.42-.53-3.38-1.82-4.31a4.74,4.74,0,0,0-2.64-.63l-3.45-.18-6.4-.33c-1.72-.08-3.24.31-3.67,2.19a14.19,14.19,0,0,0-.1,3.06V44a1.5,1.5,0,0,0,3,0V39.62a4,4,0,0,1,0-1.15c.16-.38-.47,0,.26-.15a10.84,10.84,0,0,1,2.47.13l4.43.23,2.46.13c.43,0,1.59-.15,1.86.16s.4,1.48.52,1.93L352.7,43c.4,1.56.78,3.12,1.15,4.69q1.06,4.47,2,9t1.68,8.79a41.63,41.63,0,0,1,.69,4.29c.09,1.44-.58,1.79-1.93,1.83a32.56,32.56,0,0,1-8.8-.91c-.7-.17-1.2-.18-1.53-.85a12.11,12.11,0,0,1-.58-2.06l-1.28-4.55c-.93-3.29-1.91-6.58-2.77-9.89a25.88,25.88,0,0,1-1.05-10.26c.28-1.89-2.61-2.7-2.89-.8Z" transform="translate(-3.18 -14.5)"/><path class="cls-5" d="M451,67.72l2.51,12a73.26,73.26,0,0,0-32.79-1.37,20.73,20.73,0,0,0-7.27,2.46c-5.56,3.45-7.4,11.3-5,17.38s8.33,10.32,14.67,12,13.07,1,19.43-.57a5.2,5.2,0,0,1,3.52,0,4.81,4.81,0,0,1,1.82,2.13c3.11,5.78,4.89,12.4,4.18,18.93S448,143.47,442.45,147c-4.63,2.95-10.27,3.74-15.72,4.33a311.35,311.35,0,0,1-35.47,1.75,2.88,2.88,0,0,1-2.21-.66,2.78,2.78,0,0,1-.46-1.87,35.27,35.27,0,0,1,1.1-8.37,2.65,2.65,0,0,1,.94-1.67,2.8,2.8,0,0,1,1.65-.25l15.42.91a22,22,0,0,0,7.47-.41,11.89,11.89,0,0,0,8.21-11.06,13.11,13.11,0,0,0-7.6-11.7c-5.11-2.34-11.79-1.61-15.6-5.75-1.8-2-2.54-4.63-3.22-7.2-1.5-5.6-3-11.28-2.94-17.08s1.88-11.82,6.14-15.76c3.53-3.27,8.32-4.78,13-6,13.09-3.47,27.47-5.45,39.8.15" transform="translate(-3.18 -14.5)"/><path class="cls-5" d="M449.54,68.12l2.51,12,1.85-1.84a74.2,74.2,0,0,0-30.37-1.89,33,33,0,0,0-9.34,2.33c-4.8,2.21-7.61,7-8.17,12.14A17.71,17.71,0,0,0,411.21,105a25.69,25.69,0,0,0,15.12,7.23,39.44,39.44,0,0,0,10.24-.08c1.53-.19,3.05-.45,4.56-.77,1.28-.26,3.63-1.33,4.71-.18a12.9,12.9,0,0,1,2,3.59,34.21,34.21,0,0,1,1.84,5.11,28.49,28.49,0,0,1,1,9.76,21.49,21.49,0,0,1-7.16,14.66c-4.67,4-11.12,4.87-17,5.49q-10.68,1.14-21.42,1.53-5.42.19-10.85.21c-1,0-2,0-3,0-.52,0-1,.08-1.15-.43a6.17,6.17,0,0,1,0-2c.05-1,.13-1.92.26-2.87s.31-1.86.52-2.77c.09-.43.15-1.45.52-1.73s1.55,0,1.83,0l3,.18,10.95.64c3.28.19,6.66.38,9.75-.94a13.19,13.19,0,0,0,5.88-5.13,13.52,13.52,0,0,0-.68-15.16,14.8,14.8,0,0,0-6.29-5,43.55,43.55,0,0,0-7.62-2c-2.41-.53-5-1.19-6.76-3-2.12-2.14-2.71-5.39-3.45-8.19-1.7-6.43-3.38-13.25-2-19.91a20,20,0,0,1,3.21-7.77A17,17,0,0,1,406,70.16a48.8,48.8,0,0,1,8.77-2.84c3.06-.79,6.16-1.47,9.28-2a57.59,57.59,0,0,1,19-.39,38,38,0,0,1,9.11,2.7c1.75.78,3.28-1.8,1.52-2.59-12.32-5.49-26.11-4-38.84-.84C409,65.67,402.57,67.38,398.28,72c-4,4.27-5.69,10.25-5.76,16a47.84,47.84,0,0,0,1.34,10.91,82.6,82.6,0,0,0,2.56,9.65,12.14,12.14,0,0,0,5.13,6.71,23.35,23.35,0,0,0,7.3,2.38c2.68.55,5.45,1,7.78,2.56a11.75,11.75,0,0,1,4.87,6.65,10.32,10.32,0,0,1-7.18,12.6c-3.38.84-7.17.21-10.6,0-3.81-.23-7.63-.54-11.44-.68a3.55,3.55,0,0,0-3.4,1.44,12.51,12.51,0,0,0-1.26,4.57,37.45,37.45,0,0,0-.5,4.84c-.06,1.46-.08,3.06,1.12,4.1s2.65.87,4,.87c2,0,3.95,0,5.93,0,3.62-.05,7.23-.16,10.85-.34,7.23-.36,14.51-.86,21.69-1.87,6.13-.86,12.21-2.75,16.54-7.42a25.18,25.18,0,0,0,6.44-15.67,33.52,33.52,0,0,0-4.85-19,5,5,0,0,0-3.11-2.44c-1.63-.37-3.35.25-4.94.59a45.66,45.66,0,0,1-10.29,1.15c-6.06-.08-12.18-1.88-16.64-6.14a14.72,14.72,0,0,1-4.5-14.36,11.87,11.87,0,0,1,3.79-6.22c2.46-2.06,5.8-2.7,8.88-3.23a71.83,71.83,0,0,1,21-.48,72.62,72.62,0,0,1,10.11,2,1.51,1.51,0,0,0,1.84-1.84l-2.51-12c-.39-1.89-3.28-1.09-2.89.8Z" transform="translate(-3.18 -14.5)"/><g id="Capa_5" data-name="Capa 5"><path class="cls-3" d="M85.06,62.5C81.41,61,77.7,59.68,74,58.35a31.22,31.22,0,0,0-11.35-2A11,11,0,0,0,54,60.17c-2.2,2.65-3.26,5.87-4.08,9.17a56.51,56.51,0,0,1-1.74,6.27c-.74,2-1.7,3.88-1.44,6,.23,1.9,3.24,1.92,3,0-.27-2.23,1-4.28,1.71-6.35s1.09-4.2,1.65-6.3c.91-3.42,2.38-7.34,5.79-9,1.83-.89,4.08-.77,6.06-.68a23.94,23.94,0,0,1,6.48,1.27c4.34,1.44,8.65,3.07,12.89,4.78,1.78.72,2.56-2.18.79-2.89Z" transform="translate(-3.18 -14.5)"/><path class="cls-3" d="M55.21,93.27c-.45-2.17-1.46-4.19-2-6.35a29.07,29.07,0,0,1-.81-6.29,43.39,43.39,0,0,1,2-12.53,13.08,13.08,0,0,1,2.21-4.84,9.18,9.18,0,0,1,4.73-2.75,30.45,30.45,0,0,1,13.34-1.14c1.87.3,2.71-2.5.8-2.89-3.6-.75-7.22-1.54-10.86-2s-6.71-.38-9.5,2A23.57,23.57,0,0,0,52,59.87,11,11,0,0,0,50,64.25L47.28,75.52c-.46,1.88,2.43,2.68,2.89.8l2.35-9.59a16.12,16.12,0,0,1,1.31-4.32,17,17,0,0,1,2.82-3.3,6,6,0,0,1,3.53-1.84,18.67,18.67,0,0,1,4.72.24c3.28.48,6.53,1.19,9.77,1.86l.8-2.89a32.88,32.88,0,0,0-11.66.33c-3.34.68-7,1.62-9.33,4.33-2.12,2.5-2.92,5.74-3.66,8.85a40.54,40.54,0,0,0-1.38,11.54,33,33,0,0,0,.89,6.18c.52,2.17,1.53,4.19,2,6.36.4,1.89,3.29,1.09,2.89-.8Z" transform="translate(-3.18 -14.5)"/><path class="cls-3" d="M73.58,59.13a18.15,18.15,0,0,0,3.23,1.56L80.07,62a1.49,1.49,0,0,0,1.15-.15,1.52,1.52,0,0,0,.69-.9,1.49,1.49,0,0,0-.15-1.15,1.77,1.77,0,0,0-.9-.69l-3.14-1.31L77,57.52l.1,0-.2-.09-.36-.16a10.75,10.75,0,0,1-1.41-.78,1.5,1.5,0,0,0-2,.54,1.53,1.53,0,0,0,.54,2.05Z" transform="translate(-3.18 -14.5)"/><path class="cls-5" d="M127.19,93.1c-1.55-10.67-5.32-20.89-9.79-30.7-3.93-8.61-8.52-17.11-15.3-23.72C96.64,33.37,90,29.48,83.28,25.85c-6.15-3.34-12.45-6.53-19.22-8.3A49.55,49.55,0,0,0,25.6,23.5l2.94-2.35C15.8,26.11,7.63,39.31,5.44,52.8s.7,27.3,4.64,40.39c4.24,14.08,10,28.22,20.31,38.68,9.45,9.55,22.36,15.41,35.69,17a75.08,75.08,0,0,0,39.32-6.29,38.54,38.54,0,0,0,11.22-7,32.72,32.72,0,0,0,7.13-10.77C128,114.93,128.75,103.76,127.19,93.1ZM86.54,103.63c-3.49,5.14-9.92,5.17-15.47,3.83q-.67-.12-1.35-.27a14.37,14.37,0,0,1-2-.59,26.73,26.73,0,0,1-4.6-2,19,19,0,0,1-5.6-4,13.58,13.58,0,0,1-1.45-2,27.9,27.9,0,0,1-4.78-10c-1.5-5.62-3.06-11.62-1.43-17.37a4.69,4.69,0,0,1,.3-.75c.11-.65.25-1.3.42-1.94a9.11,9.11,0,0,1,1.93-5.31,5.72,5.72,0,0,0,.72-.92c.33-.57.69-1.12,1.06-1.66a4.83,4.83,0,0,0,.44-.76c1.65-3.68,3.91-7,8.41-7C73.64,53,84,60.45,88.62,69.6s5.34,20.22.49,29.31A29.34,29.34,0,0,1,86.54,103.63Z" transform="translate(-3.18 -14.5)"/><path class="cls-5" d="M128.64,92.7c-1.5-10.06-4.9-19.68-9-28.95-3.8-8.59-8.15-17.14-14.54-24.12s-15-11.91-23.48-16.37C73,18.7,64,15,54.19,14.55A51.28,51.28,0,0,0,24.84,22.2l1.82,2.36,2.94-2.35a1.51,1.51,0,0,0-1.46-2.51C13.05,25.69,4.77,41.46,3.41,57c-.86,9.85.74,19.77,3.18,29.3A154.47,154.47,0,0,0,15.4,112,71,71,0,0,0,29.91,133.5a60.58,60.58,0,0,0,21.54,13.43c17.41,6.4,36.8,4.66,53.67-2.55a43.58,43.58,0,0,0,11.61-6.86,31.74,31.74,0,0,0,7.71-10.59,56.94,56.94,0,0,0,4.9-27.34c-.12-2.31-.37-4.61-.7-6.89-.27-1.91-3.16-1.1-2.89.8A59.81,59.81,0,0,1,124,120a38.9,38.9,0,0,1-5.6,11.35,28.72,28.72,0,0,1-9.83,8.08c-15.39,8.19-34.36,10.84-51.22,6.2A58.91,58.91,0,0,1,36,134.89a61.63,61.63,0,0,1-15.3-19,123.36,123.36,0,0,1-9.14-23.11c-2.7-9-4.93-18.2-5.3-27.6C5.64,50.12,10.7,33.47,24.12,25.05a29.12,29.12,0,0,1,4.82-2.45l-1.46-2.51-2.94,2.35c-1.34,1.07.39,3.24,1.82,2.35A48.36,48.36,0,0,1,51.28,17.5c9.4-.11,18.09,2.87,26.39,7.09S94.39,33.26,101,39.74,112,54.19,115.75,62.37c4.57,9.92,8.38,20.28,10,31.13C126,95.4,128.92,94.59,128.64,92.7Z" transform="translate(-3.18 -14.5)"/><path class="cls-5" d="M85.24,102.88c-2.46,3.5-6.77,4.15-10.77,3.69a29.2,29.2,0,0,1-13.81-5.19,19.56,19.56,0,0,1-4.84-5.75,27.71,27.71,0,0,1-3-6.87c-1.5-5.25-3.09-11.07-1.78-16.52.28-1.14.69-2.21.89-3.37a12.59,12.59,0,0,1,.87-3.58,29.43,29.43,0,0,1,1.83-2.63c.66-1,1.26-2.07,1.82-3.18a10,10,0,0,1,3.59-4.42c1.84-1.06,4.16-.8,6.17-.47,9.08,1.5,17.22,7.94,21.26,16.14a32.81,32.81,0,0,1,3.37,16,32.35,32.35,0,0,1-5.64,16.18c-1.07,1.61,1.53,3.11,2.59,1.51a35.87,35.87,0,0,0,5.94-16.06,35,35,0,0,0-2.51-16.51C87.36,62.26,78.89,54.42,68.72,52a18.16,18.16,0,0,0-7.82-.48,9.38,9.38,0,0,0-5.34,3.7c-1.46,1.93-2.31,4.23-3.68,6.23a16.62,16.62,0,0,0-2,3.16,24.35,24.35,0,0,0-1,4.2c-.28,1.34-.76,2.61-1,4a23.17,23.17,0,0,0-.27,4.78,46.26,46.26,0,0,0,1.61,9.33,40.85,40.85,0,0,0,2.88,8.26,28,28,0,0,0,4.55,6.7,25.18,25.18,0,0,0,8.1,5.21,33.35,33.35,0,0,0,9,2.39c5.37.72,10.77-.45,14-5.09C89,102.81,86.35,101.31,85.24,102.88Z" transform="translate(-3.18 -14.5)"/></g></g></g></svg>