<?xml version="1.0" encoding="utf-8"?>
<!-- Generator: Adobe Illustrator 24.1.1, SVG Export Plug-In . SVG Version: 6.00 Build 0)  -->
<svg version="1.1" id="Capa_1" xmlns="http://www.w3.org/2000/svg" xmlns:xlink="http://www.w3.org/1999/xlink" x="0px" y="0px"
	 viewBox="0 0 250 250" style="enable-background:new 0 0 250 250;" xml:space="preserve">
<style type="text/css">
	.st0{fill:#FFFFFF;}
	.st1{fill:#CCCC33;}
	.st2{fill:#FF9933;}
	.st3{fill:#CC3300;}
</style>
<g id="Capa_2_1_">
	<path class="st0" d="M120.4,67.2c0.5-0.8,0.8-1.6,1.1-2.4c1.6-5.8-2-11-7.3-12.9l-18.5-6.6c-3.9-1.4-8.3,0.4-10.9,3.6
		c-1.1,0.1-2.3,0.3-3.5,0.6c-8.2,2.1-15.1,8-18.6,15.7c-7.2,15.6,0.5,38.4,18.1,43.1c16.9,4.6,40.6-8.2,41.9-26.5
		C122.9,77.7,122.2,72.1,120.4,67.2z M101.8,80.5c-0.4,2.7-3.4,3.9-5.6,5.1c-4,2.1-9.4,4.3-12.7,0.3c-2.9-3.6-4.1-9.3-1.3-13.2
		c1.6-2.3,3.5-3,5.4-2.8c0.1,0,0.2,0,0.3,0.1c0.8,0.1,1.5,0.3,2.2,0.5c2.2,0.9,4.4,2.5,6.4,3.9c0.5,0.3,1,0.6,1.5,0.8
		c0.9,0.6,1.9,1.2,3,1.6c0.3,0.8,0.5,1.5,0.6,1.7C101.7,79,101.9,79.9,101.8,80.5z"/>
	<path class="st0" d="M154.9,49.9c-0.2,0-0.4,0.1-0.5,0.2c-6.2-4.2-14.2-1.8-18.6,4.3c0,0.1-0.1,0.1-0.1,0.2
		c-0.1,0.1-0.2,0.2-0.3,0.3c-2.7,2.3-5,5.3-5.7,8.8c-0.2,0.9-0.3,1.9-0.3,2.9c0,0.1,0,0.2,0,0.3c-2.5,5.1-4.1,11.5-1.2,16.6
		c1.2,2.1,2.8,3.5,4.6,4.4c0.7,2.3,1.9,4.4,3.6,6.4c1.2,1.4,2.5,2.5,3.9,3.5c0.3,3,1.9,5.7,5,7.4c3.3,1.7,6.6,2.7,9.9,3.1
		c6,1.3,12.6,0.3,17.7-2.9c0.8-0.3,1.6-0.7,2.4-1.1c9.5-4.5,18.8-10.6,18.7-22.4C193.9,61.6,175,45,154.9,49.9z"/>
</g>
<g id="Capa_1_2_">
	<g id="Capa_2_2_">
		<path class="st1" d="M126.8,96c-13.5,0-13.5,21,0,21S140.3,96,126.8,96z"/>
		<path class="st2" d="M187,95.4c-0.2,3.4-1.9,6.6-4,9.4c-2.6,0.1-5.2,0.7-7.6,1.6c-5.1,1.8-10.1,3.8-15.5,4.8
			c-2.5,0.4-5.1,0.6-7.6,0.6c-1.2,0-2.3,0-3.5,0c-0.6,0-2.3-0.4-2.9-0.4c-4.9-2.8-11.8-2.5-14.4,3.4c-1.6,3.6-4.5,6.5-8.2,5.8
			c-5.3-1-5.6-6.5-9-9.8c-6-6-15.5-3-23.2-3.6c-6.9-0.7-13.9-2.7-20.1-5.7c-2.7-1.3-5.5-1.5-7.9-0.8c-0.2-3.2-0.2-6.4-0.1-9.5
			c0.4-13.5-20.6-13.5-21,0c-0.2,5.9,0.2,11.8,1,17.7c0.7,5.1,1.3,11.2,4,15.7c1.8,3,4.7,5.2,8,6.2c1,0.3,4.6,1.4,3.5,0.6
			c3,2.3,5.4,7.9,7.3,11.2c5.3,8.9,9.9,18.2,13.5,27.9c1.4,3.7,3.1,7.8,2.5,11.8c-1,6.8-1.9,13.1,4.4,17.8c3.9,3,9.4,4.3,14.1,5.6
			c6.2,1.7,12.5,2.7,18.8,3.4c10.7,1.1,22.4,0.8,32.8-1.8c11.5-2.9,19.1-12,18.2-24.1c-0.3-4.7-1.8-9.3-2-14.1
			c-0.2-5.3,1.1-9.3,3.9-13.8c6.2-9.7,12.8-19.6,20.1-28.6c0.1-0.2,0.3-0.3,0.4-0.5c4.5-0.6,8.4-3.1,11-6.8c4.8-6.9,4.1-16,4.4-24.1
			C208.5,81.9,187.6,81.9,187,95.4z"/>
		<path class="st2" d="M182.9,31.3c-1.3-1.2-1-0.8-0.9-2.6c0.5-5.7-5.2-10.5-10.5-10.5c-4.7,0-8.1,2.8-9.6,6.7c-0.2,0-0.5,0-0.8,0
			c-2.4,0-4.7-0.3-7.1-0.3c-1.6,0-3.2,0.1-4.8,0.2c-7.2-0.3-15.1-0.4-21.8,1.9c0,0,0,0-0.1,0c-0.3-0.2-0.7-0.4-1-0.6
			c-5.6-2.9-12.4-2.3-18.6-2.9c-1-0.6-2.1-1.1-3.2-1.4c-2.2-0.6-4.5-0.5-6.7,0c-1.9-0.4-3.7-0.7-5.5-1.2c-0.8-1.1-1.8-2.1-3.1-2.8
			c-4.7-2.7-11.8-1.3-14.4,3.8c-2.3,4.6-4.4,9.2-6.3,13.9c-3.2,7.6,5.9,15,12.9,12.9c3.7-1.1,7.5-2.2,11.2-3.3c1.6-0.5,4-1.4,6-2
			c0.3,0,0.6,0.1,0.9,0.1c0.2,0.2,0.4,0.3,0.6,0.5c2,1.6,4,3.2,6.1,4.7c0.4,0.3,0.9,0.6,1.3,0.9c1.9-0.2,3.9,0.7,5,2.4
			c2.1,3.3,5.1,5.9,7.9,8.7c2,2,1.8,4.5,0.4,6.3c3.8,0,7.9-2.1,9.5-5.3c1-2,2-4.2,2.8-6.5c3.9-1.3,7.2-3.7,9-7.4
			c0.3-0.4,0.5-0.7,0.6-0.9c0.5-0.1,0.9-0.2,1.4-0.3c1.5-0.3,2.8-0.5,4.3-0.6c8.1,0.2,16.2,1.1,24.2,2.9
			C182.3,51,191.1,38.7,182.9,31.3z"/>
		<path class="st3" d="M67.6,139.2c-2.9-4.7-7.8-5.7-11.9-4.4c-1-1.9-2.2-3.7-3.5-5.5c-3.5-4.5-11.2-3.7-14.8,0
			c-4.4,4.4-3.5,10.4,0,14.8c2.4,3.1,2.8,9.4,3.8,13.1c1.6,6.1,3.3,12.1,5.1,18.1c3.3,11,6,23.4,16.1,30.2
			c6.9,4.6,15.6-1.5,15.8-9.1C78.6,176.9,78.3,156.4,67.6,139.2z"/>
		<path class="st3" d="M210.5,140.5c6.6-11.8-11.5-22.4-18.1-10.6c-11.2,19.9-22.2,41.1-21,64.6c0.5,8.8,11.3,14.2,17.9,7.4
			c12.4-12.7,19.4-28.8,20.8-46.4c0.2-1.9-0.4-3.7-1.3-5.2c-0.1-1.6-0.6-3.1-1.3-4.4C208.5,144.1,209.5,142.3,210.5,140.5z"/>
	</g>
	<g id="Capa_1_1_">
		<path d="M176,77.1c0-2.5-0.7-4.9-1.9-7.1c-2.4,2.2-6.1,2.1-8.3-0.3c-1.6-1.8-2-4.3-1-6.5c-1-0.2-1.9-0.3-2.9-0.3
			c-7.8,0-14.2,6.4-14.2,14.2s6.4,14.2,14.2,14.2C169.7,91.3,176,85,176,77.1z"/>
		<path d="M90.9,91.3c7.8,0,14.2-6.3,14.2-14.2c0-2.5-0.7-4.9-1.9-7.1c-2.4,2.2-6.1,2.1-8.3-0.3c-1-1.1-1.6-2.5-1.6-4
			c0-0.9,0.2-1.7,0.6-2.5c-1-0.2-1.9-0.3-2.9-0.3c-7.8-0.2-14.4,6-14.6,13.8s6,14.4,13.8,14.6C90.4,91.3,90.7,91.3,90.9,91.3z"/>
		<path d="M213.6,118.7L213.6,118.7c0-0.2-0.1-0.3-0.1-0.3c-0.1-0.2-0.1-0.4-0.2-0.6l-0.1-0.2l-0.2-0.3c-0.1-0.1-0.2-0.3-0.3-0.4
			c0-1.3,0.1-2.5,0.1-3.8c0-27.6-7.7-51.8-22.2-70L179.9,7.3c-0.8-2.8-3.8-4.4-6.7-3.6c-0.6,0.2-1.2,0.5-1.7,0.9l-21.6,16.3
			c-16.2-4.8-33.5-4.8-49.7,0L78.5,4.6c-2.4-1.8-5.8-1.3-7.6,1.1c-0.4,0.5-0.7,1.1-0.8,1.7L59.4,43.2c-14.6,18.2-22.2,42.3-22.2,70
			c0,1.3,0.1,2.5,0.1,3.8c-0.1,0.1-0.1,0.2-0.2,0.3c-0.1,0.1-0.2,0.3-0.3,0.4v0.1c-0.1,0.2-0.2,0.4-0.2,0.6c0,0.1-0.1,0.2-0.1,0.3
			s0,0,0,0.1s0,0.1,0,0.2C25,158.8,37,195.9,67.7,215.7l0.1,0.1c2.5,1.6,5.9,0.8,7.4-1.7c1.9-3.1,3.6-6.3,5-9.6
			c5,3.2,10.3,5.9,15.8,8v6.2l-14,14c-2.1,2.2-2,5.6,0.2,7.6c2.1,2,5.4,2,7.5,0l6.4-6.4v7.3c0,3,2.4,5.4,5.4,5.4s5.4-2.4,5.4-5.4
			v-7.3l6.4,6.4c2.1,2.1,5.5,2.1,7.6,0s2.1-5.5,0-7.6l0,0l-14-14v-3c12.2,2.8,24.8,2.7,37-0.1l-0.1,2.6l-14.5,14.3
			c-2.1,2.1-2.1,5.5,0,7.6c2.1,2.1,5.5,2.1,7.6,0l6.5-6.5l-0.1,7.3c-0.1,3,2.3,5.4,5.3,5.5h0.1c2.9,0,5.3-2.4,5.4-5.3l0.1-7.3
			l6.2,6.3c2.1,2.1,5.5,2.1,7.6,0s2.1-5.5,0-7.6L154.3,219l0.1-6.9c5.4-2.1,10.5-4.7,15.3-7.8c1.4,3.3,3.1,6.6,5,9.6l0,0l0,0
			c0.1,0.1,0.2,0.3,0.4,0.4c0.2,0.2,0.3,0.4,0.5,0.6c0.1,0.1,0.2,0.1,0.3,0.2c1.8,1.5,4.3,1.7,6.3,0.4l0,0
			c30.8-19.8,42.7-56.8,31.3-96.6C213.6,118.9,213.6,118.8,213.6,118.7z M90.9,49.6c16.1,0,29.2,12.3,29.2,27.5
			s-13.1,27.6-29.2,27.6S61.7,92.3,61.7,77.1S74.8,49.6,90.9,49.6z M121.1,104.9l4.4-7.4l4.4,7.5l-4.4,8.5L121.1,104.9z M130.9,77.1
			c0-15.2,13.1-27.6,29.2-27.6s29.2,12.4,29.2,27.6s-13.1,27.6-29.2,27.6S130.9,92.3,130.9,77.1z M78.2,17.9l17.5,13.2l0,0l0,0
			l0.2,0.1c0.2,0.2,0.5,0.3,0.8,0.4c0.1,0.1,0.2,0.1,0.3,0.1c0.2,0.1,0.4,0.2,0.7,0.2l0.4,0.1c0.2,0,0.5,0.1,0.7,0.1
			c0.1,0,0.3,0,0.4,0c0.2,0,0.4,0,0.7,0c0.2,0,0.4-0.1,0.6-0.1s0.3,0,0.4-0.1c15.8-5.1,32.7-5.1,48.5,0h0.1c0.5,0.1,1,0.2,1.4,0.2
			h0.2h0.1c0.5,0,1-0.1,1.4-0.2l0.3-0.1c0.4-0.1,0.8-0.3,1.1-0.6c0.1,0,0.1-0.1,0.2-0.1h0.1l17.6-13.2l7.7,25.7
			c-6-3.2-12.6-4.8-19.4-4.8C146.1,38.7,133,46,125.6,58c-7.4-12-20.5-19.3-34.6-19.2c-7.2,0-14.4,1.9-20.6,5.5L78.2,17.9z
			 M45.1,128.2c9,5.4,16.6,13,21.9,22.1c7.9,13.2,9.8,29.2,5.3,43.9c0,0,0,0,0,0.1c-0.9,3.1-2.2,6-3.6,8.9
			C47.2,186.5,38.5,158.7,45.1,128.2z M103.8,203.6c-0.6-0.3-1.2-0.5-1.8-0.5c-6.5-2.2-12.7-5.4-18.2-9.5c4-16.6,1.4-34.1-7.4-48.8
			c-6.8-11.5-16.6-21-28.3-27.4c0-1.4-0.1-2.8-0.1-4.3c-0.1-10,1.1-19.9,3.5-29.5c3.2,18.1,19.6,31.9,39.4,31.9
			c7.3,0,14.4-1.9,20.7-5.6l9.2,17.8l0,0c0.2,0.4,0.5,0.8,0.8,1.1c0.1,0.1,0.2,0.2,0.3,0.3c0.2,0.2,0.5,0.4,0.8,0.6
			c0.1,0.1,0.2,0.2,0.3,0.2l0.2,0.1c0.2,0.1,0.4,0.2,0.7,0.3c0.1,0.1,0.3,0.1,0.4,0.2c0.4,0.1,0.9,0.2,1.4,0.2l0,0
			c0.5,0,0.9-0.1,1.3-0.2c0.2,0,0.3-0.1,0.4-0.2c0.2-0.1,0.5-0.2,0.7-0.3l0.2-0.1c0.1-0.1,0.2-0.1,0.3-0.2c0.3-0.2,0.5-0.4,0.8-0.6
			c0.1-0.1,0.2-0.2,0.3-0.3c0.3-0.3,0.6-0.7,0.8-1.1l0,0l9.2-17.8c6.3,3.7,13.4,5.6,20.7,5.6c18.9,0,34.8-12.7,38.9-29.6
			c2,8.9,3,18.1,3,27.3c0,1.4-0.1,2.9-0.1,4.3c-11.7,6.5-21.5,15.9-28.3,27.4c-8.7,14.7-11.3,32.1-7.3,48.7
			c-12,8.7-26.4,13.3-41.3,13.2C117.8,206.8,110.7,205.7,103.8,203.6z M181.3,203.1c-1.5-2.9-2.7-5.9-3.6-9
			c-4.5-14.7-2.5-30.6,5.3-43.9c5.4-9.1,12.9-16.6,21.9-22.1C211.6,158.7,202.8,186.5,181.3,203.1z"/>
		<path d="M101.9,136.4c-3,0-5.4,2.4-5.4,5.4v8.5c0,3,2.4,5.4,5.4,5.4s5.4-2.4,5.4-5.4v-8.5C107.3,138.8,104.9,136.4,101.9,136.4z"
			/>
		<path d="M125,136.4c-3,0-5.4,2.4-5.4,5.4v8.5c0,3,2.4,5.4,5.4,5.4c3,0,5.4-2.4,5.4-5.4v-8.5C130.4,138.8,128,136.4,125,136.4z"/>
		<path d="M148.1,136.4c-3,0-5.4,2.4-5.4,5.4v8.5c0,3,2.4,5.4,5.4,5.4s5.4-2.4,5.4-5.4v-8.5C153.5,138.8,151.1,136.4,148.1,136.4
			L148.1,136.4z"/>
		<path d="M114.3,165.6c-3,0-5.4,2.4-5.4,5.4v7.8c0,3,2.4,5.4,5.4,5.4s5.4-2.4,5.4-5.4V171C119.7,168.1,117.3,165.6,114.3,165.6z"/>
		<path d="M137.4,165.6c-3,0-5.4,2.4-5.4,5.4v7.8c0,3,2.4,5.4,5.4,5.4s5.4-2.4,5.4-5.4V171C142.8,168.1,140.4,165.6,137.4,165.6
			L137.4,165.6z"/>
	</g>
</g>
</svg>
