<svg id="Capa_1" data-name="Capa 1" xmlns="http://www.w3.org/2000/svg" viewBox="0 0 185.82 243"><path d="M176.56,73.64a14.06,14.06,0,0,0-1.92-7.09,5.89,5.89,0,0,1-9.35-6.8,14.75,14.75,0,0,0-2.92-.3,14.19,14.19,0,1,0,14.19,14.19Z" transform="translate(-32.62)"/><path d="M91.43,87.82A14.17,14.17,0,0,0,103.7,66.55a5.89,5.89,0,0,1-9.91-4.33,6,6,0,0,1,.55-2.47,14.65,14.65,0,0,0-2.91-.3,14.19,14.19,0,1,0,0,28.37Z" transform="translate(-32.62)"/><path d="M214.12,115.2l0-.12c0-.08-.07-.15-.1-.23a5.27,5.27,0,0,0-.19-.56l-.09-.15-.19-.32c-.09-.14-.16-.28-.25-.41,0-1.26.12-2.51.12-3.76,0-27.63-7.68-51.79-22.2-70L180.46,3.85A5.41,5.41,0,0,0,172,1.08L150.39,17.36a88.11,88.11,0,0,0-49.72,0L79,1.08a5.41,5.41,0,0,0-8.42,2.77L59.88,39.65c-14.52,18.21-22.2,42.38-22.2,70,0,1.26.08,2.51.12,3.78-.06.08-.11.18-.17.27s-.19.28-.27.43a.9.9,0,0,0,0,.09,4.19,4.19,0,0,0-.22.59c0,.09-.08.18-.11.27s0,0,0,.08,0,.12-.05.19c-11.47,39.84.47,76.87,31.21,96.68l.08.07a5.41,5.41,0,0,0,7.45-1.69,69.15,69.15,0,0,0,5-9.63,79.68,79.68,0,0,0,15.8,8V215l-14,14a5.4,5.4,0,0,0,7.63,7.64l6.39-6.39v7.3a5.4,5.4,0,1,0,10.8,0v-7.3l6.38,6.39a5.4,5.4,0,1,0,7.64-7.64l-14-14v-3a82.12,82.12,0,0,0,37-.1l-.05,2.64-14.47,14.46a5.4,5.4,0,1,0,7.64,7.64l6.53-6.53-.14,7.34a5.4,5.4,0,0,0,5.29,5.5h.11a5.41,5.41,0,0,0,5.4-5.3l.14-7.26,6.24,6.25a5.4,5.4,0,1,0,7.64-7.64L155,215.46l.13-6.86a79.33,79.33,0,0,0,15.25-7.83,69.62,69.62,0,0,0,5,9.64h0v0a4.87,4.87,0,0,0,.35.42,6.76,6.76,0,0,0,.54.64c.08.07.18.11.26.18a5.32,5.32,0,0,0,6.27.41l0,0c30.75-19.8,42.7-56.8,31.25-96.63A1.74,1.74,0,0,0,214.12,115.2ZM91.43,46.06c16.12,0,29.23,12.37,29.23,27.58s-13.11,27.58-29.23,27.58S62.19,88.84,62.19,73.64,75.31,46.06,91.43,46.06Zm30.22,55.36L126.06,94l4.41,7.47L126.06,110Zm9.81-27.78c0-15.21,13.11-27.58,29.23-27.58s29.23,12.37,29.23,27.58-13.11,27.58-29.23,27.58S131.46,88.84,131.46,73.64ZM78.73,14.37,96.27,27.56l0,0,0,0,.15.1a5.08,5.08,0,0,0,.75.44,1.79,1.79,0,0,0,.32.13,5.21,5.21,0,0,0,.66.24l.36.06a5.06,5.06,0,0,0,.68.1c.13,0,.25,0,.38,0a4.86,4.86,0,0,0,.66,0c.2,0,.39-.08.59-.13s.27-.05.4-.1a78.91,78.91,0,0,1,48.51,0h.07a5.12,5.12,0,0,0,1.45.24l.19,0h.11a5.2,5.2,0,0,0,1.41-.23l.3-.1a5.64,5.64,0,0,0,1.15-.58,1.32,1.32,0,0,0,.2-.12l.07,0,17.6-13.23,7.71,25.69a41.17,41.17,0,0,0-19.36-4.8,40.36,40.36,0,0,0-34.63,19.21A40.34,40.34,0,0,0,91.43,35.26,41.05,41.05,0,0,0,70.81,40.8ZM45.66,124.72a63.68,63.68,0,0,1,21.93,22.06,54.73,54.73,0,0,1,5.32,43.95s0,0,0,.06a57.06,57.06,0,0,1-3.6,8.87C47.73,183,39,155.2,45.66,124.72Zm58.66,75.37a5.22,5.22,0,0,0-1.81-.54,68.81,68.81,0,0,1-18.23-9.47,65.45,65.45,0,0,0-7.36-48.75,74.9,74.9,0,0,0-28.31-27.41c0-1.43-.13-2.85-.13-4.27A120.22,120.22,0,0,1,52,80.12C55.24,98.2,71.66,112,91.42,112a41.06,41.06,0,0,0,20.67-5.57l9.17,17.78,0,0a5.23,5.23,0,0,0,.77,1.09c.08.09.17.17.25.25a5.18,5.18,0,0,0,.78.62c.11.07.21.15.32.21l.17.11a3.48,3.48,0,0,0,.68.25,2.87,2.87,0,0,0,.44.17,5.69,5.69,0,0,0,1.35.18h0a5.56,5.56,0,0,0,1.35-.18,2.87,2.87,0,0,0,.44-.17,5.54,5.54,0,0,0,.68-.25l.17-.11a3.7,3.7,0,0,0,.33-.21,5.22,5.22,0,0,0,.77-.62c.09-.09.18-.16.26-.25a5.58,5.58,0,0,0,.77-1.1l0,0L140,106.44A41,41,0,0,0,160.68,112c18.93,0,34.8-12.68,38.94-29.63a121.61,121.61,0,0,1,3,27.26c0,1.43-.08,2.86-.14,4.3a75,75,0,0,0-28.31,27.41,65.49,65.49,0,0,0-7.34,48.72,69.74,69.74,0,0,1-41.26,13.24A71.66,71.66,0,0,1,104.32,200.09Zm77.46-.44a57.45,57.45,0,0,1-3.64-9,54.78,54.78,0,0,1,5.33-43.87,64,64,0,0,1,21.94-22.08C212.12,155.2,203.35,183,181.78,199.65Z" transform="translate(-32.62)"/><path d="M102.43,132.88a5.4,5.4,0,0,0-5.4,5.4v8.48a5.4,5.4,0,1,0,10.8,0v-8.48A5.4,5.4,0,0,0,102.43,132.88Z" transform="translate(-32.62)"/><path d="M125.54,132.88a5.4,5.4,0,0,0-5.4,5.4v8.48a5.4,5.4,0,0,0,10.8,0v-8.48A5.4,5.4,0,0,0,125.54,132.88Z" transform="translate(-32.62)"/><path d="M148.65,132.88a5.4,5.4,0,0,0-5.4,5.4v8.48a5.4,5.4,0,0,0,10.8,0v-8.48A5.4,5.4,0,0,0,148.65,132.88Z" transform="translate(-32.62)"/><path d="M114.81,162.15a5.4,5.4,0,0,0-5.4,5.4v7.84a5.4,5.4,0,1,0,10.8,0v-7.84A5.4,5.4,0,0,0,114.81,162.15Z" transform="translate(-32.62)"/><path d="M137.92,162.15a5.4,5.4,0,0,0-5.4,5.4v7.84a5.4,5.4,0,0,0,10.8,0v-7.84A5.4,5.4,0,0,0,137.92,162.15Z" transform="translate(-32.62)"/></svg>