<?xml version="1.0" encoding="utf-8"?>
<!-- Generator: Adobe Illustrator 24.1.1, SVG Export Plug-In . SVG Version: 6.00 Build 0)  -->
<svg version="1.1" id="Capa_1" xmlns="http://www.w3.org/2000/svg" xmlns:xlink="http://www.w3.org/1999/xlink" x="0px" y="0px"
	 viewBox="0 0 64 37.8" style="enable-background:new 0 0 64 37.8;" xml:space="preserve">
<g>
	<path d="M32.1,0.8C15.8,0.8,2.6,12.9,1.7,28.5c-1.7,2-1.4,5,0.7,6.7c0.8,0.7,1.9,1.1,3,1.1h14.9c2.6,0,4.8-2.2,4.7-4.8c0,0,0,0,0,0
		c0-1.3-0.5-2.5-1.4-3.4c1.4-4.7,6.3-7.4,11-6c2.9,0.9,5.2,3.1,6,6c-1.9,1.9-1.8,4.9,0,6.7c0.9,0.9,2,1.4,3.3,1.4h14.9
		c2.6,0,4.8-2.2,4.7-4.8c0-1.1-0.4-2.1-1.1-3C61.6,12.9,48.3,0.8,32.1,0.8z M32.1,2.8c14,0,25.6,9.7,28,22.6l-0.1-0.1l-0.3-0.3
		l-0.2-0.2c-0.1-0.1-0.3-0.2-0.4-0.2l-0.2-0.1l-0.5-0.2l-0.2-0.1c-0.1,0-0.2,0-0.2,0C55,12.7,44.3,4.5,32.1,4.5
		c-12.6,0-23.6,8.8-26,20.7H5.9l0,0c-0.2,0-0.4,0-0.6,0.1H5.2c-0.2,0-0.4,0.1-0.6,0.2H4.6c-0.2,0.1-0.4,0.2-0.5,0.3l0,0
		C6.1,12.7,17.9,2.8,32.1,2.8z M45.5,24.3c-3.6-7.4-12.5-10.5-19.9-6.9c-2.9,1.4-5.3,3.8-6.8,6.7c-0.7,0-1.3,0.1-1.9,0.4
		c0-0.1-0.1-0.2-0.2-0.4c3.8-8.5,13.8-12.3,22.3-8.5c3.2,1.4,5.9,3.8,7.7,6.9C46.1,23,45.7,23.6,45.5,24.3z M48.4,21.4
		c-3.4-5.8-9.6-9.3-16.3-9.3c-7.1,0-13.6,3.9-16.8,10.2c-0.5-0.4-1-0.7-1.6-0.9c3.6-6.8,10.7-11.1,18.4-11c7.6-0.1,14.6,4,18.3,10.7
		C49.7,21.1,49,21.2,48.4,21.4z M52.9,21.8C49.3,13.5,41.1,8.3,32.1,8.4c-8.7-0.1-16.7,4.9-20.5,12.7c-0.8,0-1.6,0.2-2.3,0.6
		C14.6,9.1,29.1,3.2,41.7,8.5c6.8,2.9,12,8.7,14.1,15.8c-0.1,0-0.2,0.1-0.4,0.2C55,23.3,54.1,22.3,52.9,21.8z M20.2,34.3H5.3
		c-1.5,0-2.7-1.2-2.7-2.8c0-0.7,0.3-1.4,0.8-1.9c0.2-0.3,0.5-0.5,0.8-0.6c0.3-0.1,0.6-0.5,0.6-0.8c0-0.1,0.1-0.2,0.1-0.3
		c0,0,0-0.1,0.1-0.1c0,0,0.1-0.1,0.1-0.1c0.1-0.1,0.2-0.2,0.2-0.2h0.1l0.2-0.1h0.2c0.2,0,0.4,0,0.6,0.1c0.1,0.1,0.3,0.2,0.4,0.3
		c0.3,0.5,1,0.6,1.4,0.2c0.3-0.2,0.4-0.5,0.4-0.8v-0.9c-0.1-1.7,1.3-3.1,3-3.1c0,0,0.1,0,0.1,0H12c1.1,0.1,2,0.7,2.6,1.6
		c0.3,0.5,0.4,1,0.4,1.5v1c0,0.6,0.5,1,1,1c0.6,0,1-0.5,1-1c0-1.2,1.3-1.2,1.6-1.2c0.1,0,0.3,0,0.4,0.1c0.7,0.2,1.2,0.8,1.2,1.6v0.2
		c0,0.4,0.3,0.8,0.7,1c0.3,0.1,0.6,0.2,0.8,0.4l0,0c1.2,0.9,1.5,2.6,0.6,3.9C21.9,33.8,21.1,34.3,20.2,34.3L20.2,34.3z M32.1,19.7
		c-4.4,0-8.3,2.5-10,6.5l0,0c-0.1-0.2-0.2-0.4-0.4-0.6c0,0-0.1-0.1-0.1-0.1c-0.1-0.2-0.3-0.3-0.4-0.5h-0.1l-0.3-0.3
		c3.4-6.3,11.2-8.6,17.5-5.2c2.4,1.3,4.3,3.3,5.5,5.8c-0.4,0.1-0.9,0.3-1.2,0.6l-0.1,0.1l-0.2,0.2l-0.1,0.1
		C40.5,22.3,36.5,19.7,32.1,19.7z M58.8,34.3H43.9c-1.5,0-2.7-1.2-2.7-2.8c0-0.9,0.4-1.7,1.2-2.2c0.2-0.1,0.3-0.2,0.5-0.3
		c0.3-0.1,0.6-0.4,0.6-0.8c0-0.2,0.1-0.3,0.2-0.4l0,0c0.2-0.2,0.4-0.4,0.7-0.5h0.1c0.1,0,0.3,0,0.4,0h0.1c0.2,0.1,0.3,0.2,0.5,0.4
		c0.1,0.1,0.1,0.2,0.2,0.2c0.4,0.3,1.1,0.2,1.4-0.2c0.1-0.2,0.2-0.4,0.2-0.6v-0.9c0-1,0.5-2,1.4-2.6c1-0.6,2.2-0.7,3.2-0.2
		c1.2,0.4,2,1.6,2,2.8v1.1c0,0.6,0.5,1,1,1s1-0.5,1-1c0-1,1-1.2,1.4-1.2h0.2c0.9,0,1.6,0.7,1.6,1.6c0,0,0,0,0,0v0.2
		c0,0.4,0.3,0.8,0.7,1c0.4,0.1,0.8,0.4,1.1,0.7c0.5,0.5,0.8,1.2,0.8,1.9C61.5,33,60.3,34.3,58.8,34.3z"/>
</g>
</svg>
