<?xml version="1.0" encoding="utf-8"?>
<!-- Generator: Adobe Illustrator 24.1.1, SVG Export Plug-In . SVG Version: 6.00 Build 0)  -->
<svg version="1.1" id="Capa_1" xmlns="http://www.w3.org/2000/svg" xmlns:xlink="http://www.w3.org/1999/xlink" x="0px" y="0px"
	 viewBox="0 0 250 250" style="enable-background:new 0 0 250 250;" xml:space="preserve">
<g>
	<g>
		<path d="M116.3,26.6c-2.3,0.1-4.2-1.7-4.3-4s1.7-4.2,4-4.3c2.8-0.2,5.7-0.3,8.5-0.3c2.3,0,4.1,1.8,4.1,4.1s-1.8,4.1-4.1,4.1
			c-2.6,0-5.3,0.1-7.9,0.3L116.3,26.6z"/>
		<path d="M124.6,248.4C56.4,248.4,1.1,193.1,1.1,125S56.4,1.5,124.6,1.5S248,56.8,248,125C247.9,193.1,192.7,248.3,124.6,248.4z
			 M124.6,9.8C60.9,9.8,9.4,61.4,9.4,125s51.6,115.2,115.2,115.2S239.8,188.6,239.8,125C239.7,61.4,188.2,9.9,124.6,9.8z"/>
		<path d="M21.7,129.1c-2.3,0-4.1-1.8-4.1-4.1C17.5,75.8,51.1,32.9,98.9,21.1c2.2-0.5,4.4,0.8,5,3c0.5,2.2-0.8,4.4-3,5
			C56.8,40,25.8,79.5,25.8,125C25.8,127.3,24,129.1,21.7,129.1z"/>
		<path d="M124.6,215.5c-11.4,0-20.6-9.2-20.6-20.6c0-11.4,9.2-20.6,20.6-20.6s20.6,9.2,20.6,20.6
			C145.1,206.3,135.9,215.5,124.6,215.5z M124.6,182.6c-6.8,0-12.3,5.5-12.3,12.3c0,6.8,5.5,12.3,12.3,12.3
			c6.8,0,12.3-5.5,12.3-12.3C136.9,188.1,131.4,182.6,124.6,182.6z"/>
		<path d="M109.5,151.7l0-15.6c0-10.5,7-17.5,15.6-17.5h0.8h0c3.6,0,7.1-0.9,10.2-2.8c7.4-4.3,11.5-12.7,10.1-21.2
			c-1.5-9-8.8-15.9-17.8-17.1c-5.9-0.7-11.8,1.1-16.2,5c-4.4,3.9-6.9,9.5-6.9,15.4c0,3.1,0.7,6.3,2.1,9.1c1.6,3.3,2.4,7,1.4,10.5
			c-2.8,9.5-11.2,14-19.2,12.7c-5.2-0.8-9.6-4.2-11.9-8.9c-15.8-32.6,4.6-73.4,45.3-77c14-1.2,28.1,3.7,38.3,13.3
			c29.8,28.1,20.4,72.7-12.2,88.5c-2.2,1.1-4.5,2-6.8,2.7v2.6c0,11.4-11.6,20.1-23.6,14.9C113,164,109.5,158,109.5,151.7z
			 M120.3,124.4c-1.3-0.3-2.6,0.7-2.6,2l0,6.8v19.5c0,0.6,0.2,1.2,0.6,1.6c7.1,7.3,15.8,2.3,15.8-4.6l0-8.1c0-0.5,0.3-0.9,0.8-1
			c34.9-7.2,51.3-52,18.2-81.8c-0.8-0.8-1.8-1.4-2.9-1.9C116.5,40.1,84.8,61.1,81,90.4c-1.1,8.7,0.3,17.6,4.1,25.5
			c1.1,2.3,3.3,4,5.9,4.4c4.5,0.8,8.8-2.2,9.6-6.7c0.3-1.7,0.1-3.5-0.7-5.1c-1.8-3.9-2.8-8.1-2.8-12.3c0-21.7,24-37.8,46.9-23.2
			c0.6,0.4,1.2,0.9,1.7,1.4c15.1,16.4,9.8,37.9-5.4,46.7C134.3,124.6,127.2,125.8,120.3,124.4z"/>
	</g>
</g>
</svg>
