<?xml version="1.0" encoding="utf-8"?>
<!-- Generator: Adobe Illustrator 24.1.1, SVG Export Plug-In . SVG Version: 6.00 Build 0)  -->
<svg version="1.1" id="Capa_1" xmlns="http://www.w3.org/2000/svg" xmlns:xlink="http://www.w3.org/1999/xlink" x="0px" y="0px"
	 viewBox="0 0 82.3 116.9" style="enable-background:new 0 0 82.3 116.9;" xml:space="preserve">
<g>
	<circle cx="40.9" cy="65.5" r="1.7"/>
	<circle cx="40.9" cy="72.3" r="1.7"/>
	<path d="M53,55L64,44.9c6.5-5.8,9.7-13.7,9.8-24.2v-8.7h5.4l0,0c1,0,1.7-0.8,1.7-1.8V2.6l0,0c0-1-0.8-1.7-1.8-1.7H2.4
		c-1,0-1.7,0.8-1.7,1.7v7.5c0,1,0.8,1.7,1.7,1.7h5.4v8.9C8,31,11.1,39,17.6,44.9L28.7,55c2.4,2.1,3.3,6.1-0.1,9.3l-10.9,10
		C11.1,80,8,87.9,7.8,98.5v7.6H2.4c-1,0-1.7,0.8-1.7,1.7v7.5c0,1,0.8,1.7,1.7,1.7h77l0,0c1,0,1.8-0.7,1.8-1.7v-7.3l0,0
		c0-1-0.8-1.7-1.8-1.7H74v-7.8c-0.1-10.4-3.3-18.4-9.8-24.2l-10.9-10c-1.4-1.4-2.5-2.8-2.6-4.7C50.6,57.7,51.6,56.1,53,55z M4.1,4.3
		h73.5v4H4.1V4.3z M77.6,113.6H4.1l0.1-4h73.4V113.6z M47,59.5c0,2.9,1.4,5.1,3.7,7.2l10.9,10c5.8,5.3,8.6,12.2,8.7,21.7v7.6H11.3
		v-7.8c0.1-9.6,2.9-16.5,8.7-21.7l10.9-10c4-3.9,5.4-9.4,0.1-14.4L20,42.1c-5.8-5.3-8.6-12.2-8.7-21.7v-8.7h59.1v9
		c-0.1,9.6-2.9,16.5-8.7,21.7c-1.2,1.1-11.1,10.2-11.1,10.2C48.3,54.5,47.1,56.8,47,59.5z"/>
	<path d="M63.6,34.5c0.4-0.7,0.4-1.5-0.1-2.1c-0.6-0.6-1.4-0.7-2.1-0.3c-6.8,3.5-9.4,4.8-19.9,1.4c-6.8-2.2-14.1-1.7-20.6,1.4
		c-1.1,0.6-1.2,1.9-0.6,2.8c0.7,0.7,15.8,15.1,15.9,15.2c1.1,1.2,1.8,2.9,1.9,4.6c0.1,1.2,1.2,2.4,2.9,2.4c0,0,1.8,0.1,2.6-1.7
		c0.6-1.2,1.4-4.4,3.2-6.2c0.3-0.1,11.2-10.7,12.6-12C61.1,38.2,62.5,36.4,63.6,34.5z M44.4,49.1c-1.7,1.4-2.8,3.2-3.5,5.3
		c-0.4-1.5-1.2-3-2.5-4.2c-0.6-0.6-9.8-9.4-13.9-13.3c5.1-1.8,10.7-1.9,15.8-0.3C47.8,39,52,39.3,56,38.1
		C53.8,40.1,44.4,49.1,44.4,49.1z"/>
	<path d="M17.1,100.7c0,1,0.8,1.7,1.7,1.7h44.2l0,0c1,0,1.7-0.8,1.7-1.8c-0.3-12.7-10.5-23-23.3-23.3C28.3,77,17.4,87.4,17.1,100.7z
		 M61.1,98.9H20.6c0.8-9.8,8.7-17.7,18.6-18.6C50.3,79.3,60.2,87.7,61.1,98.9z"/>
</g>
</svg>
