<svg xmlns="http://www.w3.org/2000/svg" viewBox="0 0 640.88 394.4"><defs><style>.cls-1{fill:#fff;}.cls-2{fill:#999;}.cls-3{fill:#6c0;}.cls-4{fill:#cf3;}.cls-5{fill:#c30;}.cls-6{fill:#f93;}</style></defs><g id="Capa_1" data-name="Capa 1"><path class="cls-1" d="M119,61.68C105.7,58.83,92.11,56,78.53,57.25s-27.4,7.44-34.62,19-5.61,28.91,5.65,36.61a148.7,148.7,0,0,0-41,51.9c-5.7,12-9.79,25.89-5.54,38.49s19.86,21.8,31.4,15.19a163.47,163.47,0,0,0-3.65,53.86c.76,7.77,2.24,15.82,7,22,6.35,8.33,17.38,11.68,27.83,12.34a75.26,75.26,0,0,0,48.23-13.93,698.91,698.91,0,0,0,17.69,70.55c1.37,4.48,2.93,9.17,6.41,12.31,4.43,4,10.93,4.58,16.91,4.62a164.89,164.89,0,0,0,75-17.59c7,23.46,17.17,50.27,40.57,57.5,13.18,4.07,27.9.45,39.42-7.16s20.2-18.82,27.39-30.6c15.79,31.66,53.07,51.1,88.08,45.9,8.88-1.32,17.9-4.27,24.25-10.62s9.27-16.71,5-24.62c17.82,5.43,36,10.92,54.62,10.69s38.13-7.12,49.14-22.15,10.38-38.9-4.35-50.31c16.65-11.9,39.54-11.1,57.24-21.38,18.43-10.69,28.65-32.82,27.77-54.11-.41-9.75-3.12-19.81-9.74-27s-17.76-10.67-26.59-6.51a413.67,413.67,0,0,0,15.85-45.37c3.76-13.16,6.8-27.63,1.39-40.21-5.05-11.77-16.92-19.64-29.42-22.43s-25.59-1.09-38,2A67.7,67.7,0,0,0,453,75c-6.67-12.51-19.86-20.49-33.57-24.1s-28.09-3.37-42.27-3.12c-18.75.33-41.35,3-49.33,20A79.16,79.16,0,0,0,206.32,64.4c-3.91-16.77-23.41-26-40.55-24.34S133.44,51.29,119,60.63" transform="translate(0.09 -36.21)"/><path class="cls-2" d="M119.44,60.24c-18.78-4-39-8.13-57.46-.44-14.21,5.94-25.3,18.88-23.82,35,.72,7.76,4.25,14.83,10.65,19.4l-.31-2.36a150.84,150.84,0,0,0-40,49.82c-8.35,16.8-15,41.08,2.3,54.78,7,5.5,16.37,7.71,24.46,3.34l-2.2-1.7a167.92,167.92,0,0,0-4.49,36.21c-.14,10.76,0,22.72,3.77,32.94,7.22,19.63,30.33,22.94,48.6,20.32A77.19,77.19,0,0,0,114.59,294l-2.2-.89q3.87,19.67,8.83,39.09,2.52,9.86,5.34,19.64c1.68,5.85,3.15,11.93,5.52,17.56,1.85,4.4,4.72,8.06,9.15,10.05s9.41,2.22,14.18,2.24a165.55,165.55,0,0,0,36.12-3.91,167.88,167.88,0,0,0,39-13.89l-2.2-.89c5.39,18,12.06,38.1,27,50.52,17,14.17,40.65,11.52,57.81-1.1,10.54-7.75,18.53-18.26,25.32-29.33h-2.59c9.72,19.21,26.9,33.88,46.89,41.61a86.52,86.52,0,0,0,31.12,5.88c10.95,0,23-1.86,32.18-8.19,9.55-6.58,15.26-19.15,9.76-30.15l-1.69,2.2c24.72,7.54,51.42,15.39,77,7.3,19.74-6.23,36.07-22.12,36.17-43.8,0-10.56-4-21.07-12.35-27.77l-.31,2.36c11.22-7.83,24.8-10.13,37.72-13.72,12.12-3.37,23.5-8.37,32.07-17.87,15.49-17.16,22.27-47,9.9-67.71-6.56-11-20.2-17.71-32.51-12.28l2.2,1.7q7.13-17.22,12.74-35c3.39-10.79,6.94-21.92,7.43-33.3.43-10.13-2.25-20-9-27.68A45.83,45.83,0,0,0,591.75,113c-13.11-3.2-26.8-1.38-39.73,1.79l1.85,1c-8.84-32.47-40.41-54.5-74-51a70.47,70.47,0,0,0-27.69,8.86l2.06.54c-9.79-17.79-30-25.39-49.17-27.34a227.66,227.66,0,0,0-34-.43c-8.45.42-17.1,1.4-25.11,4.28-8.31,3-15.58,8.17-19.53,16.25l2.35-.3a82.16,82.16,0,0,0-45.43-28.54,80.59,80.59,0,0,0-53.21,6.29,81.47,81.47,0,0,0-25,18.86l2.51.66c-3.9-15.56-19.6-24.35-34.74-25.5C152.88,37,134.4,48.9,118.22,59.34c-1.62,1-.12,3.64,1.51,2.59,15.11-9.75,32-20.87,50.72-20.55,14.65.25,30.64,8.31,34.43,23.42a1.51,1.51,0,0,0,2.5.66c24.4-27.25,65.13-34.07,96.91-15.88a78.92,78.92,0,0,1,22.45,19.27,1.51,1.51,0,0,0,2.36-.3c7.27-14.86,25.38-18,40.31-18.95a260.32,260.32,0,0,1,29-.17c10.49.54,21.1,2.17,30.74,6.53,9.33,4.22,17.51,10.76,22.5,19.82a1.52,1.52,0,0,0,2.05.54c18.55-10.57,42-11.87,61.43-2.64a67.65,67.65,0,0,1,35.81,43,1.53,1.53,0,0,0,1.85,1c19.81-4.85,43.54-6.08,59,9.73,15.81,16.17,8.17,40,2.29,58.85q-5.64,18.07-12.92,35.58c-.57,1.36,1.17,2.15,2.2,1.69,11.78-5.19,24.31,2.87,29.62,13.39s5.53,23.5,3,34.8a59.24,59.24,0,0,1-15.59,29.11c-8.63,8.58-19.74,12.67-31.28,15.74-12.4,3.3-25.27,5.88-36,13.36a1.5,1.5,0,0,0-.3,2.35c14.92,11.92,14.53,35.45,3.2,49.69-13.6,17.09-37.11,21.74-57.81,19.73-14.82-1.44-29.16-5.84-43.34-10.16a1.51,1.51,0,0,0-1.69,2.2c5.21,10.43-1.59,22-10.76,27.37-9,5.26-20.16,6.66-30.41,6.44a86.57,86.57,0,0,1-53.28-20.41,81.79,81.79,0,0,1-20.32-25.57,1.51,1.51,0,0,0-2.59,0c-11.25,18.34-27.44,36.57-50.28,38.55-20.24,1.76-34.74-12-43.38-28.87-4.72-9.24-8-19.14-11-29.06a1.53,1.53,0,0,0-2.2-.9,164.11,164.11,0,0,1-66.77,17.26c-5.28.21-10.87.52-16.06-.64-6-1.33-9.65-5.1-11.8-10.73-4.19-10.93-6.91-22.68-9.84-34q-5.25-20.3-9.29-40.88a1.51,1.51,0,0,0-2.2-.9C97.27,302.66,76.13,308.38,57,303.93c-9.58-2.22-18-7.59-21.61-17.05s-3.82-20.29-3.84-30.21a163.82,163.82,0,0,1,4.39-37.82,1.51,1.51,0,0,0-2.2-1.69c-7.26,3.92-15.81,1.46-21.8-3.68-7.13-6.11-9.63-15.06-9-24.22.7-10.23,4.9-20,9.6-28.94a146.39,146.39,0,0,1,15.72-24,150.66,150.66,0,0,1,22.41-22.4,1.51,1.51,0,0,0-.3-2.35c-7.17-5.12-10-14.14-9.13-22.67.93-9.17,6.42-16.93,13.93-22C74,54,97.83,58.68,118.64,63.13c1.89.4,2.69-2.49.8-2.89Z" transform="translate(0.09 -36.21)"/></g><g id="Capa_4" data-name="Capa 4"><path class="cls-3" d="M86.42,82.7c-15.46,6-25.37,22-28,38.41s.85,33.13,5.63,49c5.15,17.1,12.09,34.25,24.65,46.94,11.46,11.59,27.13,18.71,43.31,20.7s32.82-1,47.72-7.64a46.71,46.71,0,0,0,13.61-8.53A39.69,39.69,0,0,0,202,208.53c5.16-12,6.06-25.58,4.17-38.52s-6.46-25.35-11.88-37.25C189.49,122.31,183.91,112,175.69,104c-6.62-6.45-14.71-11.16-22.84-15.57-7.46-4-15.11-7.93-23.32-10.07a60.08,60.08,0,0,0-46.67,7.22" transform="translate(0.09 -36.21)"/><path class="cls-3" d="M86,81.26c-13.4,5.3-22.64,17.42-27,30.87-5.4,16.66-2.88,34.74,1.54,51.3,4.19,15.72,9.66,31.73,19.1,45.13a73.24,73.24,0,0,0,37.6,27.49c16.12,5.19,33.64,4.84,49.85.23,8-2.26,16.22-5.37,23-10.17s11.35-11.88,14.28-19.66c6.17-16.41,4.82-34.67,0-51.23a174.76,174.76,0,0,0-9.49-24.58,108.56,108.56,0,0,0-12.6-21.48,71.41,71.41,0,0,0-18.77-16.33,170.18,170.18,0,0,0-23.23-12.3A65.09,65.09,0,0,0,116,75a61.45,61.45,0,0,0-33.9,9.29c-1.63,1-.13,3.62,1.52,2.59a58.77,58.77,0,0,1,44.3-7.37c8.27,2,15.92,5.77,23.36,9.78,7.18,3.88,14.38,7.93,20.59,13.26a70.19,70.19,0,0,1,14.87,18.66,171,171,0,0,1,10.5,22.4c6.09,15.53,10.06,32.44,7.58,49.18-1.19,8-3.75,16-8.31,22.7S185,226.23,177.69,229.37c-15.26,6.52-32.5,9.22-48.94,6.41-14.81-2.54-28.95-9.4-39.46-20.23-10.86-11.19-17.35-25.78-22.13-40.42-5.3-16.24-9.67-33.53-7.73-50.74C61,110.91,67.26,97.14,78.35,88.91a37,37,0,0,1,8.47-4.76c1.78-.7,1-3.6-.8-2.89Z" transform="translate(0.09 -36.21)"/><path class="cls-1" d="M119.09,123.64c-6.43,5.33-7.67,14.54-8.44,22.86-.46,5-.89,10.28.88,15,1.46,3.9,4.29,7.1,7.08,10.19,6.27,7,13,14.17,21.92,17.12a12.29,12.29,0,0,0,7.61.48,13.1,13.1,0,0,0,5.45-4,38.78,38.78,0,0,0-20-63.89c-6.07-1.41-13.41-.88-17.21,4.06" transform="translate(0.09 -36.21)"/><path class="cls-3" d="M118,122.58c-4.91,4.16-7,10.47-8,16.63-.55,3.37-.88,6.79-1.12,10.2a31.79,31.79,0,0,0,.76,11.25,26.66,26.66,0,0,0,5.59,9.52c2.29,2.71,4.7,5.33,7.18,7.87,4.85,5,10.32,9.56,16.93,12,3.56,1.3,7.52,1.84,11,0,2.91-1.57,5.15-4.37,7.07-7a40.82,40.82,0,0,0,7.25-18.19,40,40,0,0,0-12.3-34.84,40.9,40.9,0,0,0-16.08-9.33c-5.63-1.7-12.4-2.23-17.64.94a12.25,12.25,0,0,0-3.31,2.9c-1.18,1.5.92,3.64,2.12,2.12,3.48-4.37,9.59-4.87,14.73-3.89a36.56,36.56,0,0,1,15.31,7,37.16,37.16,0,0,1,14.59,30.07,38.65,38.65,0,0,1-4.34,16.95,35.72,35.72,0,0,1-5.23,7.55c-2.3,2.52-4.87,4.3-8.42,3.87-6.39-.77-12.21-5.22-16.76-9.48-2.31-2.16-4.47-4.46-6.59-6.8a51.18,51.18,0,0,1-6.44-8c-3.85-6.5-2.61-14.66-1.69-21.8.82-6.34,2.44-13,7.52-17.34,1.48-1.25-.66-3.36-2.12-2.12Z" transform="translate(0.09 -36.21)"/><path class="cls-3" d="M219.4,129.13c2.16,24.83,5.95,49.49,9.74,74.13,1.25,8.15,2.87,17,9,22.46s15.49,6,23.16,3.11,13.88-8.66,19.21-14.87,10-13,15.87-18.74a32.4,32.4,0,0,0,28.63,38.87c4.37.42,9.13-.19,12.41-3.11a17.85,17.85,0,0,0,4.4-7.15c2.22-5.84,3.39-12,4.55-18.17l13.06-69.32c.25-1.33.41-3-.65-3.8a3.77,3.77,0,0,0-2.55-.53,147.72,147.72,0,0,0-25.14,3.15l1.58,9.9c1,6,1.9,12.17.26,18s-6.63,11.17-12.68,11.17c-4.11,0-7.86-2.41-10.84-5.25-9.65-9.21-13.3-22.87-16.66-35.79a4.64,4.64,0,0,0-1.72-3.05,4.81,4.81,0,0,0-1.8-.48l-13.92-1.74a3.71,3.71,0,0,0-2.36.22c-1.17.69-1.21,2.33-1.11,3.69l1.57,21.85c.28,3.85.53,7.87-1,11.42s-5.42,6.4-9.14,5.39c-3.41-.93-5.3-4.49-6.71-7.73a244.62,244.62,0,0,1-12-34.5,3.24,3.24,0,0,0-1-1.88,3.28,3.28,0,0,0-2.08-.41l-22.54.65" transform="translate(0.09 -36.21)"/><path class="cls-3" d="M217.9,129.13c2.25,25.7,6,51.35,10.15,76.8,1.6,9.69,4.73,20.15,14.59,24.3s20.58.81,28.65-5.28c10.46-7.9,17-19.52,26.19-28.67L295,194.82a34,34,0,0,0,27,40.34c5.7,1.05,12.42.87,16.86-3.39a20.07,20.07,0,0,0,4.48-7.54,71.83,71.83,0,0,0,3-10.34c1.59-7.12,2.79-14.33,4.14-21.5L358.8,148c.75-4,1.65-7.93,2.23-11.92a5,5,0,0,0-.91-4.34c-1.27-1.35-3.13-1.23-4.83-1.16a152.84,152.84,0,0,0-24.56,3.16,1.55,1.55,0,0,0-1.05,1.85c.69,4.3,1.42,8.59,2.05,12.9s1,8.64.13,12.85c-1.36,6.35-6.94,13-14.09,11.08-3.55-1-6.47-3.51-8.91-6.16a42.18,42.18,0,0,1-6.13-8.8c-3.48-6.52-5.58-13.67-7.48-20.78-.83-3.1-1.17-7.67-5-8.35-4.27-.76-8.66-1.1-13-1.64-1.84-.23-4-.79-5.59.6a5.24,5.24,0,0,0-1.32,4.25c.2,4.49.64,9,1,13.48s.84,8.78.83,13.17c0,3.68-.76,7.77-4.05,10-3,2-6.08.88-8-2-2.21-3.24-3.51-7.2-4.95-10.81a242.21,242.21,0,0,1-8.36-24.74c-.48-1.7-.7-4.06-2.12-5.29s-3.62-.83-5.34-.78l-13.48.39-6.86.19c-1.93.06-1.94,3.06,0,3l14-.4,6.86-.2c.67,0,2.26-.35,2.86.08s.71,2,.9,2.67a242.3,242.3,0,0,0,8.5,25.43c1.48,3.75,2.86,7.75,4.95,11.21,1.73,2.88,4.48,5.4,8.05,5.28a10.29,10.29,0,0,0,8.2-5.36c2.07-3.61,2-8,1.76-12-.3-4.59-.66-9.18-1-13.78l-.52-7.2c-.07-.93-.81-4.23.61-4.47a12,12,0,0,1,3.14.32l3.36.42,7,.87a7.38,7.38,0,0,1,2.73.49c.71.45.88,1.61,1.08,2.34.47,1.81.94,3.61,1.43,5.4,2,7.21,4.26,14.44,8,21,3.5,6.16,8.86,13,16,15.08s13.65-2.63,16.54-8.89c3.62-7.84,1.6-16.84.3-25l-1.05-6.6-1.05,1.84a145.47,145.47,0,0,1,20.35-2.85c1.58-.11,3.19-.26,4.77-.25.54,0,1.15-.06,1.42.5a3.32,3.32,0,0,1,0,1.77c-.52,3.32-1.25,6.63-1.87,9.93l-7.64,40.52q-1.91,10.09-3.8,20.2c-1.18,6.23-2.34,12.7-5,18.53a12.4,12.4,0,0,1-5.12,6.16A15,15,0,0,1,327,232.7a30.23,30.23,0,0,1-15.39-4.81,31.18,31.18,0,0,1-13.75-32.27,1.51,1.51,0,0,0-2.51-1.46c-7.9,7.86-13.76,17.55-22,25.13-7.21,6.67-16.93,11.67-26.95,9.08a17.6,17.6,0,0,1-10.76-8c-2.52-4.15-3.64-9-4.47-13.72-2.1-11.81-3.71-23.75-5.38-35.63-2-13.92-3.7-27.88-4.93-41.89-.16-1.91-3.16-1.92-3,0Z" transform="translate(0.09 -36.21)"/><path class="cls-3" d="M386.35,95.66c-2.24,5.9-2.41,12.37-2.41,18.69,0,15.26.91,30.5,1.82,45.73l4.66,78.77c9.44,1.28,18.88-1.6,28.32-2.93,21.48-3,43.44,2,65-.58a156.85,156.85,0,0,0-9.92-31.17,5.15,5.15,0,0,0-1.81-2.53,5.24,5.24,0,0,0-2.66-.51q-23.5-.25-47-.64a4.57,4.57,0,0,1-2.83-.68c-1-.76-1.13-2.11-1.24-3.32q-4.31-47.27-12.08-94.12a7.37,7.37,0,0,0-1.66-4.21,7.14,7.14,0,0,0-2.95-1.47A121.14,121.14,0,0,0,386.43,93L386,95.74" transform="translate(0.09 -36.21)"/><path class="cls-3" d="M384.91,95.26c-3.05,8.24-2.55,17.41-2.4,26.05.16,9.54.62,19.07,1.15,28.59,1.07,18.94,2.23,37.87,3.35,56.8l1.91,32.15a1.55,1.55,0,0,0,1.5,1.5c6.06.78,12.13-.06,18.1-1.13a154.67,154.67,0,0,1,18.05-2.57c12.22-.74,24.42.47,36.62.85a139.33,139.33,0,0,0,20.53-.66,1.52,1.52,0,0,0,1.45-1.9,158.8,158.8,0,0,0-5.48-19.84q-1.69-4.87-3.7-9.61c-1.15-2.72-2.15-5.47-5.48-5.8-3.48-.35-7.09-.12-10.59-.17L449,199.38q-10.65-.13-21.28-.3c-1.82,0-3.63,0-5.45-.09a3.67,3.67,0,0,1-1.77-.27,2.47,2.47,0,0,1-.76-1.86c-.48-3.54-.67-7.15-1-10.7q-1.08-10.83-2.33-21.63-2.51-21.43-5.7-42.78-.9-6-1.85-12c-.31-2-.63-3.91-.95-5.86a19.8,19.8,0,0,0-1.19-5.11c-1.47-3.18-5.37-3.79-8.41-4.64q-5.68-1.58-11.51-2.6a1.52,1.52,0,0,0-1.84,1l-.43,2.73c-.3,1.89,2.59,2.7,2.89.8l.43-2.73-1.84,1c3.4.6,6.79,1.34,10.13,2.23,1.52.41,3,.84,4.54,1.3,1.34.41,2.74.78,3.37,2.16a18.71,18.71,0,0,1,1,4.57l.87,5.37c.54,3.42,1.08,6.83,1.6,10.26q3.19,21.06,5.69,42.22,1.24,10.55,2.31,21.13c.37,3.6.71,7.21,1.05,10.82.24,2.64.19,6,3.15,7.1a13.82,13.82,0,0,0,4.58.4l5.45.09,10.39.15q10.64.15,21.28.28l5.94.07c1.48,0,3.6-.39,4.52,1a28.58,28.58,0,0,1,2.12,4.8q1.06,2.6,2,5.24a159.22,159.22,0,0,1,6.27,22.05l1.44-1.9c-12.16,1.42-24.4.49-36.59-.08-6.13-.29-12.27-.48-18.41-.22a127.11,127.11,0,0,0-17.93,2.22c-6.73,1.25-13.52,2.47-20.37,1.59l1.5,1.5-3.35-56.58c-1.12-18.81-2.47-37.64-3-56.48-.13-5.17-.25-10.35-.12-15.52a43.74,43.74,0,0,1,2.32-14.22c.67-1.81-2.23-2.59-2.89-.79Z" transform="translate(0.09 -36.21)"/><path class="cls-3" d="M461.07,105.76c-.9,5.59.64,11.26,2.18,16.71l4.58,16.26a3.83,3.83,0,0,0,.82,1.75,3.7,3.7,0,0,0,1.87.88A43.81,43.81,0,0,0,482,142.69c1.32,0,2.78-.18,3.65-1.17s.81-2.78.57-4.24q-3-18.24-7.77-36.13a2.59,2.59,0,0,0-.63-1.31,2.64,2.64,0,0,0-1.68-.48L463,98.67a1.74,1.74,0,0,0-2.14,2.22v6.49" transform="translate(0.09 -36.21)"/><path class="cls-3" d="M459.62,105.36a33.56,33.56,0,0,0,.95,12.92c1.08,4.43,2.42,8.81,3.66,13.2l1.88,6.69c.53,1.88,1.05,3.55,3,4.32a27.29,27.29,0,0,0,6.4,1.33,42.87,42.87,0,0,0,6.7.36,6,6,0,0,0,4.65-1.75c1.19-1.41,1.17-3.27.92-5-.64-4.43-1.52-8.84-2.39-13.23s-1.86-8.89-2.91-13.31q-.78-3.31-1.63-6.61c-.44-1.74-.64-4.37-2.09-5.62a4.58,4.58,0,0,0-2.84-.82l-3.9-.2-7.55-.39c-2.18-.11-4.55-.14-5,2.52a20,20,0,0,0-.09,3.37v4.24a1.5,1.5,0,0,0,3,0c0-2,0-4,0-6a4.12,4.12,0,0,1,0-.86c.15-.48.08-.34.64-.36,1.13,0,2.29.12,3.41.18l5.36.28,2.44.12c.77,0,2.26-.17,2.72.44a8.31,8.31,0,0,1,.59,2.24c.25.94.49,1.88.73,2.83q.72,2.82,1.39,5.67,1.28,5.44,2.41,10.92t2.09,11a39.35,39.35,0,0,1,.78,4.94,2.22,2.22,0,0,1-.53,1.91,3.5,3.5,0,0,1-2,.49A39.34,39.34,0,0,1,471.16,140c-.67-.16-1.29-.25-1.65-.88a12.81,12.81,0,0,1-.78-2.67l-1.61-5.74c-1.15-4.09-2.37-8.16-3.42-12.27s-1.8-8.13-1.18-12.25c.28-1.89-2.61-2.7-2.9-.8Z" transform="translate(0.09 -36.21)"/><path class="cls-3" d="M597.18,136.17l3.05,14.55a89.16,89.16,0,0,0-39.79-1.65,25.17,25.17,0,0,0-8.82,3c-6.75,4.2-9,13.72-6,21.1s10.11,12.51,17.8,14.49S579.23,188.8,587,187c1.41-.34,3-.7,4.26,0a5.76,5.76,0,0,1,2.21,2.58c3.78,7,5.94,15,5.08,23s-5,15.63-11.69,19.91c-5.61,3.58-12.46,4.55-19.07,5.26a379.88,379.88,0,0,1-43,2.12A3.48,3.48,0,0,1,522,239a3.34,3.34,0,0,1-.55-2.27,42.44,42.44,0,0,1,1.33-10.15,3.2,3.2,0,0,1,1.14-2,3.28,3.28,0,0,1,2-.3l18.72,1.1c3,.18,6.15.35,9.07-.5a14.42,14.42,0,0,0,10-13.42,15.91,15.91,0,0,0-9.22-14.2c-6.21-2.83-14.32-2-18.93-7-2.18-2.37-3.08-5.62-3.92-8.73-1.81-6.8-3.63-13.7-3.56-20.73s2.29-14.34,7.45-19.12c4.29-4,10.1-5.8,15.75-7.3,15.88-4.2,33.34-6.6,48.3.18" transform="translate(0.09 -36.21)"/><path class="cls-3" d="M595.74,136.57l3,14.55,1.85-1.84a90.34,90.34,0,0,0-36.9-2.27c-3.87.56-7.84,1.22-11.38,2.93-5.64,2.73-8.87,8.51-9.45,14.6a21.29,21.29,0,0,0,6.65,17.1c5.07,5,11.87,7.65,18.86,8.41a49.42,49.42,0,0,0,12.27-.37c2.09-.29,4.16-.7,6.22-1.18,1.86-.43,3.56-1,4.75.91a37.72,37.72,0,0,1,4.4,10.76,34.56,34.56,0,0,1,1,11.85,26.24,26.24,0,0,1-8.86,17.5c-5.84,4.94-13.86,5.92-21.18,6.69q-13.18,1.38-26.45,1.83-6.57.22-13.13.22c-1,0-2.07,0-3.1,0S523,238,523,237a31.63,31.63,0,0,1,.47-6.22c.16-1,.36-2,.58-3,.15-.64.24-1.83.9-2.12s2.19.05,3,.1l3.45.2,13.3.78c3.84.22,7.75.34,11.34-1.25a15.72,15.72,0,0,0,6.93-6.28A16.21,16.21,0,0,0,561.57,201a17.84,17.84,0,0,0-7.69-5.7c-3-1.17-6.28-1.6-9.43-2.33-2.94-.69-5.94-1.66-8-4-2.48-2.81-3.16-7-4.07-10.47-2-7.71-3.87-15.87-2.2-23.82a24.08,24.08,0,0,1,4.15-9.58,21.31,21.31,0,0,1,8.35-6.37,62.93,62.93,0,0,1,10.65-3.42c3.78-1,7.59-1.8,11.43-2.43a69.78,69.78,0,0,1,23.29-.34,45.67,45.67,0,0,1,10.73,3.24c1.75.78,3.28-1.8,1.52-2.59-14.78-6.62-31.42-4.82-46.7-1-7.08,1.75-14.79,3.76-20,9.21-5,5.19-7,12.56-7.06,19.6a58.43,58.43,0,0,0,1.62,13,93.71,93.71,0,0,0,3.23,12,14.06,14.06,0,0,0,6.19,7.75c2.84,1.6,6.08,2.21,9.24,2.85s6.49,1.37,9.24,3.28a14.62,14.62,0,0,1,5.59,7.82c1.83,6.32-1.74,13.68-8.16,15.65-4,1.23-8.46.52-12.55.28l-13.54-.79c-1.83-.11-3.87-.39-5.14,1.26-1.12,1.47-1.34,3.73-1.64,5.5a44.47,44.47,0,0,0-.64,6.2c-.06,1.66-.06,3.5,1.38,4.62s3.77.89,5.56.89c2.23,0,4.46,0,6.69,0,4.54-.08,9.09-.23,13.62-.47,8.67-.45,17.41-1,26-2.31,7.37-1.1,14.58-3.56,19.63-9.3a30.57,30.57,0,0,0,7.33-19.54,38.81,38.81,0,0,0-1.66-11.72,46.86,46.86,0,0,0-2.15-5.76,23.06,23.06,0,0,0-2.7-5c-2.69-3.44-7-1.55-10.56-.86a51.39,51.39,0,0,1-12.62,1c-7.3-.41-14.56-3.06-19.61-8.49a17.94,17.94,0,0,1-4.34-17.41,14.41,14.41,0,0,1,4.77-7.24c3-2.37,7-3.13,10.67-3.77a87.68,87.68,0,0,1,25.42-.6,86.34,86.34,0,0,1,12.42,2.46,1.51,1.51,0,0,0,1.85-1.84l-3-14.56c-.4-1.89-3.29-1.09-2.89.8Z" transform="translate(0.09 -36.21)"/><path class="cls-3" d="M125.13,122.84A30.28,30.28,0,0,0,111,132.3a1.54,1.54,0,0,0,0,2.12,1.5,1.5,0,0,0,2.12,0,27.49,27.49,0,0,1,12.86-8.69c1.83-.58,1-3.47-.8-2.89Z" transform="translate(0.09 -36.21)"/><path class="cls-3" d="M136.74,125.11A20.42,20.42,0,0,1,146.5,128l1.16-2.74c-7.67-3.17-17.24-3.33-24.72.51-4,2-5.4,6.13-7.07,10-1.84,4.27-3.66,8.6-5.07,13a27.27,27.27,0,0,0-1.3,7.33c-.1,2.57,0,5.15-.62,7.66h2.89c-1-2.89-1-6-1.08-9.07a79.68,79.68,0,0,1,.46-9.39,50.43,50.43,0,0,1,1.46-8.55c.56-2,1.53-4.34,3.65-5.1l-1.9-1.45a19.21,19.21,0,0,1-2.07,8.24l2.74,1.15a18.64,18.64,0,0,1,2-4.92l-2.59-1.51L109.6,144l2.74,1.15c1.63-7.87,7.9-13.71,10.3-21.3a1.51,1.51,0,0,0-2.74-1.16l-1.25,2a1.5,1.5,0,0,0,.53,2,5.3,5.3,0,0,0,5.4-.6c1-.6,3.44-3.09,4.66-2.07,1.48,1.22,3.61-.89,2.13-2.12-1.64-1.36-3.56-1.24-5.41-.33-1.34.65-3.66,3.33-5.26,2.53l.54,2.06,1.25-2-2.75-1.16c-2.39,7.6-8.65,13.38-10.29,21.31-.32,1.55,2,2.8,2.74,1.15L117,134.71c.77-1.72-1.59-3.22-2.59-1.51a21.18,21.18,0,0,0-2.3,5.64c-.4,1.59,1.94,2.72,2.74,1.15a22.65,22.65,0,0,0,2.48-9.75,1.5,1.5,0,0,0-1.9-1.44c-5.75,2.06-6.42,9.44-7.09,14.62a83.43,83.43,0,0,0-.68,10.83c0,3.43,0,7.09,1.19,10.35a1.51,1.51,0,0,0,2.89,0c1-4,.3-8.12,1.15-12.12a71.93,71.93,0,0,1,4.2-12q1.25-3.06,2.61-6.08c.78-1.72,1.5-3.64,3-4.91a13.64,13.64,0,0,1,5.18-2.43,27,27,0,0,1,5.79-1.07,29,29,0,0,1,13.2,2.15c1.6.66,2.57-1.9,1.15-2.74a23.47,23.47,0,0,0-11.27-3.3c-1.93-.06-1.93,2.94,0,3Z" transform="translate(0.09 -36.21)"/></g><g id="Capa_2" data-name="Capa 2"><path class="cls-4" d="M82.52,80.15c-15.46,6-25.38,22-28,38.41s.86,33.13,5.64,49c5.14,17.1,12.09,34.25,24.65,46.94,11.46,11.59,27.13,18.71,43.31,20.7s32.81-1,47.71-7.64c4.92-2.19,9.73-4.8,13.62-8.53A39.45,39.45,0,0,0,198.06,206c5.17-12,6.07-25.57,4.18-38.51s-6.46-25.35-11.89-37.25c-4.76-10.45-10.34-20.76-18.56-28.78C165.16,95,157.08,90.27,149,85.86c-7.46-4-15.11-7.93-23.33-10.08A60.14,60.14,0,0,0,79,83" transform="translate(0.09 -36.21)"/><path class="cls-4" d="M82.12,78.71c-13.4,5.3-22.65,17.42-27,30.87-5.39,16.66-2.88,34.74,1.54,51.3,4.2,15.72,9.66,31.73,19.11,45.13a73.2,73.2,0,0,0,37.6,27.49c16.11,5.19,33.63,4.84,49.84.23,8-2.27,16.23-5.37,23-10.18s11.35-11.87,14.28-19.66c6.17-16.4,4.81-34.66,0-51.22A175.36,175.36,0,0,0,191,128.08a108.77,108.77,0,0,0-12.6-21.47,71.39,71.39,0,0,0-18.77-16.33A170.18,170.18,0,0,0,136.42,78a65.1,65.1,0,0,0-24.33-5.56A61.45,61.45,0,0,0,78.2,81.71c-1.63,1-.13,3.62,1.51,2.59A58.74,58.74,0,0,1,124,76.93c8.26,2,15.92,5.77,23.36,9.78,7.18,3.87,14.38,7.93,20.59,13.26a70,70,0,0,1,14.86,18.66A169.8,169.8,0,0,1,193.34,141c6.09,15.53,10.06,32.44,7.58,49.17-1.19,8-3.75,16-8.31,22.71s-11.47,10.77-18.82,13.91c-15.26,6.52-32.5,9.22-48.94,6.41C110,230.69,95.9,223.83,85.39,213,74.52,201.81,68,187.22,63.26,172.58c-5.3-16.24-9.67-33.53-7.73-50.74,1.53-13.48,7.83-27.25,18.92-35.48a36.77,36.77,0,0,1,8.47-4.76c1.77-.7,1-3.6-.8-2.89Z" transform="translate(0.09 -36.21)"/><path class="cls-1" d="M115.19,121.09c-6.43,5.33-7.67,14.54-8.44,22.86-.46,5-.9,10.28.88,15,1.46,3.9,4.29,7.1,7.07,10.19,6.28,7,13,14.16,21.93,17.12a12.36,12.36,0,0,0,7.61.48,13.16,13.16,0,0,0,5.45-4,38.79,38.79,0,0,0-20-63.89c-6.08-1.41-13.41-.89-17.21,4.06" transform="translate(0.09 -36.21)"/><path class="cls-4" d="M114.13,120c-4.91,4.16-7,10.46-8,16.63-.55,3.37-.88,6.79-1.13,10.19a32,32,0,0,0,.76,11.25,26.5,26.5,0,0,0,5.6,9.53c2.29,2.71,4.7,5.33,7.18,7.87,4.85,5,10.31,9.55,16.92,12,3.57,1.3,7.53,1.84,11,0,2.91-1.58,5.15-4.38,7.06-7a40.7,40.7,0,0,0,7.25-18.2,39.93,39.93,0,0,0-12.3-34.83,40.86,40.86,0,0,0-16.07-9.33c-5.63-1.7-12.41-2.23-17.64.94a12.25,12.25,0,0,0-3.31,2.9c-1.19,1.5.92,3.64,2.12,2.12,3.47-4.37,9.59-4.87,14.73-3.89a36.44,36.44,0,0,1,15.31,7,37.12,37.12,0,0,1,14.58,30.07,38.5,38.5,0,0,1-4.33,17,36.09,36.09,0,0,1-5.23,7.55c-2.3,2.52-4.87,4.3-8.42,3.87-6.39-.78-12.21-5.22-16.76-9.48-2.31-2.16-4.47-4.46-6.59-6.8a51.18,51.18,0,0,1-6.44-8c-3.85-6.5-2.62-14.66-1.69-21.8.81-6.34,2.44-13,7.52-17.34,1.47-1.25-.66-3.36-2.12-2.12Z" transform="translate(0.09 -36.21)"/><path class="cls-4" d="M215.5,126.58c2.16,24.83,5.95,49.49,9.74,74.13,1.25,8.14,2.87,17,9,22.45s15.5,6,23.16,3.12,13.88-8.67,19.22-14.87,10-13,15.86-18.74a32.42,32.42,0,0,0,28.64,38.87c4.37.42,9.13-.19,12.41-3.11a17.72,17.72,0,0,0,4.39-7.15c2.23-5.84,3.4-12,4.56-18.17l13.06-69.32c.25-1.33.4-2.95-.65-3.8a3.8,3.8,0,0,0-2.56-.53,147.73,147.73,0,0,0-25.13,3.15l1.58,9.9c.95,6,1.9,12.17.26,18s-6.63,11.17-12.68,11.17c-4.12,0-7.86-2.41-10.84-5.25-9.65-9.21-13.31-22.88-16.66-35.79a4.68,4.68,0,0,0-1.72-3,4.63,4.63,0,0,0-1.8-.48l-13.92-1.74a3.71,3.71,0,0,0-2.36.22c-1.17.69-1.21,2.33-1.12,3.69l1.58,21.85c.28,3.85.53,7.87-1,11.42s-5.42,6.4-9.14,5.39c-3.42-.93-5.3-4.49-6.71-7.73a243.36,243.36,0,0,1-12-34.5,3.33,3.33,0,0,0-1-1.88,3.28,3.28,0,0,0-2.08-.41l-22.54.65" transform="translate(0.09 -36.21)"/><path class="cls-4" d="M214,126.58c2.25,25.7,6,51.34,10.15,76.8,1.6,9.69,4.72,20.15,14.58,24.3s20.59.81,28.65-5.28c10.46-7.9,17-19.52,26.19-28.67l-2.5-1.46a34,34,0,0,0,27,40.34c5.7,1,12.42.86,16.85-3.39a20.1,20.1,0,0,0,4.49-7.54,74.21,74.21,0,0,0,3-10.35c1.58-7.11,2.79-14.32,4.14-21.49l8.37-44.43c.75-4,1.65-7.92,2.23-11.91a5.14,5.14,0,0,0-.91-4.35c-1.27-1.34-3.14-1.22-4.83-1.15a151.43,151.43,0,0,0-24.56,3.16,1.55,1.55,0,0,0-1.05,1.85c.69,4.3,1.42,8.59,2.05,12.9s1,8.64.12,12.85c-1.35,6.34-6.93,13-14.08,11.07-3.56-1-6.47-3.5-8.92-6.15a42.51,42.51,0,0,1-6.12-8.8c-3.48-6.52-5.59-13.67-7.48-20.78-.83-3.1-1.17-7.67-5-8.35-4.27-.76-8.66-1.1-13-1.64-1.84-.23-4.06-.8-5.59.6a5.26,5.26,0,0,0-1.33,4.25c.21,4.49.65,9,1,13.48s.84,8.78.84,13.17c0,3.68-.76,7.77-4.05,9.95-3,2-6.08.88-8-1.95-2.21-3.24-3.52-7.2-5-10.81a247.19,247.19,0,0,1-8.36-24.74c-.47-1.7-.69-4.07-2.11-5.29s-3.62-.83-5.35-.78l-13.47.38-6.86.2c-1.93.06-1.94,3.06,0,3l14-.4,6.86-.2c.68,0,2.27-.35,2.87.07s.71,2,.9,2.67a244,244,0,0,0,8.49,25.44c1.49,3.75,2.87,7.75,5,11.21,1.73,2.87,4.48,5.39,8.05,5.28a10.26,10.26,0,0,0,8.19-5.36c2.08-3.61,2-8,1.77-12-.3-4.59-.66-9.18-1-13.78l-.52-7.2c-.07-.93-.81-4.23.61-4.47a12,12,0,0,1,3.14.32l3.36.42,7,.87a7.1,7.1,0,0,1,2.72.49c.71.45.89,1.6,1.08,2.34.48,1.8.94,3.61,1.43,5.4,2,7.21,4.27,14.44,8,21,3.5,6.17,8.86,13.06,16,15.09s13.66-2.63,16.55-8.89c3.62-7.84,1.6-16.84.3-25l-1.06-6.6-1,1.84A145.26,145.26,0,0,1,348,131.2c1.58-.11,3.18-.26,4.77-.25.54,0,1.15-.06,1.42.5a3.43,3.43,0,0,1,0,1.77c-.51,3.32-1.24,6.63-1.87,9.93l-7.63,40.52q-1.9,10.1-3.81,20.2c-1.18,6.23-2.34,12.7-4.95,18.52a12.48,12.48,0,0,1-5.12,6.17,15.28,15.28,0,0,1-7.67,1.59,30.36,30.36,0,0,1-15.4-4.81A31.19,31.19,0,0,1,294,193.07a1.51,1.51,0,0,0-2.51-1.46c-7.91,7.86-13.76,17.55-22,25.13-7.21,6.67-16.93,11.67-27,9.07a17.57,17.57,0,0,1-10.75-8c-2.52-4.15-3.64-9-4.48-13.72-2.09-11.81-3.7-23.75-5.38-35.63-2-13.92-3.69-27.88-4.92-41.89-.17-1.91-3.17-1.93-3,0Z" transform="translate(0.09 -36.21)"/><path class="cls-4" d="M382.45,93.1C380.21,99,380,105.48,380,111.8c0,15.26.91,30.5,1.81,45.73l4.66,78.77c9.45,1.28,18.89-1.6,28.32-2.93,21.49-3,43.45,2,65-.58a156.85,156.85,0,0,0-9.92-31.17,5.24,5.24,0,0,0-1.82-2.54,5.3,5.3,0,0,0-2.66-.5q-23.51-.26-47-.64a4.57,4.57,0,0,1-2.83-.68c-.95-.76-1.13-2.11-1.24-3.32q-4.3-47.26-12.08-94.12a5.49,5.49,0,0,0-4.61-5.69,122.6,122.6,0,0,0-15.13-3.67l-.43,2.73" transform="translate(0.09 -36.21)"/><path class="cls-4" d="M381,92.71c-3.05,8.24-2.55,17.41-2.4,26.05.17,9.54.62,19.07,1.16,28.59,1.06,18.93,2.23,37.86,3.35,56.8L385,236.3a1.57,1.57,0,0,0,1.5,1.5c6.06.78,12.13-.06,18.1-1.13a155.14,155.14,0,0,1,18.06-2.57c12.21-.74,24.42.47,36.62.84a140.71,140.71,0,0,0,20.53-.65,1.54,1.54,0,0,0,1.45-1.9,158.33,158.33,0,0,0-5.48-19.84q-1.69-4.87-3.71-9.61c-1.14-2.72-2.14-5.47-5.47-5.8-3.48-.35-7.1-.12-10.59-.17l-10.89-.14q-10.63-.14-21.28-.31c-1.81,0-3.63,0-5.44-.08a3.67,3.67,0,0,1-1.77-.27c-.59-.39-.68-1.21-.77-1.86-.47-3.54-.66-7.15-1-10.7q-1.07-10.83-2.33-21.63-2.49-21.43-5.69-42.78c-.6-4-1.22-8-1.85-12-.32-2-.63-3.91-1-5.86a19.82,19.82,0,0,0-1.2-5.11c-1.46-3.18-5.37-3.79-8.41-4.64Q388.74,90,382.92,89a1.51,1.51,0,0,0-1.84,1l-.44,2.73c-.3,1.89,2.59,2.7,2.9.8l.43-2.73-1.85,1q5.11.9,10.14,2.23c1.52.41,3,.84,4.54,1.3,1.33.41,2.74.77,3.37,2.16a18.24,18.24,0,0,1,1,4.57q.45,2.68.87,5.37.83,5.11,1.6,10.26,3.19,21.06,5.69,42.22,1.24,10.54,2.32,21.13.54,5.4,1.05,10.82c.24,2.64.19,6,3.15,7.1a13.82,13.82,0,0,0,4.58.4l5.44.09,10.4.15q10.63.15,21.28.28l5.93.07c1.49,0,3.6-.39,4.53,1a28.58,28.58,0,0,1,2.12,4.8c.7,1.73,1.38,3.48,2,5.24a157.81,157.81,0,0,1,6.26,22.05l1.45-1.9c-12.16,1.42-24.4.49-36.59-.08-6.13-.29-12.28-.49-18.41-.22a127.43,127.43,0,0,0-17.94,2.22c-6.72,1.25-13.51,2.47-20.37,1.59l1.5,1.5-3.34-56.58c-1.12-18.82-2.48-37.64-3-56.48-.14-5.17-.25-10.35-.12-15.52A43.74,43.74,0,0,1,383.9,93.5c.67-1.81-2.23-2.59-2.9-.79Z" transform="translate(0.09 -36.21)"/><path class="cls-4" d="M457.17,103.21c-.91,5.59.64,11.26,2.18,16.71l4.57,16.26a4,4,0,0,0,.82,1.75,3.86,3.86,0,0,0,1.88.88,43.71,43.71,0,0,0,11.51,1.32c1.31,0,2.78-.17,3.65-1.16s.81-2.79.57-4.25q-3-18.23-7.77-36.12a2.64,2.64,0,0,0-.63-1.31,2.72,2.72,0,0,0-1.69-.49l-13.15-.68A1.75,1.75,0,0,0,457,98.34v6.49" transform="translate(0.09 -36.21)"/><path class="cls-4" d="M455.72,102.81a33.56,33.56,0,0,0,.95,12.92c1.08,4.43,2.42,8.81,3.65,13.2l1.89,6.69c.53,1.88,1,3.55,3,4.32a27.28,27.28,0,0,0,6.4,1.32,41.63,41.63,0,0,0,6.7.37,6.08,6.08,0,0,0,4.65-1.75c1.19-1.41,1.16-3.27.92-5-.64-4.43-1.52-8.84-2.4-13.23s-1.85-8.89-2.9-13.31c-.52-2.21-1.07-4.41-1.63-6.61-.45-1.75-.65-4.37-2.09-5.62a4.6,4.6,0,0,0-2.84-.82l-3.9-.2-7.55-.39c-2.18-.11-4.56-.14-5,2.52a20,20,0,0,0-.09,3.37v4.24a1.5,1.5,0,0,0,3,0c0-2,0-4,0-6a3.53,3.53,0,0,1,0-.86c.14-.48.08-.34.64-.36,1.13,0,2.28.12,3.41.18l5.36.28,2.43.12c.77,0,2.27-.17,2.72.44a8,8,0,0,1,.6,2.24c.25.94.49,1.88.73,2.83.47,1.88.94,3.77,1.38,5.67.86,3.62,1.67,7.27,2.42,10.92s1.44,7.31,2.09,11a39.32,39.32,0,0,1,.77,4.94,2.2,2.2,0,0,1-.53,1.91,3.44,3.44,0,0,1-2,.48,39.08,39.08,0,0,1-11.24-1.2c-.67-.16-1.28-.25-1.64-.88a12.23,12.23,0,0,1-.78-2.67l-1.61-5.74c-1.15-4.09-2.37-8.16-3.43-12.28s-1.79-8.12-1.18-12.24c.29-1.89-2.6-2.7-2.89-.8Z" transform="translate(0.09 -36.21)"/><path class="cls-4" d="M593.28,133.62l3.05,14.55a89.16,89.16,0,0,0-39.79-1.65,25.29,25.29,0,0,0-8.83,3c-6.74,4.19-9,13.72-6,21.1s10.1,12.51,17.8,14.49,15.85,1.16,23.57-.69c1.42-.34,3-.7,4.27,0a5.76,5.76,0,0,1,2.21,2.58c3.77,7,5.94,15.05,5.08,23s-5,15.63-11.69,19.91c-5.62,3.58-12.46,4.55-19.08,5.26a379.59,379.59,0,0,1-43,2.12,3.47,3.47,0,0,1-2.68-.8,3.4,3.4,0,0,1-.56-2.27A42.9,42.9,0,0,1,518.9,224a3.19,3.19,0,0,1,1.13-2,3.32,3.32,0,0,1,2-.3l18.72,1.1c3,.18,6.15.35,9.07-.5a14.42,14.42,0,0,0,10-13.42,15.92,15.92,0,0,0-9.23-14.2c-6.2-2.84-14.31-2-18.92-7-2.19-2.37-3.09-5.62-3.92-8.73-1.81-6.8-3.64-13.7-3.56-20.73s2.29-14.34,7.45-19.12c4.29-4,10.1-5.8,15.75-7.3,15.88-4.2,33.34-6.61,48.3.18" transform="translate(0.09 -36.21)"/><path class="cls-4" d="M591.83,134l3,14.55,1.85-1.84a90.39,90.39,0,0,0-36.91-2.27c-3.86.55-7.83,1.22-11.37,2.93-5.64,2.73-8.87,8.51-9.45,14.6a21.28,21.28,0,0,0,6.64,17.1,31.5,31.5,0,0,0,18.87,8.41,49.43,49.43,0,0,0,12.27-.37c2.09-.3,4.16-.7,6.22-1.18,1.86-.43,3.56-1,4.75.91a38,38,0,0,1,4.4,10.76,34.56,34.56,0,0,1,1,11.85,26.31,26.31,0,0,1-8.87,17.5c-5.83,4.93-13.85,5.92-21.18,6.68q-13.19,1.4-26.44,1.84-6.57.22-13.14.22c-1,0-2.06,0-3.09,0s-1.32-.24-1.37-1.21a32.42,32.42,0,0,1,.48-6.22c.16-1,.35-2,.58-3,.15-.64.24-1.84.89-2.12s2.2.05,3,.09l3.45.21,13.3.78c3.83.22,7.75.34,11.33-1.25a15.61,15.61,0,0,0,6.93-6.28,16.17,16.17,0,0,0-1.35-18.25,17.78,17.78,0,0,0-7.69-5.7c-3-1.18-6.27-1.6-9.43-2.34-2.94-.68-5.93-1.65-8-4-2.47-2.81-3.15-7-4.07-10.47-2-7.71-3.86-15.87-2.19-23.82a24.08,24.08,0,0,1,4.15-9.58,21.31,21.31,0,0,1,8.35-6.37,62,62,0,0,1,10.65-3.42c3.78-1,7.59-1.8,11.43-2.43a69.72,69.72,0,0,1,23.28-.34,45.74,45.74,0,0,1,10.74,3.24c1.75.78,3.28-1.81,1.52-2.59-14.79-6.62-31.42-4.83-46.7-1-7.09,1.75-14.79,3.76-20,9.21-5,5.19-7,12.56-7.05,19.6a58.43,58.43,0,0,0,1.62,13,92.1,92.1,0,0,0,3.23,12,14.06,14.06,0,0,0,6.19,7.75c2.84,1.6,6.08,2.2,9.23,2.85s6.5,1.37,9.25,3.28a14.64,14.64,0,0,1,5.59,7.82c1.83,6.32-1.74,13.68-8.17,15.65-4,1.22-8.45.52-12.54.28l-13.54-.79c-1.84-.11-3.88-.39-5.14,1.25-1.13,1.48-1.34,3.74-1.65,5.51a46,46,0,0,0-.64,6.2c-.05,1.66-.05,3.5,1.39,4.62s3.76.89,5.56.89c2.23,0,4.46,0,6.69-.05q6.81-.1,13.62-.46c8.66-.45,17.41-1,26-2.31,7.37-1.1,14.58-3.56,19.62-9.3a30.53,30.53,0,0,0,7.34-19.54,39.08,39.08,0,0,0-1.66-11.72,48.54,48.54,0,0,0-2.15-5.76,23.26,23.26,0,0,0-2.7-5c-2.69-3.44-7-1.55-10.56-.87a51.93,51.93,0,0,1-12.63,1c-7.29-.41-14.55-3.06-19.6-8.49a17.94,17.94,0,0,1-4.34-17.41,14.43,14.43,0,0,1,4.77-7.25c3-2.36,7-3.13,10.66-3.76a87.76,87.76,0,0,1,25.43-.6,86.34,86.34,0,0,1,12.42,2.46,1.52,1.52,0,0,0,1.84-1.85l-3-14.55c-.4-1.89-3.29-1.09-2.9.8Z" transform="translate(0.09 -36.21)"/></g><g id="Capa_5" data-name="Capa 5"><path class="cls-3" d="M149.14,127.59c-4.55-1.84-9.16-3.51-13.79-5.16a37,37,0,0,0-13.53-2.34A12.93,12.93,0,0,0,111.47,125c-2.55,3.21-3.75,7.07-4.71,11a61.81,61.81,0,0,1-2.15,7.58c-.87,2.27-2,4.5-1.63,7a1.56,1.56,0,0,0,1.5,1.5,1.5,1.5,0,0,0,1.5-1.5c-.26-2,.55-3.78,1.29-5.6A45,45,0,0,0,109.1,139c.92-3.73,1.68-7.57,3.75-10.86a10.18,10.18,0,0,1,8.74-5.06,33.42,33.42,0,0,1,12.52,2.07c4.78,1.68,9.54,3.41,14.23,5.31,1.79.73,2.57-2.17.8-2.89Z" transform="translate(0.09 -36.21)"/><path class="cls-3" d="M112.69,164.71c-.42-2-1.35-4-1.94-6a36,36,0,0,1-1.26-6.16,39.33,39.33,0,0,1,.74-12.52c.74-3.49,1.41-7.33,3.16-10.49,1.89-3.41,5.2-4.64,8.81-5.53a36.38,36.38,0,0,1,14.5-.88c1.86.3,2.71-2.5.79-2.9-4.37-.9-8.78-1.88-13.22-2.44a21.82,21.82,0,0,0-6.25-.11,10.3,10.3,0,0,0-5,2.48,27.27,27.27,0,0,0-3.78,4.11,13.49,13.49,0,0,0-2.3,5.36c-1.11,4.5-2.2,9-3.3,13.49-.46,1.88,2.43,2.68,2.89.8l3-12c.43-1.8.71-3.75,1.77-5.31a24.56,24.56,0,0,1,3.3-3.76,7.7,7.7,0,0,1,4.25-2.24,21.51,21.51,0,0,1,5.94.3c4,.59,8,1.44,11.91,2.26l.79-2.9a38.8,38.8,0,0,0-13.8.38c-4,.79-8.51,1.88-11.29,5.12-2.54,3-3.5,6.83-4.39,10.54a49.58,49.58,0,0,0-1.7,14,40,40,0,0,0,1.07,7.48c.64,2.63,1.88,5.1,2.42,7.74.39,1.89,3.28,1.09,2.89-.8Z" transform="translate(0.09 -36.21)"/><path class="cls-3" d="M135.45,122.92a20.67,20.67,0,0,0,3.85,1.85l3.95,1.64a1.49,1.49,0,0,0,1.84-1,1.56,1.56,0,0,0-1-1.85l-3.82-1.58-.92-.39.05,0-.25-.1-.43-.2a12.46,12.46,0,0,1-1.72-.94,1.5,1.5,0,0,0-2.05.54,1.53,1.53,0,0,0,.54,2Z" transform="translate(0.09 -36.21)"/><path class="cls-4" d="M200.35,164.41c-1.89-12.94-6.46-25.35-11.88-37.25-4.77-10.45-10.34-20.77-18.57-28.78-6.62-6.45-14.71-11.16-22.84-15.57-7.46-4-15.11-7.93-23.32-10.08A60.16,60.16,0,0,0,77.07,80l3.56-2.85c-15.46,6-25.37,22-28,38.41s.85,33.13,5.63,49c5.15,17.1,12.09,34.25,24.65,46.94,11.46,11.59,27.13,18.71,43.31,20.7s32.82-1,47.72-7.64c4.92-2.19,9.73-4.81,13.61-8.53a39.73,39.73,0,0,0,8.66-13.07C201.34,190.91,202.24,177.35,200.35,164.41Zm-46.56,7.72c-5.15,9.12-14.28,11.49-23.18,9.38a17.9,17.9,0,0,1-2.49-.71,33.08,33.08,0,0,1-7.24-3.45c-6.79-4.32-10.65-10.8-12.7-18.48-1.82-6.82-3.71-14.1-1.73-21.08a5.39,5.39,0,0,1,.36-.91c.13-.79.3-1.58.5-2.36a11,11,0,0,1,2.36-6.43,7.32,7.32,0,0,0,.86-1.13c.41-.68.84-1.35,1.3-2a5.57,5.57,0,0,0,.52-.92c2-4.47,4.75-8.56,10.21-8.49,12.8.15,25.35,9.26,31,20.36S160.07,161,153.79,172.13Z" transform="translate(0.09 -36.21)"/><path class="cls-4" d="M201.8,164c-1.81-12.18-5.94-23.85-10.9-35.08-4.59-10.37-9.84-20.7-17.55-29.14C165.48,91.18,155.16,85.38,145,80c-10.51-5.57-21.48-10.07-33.51-10.57a61.73,61.73,0,0,0-35.14,9.25L78.13,81l3.56-2.85c1.15-.91-.09-3-1.46-2.5C62,82.85,52.07,102,50.46,120.67c-1,12,.91,24,3.88,35.55A187.2,187.2,0,0,0,65,187.37c4.38,9.56,10.08,18.64,17.65,26a73.16,73.16,0,0,0,26.08,16.14c21,7.66,44.49,5.52,64.86-3.25a52.13,52.13,0,0,0,13.85-8.22,38.56,38.56,0,0,0,9.38-13c4.71-10.15,6.37-21.5,5.79-32.63-.15-2.81-.45-5.61-.85-8.4a1.5,1.5,0,0,0-2.89.8c1.53,10.67,1.14,21.75-2.1,32.08a47.39,47.39,0,0,1-6.95,14.18,34.84,34.84,0,0,1-11.73,9.73,90.09,90.09,0,0,1-31,9.76,81,81,0,0,1-31.38-2,71.8,71.8,0,0,1-26.1-13,74.75,74.75,0,0,1-18.8-23.15,150.27,150.27,0,0,1-11.21-28.29c-3.29-10.91-6-22.13-6.43-33.57-.4-10.06,1-20.22,5.29-29.4,3.67-7.88,9.25-15,16.7-19.67A37,37,0,0,1,81,78.55L79.57,76,76,78.89c-1.34,1.07.39,3.25,1.82,2.36a58.73,58.73,0,0,1,30.3-8.89c11.48-.15,22.09,3.46,32.23,8.6s20.36,10.58,28.48,18.48c8,7.76,13.36,17.68,18,27.7,5.53,12,10.14,24.54,12.1,37.67C199.19,166.71,202.08,165.91,201.8,164Z" transform="translate(0.09 -36.21)"/><path class="cls-4" d="M152.49,171.37a17.92,17.92,0,0,1-12.15,9c-5.55,1.1-11.43-.37-16.36-3a27.19,27.19,0,0,1-11.76-11.94,42.54,42.54,0,0,1-3-8.33,62.57,62.57,0,0,1-2-10.14,28.73,28.73,0,0,1,0-5.08,35,35,0,0,1,1.14-5.11c.34-1.42.46-2.86.8-4.28a9.42,9.42,0,0,1,2-3.92c3-3.79,4.19-10.27,9.64-11.42,2.62-.55,5.68.07,8.23.72a33.44,33.44,0,0,1,8,3.18,38,38,0,0,1,12.75,11.44c7.74,11.13,9.4,26.84,2.72,38.84-.94,1.69,1.65,3.21,2.59,1.52,6.68-12,5.73-27.22-.94-39-6.09-10.8-17.91-19.11-30.45-19.77a11,11,0,0,0-8,2.42c-2.15,1.81-3.41,4.3-4.62,6.77-1.41,2.85-3.86,4.94-4.72,8.09-.45,1.65-.46,3.41-1,5a27,27,0,0,0-1.18,5.51,38.63,38.63,0,0,0,1.06,11.48,70.38,70.38,0,0,0,2.87,10.19,30.93,30.93,0,0,0,10.72,14.19c5.82,4.17,13.38,6.67,20.58,5.76a20.92,20.92,0,0,0,15.65-10.65A1.5,1.5,0,0,0,152.49,171.37Z" transform="translate(0.09 -36.21)"/></g><g id="Capa_6" data-name="Capa 6"><path class="cls-5" d="M275.54,270.46a40.63,40.63,0,0,0-7.9-11.49c-6.29-6-15.07-8.57-23.56-10.54a312.31,312.31,0,0,0-50.9-7.49c-1.4-.08-3-.06-3.88,1.06a4.37,4.37,0,0,0-.49,3,342,342,0,0,1-10,113.53l-.76.35,21.32,1.45a5,5,0,0,0,3.21-.5c1-.73,1.36-2.11,1.6-3.36q3.79-20.06,7.6-40.13,11.67,20.56,23.35,41.11a12.84,12.84,0,0,0,2.91,3.88,12.62,12.62,0,0,0,5.57,2q10.07,1.88,20.28,2.82a188,188,0,0,0-15.64-59.3c6.5,2.24,13.6,4.49,20.1,2.25,7-2.43,11.51-9.83,12.21-17.24S278.84,277.12,275.54,270.46Zm-24,16.07a5.57,5.57,0,0,1-1.11,1.6,17.58,17.58,0,0,1-6.87,4.79,4.7,4.7,0,0,1-4.09-.42l-2.59.46a5.77,5.77,0,0,1-6.17,2.44,4.69,4.69,0,0,1-3.53.17c-8.21-3-10.13-12-4.52-18.59a13.1,13.1,0,0,1,9.91-4.65c1.72,0,3.61,0,5.52.19a4.61,4.61,0,0,1,2.63-.6,9.16,9.16,0,0,1,1.33.21,4.46,4.46,0,0,1,1-.39,8.83,8.83,0,0,1,3-.39,5.88,5.88,0,0,1,4,1.66,5.53,5.53,0,0,1,1.08,1.53,6.15,6.15,0,0,1,1.25,3.44,4.81,4.81,0,0,1-.36,2,3.75,3.75,0,0,1,.16.43A7.83,7.83,0,0,1,251.52,286.53Z" transform="translate(0.09 -36.21)"/><path class="cls-5" d="M276.83,269.7c-2.89-5.79-6.51-11.09-11.89-14.84-5.14-3.58-11.25-5.58-17.27-7.11a295.91,295.91,0,0,0-43.35-7.4c-3.7-.37-7.42-.71-11.14-.91-3-.15-5.79,1-5.91,4.38a49.38,49.38,0,0,0,.33,5c.13,1.91.25,3.83.35,5.74q.28,5.51.39,11a342.1,342.1,0,0,1-2,44,340.67,340.67,0,0,1-9,48.56l.69-.9-.76.35c-1.47.68-.59,2.71.75,2.8l17.06,1.16c2.26.15,5.47.82,7.59-.09,3-1.29,3.06-5.26,3.58-8l2.13-11.26q2.4-12.72,4.82-25.45l-2.74.36,16.09,28.34c2.62,4.61,5.12,9.3,7.87,13.83a10.26,10.26,0,0,0,4.72,4.42,30.85,30.85,0,0,0,6.92,1.63q8.85,1.53,17.8,2.36a1.51,1.51,0,0,0,1.5-1.5,190.56,190.56,0,0,0-10.64-47.26q-2.37-6.48-5.21-12.8l-1.69,2.21c4.61,1.58,9.38,3.14,14.3,3.22a18.35,18.35,0,0,0,12-4c6.5-5.28,8.75-14.14,7.72-22.17a49.87,49.87,0,0,0-5.12-15.65c-.85-1.73-3.44-.21-2.59,1.51,3.62,7.36,6.45,16,4.19,24.2-1.95,7.08-7.49,12.86-15.12,13.14-5,.18-9.93-1.49-14.62-3.1-1.37-.47-2.18,1.11-1.7,2.2a187.24,187.24,0,0,1,13.68,45.16q1.13,6.66,1.76,13.38l1.5-1.5c-5.05-.48-10.08-1.11-15.08-1.93a66.92,66.92,0,0,1-7.16-1.36,7.5,7.5,0,0,1-4.72-3.81c-5.21-8.77-10.09-17.76-15.13-26.63q-4.36-7.68-8.72-15.36a1.52,1.52,0,0,0-2.75.36q-2,10.76-4.07,21.53l-2,10.76-1,5.39c-.27,1.39-.31,3.18-1,4.43-.84,1.47-5.16.61-6.66.51l-10.33-.71-7.13-.48.76,2.79a2.6,2.6,0,0,0,1.69-2.17q.72-2.79,1.39-5.58,1.23-5.13,2.3-10.29,2.21-10.67,3.74-21.47a345.58,345.58,0,0,0,3.39-42.87q.18-10.79-.33-21.55-.25-5.38-.68-10.76c-.11-1.44-.41-2.87,1.39-3.06a29.62,29.62,0,0,1,5.32.29,308.63,308.63,0,0,1,43.3,6.4c6.81,1.51,13.81,3.06,20,6.43a28.81,28.81,0,0,1,8,6.32,43.73,43.73,0,0,1,5.91,9.34C275.1,272.94,277.69,271.42,276.83,269.7Z" transform="translate(0.09 -36.21)"/><path class="cls-5" d="M250.22,285.77c-1.26,2.6-4.43,4.74-7.08,5.71a3.12,3.12,0,0,1-2.11.08c-.85-.26-1.27-.62-2.19-.47a12.37,12.37,0,0,0-2.37.42c-.74.28-1,.92-1.5,1.43a4.43,4.43,0,0,1-3.28,1.11,4.46,4.46,0,0,0-1.82.07,3.93,3.93,0,0,1-2.78-.18,10.3,10.3,0,0,1-5.05-4.41c-2.28-4.13-.76-9.16,2.44-12.33a11.65,11.65,0,0,1,7.3-3.34,39.57,39.57,0,0,1,4.87.06,5.33,5.33,0,0,0,2.18-.1,4.4,4.4,0,0,1,2.35-.33,3.3,3.3,0,0,0,1.25.09c.49-.11,1-.4,1.45-.53a7.85,7.85,0,0,1,2.6-.19,4.55,4.55,0,0,1,3.42,2.43,5.47,5.47,0,0,1,1,2.69c0,.85-.42,1.58-.3,2.42a12.4,12.4,0,0,1,.41,2.65,6.84,6.84,0,0,1-.83,2.72c-.9,1.71,1.69,3.23,2.59,1.52a10.34,10.34,0,0,0,1-6.8c-.16-1,.21-2.05.08-3.14a7.85,7.85,0,0,0-1.16-3.24,8.3,8.3,0,0,0-4.57-3.95,9.81,9.81,0,0,0-6.88.68l1.16-.15a7.87,7.87,0,0,0-3.31-.15,15,15,0,0,1-1.49.48c-.59,0-1.31-.12-1.92-.15a22.38,22.38,0,0,0-6.93.49,15,15,0,0,0-9.3,7.65,12.64,12.64,0,0,0,6.12,17.53,7,7,0,0,0,3.79.74c.61-.07,1.13-.3,1.57-.31s1,.1,1.58.06a7.29,7.29,0,0,0,5.62-3.32l-.9.69,2.59-.46-1.16-.15a6.71,6.71,0,0,0,4.22.84,12.29,12.29,0,0,0,3.87-1.62c2.32-1.33,4.84-3.27,6-5.72C253.65,285.56,251.07,284,250.22,285.77Z" transform="translate(0.09 -36.21)"/><path class="cls-5" d="M292.61,259.79a864.52,864.52,0,0,1-3.28,94c-.32,3.62-.52,7.72,1.93,10.41a12.52,12.52,0,0,0,5.49,3,112.68,112.68,0,0,0,45.76,5.23c6.18-.57,12.57-1.76,17.55-5.46,9.62-7.15,10.91-20.8,11.36-32.78q1.21-32.43,2.44-64.84a4.51,4.51,0,0,0-.57-2.91c-.82-1.08-2.38-1.17-3.74-1.16l-17.78.13a149.39,149.39,0,0,1-6.09,56.77c-1.16,3.75-3.25,8.1-7.16,8.43-4.13.35-6.95-4.09-8.18-8-2.68-8.68-2.58-18-2.24-27q.47-12.51,1.48-25a2.69,2.69,0,0,0-.41-2.09,2.57,2.57,0,0,0-1.23-.62l-34.23-10.36" transform="translate(0.09 -36.21)"/><path class="cls-5" d="M291.11,259.79q.63,33-1.24,66.08-.47,8.28-1.1,16.55-.31,4.18-.68,8.39a62.91,62.91,0,0,0-.44,7,12.44,12.44,0,0,0,1.45,5.95,10,10,0,0,0,5,4,79.62,79.62,0,0,0,14.44,4.13,114.35,114.35,0,0,0,31.15,2.22c8.85-.6,18.42-2.08,24.62-9.07,5.32-6,7.17-14.07,8-21.82.48-4.43.59-8.88.76-13.32l.63-16.71L375,279.8l.31-8.23c.08-2.11.55-4.82-1.14-6.46s-4-1.35-6.06-1.34l-8.15.06-8.15.06a1.52,1.52,0,0,0-1.5,1.5,147.13,147.13,0,0,1-4.72,51.85,48.25,48.25,0,0,1-2.29,7.17c-.77,1.7-1.88,3.65-3.69,4.41-4.26,1.77-7-4-7.92-7.13a62.52,62.52,0,0,1-2.22-17.22c-.06-5.93.26-11.87.57-17.79.15-2.94.33-5.89.53-8.83.1-1.47.21-2.94.32-4.4A16.63,16.63,0,0,0,331,269a3.32,3.32,0,0,0-2.36-2.54c-1.58-.57-3.24-1-4.85-1.48l-9.74-3-20-6c-1.85-.56-2.64,2.34-.79,2.89l18.3,5.54,9.26,2.81,4.28,1.29,2.14.65c.89.27.84.42.78,1.34-.75,12.3-2.06,24.68-1.57,37,.22,5.66.81,11.73,3,17,1.56,3.83,4.71,8,9.36,7.49s6.86-5.14,8.14-9a135.28,135.28,0,0,0,4.3-17.38,151.35,151.35,0,0,0,2-40.26l-1.5,1.5,15.81-.11c1.56,0,4.65-.65,4.78,1.59a76.09,76.09,0,0,1-.26,7.69l-1.18,31.42c-.37,10.09-.6,20.21-1.16,30.29-.42,7.38-1.29,15.25-5.09,21.75a20.55,20.55,0,0,1-8,7.78,34.58,34.58,0,0,1-12.54,3.45,109.66,109.66,0,0,1-29.51-.74,112.52,112.52,0,0,1-14.38-3.29,28.63,28.63,0,0,1-6.42-2.38,6.43,6.43,0,0,1-3-4.67,24.34,24.34,0,0,1,0-6.15q.34-3.82.65-7.65.63-7.89,1.12-15.8,1.94-31.26,1.61-62.6,0-3.84-.12-7.68c0-1.93-3-1.93-3,0Z" transform="translate(0.09 -36.21)"/><path class="cls-5" d="M454.34,268.29a170.92,170.92,0,0,0-35.44-3.75c-7.42,0-15.07.53-21.75,3.75a13.15,13.15,0,0,0-5.86,4.82,16.51,16.51,0,0,0-1.73,6.4c-.9,7.08-1.29,15.15,3.57,20.37,6.64,7.11,20.43,5.86,24.38,14.74,1.88,4.24.5,9.34-2.26,13.06s-6.7,6.34-10.53,8.95q-12.59,8.53-24.69,17.76a2.56,2.56,0,0,0-.82,4.26l7,10.14a8.93,8.93,0,0,0,3.16,3.24c2.52,1.24,5.48-.1,8-1.42,8.1-4.31,16.26-8.67,23.38-14.46s13.2-13.21,15.95-22c1.73-5.53,2.09-11.39,2.15-17.19.06-5.56-.41-11.76-4.45-15.57-2.49-2.35-5.93-3.37-8.83-5.17s-5.49-5.13-4.49-8.4c.9-3,4.24-4.39,7.28-5a29.72,29.72,0,0,1,21.37,4.25,94.3,94.3,0,0,0,5.58-16.93" transform="translate(0.09 -36.21)"/><path class="cls-5" d="M454.74,266.84a162.81,162.81,0,0,0-40.76-3.7c-6.26.28-12.67,1.26-18.28,4.2a13.54,13.54,0,0,0-5.9,5.38c-1.34,2.54-1.61,5.49-1.92,8.29-.59,5.33-.75,11,1.54,16,2,4.29,5.77,6.89,10,8.66,4,1.66,8.26,2.61,12,4.74,4.11,2.34,6.27,6.39,5.12,11.14-1.46,6-6.7,9.8-11.53,13.09-5.54,3.77-11,7.6-16.44,11.55q-4.2,3.06-8.33,6.19a9.47,9.47,0,0,0-3,2.81,3.83,3.83,0,0,0,.43,3.92c1.78,2.89,3.86,5.63,5.78,8.43,1.57,2.29,3.07,5.11,5.83,6.12s6-.3,8.55-1.64q4.29-2.25,8.53-4.62A106.48,106.48,0,0,0,422.05,357,55.12,55.12,0,0,0,433.66,344a41.34,41.34,0,0,0,6-16.72,81.21,81.21,0,0,0,.64-9.86,42.84,42.84,0,0,0-.55-8.39,16.56,16.56,0,0,0-2.88-7.05,17.38,17.38,0,0,0-6.57-5c-2.5-1.24-5.21-2.38-6.87-4.73s-1.38-4.93,1.06-6.47c2.21-1.4,5-1.77,7.59-1.9a28.26,28.26,0,0,1,16.86,4.49,1.51,1.51,0,0,0,2-.54,98.41,98.41,0,0,0,5.72-17.29c.43-1.88-2.46-2.68-2.89-.8a94.81,94.81,0,0,1-5.42,16.58l2.05-.54a31.51,31.51,0,0,0-16.69-4.94c-4.58,0-11.18.69-13.63,5.24-2.88,5.36,2.23,10.25,6.62,12.49,2.46,1.25,5.15,2.29,7.06,4.35a13.39,13.39,0,0,1,3.05,6.86,40.39,40.39,0,0,1,.43,8.07,72.7,72.7,0,0,1-.64,9.45,38.91,38.91,0,0,1-6.44,16.49c-6.82,10-17.27,16.54-27.67,22.23a87.52,87.52,0,0,1-7.9,4.17,6.4,6.4,0,0,1-4.11.61c-1.39-.41-2.24-1.71-3-2.85-2-2.83-3.9-5.67-5.85-8.51-.44-.65-.92-1.28-1.32-1.94s-.53-.88,0-1.43a25.86,25.86,0,0,1,3.8-2.94q8-6,16.24-11.73c4.87-3.39,10.31-6.45,14.39-10.82,3.75-4,6.36-9.82,4.68-15.33-1.24-4-4.52-6.74-8.23-8.44s-8-2.73-11.82-4.54c-4.31-2-7.24-5.22-8.29-10a28.81,28.81,0,0,1-.45-7.92,45.29,45.29,0,0,1,1-7.86c1.43-6,8.12-8.23,13.52-9.4,6.12-1.32,12.49-1.27,18.71-1.09A170,170,0,0,1,444.32,268q4.83.75,9.62,1.77c1.88.39,2.69-2.5.8-2.9Z" transform="translate(0.09 -36.21)"/><path class="cls-5" d="M463.52,268.87a648.42,648.42,0,0,1-1.65,110.42l10.34-.79a3.63,3.63,0,0,0,4-3.89L479.31,357c.28-1.59.71-3.39,2.14-4.15a5.37,5.37,0,0,1,2.46-.41l14.22-.11L499.81,377l17.29-2.42a4.91,4.91,0,0,0,3.23-1.29,4.79,4.79,0,0,0,.86-2.57c1.08-8.61.7-17.33.32-26l-3.33-75.8a31.68,31.68,0,0,0-12.53.57,4.51,4.51,0,0,0-2.37,1.17c-.87,1-.8,2.45-.69,3.76l2.16,24.06c.1,1.18.17,2.52-.62,3.41a4.26,4.26,0,0,1-1.72,1,41.78,41.78,0,0,1-17.75,2.64l2.19-28.17c.12-1.47.15-3.15-.92-4.16a4.88,4.88,0,0,0-2.5-1l-18-3.69" transform="translate(0.09 -36.21)"/><path class="cls-5" d="M462,268.87a650.76,650.76,0,0,1,.32,86.31q-.76,12.07-2,24.11a1.51,1.51,0,0,0,1.5,1.5l7.87-.6c2-.15,4.51,0,6.12-1.34s1.74-3.43,2.07-5.3l1.33-7.58,1.32-7.57c.3-1.69.38-4.17,2.49-4.42a69.48,69.48,0,0,1,7.22-.07l7.84-.06-1.5-1.5L498.31,377a1.54,1.54,0,0,0,1.9,1.45l12.59-1.76c2-.28,4-.41,6-.88a4.73,4.73,0,0,0,3.44-2.78,20.37,20.37,0,0,0,.86-5.72c.17-2,.26-4.08.31-6.13.1-4.18,0-8.36-.18-12.53-.68-17-1.49-34-2.24-51.06l-1.26-28.67a1.52,1.52,0,0,0-1.1-1.45,33.64,33.64,0,0,0-13.33.58c-1.82.47-3.41,1.38-4,3.28s-.08,4.11.1,6l1.27,14.24c.21,2.35.45,4.7.63,7.06.06.74.22,1.75-.36,2.32s-2.16.95-3.08,1.24a41.15,41.15,0,0,1-15.16,1.82l1.5,1.5,1.16-14.83c.36-4.68.92-9.4,1.08-14.09.06-1.86-.34-3.86-2-4.95s-4-1.23-6-1.62l-14.6-3c-1.89-.38-2.69,2.51-.8,2.9l13.14,2.69,3.41.7a14.61,14.61,0,0,1,2.8.65c1.66.72,1,3.45.87,4.86l-2.08,26.69a1.52,1.52,0,0,0,1.5,1.5,43.81,43.81,0,0,0,13.06-1.12,26.91,26.91,0,0,0,6.19-2,4.53,4.53,0,0,0,2.4-4.31c0-2.23-.37-4.52-.57-6.74l-.64-7.12-.61-6.87-.31-3.44a11.67,11.67,0,0,1-.1-2.95c.2-1.13,1.22-1.33,2.2-1.57a29.57,29.57,0,0,1,3.74-.66,31.48,31.48,0,0,1,7.76.14l-1.1-1.44,2.17,49.37,1.07,24.43c.35,8,.79,16.08.16,24.1-.07,1-.16,2-.27,2.93s-.08,2.13-.78,2.73a4.84,4.84,0,0,1-2.33.66c-1.15.17-2.31.32-3.46.48l-13.83,1.93,1.9,1.45-1.68-24.67a1.54,1.54,0,0,0-1.5-1.5l-7.84.06c-2.4,0-4.84-.09-7.22.07-5,.35-5.17,5.44-5.85,9.31-.85,4.86-1.5,9.82-2.58,14.64-.23,1.06-.51,1.77-1.66,2a29.28,29.28,0,0,1-3.24.27l-7.87.6,1.5,1.5a650.51,650.51,0,0,0,2.9-86.27q-.4-12.09-1.25-24.15c-.13-1.91-3.14-1.93-3,0Z" transform="translate(0.09 -36.21)"/></g><g id="Capa_3" data-name="Capa 3"><path class="cls-6" d="M271.72,265.52a40.43,40.43,0,0,0-7.9-11.49c-6.29-6-15.07-8.57-23.56-10.54a312.15,312.15,0,0,0-50.9-7.49c-1.4-.08-3-.06-3.88,1.06a4.3,4.3,0,0,0-.48,3,342.18,342.18,0,0,1-10,113.52l-.76.36,21.31,1.45a4.91,4.91,0,0,0,3.22-.51c1-.72,1.36-2.1,1.59-3.35q3.81-20.06,7.6-40.13l23.35,41.11a12.8,12.8,0,0,0,2.91,3.87,12.51,12.51,0,0,0,5.57,2q10.06,1.88,20.28,2.82A188,188,0,0,0,244.47,302c6.5,2.24,13.61,4.49,20.11,2.24,7-2.43,11.5-9.83,12.2-17.23S275,272.18,271.72,265.52Zm-27,22.83c-3,1.88-6.45,1.91-9.9,1.94-3.65,0-7.52.65-11.12-.11-7.8-1.66-7.12-10.27-6.84-17-1.51-3.06.55-7.12,3.87-8a6.47,6.47,0,0,1,3.27-.12,80.46,80.46,0,0,1,12.92,1.6c3.34.66,6.81,1.55,9.41,3.88C251.59,275.27,250.79,284.58,244.72,288.35Z" transform="translate(0.09 -36.21)"/><path class="cls-6" d="M273,264.76c-2.88-5.79-6.51-11.1-11.88-14.84-5.15-3.59-11.26-5.58-17.28-7.11a295.91,295.91,0,0,0-43.35-7.4c-3.7-.37-7.42-.71-11.14-.91-3-.15-5.79.95-5.91,4.38a49.38,49.38,0,0,0,.33,5c.13,1.91.25,3.83.35,5.74q.28,5.51.39,11a342.1,342.1,0,0,1-2,44,340.67,340.67,0,0,1-9,48.56l.69-.9-.76.35c-1.46.68-.59,2.7.76,2.8l17.06,1.16c2.25.15,5.47.82,7.58-.09,3-1.29,3.06-5.26,3.58-8l2.13-11.25q2.42-12.72,4.82-25.45l-2.74.36q8,14.18,16.1,28.34c2.61,4.61,5.11,9.3,7.86,13.83a10.26,10.26,0,0,0,4.72,4.42,30.85,30.85,0,0,0,6.92,1.63q8.85,1.53,17.8,2.36a1.5,1.5,0,0,0,1.5-1.5A190.56,190.56,0,0,0,251,314q-2.37-6.5-5.2-12.8l-1.7,2.21c4.61,1.58,9.38,3.14,14.3,3.22a18.39,18.39,0,0,0,12-4c6.5-5.28,8.75-14.14,7.72-22.17A49.87,49.87,0,0,0,273,264.76c-.85-1.73-3.44-.22-2.59,1.51,3.62,7.36,6.46,16,4.19,24.2-1.95,7.08-7.49,12.86-15.11,13.14-5,.18-9.93-1.49-14.63-3.11-1.37-.47-2.18,1.12-1.69,2.21a187.53,187.53,0,0,1,13.67,45.16q1.13,6.66,1.76,13.38l1.5-1.5c-5.05-.48-10.07-1.11-15.08-1.93a66.92,66.92,0,0,1-7.16-1.36,7.51,7.51,0,0,1-4.71-3.81c-5.22-8.77-10.1-17.76-15.14-26.63q-4.35-7.68-8.72-15.36a1.51,1.51,0,0,0-2.74.36l-4.08,21.53-2,10.76-1,5.39c-.26,1.39-.31,3.18-1,4.42-.84,1.48-5.16.62-6.65.52l-10.34-.71-7.12-.48.75,2.79a2.6,2.6,0,0,0,1.69-2.17c.48-1.86.95-3.72,1.39-5.58q1.23-5.13,2.3-10.29,2.22-10.67,3.74-21.47a345.58,345.58,0,0,0,3.39-42.87q.18-10.78-.33-21.56c-.17-3.58-.4-7.17-.67-10.75-.12-1.44-.42-2.87,1.38-3.06a30.57,30.57,0,0,1,5.32.28,310,310,0,0,1,43.31,6.41c6.8,1.5,13.81,3.06,20,6.42a28.7,28.7,0,0,1,8,6.33,43.73,43.73,0,0,1,5.91,9.34C271.28,268,273.87,266.48,273,264.76Z" transform="translate(0.09 -36.21)"/><path class="cls-6" d="M244,287.05c-3.24,1.92-6.9,1.64-10.52,1.77s-7.55.86-10.89-.55c-4.47-1.88-4.42-7.73-4.31-11.81a15.14,15.14,0,0,0,.07-3.68,8.28,8.28,0,0,1-.45-1.71,4.39,4.39,0,0,1,.42-1.95c1.55-3.32,5.12-2.64,8.13-2.42a79.53,79.53,0,0,1,11.27,1.65c3.09.68,6.34,1.67,8.47,4.16,3.69,4.29,2.53,11.51-2.19,14.54-1.62,1-.12,3.64,1.52,2.59a13.18,13.18,0,0,0,4.66-16.38c-3.39-7.46-13.25-8.4-20.37-9.24-2.31-.27-4.69-.54-7-.6a7.68,7.68,0,0,0-7.63,5.57,7.33,7.33,0,0,0-.28,2.24,17.42,17.42,0,0,0,.58,2.42c-.09-.49-.12.6-.13.7,0,.35,0,.7,0,1q0,1.14-.06,2.28a33.62,33.62,0,0,0,.28,4.6,11.33,11.33,0,0,0,3.52,7.29c3.4,2.84,8.18,2.59,12.34,2.36,4.79-.26,9.83.26,14.13-2.29A1.5,1.5,0,0,0,244,287.05Z" transform="translate(0.09 -36.21)"/><path class="cls-6" d="M288.8,254.85a869.43,869.43,0,0,1-3.28,94c-.33,3.63-.53,7.73,1.93,10.42a12.48,12.48,0,0,0,5.48,3,112.7,112.7,0,0,0,45.76,5.23c6.18-.57,12.57-1.76,17.55-5.46,9.63-7.15,10.92-20.81,11.37-32.78L370,264.38a4.43,4.43,0,0,0-.56-2.9c-.83-1.08-2.39-1.17-3.74-1.16l-17.78.13a149.39,149.39,0,0,1-6.1,56.77c-1.16,3.75-3.25,8.1-7.16,8.43-4.13.34-6.95-4.09-8.17-8-2.69-8.68-2.59-18-2.25-27q.48-12.51,1.48-25a2.73,2.73,0,0,0-.4-2.09,2.76,2.76,0,0,0-1.24-.63L289.9,252.5" transform="translate(0.09 -36.21)"/><path class="cls-6" d="M287.3,254.85q.63,33-1.24,66.08-.48,8.28-1.1,16.55c-.22,2.79-.44,5.59-.68,8.39a62.92,62.92,0,0,0-.45,7,12.44,12.44,0,0,0,1.45,5.95,10,10,0,0,0,5,4A79.5,79.5,0,0,0,304.74,367a114.69,114.69,0,0,0,31.15,2.22c8.85-.6,18.41-2.09,24.62-9.07,5.32-6,7.16-14.07,8-21.82.48-4.43.6-8.88.76-13.32l.63-16.71,1.26-33.42.3-8.23c.08-2.11.55-4.82-1.13-6.46s-4-1.35-6.06-1.34l-8.15.06L348,259a1.52,1.52,0,0,0-1.5,1.5,147.83,147.83,0,0,1-4.72,51.85,48.66,48.66,0,0,1-2.3,7.17c-.77,1.69-1.88,3.65-3.69,4.41-4.25,1.77-7-4-7.91-7.13a61.77,61.77,0,0,1-2.22-17.22c-.06-5.93.25-11.87.56-17.79.16-2.94.33-5.89.53-8.83.1-1.47.21-2.94.32-4.41a16.62,16.62,0,0,0,.18-4.45,3.31,3.31,0,0,0-2.35-2.53c-1.59-.57-3.25-1-4.86-1.48l-9.74-3-20-6c-1.86-.56-2.65,2.33-.8,2.89l18.3,5.54,9.27,2.81,4.27,1.29,2.14.65c.89.27.84.42.78,1.34-.75,12.3-2.06,24.68-1.57,37,.23,5.66.82,11.73,3,17,1.56,3.83,4.71,8,9.36,7.49s6.87-5.14,8.14-9a135.28,135.28,0,0,0,4.3-17.38,151.77,151.77,0,0,0,2-40.26L348,262l15.8-.11c1.57,0,4.65-.65,4.79,1.59.15,2.52-.17,5.16-.26,7.69l-1.18,31.42c-.38,10.09-.6,20.2-1.17,30.29-.42,7.38-1.28,15.25-5.09,21.75a20.48,20.48,0,0,1-8,7.78,34.31,34.31,0,0,1-12.54,3.44,109.26,109.26,0,0,1-29.51-.73,112.37,112.37,0,0,1-14.37-3.29A29,29,0,0,1,290,359.4a6.39,6.39,0,0,1-3-4.67,23.89,23.89,0,0,1,0-6.15q.33-3.82.65-7.65.63-7.89,1.12-15.8,1.94-31.26,1.6-62.6c0-2.56-.06-5.12-.11-7.68,0-1.93-3-1.93-3,0Z" transform="translate(0.09 -36.21)"/><path class="cls-6" d="M450.52,263.35a170.92,170.92,0,0,0-35.44-3.75c-7.42,0-15.06.53-21.75,3.75a13.12,13.12,0,0,0-5.85,4.82,16.53,16.53,0,0,0-1.74,6.4c-.9,7.07-1.28,15.15,3.58,20.36,6.63,7.12,20.42,5.87,24.37,14.75,1.88,4.23.5,9.34-2.26,13.06s-6.7,6.34-10.53,8.94q-12.57,8.55-24.68,17.77a2.55,2.55,0,0,0-.82,4.26l7,10.14a9,9,0,0,0,3.16,3.24c2.52,1.24,5.49-.1,8-1.42,8.11-4.32,16.27-8.67,23.38-14.47s13.21-13.2,15.95-22c1.74-5.53,2.09-11.39,2.15-17.19.06-5.56-.4-11.76-4.45-15.57-2.49-2.35-5.92-3.37-8.83-5.17s-5.48-5.13-4.49-8.4c.9-3,4.24-4.39,7.28-5a29.74,29.74,0,0,1,21.38,4.25,95.06,95.06,0,0,0,5.57-16.93" transform="translate(0.09 -36.21)"/><path class="cls-6" d="M450.92,261.9a162.77,162.77,0,0,0-40.76-3.7c-6.26.28-12.67,1.26-18.28,4.2a13.54,13.54,0,0,0-5.9,5.38c-1.34,2.54-1.6,5.49-1.92,8.29-.59,5.33-.75,11,1.55,16,2,4.29,5.76,6.89,10,8.66,4,1.66,8.25,2.61,12,4.74,4.11,2.34,6.28,6.38,5.12,11.14-1.46,6-6.7,9.8-11.53,13.09-5.53,3.77-11,7.6-16.44,11.55q-4.2,3.06-8.33,6.19a9.58,9.58,0,0,0-3,2.81,3.88,3.88,0,0,0,.43,3.92c1.79,2.89,3.86,5.63,5.78,8.43,1.58,2.29,3.07,5.11,5.83,6.12s6-.3,8.55-1.64q4.31-2.25,8.53-4.62A106.05,106.05,0,0,0,418.24,352a55.3,55.3,0,0,0,11.6-12.91,41.24,41.24,0,0,0,6-16.72,81.21,81.21,0,0,0,.64-9.86,43.72,43.72,0,0,0-.54-8.4,16.93,16.93,0,0,0-2.88-7.05,17.54,17.54,0,0,0-6.57-4.95c-2.5-1.24-5.22-2.38-6.88-4.73s-1.38-4.93,1.06-6.47a15.77,15.77,0,0,1,7.59-1.9,28.54,28.54,0,0,1,8.78.91,28.26,28.26,0,0,1,8.08,3.58,1.51,1.51,0,0,0,2.05-.54,98.41,98.41,0,0,0,5.72-17.29c.44-1.88-2.46-2.68-2.89-.8a93.61,93.61,0,0,1-5.42,16.57l2.05-.53A31.51,31.51,0,0,0,429.92,276c-4.58,0-11.19.69-13.64,5.24-2.88,5.36,2.23,10.25,6.62,12.48,2.46,1.26,5.15,2.3,7.07,4.36a13.46,13.46,0,0,1,3,6.86,41.07,41.07,0,0,1,.44,8.07,74.51,74.51,0,0,1-.65,9.45,38.78,38.78,0,0,1-6.44,16.49c-6.82,10-17.27,16.54-27.66,22.23a89.06,89.06,0,0,1-7.91,4.17,6.37,6.37,0,0,1-4.1.61c-1.4-.41-2.25-1.71-3-2.85-2-2.83-3.9-5.68-5.85-8.52-.45-.64-.93-1.27-1.33-1.93s-.53-.88,0-1.43a24.85,24.85,0,0,1,3.8-2.94q8-6,16.24-11.73c4.87-3.39,10.3-6.45,14.39-10.82,3.74-4,6.35-9.82,4.67-15.33-1.24-4-4.52-6.74-8.23-8.44s-8-2.73-11.81-4.54c-4.32-2.05-7.25-5.22-8.3-10a28.81,28.81,0,0,1-.45-7.92,45.17,45.17,0,0,1,1-7.86c1.44-6,8.12-8.23,13.53-9.4,6.11-1.32,12.48-1.27,18.7-1.09A170,170,0,0,1,440.5,263c3.23.5,6.43,1.09,9.62,1.76,1.89.4,2.69-2.49.8-2.89Z" transform="translate(0.09 -36.21)"/><path class="cls-6" d="M459.7,263.93a647.39,647.39,0,0,1-1.65,110.42l10.34-.79a4.78,4.78,0,0,0,2.59-.71,4.85,4.85,0,0,0,1.43-3.18l3.08-17.59c.28-1.59.71-3.4,2.14-4.15a5.44,5.44,0,0,1,2.47-.41l14.21-.11L496,372.08l17.28-2.42a5,5,0,0,0,3.24-1.29,4.78,4.78,0,0,0,.85-2.57c1.08-8.61.7-17.33.32-26L514.36,264a31.69,31.69,0,0,0-12.53.57,4.55,4.55,0,0,0-2.37,1.17c-.87,1-.8,2.45-.68,3.76l2.15,24.06c.11,1.18.17,2.52-.62,3.41a4.26,4.26,0,0,1-1.72,1,41.92,41.92,0,0,1-17.74,2.64L483,272.44c.11-1.46.15-3.14-.92-4.15a5,5,0,0,0-2.51-1l-18-3.69" transform="translate(0.09 -36.21)"/><path class="cls-6" d="M458.2,263.93a649.06,649.06,0,0,1,.32,86.31q-.76,12.08-2,24.11a1.51,1.51,0,0,0,1.5,1.5l7.88-.6c2-.15,4.51,0,6.11-1.34s1.75-3.43,2.07-5.3l1.33-7.58,1.33-7.57c.29-1.69.37-4.17,2.48-4.42a69.51,69.51,0,0,1,7.22-.07l7.84-.06-1.5-1.5,1.69,24.67a1.53,1.53,0,0,0,1.89,1.45l12.6-1.77a59.44,59.44,0,0,0,5.94-.87,4.71,4.71,0,0,0,3.44-2.78,20.06,20.06,0,0,0,.86-5.72c.17-2,.27-4.09.31-6.13.1-4.18,0-8.36-.18-12.53-.68-17-1.49-34-2.24-51.06L515.86,264a1.51,1.51,0,0,0-1.1-1.45,33.83,33.83,0,0,0-13.33.57c-1.82.48-3.41,1.39-4,3.29s-.07,4.11.1,6l1.28,14.24c.21,2.35.45,4.7.63,7.06.05.74.21,1.75-.37,2.32s-2.16.95-3.07,1.24a41.41,41.41,0,0,1-15.16,1.82l1.5,1.5,1.15-14.83c.36-4.68.93-9.4,1.08-14.09.06-1.86-.34-3.86-2-4.95s-4-1.23-6-1.63l-14.6-3c-1.89-.38-2.69,2.51-.8,2.9l13.15,2.69,3.4.7a13.9,13.9,0,0,1,2.8.65c1.66.72,1,3.45.87,4.86l-2.07,26.69a1.51,1.51,0,0,0,1.5,1.5,44.11,44.11,0,0,0,13-1.12,27.48,27.48,0,0,0,6.2-2,4.55,4.55,0,0,0,2.39-4.31c0-2.24-.37-4.52-.56-6.74l-.64-7.12-.62-6.87-.31-3.44a11.75,11.75,0,0,1-.1-3c.2-1.12,1.23-1.32,2.2-1.56a27.88,27.88,0,0,1,3.74-.66,31.48,31.48,0,0,1,7.76.14l-1.1-1.44L515,313.37l1.08,24.43c.35,8,.78,16.08.16,24.1-.08,1-.17,2-.28,2.93s-.08,2.13-.78,2.73a4.81,4.81,0,0,1-2.33.66c-1.15.17-2.3.32-3.46.48l-13.82,1.93,1.9,1.45-1.69-24.67a1.54,1.54,0,0,0-1.5-1.5l-7.84.06c-2.4,0-4.83-.1-7.22.07-5,.35-5.17,5.44-5.85,9.31-.85,4.86-1.49,9.82-2.57,14.64-.24,1.06-.52,1.76-1.67,2a28.9,28.9,0,0,1-3.23.27l-7.88.6,1.5,1.5a650.57,650.57,0,0,0,2.9-86.27q-.39-12.09-1.25-24.15c-.13-1.92-3.13-1.93-3,0Z" transform="translate(0.09 -36.21)"/></g></svg>