<?xml version="1.0" encoding="utf-8"?>
<!-- Generator: Adobe Illustrator 24.1.1, SVG Export Plug-In . SVG Version: 6.00 Build 0)  -->
<svg version="1.1" id="Capa_1" xmlns="http://www.w3.org/2000/svg" xmlns:xlink="http://www.w3.org/1999/xlink" x="0px" y="0px"
	 viewBox="0 0 250 250" style="enable-background:new 0 0 250 250;" xml:space="preserve">
<style type="text/css">
	.st0{fill:#FFFFFF;}
	.st1{fill:#CCCC33;}
	.st2{fill:#CC66FF;}
	.st3{fill:#660099;}
</style>
<g id="Capa_2_1_">
	<path class="st0" d="M114.7,56.1c-0.5-0.1-1.1-0.1-1.6-0.2c-2.3-3.4-5.3-5.4-8.7-6.4c-3.1-3.6-7.8-5.7-13.4-4.4
		c-2.5,0.6-4.7,2-6.5,3.8c-2.9-0.9-6-1-9.1-0.1C67.8,51,64,58.2,61.1,65c-3.2,7.5-5.2,15.7-2.6,23.8c9.9,30.6,72.1,18.8,64.3-14.9
		v-0.1c0.5-1,0.9-1.9,1.2-2.9C125.8,64.2,121.5,57.2,114.7,56.1z"/>
	<path class="st0" d="M190.8,72.7c-1.4-6.7-4.4-14.8-9.6-19.5c-5-4.5-12.6-5.4-19-5.9c-6.6-0.4-13.7,1-19.2,4.9
		c-2.2,1.6-4.1,3.5-5.7,5.6c-0.4,0.1-0.7,0.1-1,0.2c-6,1.7-8.1,7.3-7.3,12.9c0.1,0.6,0.2,1.1,0.3,1.7c-1.6,3.2-2,6.8-1.3,10.3
		c-3.8,6.8,1.3,14.8,8.7,15.4c2.8,4.9,6.9,8,13.7,8.4c7,0.5,15.5-0.7,22-3.6c2.5-1.1,4.4-2.8,6.7-4.2c3.1-1.8,6.6-2.4,9.2-5.2
		C193.4,88.2,192.2,79.7,190.8,72.7z"/>
</g>
<g id="Capa_1_2_">
	<g id="Capa_2_2_">
		<path class="st1" d="M123.8,96.3c-13.5,0-13.5,21,0,21S137.3,96.3,123.8,96.3z"/>
		<path class="st2" d="M185.9,35.2c-1.6-4-3.3-8.1-4.9-12.1c-3-7.5-11.2-10.2-17.5-4.6c-5.1,4.5-9.2,6.4-16.1,6.3
			c-8.3-0.2-15.9-1-24.1,0.6c-3.3,0.7-5.2,0.9-8.4,0.3c-4.2-0.8-7.7-0.4-11.9,0.1c-2.9,0.4-5.9,0.6-8.8,0.8c0-0.5,0-1,0-1.4
			c-0.5-13.5-21.5-13.5-21,0c0.1,1.7,0.3,1.8-1.3,2.7c-9.6,5.5-4.8,18.8,5.2,19.5c10.1,0.7,20,0.2,30-1.1c2.5-0.3,4.7,0.3,7.1,0.8
			c0,2.2,0.5,4.7,1.7,7.3c2.3,5.2,9.9,6.4,14.4,3.8c3.1-1.8,4.6-4.6,4.9-7.7c0.6-0.2,1.1-0.4,1.7-0.6c1.6-0.6,3.3-1,5-1.4
			c3.3-0.8,6.7-1.1,10.1-1.3c7.9-0.3,15.9,0.5,23.8,1.4C182.1,49.3,188.3,41.1,185.9,35.2z"/>
		<path class="st2" d="M205.7,104.4c1.1-2.9,1.6-6.1,1.2-9.6c-0.5-4.7-2.9-8.8-7.7-10.1c-4.3-1.2-9.8,0.7-11.9,4.8
			c-1.6,3.2-2.4,6.4-2.7,9.7c-1.5,2-3.9,3.6-5.9,5.1c-4.2,3.1-8.4,6.4-13.9,6.4c-7,0-13.6-3.3-20.7-2.1c-5.9,1-10.4,4.4-14.3,8.8
			c-0.8,0.9-3.3,3.8-3.4,3.8c-1.3,0.8-0.2,0.6-1.4-0.1c-4.7-2.7-6-9.5-10.6-12.6c-6.2-4.2-13.8-1.9-20.8-1.3
			c-6.5,0.5-12.8,0.5-19.1-1.4c-3.4-1-6.5-0.2-8.8,1.6c-1.3-5.3-2.3-10.7-3.5-16c-2.8-13.2-23-7.6-20.1,5.6
			c2.3,10.5,2.9,23.4,12.3,30.2c3.4,2.5,7.1,3.9,10,7.1c3.1,3.5,5.6,7.6,7.9,11.7c4.8,8.6,8,17.9,9.8,27.6c0.8,4.7,1,9.3,1.2,14
			c0.3,6.8,3,11.4,8.7,15.1c9,5.9,21,7.4,31.5,8.5c10.8,1.1,22.7,1.5,32.7-3.4c10.1-4.9,15.6-15.4,13.9-26.4
			c-0.7-4.2-2.4-8.2-1.4-12.5c1.1-4.5,3.8-8.5,6.3-12.3c3.4-5.3,7-10.5,10.4-15.8c2.9-4.4,5.6-9,9.3-12.7c4.4-4.5,8.9-8.1,10.6-14.5
			c0.7-2.7,0.8-5.7,0.6-8.5C205.7,104.9,205.7,104.7,205.7,104.4z M94.5,143.1c0.1,0.3,0.2,0.6,0.2,1c-0.4-0.8-0.8-1.7-1.2-2.5
			C93.9,142.1,94.3,142.6,94.5,143.1z"/>
		<path class="st3" d="M67.8,142.7c-1.5-3.3-4.4-4.9-7.5-5.1c-0.2-1.3-0.4-2.5-0.6-3.8c-0.9-5.6-7.9-8.7-12.9-7.3
			c-5.9,1.6-8.3,7.3-7.3,12.9c1.8,11.1,3.4,22.2,5.6,33.2c1.7,8.4,4.7,16.6,10.2,23.3c0.2,2.5,0.5,5.1,0.8,7.6
			c0.8,5.6,8,8.7,12.9,7.3c6.1-1.7,8.1-7.3,7.3-12.9c-0.1-1.1-0.3-2.1-0.4-3.2c0.3-0.8,0.5-1.7,0.6-2.6
			C78.3,174.9,75,158.2,67.8,142.7z"/>
		<path class="st3" d="M190.9,134.3c-0.8,2.7-1.9,5.2-3,7.7c-3.8-0.2-7.8,1.5-9.6,5.1c-4.7,9.3-5.5,19.7-6.3,30
			c-1.1,5.6-2.2,11.3-1.9,16.9c0.3,6.8,6.5,12,13.3,10.1c21.4-5.9,25.1-30.8,26.5-49.5c0.2-2.2-0.6-4.3-1.9-6.1
			c1.2-2.8,2.4-5.7,3.3-8.7C215.2,127,194.9,121.5,190.9,134.3z"/>
	</g>
	<g id="Capa_1_1_">
		<path d="M176,77.1c0-2.5-0.7-4.9-1.9-7.1c-2.4,2.2-6.1,2.1-8.3-0.3c-1.6-1.8-2-4.3-1-6.5c-1-0.2-1.9-0.3-2.9-0.3
			c-7.8,0-14.2,6.4-14.2,14.2s6.4,14.2,14.2,14.2C169.7,91.3,176,85,176,77.1z"/>
		<path d="M90.9,91.3c7.8,0,14.2-6.3,14.2-14.2c0-2.5-0.7-4.9-1.9-7.1c-2.4,2.2-6.1,2.1-8.3-0.3c-1-1.1-1.6-2.5-1.6-4
			c0-0.9,0.2-1.7,0.6-2.5c-1-0.2-1.9-0.3-2.9-0.3c-7.8-0.2-14.4,6-14.6,13.8s6,14.4,13.8,14.6C90.4,91.3,90.7,91.3,90.9,91.3z"/>
		<path d="M213.6,118.7L213.6,118.7c0-0.2-0.1-0.3-0.1-0.3c-0.1-0.2-0.1-0.4-0.2-0.6l-0.1-0.2l-0.2-0.3c-0.1-0.1-0.2-0.3-0.3-0.4
			c0-1.3,0.1-2.5,0.1-3.8c0-27.6-7.7-51.8-22.2-70L179.9,7.3c-0.8-2.8-3.8-4.4-6.7-3.6c-0.6,0.2-1.2,0.5-1.7,0.9l-21.6,16.3
			c-16.2-4.8-33.5-4.8-49.7,0L78.5,4.6c-2.4-1.8-5.8-1.3-7.6,1.1c-0.4,0.5-0.7,1.1-0.8,1.7L59.4,43.2c-14.6,18.2-22.2,42.3-22.2,70
			c0,1.3,0.1,2.5,0.1,3.8c-0.1,0.1-0.1,0.2-0.2,0.3c-0.1,0.1-0.2,0.3-0.3,0.4v0.1c-0.1,0.2-0.2,0.4-0.2,0.6c0,0.1-0.1,0.2-0.1,0.3
			s0,0,0,0.1s0,0.1,0,0.2C25,158.8,37,195.9,67.7,215.7l0.1,0.1c2.5,1.6,5.9,0.8,7.4-1.7c1.9-3.1,3.6-6.3,5-9.6
			c5,3.2,10.3,5.9,15.8,8v6.2l-14,14c-2.1,2.2-2,5.6,0.2,7.6c2.1,2,5.4,2,7.5,0l6.4-6.4v7.3c0,3,2.4,5.4,5.4,5.4s5.4-2.4,5.4-5.4
			v-7.3l6.4,6.4c2.1,2.1,5.5,2.1,7.6,0s2.1-5.5,0-7.6l0,0l-14-14v-3c12.2,2.8,24.8,2.7,37-0.1l-0.1,2.6l-14.5,14.3
			c-2.1,2.1-2.1,5.5,0,7.6c2.1,2.1,5.5,2.1,7.6,0l6.5-6.5l-0.1,7.3c-0.1,3,2.3,5.4,5.3,5.5h0.1c2.9,0,5.3-2.4,5.4-5.3l0.1-7.3
			l6.2,6.3c2.1,2.1,5.5,2.1,7.6,0s2.1-5.5,0-7.6L154.3,219l0.1-6.9c5.4-2.1,10.5-4.7,15.3-7.8c1.4,3.3,3.1,6.6,5,9.6l0,0l0,0
			c0.1,0.1,0.2,0.3,0.4,0.4c0.2,0.2,0.3,0.4,0.5,0.6c0.1,0.1,0.2,0.1,0.3,0.2c1.8,1.5,4.3,1.7,6.3,0.4l0,0
			c30.8-19.8,42.7-56.8,31.3-96.6C213.6,118.9,213.6,118.8,213.6,118.7z M90.9,49.6c16.1,0,29.2,12.3,29.2,27.5
			s-13.1,27.6-29.2,27.6S61.7,92.3,61.7,77.1S74.8,49.6,90.9,49.6z M121.1,104.9l4.4-7.4l4.4,7.5l-4.4,8.5L121.1,104.9z M130.9,77.1
			c0-15.2,13.1-27.6,29.2-27.6s29.2,12.4,29.2,27.6s-13.1,27.6-29.2,27.6S130.9,92.3,130.9,77.1z M78.2,17.9l17.5,13.2l0,0l0,0
			l0.2,0.1c0.2,0.2,0.5,0.3,0.8,0.4c0.1,0.1,0.2,0.1,0.3,0.1c0.2,0.1,0.4,0.2,0.7,0.2l0.4,0.1c0.2,0,0.5,0.1,0.7,0.1
			c0.1,0,0.3,0,0.4,0c0.2,0,0.4,0,0.7,0c0.2,0,0.4-0.1,0.6-0.1s0.3,0,0.4-0.1c15.8-5.1,32.7-5.1,48.5,0h0.1c0.5,0.1,1,0.2,1.4,0.2
			h0.2h0.1c0.5,0,1-0.1,1.4-0.2l0.3-0.1c0.4-0.1,0.8-0.3,1.1-0.6c0.1,0,0.1-0.1,0.2-0.1h0.1l17.6-13.2l7.7,25.7
			c-6-3.2-12.6-4.8-19.4-4.8C146.1,38.7,133,46,125.6,58c-7.4-12-20.5-19.3-34.6-19.2c-7.2,0-14.4,1.9-20.6,5.5L78.2,17.9z
			 M45.1,128.2c9,5.4,16.6,13,21.9,22.1c7.9,13.2,9.8,29.2,5.3,43.9c0,0,0,0,0,0.1c-0.9,3.1-2.2,6-3.6,8.9
			C47.2,186.5,38.5,158.7,45.1,128.2z M103.8,203.6c-0.6-0.3-1.2-0.5-1.8-0.5c-6.5-2.2-12.7-5.4-18.2-9.5c4-16.6,1.4-34.1-7.4-48.8
			c-6.8-11.5-16.6-21-28.3-27.4c0-1.4-0.1-2.8-0.1-4.3c-0.1-10,1.1-19.9,3.5-29.5c3.2,18.1,19.6,31.9,39.4,31.9
			c7.3,0,14.4-1.9,20.7-5.6l9.2,17.8l0,0c0.2,0.4,0.5,0.8,0.8,1.1c0.1,0.1,0.2,0.2,0.3,0.3c0.2,0.2,0.5,0.4,0.8,0.6
			c0.1,0.1,0.2,0.2,0.3,0.2l0.2,0.1c0.2,0.1,0.4,0.2,0.7,0.3c0.1,0.1,0.3,0.1,0.4,0.2c0.4,0.1,0.9,0.2,1.4,0.2l0,0
			c0.5,0,0.9-0.1,1.3-0.2c0.2,0,0.3-0.1,0.4-0.2c0.2-0.1,0.5-0.2,0.7-0.3l0.2-0.1c0.1-0.1,0.2-0.1,0.3-0.2c0.3-0.2,0.5-0.4,0.8-0.6
			c0.1-0.1,0.2-0.2,0.3-0.3c0.3-0.3,0.6-0.7,0.8-1.1l0,0l9.2-17.8c6.3,3.7,13.4,5.6,20.7,5.6c18.9,0,34.8-12.7,38.9-29.6
			c2,8.9,3,18.1,3,27.3c0,1.4-0.1,2.9-0.1,4.3c-11.7,6.5-21.5,15.9-28.3,27.4c-8.7,14.7-11.3,32.1-7.3,48.7
			c-12,8.7-26.4,13.3-41.3,13.2C117.8,206.8,110.7,205.7,103.8,203.6z M181.3,203.1c-1.5-2.9-2.7-5.9-3.6-9
			c-4.5-14.7-2.5-30.6,5.3-43.9c5.4-9.1,12.9-16.6,21.9-22.1C211.6,158.7,202.8,186.5,181.3,203.1z"/>
		<path d="M101.9,136.4c-3,0-5.4,2.4-5.4,5.4v8.5c0,3,2.4,5.4,5.4,5.4s5.4-2.4,5.4-5.4v-8.5C107.3,138.8,104.9,136.4,101.9,136.4z"
			/>
		<path d="M125,136.4c-3,0-5.4,2.4-5.4,5.4v8.5c0,3,2.4,5.4,5.4,5.4c3,0,5.4-2.4,5.4-5.4v-8.5C130.4,138.8,128,136.4,125,136.4z"/>
		<path d="M148.1,136.4c-3,0-5.4,2.4-5.4,5.4v8.5c0,3,2.4,5.4,5.4,5.4s5.4-2.4,5.4-5.4v-8.5C153.5,138.8,151.1,136.4,148.1,136.4
			L148.1,136.4z"/>
		<path d="M114.3,165.6c-3,0-5.4,2.4-5.4,5.4v7.8c0,3,2.4,5.4,5.4,5.4s5.4-2.4,5.4-5.4V171C119.7,168.1,117.3,165.6,114.3,165.6z"/>
		<path d="M137.4,165.6c-3,0-5.4,2.4-5.4,5.4v7.8c0,3,2.4,5.4,5.4,5.4s5.4-2.4,5.4-5.4V171C142.8,168.1,140.4,165.6,137.4,165.6
			L137.4,165.6z"/>
	</g>
</g>
</svg>
