<?xml version="1.0" encoding="utf-8"?>
<!-- Generator: Adobe Illustrator 24.1.1, SVG Export Plug-In . SVG Version: 6.00 Build 0)  -->
<svg version="1.1" id="Capa_1" xmlns="http://www.w3.org/2000/svg" xmlns:xlink="http://www.w3.org/1999/xlink" x="0px" y="0px"
	 viewBox="0 0 250 250" style="enable-background:new 0 0 250 250;" xml:space="preserve">
<style type="text/css">
	.st0{fill:#FFFFFF;}
	.st1{fill:#CCCC33;}
	.st2{fill:#237F00;}
	.st3{fill:#90FF3F;}
</style>
<g id="Capa_2_1_">
	<path class="st0" d="M121.2,61.1c1.1-5.2-1.2-9.6-5.6-11.9c-0.1-0.2-0.3-0.4-0.4-0.6c-2.3-3-5.6-4.8-9.2-5.4
		c-0.8-0.3-1.6-0.4-2.4-0.6c-4.1-0.6-7.5,0.9-10.1,3.4c-3.2-0.1-6.3,0.3-9.4,0.8c-1.8,0.3-3.5,0.6-5.3,1c-0.1,0-0.1,0-0.2,0.1
		c-2.6,0.1-5.3,0.3-8,0.7c-4.5,0.7-7.7,5.9-7.7,10.1c0,0.7,0.1,1.4,0.2,2.1c-0.4,0.9-0.8,1.9-1.1,2.9c-2.3,7.9-1.6,17.1-0.1,25.2
		c3.3,17.7,25,19.9,39.5,17.1c7.6-1.5,14.3-6.2,16.8-13.8c1-3.1,1.3-6.5,2.1-9.8c2.3-1.1,4.3-3.2,5.1-6.5
		C126.9,70.1,124.7,65.3,121.2,61.1z M99.1,81.3c-0.2,1.3-0.4,2.7-0.6,4c-0.1,0-0.3,0.1-0.5,0.1c-3.9,0.7-11.9,2.1-15.7-0.7
		c0.5,0.3,0-0.8-0.2-2c0-0.3-0.1-0.6-0.1-1c0.4-1,0.7-2.1,0.7-3.3c0-0.1,0.1-0.2,0.1-0.2c0.2-0.3,0.4-0.5,0.5-0.8
		c0.3-0.3,0.7-0.6,0.9-0.7c0.1-0.1,0.2-0.2,0.4-0.3c0.3-0.2,0.8-0.6,1-0.7c0.4-0.3,0.9-0.5,1.4-0.8c0.1,0,0.3-0.1,0.5-0.1
		c0.9-0.3,1.8-0.7,2.6-1.2c0.4,0.5,0.9,0.9,1.5,1.2c1,0.9,2.2,1.6,3.6,1.9c0.9,0.1,1.9,0.3,2.8,0.4c0.7,0,1.4-0.1,2.1-0.2
		c0.1,0.1,0.2,0.1,0.3,0.2C99.8,78.5,99.3,79.9,99.1,81.3z"/>
	<path class="st0" d="M189.3,65.8c-5.4-13.9-20.6-22.6-35.5-21.7c-5.4,0.3-10.7,3-14,7c-7.6,4.1-9.1,12.2-9.5,20.1
		c-0.4,7.5-0.1,15.1,3,22.1c3.7,8.5,10.8,11.7,19.5,12.4c7.6,0.7,18.3,1.8,25.1-2.2c3.2-1.9,5-4.6,6.7-7.7c1.5-2.6,3.9-4.4,5.4-7
		C194.1,82,192,72.8,189.3,65.8z M166.8,84.7c0,0.1-0.1,0.1-0.1,0.2c-1.6-0.1-3.5,0.2-5,0.2c-2.6,0-5.3,0-7.9-0.2
		c-0.7-0.1-1.2-0.1-1.5-0.2c-1.2-2.5-1.2-5.8-1.2-8.4c0-0.6,0.1-1.3,0.1-2c4.2,1,8.6,1.5,11.9,2.1c2.6,0.5,5.3,0.2,7.6-0.9
		c0.4,1.2,0.6,2.3,0.6,3.2c-0.2,0.1-0.4,0.3-0.7,0.5C168.9,80.4,167.7,83,166.8,84.7z"/>
</g>
<g id="Capa_1_2_">
	<g id="Capa_3">
		<path class="st1" d="M136.4,104.4c-0.1-1.4-0.5-2.7-1.2-3.9c-0.7-1.2-1.6-2.2-2.7-2.9c-1-0.9-2.2-1.6-3.6-1.9
			c-0.9-0.1-1.9-0.3-2.8-0.4c-1.9,0-3.7,0.5-5.3,1.4c-0.7,0.5-1.4,1.1-2.1,1.6c-1.3,1.3-2.2,2.9-2.7,4.6c-0.1,0.4-0.2,0.9-0.3,1.3
			c-0.4,1.4-0.5,2.8-0.2,4.2c0.1,1.4,0.5,2.7,1.2,3.9c0.7,1.2,1.6,2.2,2.7,2.9c1,0.9,2.2,1.6,3.6,1.9c0.9,0.1,1.9,0.3,2.8,0.4
			c1.9,0,3.7-0.5,5.3-1.4c0.7-0.5,1.4-1.1,2.1-1.6c1.3-1.3,2.2-2.9,2.7-4.6c0.1-0.4,0.2-0.9,0.3-1.3
			C136.7,107.2,136.7,105.8,136.4,104.4z"/>
		<path class="st2" d="M203.8,126.7c-5.1-1.4-11.8,1.7-12.9,7.3c-1,4.9-3.8,8.7-6.6,12.8c-3.1,4.4-5.8,8.9-7.9,13.9
			c-4.6,11.1-5.4,22.9-3.3,34.6c0.8,4.5,5.8,7.7,10.1,7.7c4.9,0,8.5-3.3,10.1-7.7c2.5-6.6,5.6-12.9,9.2-18.9
			c3.8-6.4,8.1-11.8,8.2-19.6c0-3.4-1.2-5.9-3.2-7.6c1.6-2.9,2.9-6.1,3.6-9.5C212.2,134,209.6,128.3,203.8,126.7z"/>
		<path class="st2" d="M74.8,187.2c6-7.2,4.6-18.6-1.4-26.8c-7.3-9.9-10.2-22.2-18.6-31.4c-9-10-23.7,4.6-15,14.6
			c-3.1,2.9-4.5,7.5-2,12.6c1.7,3.3,3.3,6.5,5,9.7c4.4,10.6,6.5,22.3,11.4,32.7c1.5,3.2,4.6,4.9,7.9,5.1c7.3,3.3,18-2.2,14.8-11.9
			C76.3,190,75.6,188.5,74.8,187.2z"/>
	</g>
	<g id="Capa_2_2_">
		<path class="st3" d="M207.4,94.8c-0.5-13.5-21.4-13.6-21,0c0.2,6.6-8.4,10.4-13.5,12.6c-7.5,3.3-16.7,1.9-24.7,1.9
			c-4.8,0-9.8-0.4-14.5,0.8c-3.1,0.8-6.2,3.3-9.4,3.2c-3.9-0.2-8-3.3-11.7-4.4c-5.1-1.6-10.6-1.9-15.6-0.1c-0.3,0.1-0.6,0.2-0.9,0.4
			c-1.5-2.1-3.6-3.7-5.9-4.3c-5.4-1.5-9.7,1.3-12.1,5.7c-2.6-2.3-5.7-4.1-9-5.4c-1.7-0.7-3.5-0.7-5.1-0.3c-1.4-3.7-2.1-7.6-2-11.8
			c0.2-13.5-20.8-13.5-21,0c-0.3,19.2,10.6,38.2,27.6,47.2c2.6,4.2,5.1,8.4,6.9,13c2.4,6,3.5,12.5,3.8,19c0.2,3.4,0.1,6.9-0.1,10.3
			c-0.2,3.8-1.1,7.7-0.1,11.4c2.5,8.6,11.9,9.6,19.4,11c7.6,1.5,15.4,2.6,23.1,3.3c7.5,0.7,15.1,1.3,22.5,0c3.6-0.6,7-2,10.3-3.7
			c2.4-1.2,4.4-2.7,7.1-2.6c7.3,0.2,11.3-6.8,10.1-13.3c-2.9-15.7-0.7-37.1,11.6-48.6c5.9-5.5,12.6-9.7,17.5-16.3
			C207.1,115.3,207.8,105,207.4,94.8z"/>
		<path class="st3" d="M182.4,32c-1.1-1.6-1.8-3.1-2.1-4.9c0-0.3,0-0.6-0.1-0.9c-0.7-5.6-4.3-10.5-10.5-10.5
			c-5.5,0-10.8,4.8-10.5,10.5c0,0.1,0,0.1,0,0.2c-0.7,0.1-1.2,0.2-1.1,0.2c-4.5,0.4-8.9,0.8-13.4,1s-9,0.3-13.5,0.3
			c-2.9,0-6.1,0.2-8.8-1.2v0.1c-0.8-0.4-1.6-0.8-2.5-1.1c-4.1-1.6-7.6-0.2-10,2.5c-2.4-0.8-4.8-1.6-7-2.4c-4.8-1.7-9.6-3.8-14.7-3.2
			c-3.4-7.7-17-9.2-19.9,1.2c-0.6,2-1.2,4.1-1.7,6.1c-0.7,2.5-0.3,5.4,1,7.8c0,5.4,4.5,10.8,10.5,10.7c4.4-0.1,8-1.6,11.7-3.9
			c0.5-0.3,0.9-0.6,1.4-0.9c1.6,0.6,3.9,1.6,4.3,1.7c6.8,2.4,16.2,4,21,9.8c4.8,5.7,16.3,2.9,17.5-4.6c0.1-0.4,0.1-0.9,0.2-1.3
			c6.2,0,12.4-0.7,18.1-1.1c4.9-0.4,10.5-0.4,15.4-1.9C176,51.1,188.7,41.9,182.4,32z"/>
	</g>
	<g id="Capa_1_1_">
		<path d="M176,77.1c0-2.5-0.7-4.9-1.9-7.1c-2.4,2.2-6.1,2.1-8.3-0.3c-1.6-1.8-2-4.3-1-6.5c-1-0.2-1.9-0.3-2.9-0.3
			c-7.8,0-14.2,6.4-14.2,14.2s6.4,14.2,14.2,14.2C169.7,91.3,176,85,176,77.1z"/>
		<path d="M90.9,91.3c7.8,0,14.2-6.3,14.2-14.2c0-2.5-0.7-4.9-1.9-7.1c-2.4,2.2-6.1,2.1-8.3-0.3c-1-1.1-1.6-2.5-1.6-4
			c0-0.9,0.2-1.7,0.6-2.5c-1-0.2-1.9-0.3-2.9-0.3c-7.8-0.2-14.4,6-14.6,13.8s6,14.4,13.8,14.6C90.4,91.3,90.7,91.3,90.9,91.3z"/>
		<path d="M213.6,118.7L213.6,118.7c0-0.2-0.1-0.3-0.1-0.3c-0.1-0.2-0.1-0.4-0.2-0.6l-0.1-0.2l-0.2-0.3c-0.1-0.1-0.2-0.3-0.3-0.4
			c0-1.3,0.1-2.5,0.1-3.8c0-27.6-7.7-51.8-22.2-70L179.9,7.3c-0.8-2.8-3.8-4.4-6.7-3.6c-0.6,0.2-1.2,0.5-1.7,0.9l-21.6,16.3
			c-16.2-4.8-33.5-4.8-49.7,0L78.5,4.6c-2.4-1.8-5.8-1.3-7.6,1.1c-0.4,0.5-0.7,1.1-0.8,1.7L59.4,43.2c-14.6,18.2-22.2,42.3-22.2,70
			c0,1.3,0.1,2.5,0.1,3.8c-0.1,0.1-0.1,0.2-0.2,0.3c-0.1,0.1-0.2,0.3-0.3,0.4v0.1c-0.1,0.2-0.2,0.4-0.2,0.6c0,0.1-0.1,0.2-0.1,0.3
			s0,0,0,0.1s0,0.1,0,0.2C25,158.8,37,195.9,67.7,215.7l0.1,0.1c2.5,1.6,5.9,0.8,7.4-1.7c1.9-3.1,3.6-6.3,5-9.6
			c5,3.2,10.3,5.9,15.8,8v6.2l-14,14c-2.1,2.2-2,5.6,0.2,7.6c2.1,2,5.4,2,7.5,0l6.4-6.4v7.3c0,3,2.4,5.4,5.4,5.4s5.4-2.4,5.4-5.4
			v-7.3l6.4,6.4c2.1,2.1,5.5,2.1,7.6,0s2.1-5.5,0-7.6l0,0l-14-14v-3c12.2,2.8,24.8,2.7,37-0.1l-0.1,2.6l-14.5,14.3
			c-2.1,2.1-2.1,5.5,0,7.6c2.1,2.1,5.5,2.1,7.6,0l6.5-6.5l-0.1,7.3c-0.1,3,2.3,5.4,5.3,5.5h0.1c2.9,0,5.3-2.4,5.4-5.3l0.1-7.3
			l6.2,6.3c2.1,2.1,5.5,2.1,7.6,0s2.1-5.5,0-7.6L154.3,219l0.1-6.9c5.4-2.1,10.5-4.7,15.3-7.8c1.4,3.3,3.1,6.6,5,9.6l0,0l0,0
			c0.1,0.1,0.2,0.3,0.4,0.4c0.2,0.2,0.3,0.4,0.5,0.6c0.1,0.1,0.2,0.1,0.3,0.2c1.8,1.5,4.3,1.7,6.3,0.4l0,0
			c30.8-19.8,42.7-56.8,31.3-96.6C213.6,118.9,213.6,118.8,213.6,118.7z M90.9,49.6c16.1,0,29.2,12.3,29.2,27.5
			s-13.1,27.6-29.2,27.6S61.7,92.3,61.7,77.1S74.8,49.6,90.9,49.6z M121.1,104.9l4.4-7.4l4.4,7.5l-4.4,8.5L121.1,104.9z M130.9,77.1
			c0-15.2,13.1-27.6,29.2-27.6s29.2,12.4,29.2,27.6s-13.1,27.6-29.2,27.6S130.9,92.3,130.9,77.1z M78.2,17.9l17.5,13.2l0,0l0,0
			l0.2,0.1c0.2,0.2,0.5,0.3,0.8,0.4c0.1,0.1,0.2,0.1,0.3,0.1c0.2,0.1,0.4,0.2,0.7,0.2l0.4,0.1c0.2,0,0.5,0.1,0.7,0.1
			c0.1,0,0.3,0,0.4,0c0.2,0,0.4,0,0.7,0c0.2,0,0.4-0.1,0.6-0.1s0.3,0,0.4-0.1c15.8-5.1,32.7-5.1,48.5,0h0.1c0.5,0.1,1,0.2,1.4,0.2
			h0.2h0.1c0.5,0,1-0.1,1.4-0.2l0.3-0.1c0.4-0.1,0.8-0.3,1.1-0.6c0.1,0,0.1-0.1,0.2-0.1h0.1l17.6-13.2l7.7,25.7
			c-6-3.2-12.6-4.8-19.4-4.8C146.1,38.7,133,46,125.6,58c-7.4-12-20.5-19.3-34.6-19.2c-7.2,0-14.4,1.9-20.6,5.5L78.2,17.9z
			 M45.1,128.2c9,5.4,16.6,13,21.9,22.1c7.9,13.2,9.8,29.2,5.3,43.9c0,0,0,0,0,0.1c-0.9,3.1-2.2,6-3.6,8.9
			C47.2,186.5,38.5,158.7,45.1,128.2z M103.8,203.6c-0.6-0.3-1.2-0.5-1.8-0.5c-6.5-2.2-12.7-5.4-18.2-9.5c4-16.6,1.4-34.1-7.4-48.8
			c-6.8-11.5-16.6-21-28.3-27.4c0-1.4-0.1-2.8-0.1-4.3c-0.1-10,1.1-19.9,3.5-29.5c3.2,18.1,19.6,31.9,39.4,31.9
			c7.3,0,14.4-1.9,20.7-5.6l9.2,17.8l0,0c0.2,0.4,0.5,0.8,0.8,1.1c0.1,0.1,0.2,0.2,0.3,0.3c0.2,0.2,0.5,0.4,0.8,0.6
			c0.1,0.1,0.2,0.2,0.3,0.2l0.2,0.1c0.2,0.1,0.4,0.2,0.7,0.3c0.1,0.1,0.3,0.1,0.4,0.2c0.4,0.1,0.9,0.2,1.4,0.2l0,0
			c0.5,0,0.9-0.1,1.3-0.2c0.2,0,0.3-0.1,0.4-0.2c0.2-0.1,0.5-0.2,0.7-0.3l0.2-0.1c0.1-0.1,0.2-0.1,0.3-0.2c0.3-0.2,0.5-0.4,0.8-0.6
			c0.1-0.1,0.2-0.2,0.3-0.3c0.3-0.3,0.6-0.7,0.8-1.1l0,0l9.2-17.8c6.3,3.7,13.4,5.6,20.7,5.6c18.9,0,34.8-12.7,38.9-29.6
			c2,8.9,3,18.1,3,27.3c0,1.4-0.1,2.9-0.1,4.3c-11.7,6.5-21.5,15.9-28.3,27.4c-8.7,14.7-11.3,32.1-7.3,48.7
			c-12,8.7-26.4,13.3-41.3,13.2C117.8,206.8,110.7,205.7,103.8,203.6z M181.3,203.1c-1.5-2.9-2.7-5.9-3.6-9
			c-4.5-14.7-2.5-30.6,5.3-43.9c5.4-9.1,12.9-16.6,21.9-22.1C211.6,158.7,202.8,186.5,181.3,203.1z"/>
		<path d="M101.9,136.4c-3,0-5.4,2.4-5.4,5.4v8.5c0,3,2.4,5.4,5.4,5.4s5.4-2.4,5.4-5.4v-8.5C107.3,138.8,104.9,136.4,101.9,136.4z"
			/>
		<path d="M125,136.4c-3,0-5.4,2.4-5.4,5.4v8.5c0,3,2.4,5.4,5.4,5.4s5.4-2.4,5.4-5.4v-8.5C130.4,138.8,128,136.4,125,136.4z"/>
		<path d="M148.1,136.4c-3,0-5.4,2.4-5.4,5.4v8.5c0,3,2.4,5.4,5.4,5.4s5.4-2.4,5.4-5.4v-8.5C153.5,138.8,151.1,136.4,148.1,136.4
			L148.1,136.4z"/>
		<path d="M114.3,165.6c-3,0-5.4,2.4-5.4,5.4v7.8c0,3,2.4,5.4,5.4,5.4s5.4-2.4,5.4-5.4V171C119.7,168.1,117.3,165.6,114.3,165.6z"/>
		<path d="M137.4,165.6c-3,0-5.4,2.4-5.4,5.4v7.8c0,3,2.4,5.4,5.4,5.4s5.4-2.4,5.4-5.4V171C142.8,168.1,140.4,165.6,137.4,165.6
			L137.4,165.6z"/>
	</g>
</g>
</svg>
