<?xml version="1.0" encoding="utf-8"?>
<!-- Generator: Adobe Illustrator 24.1.1, SVG Export Plug-In . SVG Version: 6.00 Build 0)  -->
<svg version="1.1"
	 id="Capa_1" xmlns:cc="http://creativecommons.org/ns#" xmlns:dc="http://purl.org/dc/elements/1.1/" xmlns:inkscape="http://www.inkscape.org/namespaces/inkscape" xmlns:rdf="http://www.w3.org/1999/02/22-rdf-syntax-ns#" xmlns:sodipodi="http://sodipodi.sourceforge.net/DTD/sodipodi-0.dtd" xmlns:svg="http://www.w3.org/2000/svg"
	 xmlns="http://www.w3.org/2000/svg" xmlns:xlink="http://www.w3.org/1999/xlink" x="0px" y="0px" viewBox="0 0 16 12.6"
	 style="enable-background:new 0 0 16 12.6;" xml:space="preserve">
<style type="text/css">
	.st0{fill-rule:evenodd;clip-rule:evenodd;}
</style>
<g transform="translate(0,-1036.3622)">
	<g transform="translate(0,0.0198085)">
		<g transform="translate(1100.5659,-21.019708)">
			<g transform="translate(-116.0644,4.9999995)">
				<path class="st0" d="M-973.6,1052.5c-0.2,0-0.4,0-0.6,0c-0.6,0.1-1.1,0.2-1.7,0.5c-2,0.9-3.1,3-2.8,5.1c0,0-0.1,0-0.1,0h-1.2
					h-2.2l2.1-2.2l-0.8-0.8l-3.4,3.5l3.4,3.5l0.8-0.8l-2.1-2.2h2.2h1.2c0.8,0,1.4,0.3,1.7,0.7c0.4,0.4,0.6,1,0.6,1.2v3.6h1.1v-2.5
					c1.9,0.7,4.1,0.1,5.5-1.5c1.5-1.8,1.6-4.4,0.2-6.3C-970.7,1053.3-972.1,1052.6-973.6,1052.5z M-973.5,1053.7
					c1.1,0.1,2.1,0.6,2.8,1.5c1.1,1.5,1.1,3.5-0.1,4.9c-1.2,1.4-3.1,1.7-4.7,1c0-0.6-0.3-1.3-0.9-1.9c-0.3-0.3-0.8-0.6-1.3-0.8
					c-0.4-1.8,0.5-3.6,2.1-4.3C-974.8,1053.7-974.1,1053.6-973.5,1053.7z M-974.3,1054.8v2.2v1.1h3.4v-1.1h-2.2v-2.2H-974.3z"/>
			</g>
		</g>
	</g>
</g>
</svg>
