<?xml version="1.0" encoding="utf-8"?>
<!-- Generator: Adobe Illustrator 24.1.1, SVG Export Plug-In . SVG Version: 6.00 Build 0)  -->
<svg version="1.1" xmlns="http://www.w3.org/2000/svg" xmlns:xlink="http://www.w3.org/1999/xlink" x="0px" y="0px"
	 viewBox="0 0 190 240" style="enable-background:new 0 0 190 240;" xml:space="preserve">
<style type="text/css">
	.st0{fill:#233D4D;}
	.st1{fill:#15252D;}
	.st2{fill:#619B8A;}
	.st3{fill:#FCCA46;}
	.st4{fill:#41685C;stroke:#FCCA46;stroke-miterlimit:10;}
	.st5{fill:#84B7A6;}
	.st6{display:none;}
	.st7{display:inline;fill:none;}
	.st8{display:inline;fill:#233D4D;}
	.st9{font-family:'BerlinSansFBDemi-Bold';}
	.st10{font-size:155px;}
	.st11{display:inline;}
	.st12{fill:#233D4D;stroke:#233D4D;stroke-miterlimit:10;}
	.st13{fill:#FF0000;}
	.st14{fill:#FFD22E;}
	.st15{fill:#FFFF00;}
	.st16{fill:#00FF00;}
	.st17{fill:#0000FF;}
	.st18{fill:#C0D6E2;}
	.st19{fill-rule:evenodd;clip-rule:evenodd;fill:#233D4D;stroke:#233D4D;stroke-miterlimit:10;}
</style>
<g id="Carta">
	<g>
		<path class="st0" d="M17,239.5c-9.1,0-16.5-7.4-16.5-16.5V17C0.5,7.9,7.9,0.5,17,0.5H173c9.1,0,16.5,7.4,16.5,16.5V223
			c0,9.1-7.4,16.5-16.5,16.5H17z"/>
		<path class="st1" d="M173,1c8.8,0,16,7.2,16,16V223c0,8.8-7.2,16-16,16H17c-8.8,0-16-7.2-16-16V17C1,8.2,8.2,1,17,1H173 M173,0H17
			C7.6,0,0,7.6,0,17V223c0,9.4,7.6,17,17,17H173c9.4,0,17-7.6,17-17V17C190,7.6,182.4,0,173,0L173,0z"/>
	</g>
	<g>
		<path class="st2" d="M19.5,236.9c-9.1,0-16.5-7.4-16.5-16.5V20.7c0-9.1,7.4-16.5,16.5-16.5h151.1c9.1,0,16.5,7.4,16.5,16.5v199.7
			c0,9.1-7.4,16.5-16.5,16.5H19.5z"/>
		<path class="st3" d="M170.5,4.7c8.8,0,16,7.2,16,16v199.7c0,8.8-7.2,16-16,16H19.5c-8.8,0-16-7.2-16-16V20.7c0-8.8,7.2-16,16-16
			H170.5 M170.5,3.7H19.5c-9.4,0-17,7.6-17,17v199.7c0,9.4,7.6,17,17,17h151.1c9.4,0,17-7.6,17-17V20.7
			C187.5,11.3,179.9,3.7,170.5,3.7L170.5,3.7z"/>
	</g>
</g>
<g id="Capa_4">
	<ellipse class="st4" cx="94.6" cy="118.5" rx="87.6" ry="100.5"/>
</g>
<g id="Capa_3">
	<ellipse class="st5" cx="95" cy="118.5" rx="85" ry="97.5"/>
</g>
<g id="Capa_2" class="st6">
	<rect x="6" y="45" class="st7" width="177" height="168.8"/>
	<text transform="matrix(1 0 0 1 16.5459 154.2725)" class="st8 st9 st10">x2</text>
</g>
<g id="Capa_5" class="st6">
	<g class="st11">
		<path class="st12" d="M110.1,54.1c0-2,1.5-3.4,3.4-4.1h12.2c14.8,0.7,26.7,12.7,26.4,27.4v17.3l4.8-4.5c1.3-1.3,3.4-1.3,4.9,0
			c1.3,1.3,1.3,3.4,0,4.9l-10.2,10.2c-0.7,0.7-1.5,1.1-2.4,1.1s-1.7-0.4-2.4-1.1l-10.2-10.2c-1.3-1.3-1.3-3.4,0-4.9
			c1.3-1.3,3.4-1.3,4.9,0l3.6,4.5V77.4c0.8-10.9-8.1-19.9-19-20.4h-12.2C111.5,57.5,110.1,56,110.1,54.1z M26.2,115.1V54.8
			c0-2,1.6-3.4,3.4-3.4h60.3c2,0,3.4,1.6,3.4,3.4v60.3c0,2-1.6,3.4-3.4,3.4H29.6C27.6,118.6,26.2,117.1,26.2,115.1z M85.5,111.5h0.8
			V58.4h-0.8V111.5z M47.4,145.8c0.7,0.7,1.6,1.2,2.4,1.2c0.9,0,1.7-0.4,2.4-1.2c1.3-1.3,1.3-3.5,0-5.1l-10.4-10.6
			c-0.7-0.7-1.6-1.2-2.4-1.2c-0.9,0-1.7,0.4-2.4,1.2l-10.6,10.6c-1.3,1.3-1.3,3.5,0,5.1c1.3,1.3,3.4,1.3,5,0l4.6-4.7v18.1
			c0,15.4,12.3,27.8,27.2,27.8h12.4c2,0,3.4-1.6,3.4-3.5c0-2-1.6-3.5-3.4-3.5H62.8c-10.9,0-19.9-8.9-19.9-19.9v-19L47.4,145.8z
			 M96.1,183.6v-60.3c0-2,1.6-3.4,3.4-3.4h60.3c2,0,3.4,1.6,3.4,3.4v60.3c0,2-1.6,3.4-3.4,3.4H99.6C97.7,187,96.1,185.4,96.1,183.6z
			 M103.1,180h53.1v-53.1h-53.1V180z"/>
	</g>
</g>
<g id="Capa_6">
	<g id="Capa_7">
		<g>
			<g>
				<path class="st13" d="M22,122.5c-0.4,1-0.8,2.1-1.1,3.2c-0.3,1.1-0.8,2.5-0.2,3.5c0.6,0.8,1.7,1,2.5,0.5c0.5-0.3,1-0.7,1.4-1.1
					c0.9-0.7,1.7-1.4,2.5-2.3c-0.8-0.6-1.6-1.2-2.4-1.8c-1,2.2-2.1,4.4-3.1,6.6c0.9,0.4,1.8,0.8,2.7,1.2c0.4-1.4,0.8-2.7,1.4-3.9
					c0.3-0.7,0.2-1.7-0.5-2.1c-0.7-0.4-1.7-0.2-2.1,0.5c-0.7,1.5-1.3,3-1.7,4.6c-0.2,0.7,0.2,1.5,0.9,1.8c0.6,0.3,1.6,0.1,1.9-0.6
					c1-2.2,2.1-4.4,3.1-6.6c0.3-0.7,0.2-1.5-0.4-1.9c-0.6-0.4-1.5-0.4-2,0.1c-0.5,0.6-1.1,1.1-1.7,1.6c-0.2,0.2-0.6,0.5-0.8,0.7
					c0,0-0.3,0.2-0.4,0.3c-0.1,0.1-0.2,0.1-0.3,0.2c-0.2,0.1-0.2,0.1,0,0c0.3,0,0.5,0,0.8,0c0,0,0.1,0,0.1,0.1
					c0.2,0.2,0.4,0.4,0.5,0.5c0.1,0.1,0.1,0.3,0.1,0.4c0,0.2,0,0.2,0,0c0.1-0.2,0.1-0.5,0.2-0.7c0.1-0.5,0.2-0.9,0.4-1.4
					c0.3-0.9,0.6-1.8,0.9-2.7c0.3-0.7-0.3-1.7-1-1.8C23,121.2,22.3,121.7,22,122.5L22,122.5z"/>
			</g>
		</g>
		<g>
			<g>
				<path class="st13" d="M20.7,129.4c-0.3,0.4-0.5,0.9-0.6,1.4c-0.1,0.3-0.1,0.6-0.1,0.9c0,0.3,0,0.6,0.1,1
					c0.1,0.1,0.1,0.2,0.2,0.4c0.1,0.1,0.2,0.2,0.2,0.3c0.2,0.2,0.5,0.4,0.9,0.4c0.1,0,0.3,0,0.4,0c0.1,0,0.3,0,0.4-0.1
					c0.3-0.1,0.6-0.3,0.7-0.6c0.4-0.9,0.9-1.8,1.3-2.7c0.1-0.2,0.2-0.4,0.2-0.6c0-0.2,0-0.4,0-0.6c-0.1-0.3-0.4-0.7-0.7-0.9
					c-0.3-0.2-0.8-0.3-1.2-0.2c-0.4,0.1-0.7,0.3-0.9,0.7c-0.4,0.9-0.9,1.8-1.3,2.7c0.9,0.1,1.8,0.2,2.7,0.4c0,0,0,0,0,0
					c0,0.1,0,0.3,0.1,0.4c0-0.3,0-0.6,0-0.9c0,0.1,0,0.3-0.1,0.4c0-0.3,0.1-0.6,0.2-0.9c-0.1,0.1-0.1,0.2-0.2,0.4
					c0.1-0.1,0.1-0.3,0.2-0.4c0.2-0.3,0.3-0.8,0.2-1.2c-0.1-0.3-0.4-0.7-0.7-0.9c-0.3-0.2-0.8-0.3-1.2-0.2
					C21.2,128.8,20.9,129.1,20.7,129.4L20.7,129.4z"/>
			</g>
		</g>
		<g>
			<g>
				<path class="st13" d="M22.9,126.3c-0.1,0.4-0.1,0.8-0.1,1.2c0,0.4,0.1,0.7,0.2,1.1c0.2,0.7,0.6,1.3,1.1,1.9
					c0.9,1,2.3,1.7,3.7,1.6c0.4,0,0.8-0.2,1.1-0.4c0.3-0.3,0.5-0.7,0.4-1.1c0-0.8-0.7-1.5-1.5-1.5c-0.2,0-0.3,0-0.5,0
					c0.1,0,0.3,0,0.4,0.1c-0.3,0-0.6-0.1-0.8-0.2c0.1,0.1,0.2,0.1,0.4,0.2c-0.3-0.1-0.5-0.3-0.8-0.5c0.1,0.1,0.2,0.2,0.3,0.2
					c-0.3-0.2-0.5-0.4-0.7-0.7c0.1,0.1,0.2,0.2,0.2,0.3c-0.2-0.2-0.3-0.5-0.5-0.8c0.1,0.1,0.1,0.2,0.2,0.4c-0.1-0.3-0.2-0.6-0.2-0.9
					c0,0.1,0,0.3,0.1,0.4c0-0.3,0-0.5,0-0.8c0,0.1,0,0.3-0.1,0.4c0,0,0,0,0-0.1c0.1-0.4,0.1-0.8-0.2-1.2c-0.2-0.3-0.5-0.6-0.9-0.7
					c-0.4-0.1-0.8-0.1-1.2,0.2C23.3,125.6,23,125.9,22.9,126.3L22.9,126.3z"/>
			</g>
		</g>
		<g>
			<g>
				<path class="st13" d="M27.3,127.9c4.8-5.6,5.2-12.1,7.8-18.7c2.7-6.9,8.8-11.4,14.9-15c6.3-3.8,12.7-8.4,19.4-11.6
					c7-3.3,16.4-4.1,24.1-4.7c7.7-0.6,15.6-0.4,22.8,2.4c7,2.8,13.3,7.5,20.1,10.9c6.8,3.4,10.3,9.2,14.1,15.5
					c4.3,7.2,8.1,14.7,11.3,22.4c2.4,5.9,12.1,3.3,9.6-2.7c-3.5-8.6-7.6-16.9-12.3-24.8c-4-6.6-8.1-13.6-14.9-17.7
					c-3.7-2.2-7.8-3.7-11.5-5.9c-3.6-2.2-7.1-4.5-10.9-6.2c-7.8-3.5-16.3-4.5-24.8-4.1C88.3,68,79,69.2,70.6,71.5
					c-8.2,2.3-15.3,8-22.7,12.3c-6.8,3.9-13.6,8.3-18.3,14.8c-2.4,3.3-4,6.9-5.1,10.8c-1.1,3.9-1.6,8.2-4.3,11.4
					C16.1,125.7,23.1,132.8,27.3,127.9L27.3,127.9z"/>
			</g>
		</g>
		<g>
			<g>
				<path class="st14" d="M40.9,120.1c2.2-1.3,4.3-3,6.1-4.7c1.9-1.8,2-5.3,0-7.1c-2-1.9-5.1-2-7.1,0c-0.3,0.3-0.7,0.7-1,1
					c-0.2,0.2-0.4,0.3-0.5,0.5c-0.1,0.1-0.9,0.7-0.3,0.3c0.6-0.4-0.1,0.1-0.2,0.2c-0.2,0.1-0.4,0.3-0.6,0.4
					c-0.4,0.3-0.9,0.6-1.4,0.9c-2.2,1.4-3.3,4.5-1.8,6.8C35.5,120.5,38.5,121.6,40.9,120.1L40.9,120.1z"/>
			</g>
		</g>
		<g>
			<g>
				<path class="st14" d="M41.8,121c0.1-0.2,0.2-0.4,0.3-0.7c0.4-0.6,0.6-1.2,0.6-1.9c0.1-0.7,0.1-1.3-0.1-2
					c-0.2-0.7-0.5-1.2-0.9-1.7c-0.4-0.5-0.8-1-1.4-1.3c-0.4-0.2-0.8-0.3-1.2-0.5c-0.9-0.2-1.8-0.2-2.7,0c-0.4,0.2-0.8,0.3-1.2,0.5
					c-0.8,0.4-1.3,1-1.8,1.8c-0.1,0.2-0.2,0.4-0.3,0.7c-0.4,0.6-0.6,1.2-0.6,1.9c-0.1,0.7-0.1,1.3,0.1,2c0.2,0.7,0.5,1.2,0.9,1.7
					c0.4,0.5,0.8,1,1.4,1.3c0.4,0.2,0.8,0.3,1.2,0.5c0.9,0.2,1.8,0.2,2.7,0c0.4-0.2,0.8-0.3,1.2-0.5C40.8,122.4,41.4,121.8,41.8,121
					L41.8,121z"/>
			</g>
		</g>
		<g>
			<g>
				<path class="st14" d="M38.2,122.3c6.4,0,6.4-10,0-10C31.7,112.3,31.7,122.3,38.2,122.3L38.2,122.3z"/>
			</g>
		</g>
		<g>
			<g>
				<path class="st14" d="M33.1,115c0,0.1-0.1,0.1-0.1,0.2c0.3-0.3,0.5-0.7,0.8-1c-0.2,0.2-0.3,0.4-0.5,0.5c0.3-0.3,0.7-0.5,1-0.8
					c-0.2,0.2-0.5,0.3-0.7,0.4c0.4-0.2,0.8-0.3,1.2-0.5c-0.1,0-0.2,0.1-0.3,0.1c-1.2,0.4-2.3,1.2-3,2.3c-0.4,0.6-0.6,1.2-0.6,1.9
					c-0.1,0.7-0.1,1.3,0.1,2c0.4,1.2,1.1,2.4,2.3,3c1.2,0.6,2.6,0.9,3.9,0.5c0.7-0.2,1.5-0.5,2.2-1c0.4-0.3,1-0.7,1.4-1.1
					c0.4-0.4,0.8-0.9,1.1-1.4c0.4-0.6,0.6-1.2,0.6-1.9c0.1-0.7,0.1-1.3-0.1-2c-0.2-0.7-0.5-1.2-0.9-1.7c-0.4-0.5-0.8-1-1.4-1.3
					c-1.2-0.6-2.6-0.9-3.9-0.5c-0.4,0.2-0.8,0.3-1.2,0.5C34.2,113.6,33.6,114.2,33.1,115L33.1,115z"/>
			</g>
		</g>
		<g>
			<g>
				<path class="st14" d="M42.9,118.4c1.8-4.8,4.2-11.7,9-14.2c4.5-2.4,9.5-3.9,13.9-6.5c5.4-3.2,10.2-6.2,16.5-6.9
					c5.9-0.7,11.9-1.1,17.8-1.4c5.6-0.2,12-0.6,17.4,0.9c4.7,1.3,8.4,6.2,12.5,8.9c10.1,6.6,15.9,18.2,22.7,28.1
					c3.6,5.3,12.3,0.3,8.6-5c-4.4-6.4-8.7-12.8-13.1-19.2c-3.9-5.6-8.2-9.1-13.8-12.9c-5.1-3.5-8.7-8.1-14.9-9.6
					c-6.9-1.6-14.3-1.4-21.3-1c-6.8,0.4-13.8,0.7-20.6,1.9c-6.9,1.3-12.3,5.1-18.3,8.5c-5.4,3-12.5,4.4-16.9,8.9
					c-4.4,4.5-7,11.2-9.2,17C31,121.8,40.7,124.4,42.9,118.4L42.9,118.4z"/>
			</g>
		</g>
		<g>
			<g>
				<path class="st15" d="M53.8,121.9c8.3-12.8,24.1-22.7,39.6-23.4c7.9-0.4,17.3,1.1,24.7,4.1c7.5,3.1,13.6,12,18.4,18.2
					c3.9,5.1,11-2,7.1-7.1c-5.7-7.4-12.4-16.4-21.2-20.2c-9.1-3.9-21-5.9-30.8-5c-18.6,1.7-36.3,12.8-46.4,28.2
					C41.6,122.2,50.3,127.3,53.8,121.9L53.8,121.9z"/>
			</g>
		</g>
		<g>
			<g>
				<path class="st16" d="M60.3,127.9c10.5-8.1,21.1-18.5,34.9-20.1c7.1-0.8,12.7,2.1,19,5.1c6.2,2.9,9,7,12,13
					c2.9,5.8,11.5,0.7,8.6-5c-3.8-7.5-7.9-12.9-15.6-16.6c-7.2-3.4-14.1-7.1-22.3-6.6c-17.7,1-30.3,12.8-43.7,23.1
					C48.2,124.7,55.3,131.8,60.3,127.9L60.3,127.9z"/>
			</g>
		</g>
		<g>
			<g>
				<path class="st17" d="M72.8,131.3c1.2-1.8,2.4-4.4,4.1-5.9c1.7-1.5,4.5-2.2,6.6-2.9c4.3-1.4,8.6-2.3,13.1-2.5
					c4.8-0.2,9.4,0.2,13.4,3.2c3.7,2.8,6.9,6.4,10.1,9.8c4.5,4.7,11.5-2.4,7.1-7.1c-4.2-4.4-8.6-9.4-13.9-12.6
					c-5.4-3.2-12.2-3.7-18.3-3.2c-6.2,0.5-12.3,1.9-18.1,4.3c-6.2,2.5-9,6.4-12.6,11.8C60.6,131.6,69.2,136.6,72.8,131.3L72.8,131.3
					z"/>
			</g>
		</g>
		<g>
			<g>
				<path class="st13" d="M22.7,134c6.4,0,6.4-10,0-10C16.2,124,16.2,134,22.7,134L22.7,134z"/>
			</g>
		</g>
		<g>
			<g>
				<path class="st18" d="M38,136.3c6.4,0,6.4-10,0-10C31.6,126.3,31.6,136.3,38,136.3L38,136.3z"/>
			</g>
		</g>
		<g>
			<g>
				<path class="st18" d="M38.2,125.3c-5.1-0.1-8.2,5.7-9.3,10c-0.7,2.5,0.8,5.5,3.5,6.2c2.6,0.6,5.4-0.8,6.2-3.5
					c0.1-0.5,0.3-1,0.5-1.6c-0.4,1.1,0.2-0.4,0.4-0.6c0.1-0.2,1.1-1.6,0.4-0.7c0.2-0.2,0.3-0.4,0.5-0.6c-0.6,0.5-1.2,0.7-2,0.8
					c2.6,0,5.1-2.3,5-5C43.1,127.6,41,125.3,38.2,125.3L38.2,125.3z"/>
			</g>
		</g>
		<g>
			<g>
				<path class="st18" d="M44.5,132.5c0.1-0.2,0.2-0.5,0.4-0.7c-1,0.8-2,1.5-3,2.3c-2.3-0.8-2.8-0.5-1.2,0.8c0.3,0.3,0.7,0.5,1,0.8
					c0.5,0.4,1,0.7,1.5,1c1,0.6,0.8,0.3-0.4-1.1c0,2.5,1.3,4.9,3.6,6c4,2,12.8,1.5,16.2-1.6c1.7-1.5,1.7-4.1,0.8-6.1
					c0-0.1-0.1-0.1-0.1-0.2c-2.6,2-5.2,4-7.9,6.1c2.7,2.9,4.4,6.2,4.7,10.1c1.2-1.6,2.4-3.2,3.7-4.8c-6.5,1.8-13.8,1-20.4,1
					c-3.5,0-7,0-10.5,0c-1.7,0-3.5,0.1-5.2,0c-1.7-0.1-2.4-0.9-3,0.7c-0.9,2.2,2.6,0.1,3.9,0.3c0.5-0.8,1-0.6,1.3,0.6
					c0.3,0.3,0.7,0.5,1,0.8c2.1,1.4,5.1,1.2,7.5,1.1c4.5-0.2,11.9-0.1,13.4-5.6c2.7-9.7-20.8-14-18.4-2.4c1,5,6.6,6.5,10.9,6.2
					c1.8-0.1,3.4-0.7,5.2-0.2c1.5,0.4,2.4,1.1,4,1.3c2.6,0.3,4.5-0.5,6.3-2.3c4.7-4.5-2.4-11.5-7.1-7.1c1.2-1.1,2.9-0.4-0.2-1.5
					c-1.1-0.4-2.3-0.7-3.5-0.7c-1.4-0.1-6.6-0.1-6,1.6c-0.2,1.3-0.3,2.6-0.5,3.9c0.1-0.2,0.2-0.5,0.4-0.7c-1.4,0.8-2.9,1.7-4.3,2.5
					c0.9-0.1,1.8,0,2.7,0.4c1.6,0.8,2,0.9,1.4,0.2c0-1.7,0-3.4,0-5c-0.2,0.3-0.4,0.5-0.6,0.8c1-0.8,2-1.5,3-2.3
					c-2.1,0.7-4.4,0.8-6.7,0.9c-1.2,0-2.3,0-3.5,0c2.4,1.6,2.8,1.6,1.4,0.1c-2.7-2.6-7.3-2.8-10.8-2.3c-6.6,0.9-14.5,7.1-9.2,14.2
					c4.9,6.4,15.3,4.6,22.2,4.6c9.1,0,19,1.1,27.8-1.3c2-0.5,3.9-2.7,3.7-4.8c-0.6-6.7-3-12.3-7.7-17.2c-4.1-4.3-10.3,1.1-7.9,6.1
					c0,0.1,0.1,0.1,0.1,0.2c0.3-2,0.5-4,0.8-6.1c0.7-0.7-4.6-0.3-4.8-0.5c0.8,1,1.5,2,2.3,3c-0.5-2.2-0.5-3.9-2.2-5.7
					c-1.3-1.4-3.3-2.8-4.8-4c-3.2-2.6-8.1-2.1-10,1.7C33,133.2,41.6,138.3,44.5,132.5L44.5,132.5z"/>
			</g>
		</g>
		<g>
			<g>
				<path class="st18" d="M127.5,135.1c-6,2.5-15.5,9.2-9.8,16.5c5.1,6.5,15.4,5.5,22.6,4.9c8.7-0.8,18.1,1,26.7-0.9
					c6.5-1.4,11.6-8.1,6.7-14.2c-1-1.2-2.2-2.1-3.5-2.8c-0.8-0.4-1.6-0.8-2.3-1.2c-0.6-0.3-0.8-0.9-0.6-1.7c-2.1-3.3-4-4.5-8-4.1
					c-1,0.1-3.9,1.1-4.6,0.7c-1.2-0.6-1.6-3.4-2.2-4.3c-1.9-2.9-5.4-4.2-8.8-4.2c-7.3,0.1-12.8,6.7-11.9,13.8
					c1.2,9.1,10.1,7.4,16.2,4c3-1.7,3.5-7.1,0-8.6c-6.7-2.9-14.9,2.7-20.2,6.7c-4,3.1-2.6,8.7,2.5,9.3c9.8,1.1,19.6-1.2,29.4-0.2
					c6.4,0.6,6.4-9.4,0-10c-9.8-0.9-19.6,1.3-29.4,0.2c0.8,3.1,1.7,6.2,2.5,9.3c3.8-2.9,8.2-5.7,12.9-6.6c-1.3-0.2-2.6-0.3-3.9-0.5
					c0.3,0.1,0.7,0.3,1,0.4c0-2.9,0-5.8,0-8.6c-0.8,0.4-3.1,1.8-4.1,1.6c1,0.8,2,1.5,3,2.3c-0.7-1-0.2-2.3,0.9-2.7
					c1.5-0.6,1.1,0,2,1c1.6,1.9,2.3,4,4.4,5.6c4.1,3.2,8.1,0.4,12.7,0.7c-1.2-0.5-2.4-1-3.5-1.5c0.2,0.2,0.5,0.4,0.7,0.5
					c-0.5-1.2-1-2.4-1.5-3.5c0.2,4.1,1.9,6.9,5.4,9c0.6,0.3,1.2,0.6,1.7,0.9c0.6,0.5,0.8,0.4,0.8-0.5c1.6-1.3-4-0.2-3.2-0.3
					c-2.7,0.2-5.4,0-8-0.1c-5.6-0.3-11,0.2-16.6,0.6c-2.9,0.2-6,0.5-8.8-0.1c-1.2-0.3-2.2-0.7-3.3-1.2c0.6,1.5,1.4,1.8,2.2,0.8
					c0.8-0.6,1.6-1.1,2.5-1.4C136,142.4,133.5,132.7,127.5,135.1L127.5,135.1z"/>
			</g>
		</g>
		<g>
			<g>
				<path class="st18" d="M127.2,145.7c6.4,0,6.4-10,0-10C120.7,135.7,120.7,145.7,127.2,145.7L127.2,145.7z"/>
			</g>
		</g>
	</g>
	<g>
		<g>
			<path class="st0" d="M95,65.7c-43.6,0-78.9,32.2-81.4,73.7c-4.5,5.3-3.7,13.3,1.9,17.8c2.1,1.9,5.1,2.9,8,2.5h39.9
				c7,0.4,12.8-5.4,12.6-12.3l0,0c0-3.5-1.3-6.7-3.7-9c3.7-12.5,16.9-19.7,29.4-16c7.8,2.4,13.9,8.2,16.1,16c-5.1,5.1-4.8,13,0,17.8
				c2.4,2.4,5.4,3.7,8.8,6.2h39.9c7-2.5,12.8-8.3,12.6-15.3c0-2.9-1.1-5.6-2.9-8C173.9,97.9,138.3,65.7,95,65.7z M95,71
				c37.5,0,68.5,25.8,74.9,60.1l-0.3-0.3l-0.8-0.8l-0.5-0.5c-0.3-0.3-0.8-0.5-1.1-0.5l-0.5-0.3l-1.3-0.5l-0.5-0.4h-0.5
				c-8-30.6-36.7-52.4-69.3-52.4c-33.7,0-63.2,23.4-69.6,55.1h-0.5l0,0c-0.5,0.2-1.6,2.7-1.6,2.7H23c0,0-1.1-2-1.6-1.7l0,0
				c-0.5,0.3-1.1,0.5-1.3,0.8l0,0C25.4,97.3,57,71,95,71z M130.8,128.2c-9.6-19.7-33.5-27.9-53.3-18.4c-7.8,3.7-14.2,10.1-18.2,17.8
				c-1.9,0-3.5,0.3-5.1,1.1c0-0.3-0.3-0.5-0.5-1.1C63.9,105,90.7,94.9,113.4,105c8.6,3.7,15.8,10.1,20.6,18.4
				C132.4,124.7,131.4,126.3,130.8,128.2z M138.6,120.5C129.5,105,112.9,95.7,95,95.7c-19,0-36.4,10.4-45,27.1
				c-1.3-1.1-2.7-1.9-4.3-2.4c9.6-18.1,28.6-29.5,49.2-29.3c20.3-0.3,39.1,10.6,49,28.5C142.1,119.7,140.2,119.9,138.6,120.5z
				 M150.6,121.5C141,99.5,119,85.6,95,85.9c-23.3-0.3-44.7,13-54.9,33.8c-2.1,0-4.3,0.5-6.2,1.6c14.2-33.5,53-49.2,86.7-35.1
				c18.2,7.7,32.1,23.1,37.7,42c-0.3,0-0.5,0.3-1.1,0.5C156.2,125.5,153.8,122.9,150.6,121.5z M62.4,154.3H24.1
				c-3.9,0-6.9-3.3-6.9-7.7c0-1.9,0.8-3.8,2.1-5.2c0.5-0.8,1.3-1.4,2.1-1.6c0.8-0.3,1.5-1.4,1.5-2.2c0-0.3,0.3-0.5,0.3-0.8
				c0,0,0-0.3,0.3-0.3l0.3-0.3c0.3-0.3,0.5-0.5,0.5-0.5h-0.6l0.5,2.7h0.5c0,0,1.1-2,1.6-1.7c0.3,0.3,0.8,0.5,1.1,0.8
				c0.8,1.3,2.7,1.6,3.7,0.5c0.8-0.5,1.1-1.3,2-2.1v-2.4c-1.2-4.5,2.6-8.2,7.1-8.4h0.3h0.8c2.9,0.4,5.4,2,7,4.4c0.8,1.3,0.9,4,0.9,4
				v1.7c0,1.6,1.3,2.7,2.6,2.7c1.5,0,2.6-1.4,2.6-2.7c0-3.3,3.3-3.3,4.1-3.3c0.3,0,0.8,0,1,0.3c1.8,0.5,3.1,2.2,3.1,4.4v0.5
				c0,1.1,0.8,2.2,1.8,2.7c0.8,0.3,1.5,0.5,2.1,1.1l0,0c3.1,2.5,3.9,7.1,1.5,10.7C66.8,153,64.7,154.3,62.4,154.3L62.4,154.3z
				 M95,116.3c-11.8,0-22.2,6.7-26.8,17.3l0,0c-0.3-0.5-0.5-1.1-1.1-1.6l-0.3-0.3c-0.3-0.5-0.8-0.8-1.1-1.3h-0.3l-0.8-0.8
				c9.1-16.8,30-22.9,46.8-13.8c6.4,3.5,11.5,8.8,14.7,15.4c-1.1,0.3-2.4,0.8-3.2,1.6l-0.3,0.3l-0.5,0.5l-0.3,0.3
				C117.4,123.2,106.7,116.3,95,116.3z M166,154.3h-41c-4.3,0-7.7-3.2-7.7-7.4c0-2.4,1.1-4.5,3.4-5.9c0.6-0.3,0.9-0.5,1.4-0.8
				c0.9-0.3,1.7-1.1,1.7-2.1c0-0.5,0.3-0.8,0.6-1.1l0,0c0.6-0.5,1.1-1.1,2-1.3h0.3c0.3,0,0.9,0,1.1,0h0.3c0.6,0.3,0.9,0.5,1.4,1.1
				c0.3,0.3,0.3,0.5,0.6,0.5c1.1,0.8,3.1,0.5,4-0.5c0.3-0.5,0.6-1.1,0.6-1.6v-2.4c0-2.7,1.4-5.3,4-6.9c2.8-1.6,6.2-1.9,9.1-0.5
				c3.4,1.1,5.7,4.3,5.7,7.4v3.4c0,1.6,1.3,2.6,2.6,2.6s2.6-1.3,2.6-2.6c0-2.6,2.6-3.1,3.6-3.1h0.5c2.3,0,4.1,1.8,4.1,4.2l0,0v0.5
				c0,1,0.8,2.1,1.8,2.6c1,0.3,2.1,1,2.8,1.8c1.3,1.3,2.1,3.1,2.1,4.9C172.9,151,169.9,154.3,166,154.3z"/>
		</g>
		<g>
			<g>
				<path class="st0" d="M29.1,135.7c-2.9-0.9-6.1-0.5-8.7,1c-0.7,0.4-1,1.4-0.5,2.1c0.4,0.7,1.3,1,2.1,0.5c0.3-0.2,0.6-0.3,0.9-0.5
					c-0.3,0.1,0.1,0,0.1,0c0.2-0.1,0.3-0.1,0.5-0.2c0.3-0.1,0.6-0.2,0.9-0.2c0.2,0,0.3-0.1,0.5-0.1c0.2,0,0.2,0,0,0
					c0.1,0,0.1,0,0.2,0c0.6-0.1,1.2-0.1,1.8,0c0.1,0,0.6,0.1,0.2,0c0.1,0,0.2,0,0.4,0.1c0.3,0.1,0.7,0.1,1,0.2
					c0.8,0.2,1.7-0.3,1.8-1C30.3,136.7,29.9,135.9,29.1,135.7L29.1,135.7z"/>
			</g>
		</g>
		<g>
			<g>
				<path class="st0" d="M26,130c-1.3,0.3-2.6,0.5-3.9,1c-1.4,0.5-2.7,1.2-3.9,2.1c-0.6,0.5-0.6,1.6,0,2.1c0.7,0.6,1.5,0.5,2.1,0
					c-0.3,0.2,0.1-0.1,0.2-0.1c0.1-0.1,0.3-0.2,0.4-0.3c0.3-0.2,0.5-0.3,0.8-0.5c0.1-0.1,0.3-0.1,0.4-0.2c0.2-0.1,0.1-0.1,0,0
					c0.1,0,0.1-0.1,0.2-0.1c0.3-0.1,0.6-0.2,0.8-0.3c1.2-0.4,2.4-0.6,3.7-0.9c0.8-0.2,1.3-1.1,1-1.8C27.6,130.2,26.8,129.8,26,130
					L26,130z"/>
			</g>
		</g>
	</g>
</g>
<g id="Capa_8" class="st6">
	<g class="st11">
		<g transform="translate(0,-1036.3622)">
			<g transform="translate(0,0.0198085)">
				<g transform="translate(1100.5659,-21.019708)">
					<g transform="translate(-116.0644,4.9999995)">
						<path class="st19" d="M-862.6,1105.7h-4.9c-6.5,1.1-12,1.2-18.5,4.4c-21.7,9.8-33.7,32.6-30.4,55.4c0,0,0,0,0,0h3.7h-12.2
							h-22.3c0,0,0,0,0,0l21.3-22.3c0,0,0,0,0,0l-8.1-8.1c0,0,0,0,0,0l-34.5,35.5c0,0,0,0,0,0l34.5,35.5c0,0,0,0,0,0l8.1-8.1
							c0,0,0,0,0,0l-21.3-22.3c0,0,0,0,0,0h22.3h12.2c8.1,0,14.2,3,17.2,7.1c4.1,4.1,6.1,10.1,6.1,12.2v31.5c0,0,0,0,0,0h10.1
							c0,0,0,0,0,0v-25.2c0,0,0,0,0,0c17.5,7,37.8,1,50.7-15.1c13.8-18.1,13.4-43.3,0.5-62.4c0,0,0,0,0,0
							C-843.4,1108.9-846,1107.9-862.6,1105.7C-862.6,1105.7-862.6,1105.7-862.6,1105.7z M-862.1,1119.2c11.2,1,21.3,6.1,28.4,15.2
							c11.2,15.2,11.2,35.5-1,49.7c-12.2,14.2-31.4,17.2-47.6,10.2c0,0,3.3,0.6,3.3,0.6c0-6.1-3.9-12.9-10-19c-3-3-9.9-8-15-10
							c-4.1-18.3,4.4-35.5,20.6-42.6C-875.3,1119.2-868.2,1118.1-862.1,1119.2z M-869.1,1135.2
							C-869.1,1135.2-869.1,1135.2-869.1,1135.2l0,17.5v13c0,0,0,0,0,0h30.4c0,0,0,0,0,0v-10.1c0,0,0,0,0,0h-20.3c0,0,0,0,0,0v-20.3
							c0,0,0,0,0,0H-869.1z"/>
					</g>
				</g>
			</g>
		</g>
	</g>
</g>
</svg>
