<?xml version="1.0" encoding="utf-8"?>
<!-- Generator: Adobe Illustrator 24.1.1, SVG Export Plug-In . SVG Version: 6.00 Build 0)  -->
<svg version="1.1" id="Capa_1" xmlns="http://www.w3.org/2000/svg" xmlns:xlink="http://www.w3.org/1999/xlink" x="0px" y="0px"
	 viewBox="0 0 70 70" style="enable-background:new 0 0 70 70;" xml:space="preserve">
<g>
	<g>
		<path d="M22.6,68c-0.4,0-0.8-0.1-1.1-0.2c-0.9-0.4-1.5-1.1-1.8-2.1l-2.7-11.9c-0.1-0.4-0.4-0.6-0.7-0.7L4.3,50.3
			c-0.9-0.2-1.7-0.9-2.1-1.8c-0.4-0.9-0.3-1.9,0.2-2.7l6.5-10.4c0.2-0.3,0.2-0.7,0-1L2.5,24.1c-0.5-0.8-0.6-1.8-0.2-2.7
			c0.4-0.9,1.1-1.5,2.1-1.8l11.9-2.7c0.4-0.1,0.6-0.4,0.7-0.7l2.7-11.9c0.2-0.9,0.9-1.7,1.8-2.1c0.9-0.4,1.9-0.3,2.7,0.2l10.4,6.5
			c0,0,0,0,0,0c0.3,0.2,0.7,0.2,1,0l10.4-6.5c0.8-0.5,1.8-0.6,2.7-0.2c0.9,0.4,1.5,1.1,1.8,2.1l2.7,11.9c0.1,0.4,0.4,0.6,0.7,0.7
			l11.9,2.7c0.9,0.2,1.7,0.9,2.1,1.8c0.4,0.9,0.3,1.9-0.2,2.7l-6.5,10.4c-0.2,0.3-0.2,0.7,0,1l6.5,10.4c0.5,0.8,0.6,1.8,0.2,2.7
			c-0.4,0.9-1.1,1.5-2.1,1.8l-11.9,2.7c-0.4,0.1-0.6,0.4-0.7,0.7l-2.7,11.9c-0.2,0.9-0.9,1.7-1.8,2.1c-0.9,0.4-1.9,0.3-2.7-0.2
			l-10.4-6.5c-0.3-0.2-0.7-0.2-1,0l-10.4,6.5C23.6,67.8,23.1,68,22.6,68z M22.6,4c-0.1,0-0.2,0-0.4,0.1c-0.3,0.1-0.5,0.4-0.6,0.7
			l-2.7,11.9c-0.3,1.1-1.1,2-2.2,2.2L4.7,21.6c-0.3,0.1-0.6,0.3-0.7,0.6C4,22.5,4,22.8,4.1,23.1l6.5,10.4c0.6,1,0.6,2.2,0,3.1
			L4.1,46.9C4,47.2,4,47.5,4.1,47.8c0.1,0.3,0.4,0.5,0.7,0.6l11.9,2.7c1.1,0.3,2,1.1,2.2,2.2l2.7,11.9c0.1,0.3,0.3,0.6,0.6,0.7
			c0.3,0.1,0.6,0.1,0.9-0.1l10.4-6.5c1-0.6,2.2-0.6,3.1,0l10.4,6.5c0.3,0.2,0.6,0.2,0.9,0.1c0.3-0.1,0.5-0.4,0.6-0.7l2.7-11.9
			c0.3-1.1,1.1-2,2.2-2.2l11.9-2.7c0.3-0.1,0.6-0.3,0.7-0.6c0.1-0.3,0.1-0.6-0.1-0.9l-6.5-10.4c-0.6-1-0.6-2.2,0-3.1l6.5-10.4
			c0.2-0.3,0.2-0.6,0.1-0.9c-0.1-0.3-0.4-0.5-0.7-0.6l-11.9-2.7c-1.1-0.3-2-1.1-2.2-2.2L48.4,4.7c-0.1-0.3-0.3-0.6-0.6-0.7
			C47.5,4,47.2,4,46.9,4.1l-10.4,6.5c-1,0.6-2.2,0.6-3.1,0L23.1,4.1C22.9,4,22.7,4,22.6,4z"/>
	</g>
	<g>
		<path d="M35,54.3c-10.6,0-19.3-8.7-19.3-19.3S24.4,15.7,35,15.7S54.3,24.4,54.3,35S45.6,54.3,35,54.3z M35,17.7
			c-9.5,0-17.3,7.8-17.3,17.3S25.5,52.3,35,52.3S52.3,44.5,52.3,35S44.5,17.7,35,17.7z"/>
	</g>
	<g>
		<g>
			<g>
				<path d="M41.3,32.7c-2,0-3.7-1.7-3.7-3.7s1.7-3.7,3.7-3.7S45,27,45,29S43.4,32.7,41.3,32.7z M41.3,27.3c-0.9,0-1.7,0.8-1.7,1.7
					s0.8,1.7,1.7,1.7S43,29.9,43,29S42.3,27.3,41.3,27.3z"/>
			</g>
			<g>
				<path d="M28.6,32.7c-2,0-3.7-1.7-3.7-3.7s1.7-3.7,3.7-3.7s3.7,1.7,3.7,3.7S30.7,32.7,28.6,32.7z M28.6,27.3
					c-0.9,0-1.7,0.8-1.7,1.7s0.8,1.7,1.7,1.7s1.7-0.8,1.7-1.7S29.6,27.3,28.6,27.3z"/>
			</g>
		</g>
		<g>
			<g>
				<path d="M35,48.3c-5.6,0-10.1-4.1-10.1-9.1c0-0.6,0.4-1,1-1s1,0.4,1,1c0,3.9,3.6,7.1,8.1,7.1c4.5,0,8.1-3.2,8.1-7.1
					c0-0.6,0.4-1,1-1s1,0.4,1,1C45.1,44.2,40.6,48.3,35,48.3z"/>
			</g>
			<g>
				<path d="M46.1,40.5c0,0-0.1,0-0.1,0L42.1,40c-0.5-0.1-0.9-0.6-0.9-1.1s0.6-0.9,1.1-0.9l3.9,0.5c0.5,0.1,0.9,0.6,0.9,1.1
					C47,40.1,46.6,40.5,46.1,40.5z"/>
			</g>
			<g>
				<path d="M23.9,40.5c-0.5,0-0.9-0.4-1-0.9c-0.1-0.5,0.3-1,0.9-1.1l3.9-0.5c0.6-0.1,1,0.3,1.1,0.9s-0.3,1-0.9,1.1L24,40.5
					C24,40.5,23.9,40.5,23.9,40.5z"/>
			</g>
		</g>
	</g>
</g>
</svg>
