<?xml version="1.0" encoding="utf-8"?>
<!-- Generator: Adobe Illustrator 24.1.1, SVG Export Plug-In . SVG Version: 6.00 Build 0)  -->
<svg version="1.1" id="Capa_1" xmlns="http://www.w3.org/2000/svg" xmlns:xlink="http://www.w3.org/1999/xlink" x="0px" y="0px"
	 viewBox="0 0 100 100.2" style="enable-background:new 0 0 100 100.2;" xml:space="preserve">
<path d="M61.2,3.6c0-1.4,1.1-2.4,2.4-2.4h8.7c10.6,0,19.1,8.6,19.1,19.1v12.4l3.2-3.2c0.9-0.9,2.4-0.9,3.5,0c0.9,0.9,0.9,2.4,0,3.5
	l-7.3,7.3c-0.5,0.5-1.1,0.8-1.7,0.8c-0.6,0-1.2-0.3-1.7-0.8L80.1,33c-0.9-0.9-0.9-2.4,0-3.5c0.9-0.9,2.4-0.9,3.5,0l3.2,3.2V20.3
	c0-7.8-6.4-14.2-14.2-14.2h-8.7C62.2,6.1,61.2,5,61.2,3.6z M1.2,46.6V3.9c0-1.4,1.1-2.4,2.4-2.4h42.7c1.4,0,2.4,1.1,2.4,2.4v42.7
	c0,1.4-1.1,2.4-2.4,2.4H3.6C2.2,49.1,1.2,48,1.2,46.6z M6.1,44.2h37.8V6.4H6.1V44.2z M16.6,70.5c0.5,0.5,1.1,0.8,1.7,0.8
	c0.6,0,1.2-0.3,1.7-0.8c0.9-0.9,0.9-2.4,0-3.5l-7.3-7.3c-0.5-0.5-1.1-0.8-1.7-0.8s-1.2,0.3-1.7,0.8L1.9,67c-0.9,0.9-0.9,2.4,0,3.5
	c0.9,0.9,2.4,0.9,3.5,0l3.2-3.2v12.4c0,10.6,8.6,19.1,19.1,19.1h8.7c1.4,0,2.4-1.1,2.4-2.4c0-1.4-1.1-2.4-2.4-2.4h-8.7
	c-7.8,0-14.2-6.4-14.2-14.2V67.3L16.6,70.5z M51.2,96.1V53.4c0-1.4,1.1-2.4,2.4-2.4h42.7c1.4,0,2.4,1.1,2.4,2.4v42.7
	c0,1.4-1.1,2.4-2.4,2.4H53.7C52.3,98.5,51.2,97.4,51.2,96.1z M56.1,93.6h37.8V55.8H56.1V93.6z"/>
</svg>
